/* XPM */
static char *dummy[]={
"32 32 223 2",
"Qt c None",
"#H c #000204",
".# c #000305",
".e c #000507",
"aU c #000508",
".d c #00080c",
"bw c #000a0f",
".I c #000b0f",
".U c #000d12",
".s c #001118",
"aO c #00121b",
".a c #00141e",
"b# c #001621",
"bC c #001722",
".b c #001824",
".c c #001924",
"aI c #001e2d",
"#I c #001f2e",
"ba c #002030",
"bf c #002130",
".t c #002131",
"#1 c #002a3d",
"aD c #002b3f",
"bk c #003751",
"a7 c #003954",
".8 c #004059",
".f c #003a56",
".7 c #004561",
".D c #004160",
"aA c #004260",
"bv c #004361",
"bp c #004463",
"bo c #004869",
".J c #004a6c",
"#d c #004a6d",
"#c c #004c6e",
"#b c #004d6f",
"#a c #004e70",
"## c #005071",
"#. c #005172",
".9 c #005273",
".C c #005377",
"a0 c #005278",
"ax c #005a84",
"ar c #005e8b",
"#J c #006898",
"aV c #00699a",
".r c #0072a3",
".H c #0076a7",
".T c #007bac",
"bB c #0070a4",
"aP c #0075ac",
"b. c #0079b2",
"a6 c #017cb5",
".6 c #0090c8",
"#2 c #0081bd",
"bl c #0082be",
"aJ c #0082be",
"be c #0084c1",
".u c #0085c3",
".g c #018dce",
"#B c #038dce",
"aE c #008ed0",
"bq c #0691d1",
"bg c #0394d7",
".q c #069cdc",
"bu c #149cdb",
".E c #0095da",
"#C c #0096db",
"#F c #0097db",
"#G c #0098dc",
"#K c #0099dd",
".X c #009ee1",
".Y c #00a0e3",
".Z c #00a2e4",
".0 c #00a4e6",
".1 c #00a5e7",
".2 c #00a7e8",
".W c #019cdf",
"a5 c #0496da",
"aM c #0599dc",
"bj c #0697da",
"bA c #0a99db",
".3 c #0eacea",
".h c #0f9bdc",
"ay c #0fa2e1",
"#E c #119cdc",
".i c #149ddc",
"bx c #149ddd",
".j c #149edd",
".k c #149fde",
".l c #14a0de",
"by c #14a0df",
"bz c #14a1df",
".m c #14a1e0",
".n c #14a2e0",
".o c #14a2e1",
".p c #14a3e1",
"bb c #1a9fdd",
"#z c #1ba0dd",
"aS c #1da2de",
"av c #21a9e3",
"aH c #22a6e1",
".B c #23abe5",
"ao c #24afe8",
"bn c #2aa6df",
"#y c #2aa6e0",
"#x c #2aa8e2",
"#3 c #2aaae2",
"#w c #2aaae3",
"#v c #2aade5",
"#u c #2aafe6",
"#t c #2ab1e8",
"#s c #2ab3ea",
"#r c #2ab5eb",
"#q c #2ab6ec",
"#p c #2ab7ed",
"a8 c #2ca7e0",
"aZ c #2fa8e0",
"ap c #33b2e8",
".V c #39b0e4",
"aY c #3aade2",
"as c #3fafe2",
"aB c #3fb3e6",
"#4 c #3fb5e8",
"#5 c #3fb8ea",
"#6 c #3fbaec",
"an c #3fbced",
"#7 c #3fbdee",
"am c #3fbeef",
"#o c #3fbfef",
"#8 c #3fc0f0",
"al c #3fc1f1",
"#9 c #40c2f1",
"ak c #42c3f2",
"a. c #44c4f2",
"a1 c #46b2e4",
"aj c #47c6f3",
"a# c #48c6f3",
"ai c #4ac7f3",
"aa c #4dc8f3",
"ah c #4fcaf3",
"ab c #50caf3",
"ag c #52ccf4",
"aC c #54bbe8",
"ac c #54ccf4",
"a4 c #56b8e6",
"af c #56cdf4",
"ad c #56cef4",
"ae c #57cef4",
"aW c #62bee8",
"aG c #71c7ec",
".v c #72c4ea",
"aT c #74c5ea",
"au c #77ccef",
".G c #77cdf0",
"bm c #7bc8eb",
".L c #7eccee",
".M c #7ecdef",
".N c #7ecef0",
".O c #7ecff1",
".P c #7ed0f1",
".Q c #7ed1f2",
"#A c #82cbec",
"aQ c #8dcfee",
".R c #8dd7f4",
"az c #8fd2f0",
"br c #91d1ee",
".K c #9bd6f1",
".A c #9bd9f3",
".5 c #a2dff6",
"aN c #a6d9f1",
"bh c #a9dbf2",
"#g c #aadff5",
"#h c #aadff6",
"#i c #aae0f6",
"#j c #aae1f7",
"#k c #aae2f7",
"#f c #abdff5",
"aL c #afdff4",
"bt c #b4dff4",
"aK c #b7e1f4",
"aq c #b7e3f6",
".4 c #b8e6f8",
"#l c #b8e7f9",
".w c #b9e2f4",
"#D c #bbe2f5",
".x c #bfe4f5",
"bs c #bfe4f6",
".y c #bfe5f6",
".z c #bfe6f7",
"#L c #bfe7f7",
"#M c #bfe8f8",
"#Y c #bfe8f9",
"#N c #bfe9f9",
"#O c #bfe9fa",
"#P c #bfeafa",
"#Z c #c0e8f8",
"#Q c #c0ebfa",
"#X c #c1ebfb",
"#R c #c2ecfb",
"#S c #c3ecfb",
"bc c #c4e6f6",
"#T c #c4edfb",
"#W c #c5edfb",
"#U c #c5eefb",
"bd c #c6e7f6",
"#V c #c6eefb",
"aR c #c7e8f7",
"#e c #c7e9f7",
"aw c #cbeaf8",
"a9 c #d6edf8",
"#0 c #ddf2fb",
".S c #e2f4fc",
"aX c #e4f4fb",
"aF c #e9f6fb",
"#n c #e9f7fd",
"a2 c #f0f8fc",
"at c #f0f9fd",
"#m c #f0fafd",
"bi c #f7fbfd",
"a3 c #f9fcfe",
".F c #ffffff",
"QtQtQtQtQtQtQtQtQtQtQtQtQtQtQtQtQtQtQtQtQtQtQtQtQtQtQtQtQtQtQtQt",
"QtQtQtQtQtQtQtQtQtQtQtQtQtQtQtQtQtQtQtQtQtQtQtQtQtQtQtQtQtQtQtQt",
"QtQtQtQtQtQtQtQtQtQtQtQtQtQtQtQtQtQtQtQtQtQtQtQtQtQtQtQtQtQtQtQt",
"QtQtQtQtQtQtQtQtQtQtQtQtQtQtQtQtQtQtQtQtQtQtQtQtQtQtQtQtQtQtQtQt",
"QtQtQtQtQtQtQtQtQtQtQtQtQtQtQtQtQtQtQtQtQtQtQtQtQtQtQtQtQtQtQtQt",
"QtQtQtQt.#.a.b.b.b.b.b.b.b.c.c.c.dQtQtQtQtQtQtQtQtQtQtQtQtQtQtQt",
"QtQt.e.f.g.h.i.i.i.j.k.l.m.n.o.p.q.r.sQtQtQtQtQtQtQtQtQtQtQtQtQt",
"QtQt.t.u.v.w.x.x.x.x.y.y.y.z.z.z.A.B.CQtQtQtQtQtQtQtQtQtQtQtQtQt",
"QtQt.D.E.F.F.F.F.F.F.F.F.F.F.F.F.F.G.H.IQtQtQtQtQtQtQtQtQtQtQtQt",
"QtQt.J.E.F.F.K.L.M.N.O.P.Q.Q.R.S.F.Q.T.UQtQtQtQtQtQtQtQtQtQtQtQt",
"QtQt.J.E.F.F.V.W.X.Y.Z.0.1.2.3.4.F.5.6.7.8.9#.###a#b#c#d.J.D.t.e",
"QtQt.J.E.F.F#e#f#g#h#i#j#j#k#l#m.F#n#o#p#q#r#s#t#u#v#w#x#y#z.u.f",
"QtQt.J.E.F.F.F.F.F.F.F.F.F.F.F.F.F.F.F.F.F.F.F.F.F.F.F.F.F.F#A#B",
"QtQt.J#C.F.F.F.F.F.F.F.F.F.F.F.F.F.F.F.F.F.F.F.F.F.F.F.F.F.F#D#E",
"QtQt.J#F.F.F.F.F.F.F.F.F.F.F.F.F.F.F.F.F.F.F.F.F.F.F.F.F.F.F.x.i",
"QtQt#d#G.F.F.F.F.F.F.F.F.F.F.F.F.F.F.F.F.F.F.F.F.F.F.F.F.F.F.x.i",
"#H#I#J#K.z#L#M#N#O#P#Q#R#S#T#U#V#V#V#W#T#R#X#Q#P#N#Y#Z#0.F.F.x.i",
"#1#2.k#3#4#5#6#7#8#9a.a#aaabacadaeafagahaiajakalamanaoapaq.F.x.i",
"aras.F.F.F.F.F.F.F.F.F.F.F.F.F.F.F.F.F.F.F.F.F.F.F.Fatauavaw.x.i",
"axas.F.F.F.F.F.F.F.F.F.F.F.F.F.F.F.F.F.F.F.F.F.F.F.F.Fatayaz.x.i",
"aA.i.F.F.F.F.F.F.F.F.F.F.F.F.F.F.F.F.F.F.F.F.F.F.F.F.F.FaBaC.x.i",
"aDaEaF.F.F.F.F.F.F.F.F.F.F.F.F.F.F.F.F.F.F.F.F.F.F.F.F.FaGaH.x.i",
"aIaJaK.F.F.F.F.F.F.F.F.F.F.F.F.F.F.F.F.F.F.F.F.F.F.F.F.FaLaMaN.i",
"aOaPaQ.F.F.F.F.F.F.F.F.F.F.F.F.F.F.F.F.F.F.F.F.F.F.F.F.FaRaSaT.i",
"aUaVaW.F.F.F.F.F.F.F.F.F.F.F.F.F.F.F.F.F.F.F.F.F.F.F.F.FaXaYaZ.h",
"Qta0a1a2.F.F.F.F.F.F.F.F.F.F.F.F.F.F.F.F.F.F.F.F.F.F.F.Fa3a4a5a6",
"Qta7a8a9.F.F.F.F.F.F.F.F.F.F.F.F.F.F.F.F.F.F.F.F.F.F.F.F.FaQb.b#",
"Qtbabbbc.F.F.F.F.F.F.F.F.F.F.F.F.F.F.F.F.F.F.F.F.F.F.F.F.Fbdbebf",
"Qt.dbgbh.F.F.F.F.F.F.F.F.F.F.F.F.F.F.F.F.F.F.F.F.F.F.F.F.Fbibjbk",
"QtQtblbm.F.F.F.F.F.F.F.F.F.F.F.F.F.F.F.F.F.F.F.F.F.F.F.F.F.Fbnbo",
"QtQtbpbqbr#D.x.x.xbs.y.y.z.z.z.z.z.z.z.z.y.y.ybs.x.x.x.x.xbtbubv",
"QtQtbwbo#B#E.i.ibx.j.kby.n.n.p.p.p.p.o.nbzby.j.j.i.i.i.i.ibAbBbC"};
