/* XPM */
static char *dummy[]={
"32 32 207 2",
"Qt c None",
".q c #000001",
"#y c #000305",
".9 c #000405",
"#z c #000508",
".I c #000608",
"ar c #000609",
"#r c #00080b",
"a2 c #00080c",
".# c #000a0f",
"bi c #000c11",
".h c #001018",
"aO c #001118",
".Y c #00131c",
".r c #001722",
"aC c #001823",
"aN c #001a27",
".g c #001c2a",
"a3 c #001e2b",
".a c #001f2d",
"bm c #002233",
"#c c #00293c",
"a4 c #002b3e",
"af c #002a3e",
"al c #002b3e",
"bc c #002c40",
".b c #002b3f",
".S c #002e43",
".H c #003046",
"av c #003248",
".c c #003148",
"a7 c #00344a",
"a5 c #00344b",
"a6 c #00354b",
".f c #00334b",
".B c #00344c",
"a1 c #00354e",
".J c #00405d",
"am c #00415e",
"aq c #00425f",
".d c #004260",
".e c #004463",
"bb c #004666",
".i c #004869",
"aP c #004c6d",
"#h c #004a6c",
"#M c #004b6c",
"#R c #004b6d",
".5 c #004e72",
"#3 c #004f73",
"a. c #004f74",
".s c #005b84",
"aD c #005f88",
"#n c #006391",
"#G c #006491",
"#L c #006492",
"#x c #006797",
"#F c #006898",
"a8 c #006c9b",
"#A c #00699a",
"bd c #006a9b",
"aQ c #00709f",
".j c #006b9d",
".Z c #0072a7",
"a# c #0075a9",
"ae c #0076aa",
".C c #0079b1",
"aw c #007fb5",
"bj c #0080bb",
".p c #0081bc",
"aR c #0089c2",
".k c #0083bf",
"#. c #0084c1",
"#W c #0086c3",
"#2 c #0087c3",
".P c #008bcb",
"an c #0090cf",
"ap c #0091cf",
"aS c #0097d6",
".t c #038ece",
"aE c #0396d4",
".l c #008fd1",
".o c #0090d1",
"aV c #009bdc",
"bl c #0593d4",
"be c #0d99d9",
"aT c #00a0e3",
"aU c #00a1e3",
".m c #0397db",
"aB c #039bde",
"ag c #0c9edf",
"ak c #0c9fe0",
".3 c #0cafec",
".T c #0e9bdc",
"as c #0ea1e1",
"bk c #0f9bdb",
".K c #0f9cdc",
"aM c #119fde",
"a9 c #11a2e0",
"ad c #11b5ef",
"#7 c #12b7f0",
"#8 c #13b7f0",
".6 c #159edd",
"#4 c #15a1e0",
"#9 c #15a2e0",
"#Z c #18b9f0",
"#0 c #18baf0",
"#p c #18baf1",
"#d c #1aa0de",
"#S c #1aa2df",
"#V c #1aa3df",
"#u c #1ebcf1",
"#v c #1ebdf1",
".n c #1fa3df",
".D c #22a4df",
"ax c #22abe4",
"#O c #22bff1",
"#P c #23bff2",
"#C c #23c0f2",
"#D c #24c0f2",
"#l c #26bdf1",
"#J c #26c1f2",
"aW c #2aaee6",
"a0 c #2ca7e0",
"bh c #2fa8e0",
"aF c #31b2e7",
".u c #34ace1",
".A c #34ace2",
"#i c #3aade2",
"#m c #3aaee3",
"#N c #3aafe3",
"#Q c #3aafe4",
".8 c #49c5f2",
"aj c #4ec7f3",
"b. c #50b9e8",
"#o c #54b9e7",
"#H c #54bae7",
"#K c #54bae8",
"aa c #59beea",
"bf c #62bde8",
".0 c #62bee8",
".4 c #62bfe8",
"#w c #62c0e9",
"#E c #62c0ea",
"at c #62c3ec",
".O c #64bfe9",
".v c #66c0e9",
".z c #66c1e9",
"aG c #66c6ee",
"#s c #69c2ea",
".L c #6bc2e9",
"## c #78c7eb",
"#X c #78c9ed",
".E c #89ceee",
"ay c #89d2f1",
"ah c #8bd2f0",
".U c #8dd0ee",
"ao c #8dd3f1",
".Q c #8fd1ee",
".X c #99dcf6",
".W c #a1dff7",
"au c #a2dbf3",
"bg c #abdcf2",
"aA c #addff4",
"aH c #ade0f5",
"#6 c #b0e7fa",
"#Y c #b1e7fa",
"#1 c #b1e8fa",
"#g c #b2e7fa",
"#q c #b2e8fa",
"ac c #b3e7f9",
"#t c #b3e8fa",
"aX c #b4e2f5",
"#U c #b4e8fa",
"#B c #b5e9fa",
".2 c #b6e7f9",
"#I c #b6eafa",
".w c #b7e2f4",
"aL c #bbe4f5",
"#k c #c3edfb",
"#e c #c4e7f6",
"#T c #c4e7f7",
".7 c #d2f0fb",
"b# c #d4edf9",
"aZ c #d6eef9",
"az c #dbf1fa",
"aI c #def2fb",
"ai c #def4fc",
".F c #dff2fa",
"aJ c #e2f4fb",
"ba c #e4f3fa",
"#j c #e4f4fb",
"#b c #e4f6fc",
".x c #e9f6fb",
"#5 c #e9f6fc",
"aY c #edf7fc",
"ab c #eff8fd",
".V c #eff9fd",
".N c #f0f9fc",
".1 c #f0f9fd",
".R c #f2f9fd",
"#f c #f5fbfe",
".M c #f7fbfd",
"aK c #f7fcfe",
".G c #fbfdfe",
"#a c #fdfefe",
".y c #ffffff",
"QtQtQtQtQtQtQtQtQtQtQtQtQtQtQtQtQtQtQtQtQtQtQtQtQtQtQtQtQtQtQtQt",
"QtQtQtQtQtQtQtQtQtQtQtQtQtQtQtQtQtQtQtQtQtQtQtQtQtQtQtQtQtQtQtQt",
"QtQtQtQtQtQtQtQtQtQtQt.#.a.b.c.d.e.f.b.g.#QtQtQtQtQtQtQtQtQtQtQt",
"QtQtQtQtQtQtQtQtQt.h.i.j.k.l.m.n.n.m.o.p.j.i.hQtQtQtQtQtQtQtQtQt",
"QtQtQtQtQtQt.q.r.s.t.u.v.w.x.y.y.y.y.x.w.z.A.t.s.r.qQtQtQtQtQtQt",
"QtQtQtQtQtQt.B.C.D.E.F.G.y.y.y.y.y.y.y.y.G.F.E.D.C.HQtQtQtQtQtQt",
"QtQtQtQt.I.J.K.L.M.y.y.y.y.y.y.y.y.y.y.y.y.y.y.N.O.K.J.IQtQtQtQt",
"QtQtQtQt.J.P.Q.R.y.y.y.y.y.y.y.y.y.y.y.y.y.y.y.y.R.Q.P.JQtQtQtQt",
"QtQt.q.S.T.U.y.y.y.y.y.y.y.y.V.W.X.V.y.y.y.y.y.y.y.y.U.T.S.qQtQt",
"QtQt.Y.Z.0.1.y.y.y.y.y.y.y.y.2.3.3.2.y.y.y.y.y.y.y.y.1.4.Z.YQtQt",
"QtQt.5.6.N.y.y.y.y.y.y.y.y.y.7.8.8.7.y.y.y.y.y.y.y.y.y.x.6.5QtQt",
"Qt.9#.##.y.y.y.y.y.y.y.y.y.y#a#b#b#a.y.y.y.y.y.y.y.y.y.y###.QtQt",
"Qt#c#d#e.y.y.y.y.y.y.y.y.y.y#f#g#g#f.y.y.y.y.y.y.y.y.y.y#e#d#cQt",
"Qt#h#i#j.y.y.y.y.y.y.y.y.y.y#k#l#l#k.y.y.y.y.y.y.y.y.y.y#j#m#hQt",
"Qt#n#o.y.y.y.y.y.y.y.y.y.y.y#g#p#p#q.y.y.y.y.y.y.y.y.y.y.y#o#nQt",
"#r.j#s.y.y.y.y.y.y.y.y.y.y.y#t#u#v#t.y.y.y.y.y.y.y.y.y.y.y#w#x#y",
"#z#A#s.y.y.y.y.y.y.y.y.y.y.y#B#C#D#B.y.y.y.y.y.y.y.y.y.y.y#E#F#y",
"Qt#G#H.y.y.y.y.y.y.y.y.y.y.y#I#J#J#I.y.y.y.y.y.y.y.y.y.y.y#K#LQt",
"Qt#M#N#j.y.y.y.y.y.y.y.y.y.y#B#O#P#B.y.y.y.y.y.y.y.y.y.y#j#Q#RQt",
"Qt#c#S#T.y.y.y.y.y.y.y.y.y.y#t#v#v#U.y.y.y.y.y.y.y.y.y.y#T#V#cQt",
"Qt.9#W#X.y.y.y.y.y.y.y.y.y.y#Y#Z#0#1.y.y.y.y.y.y.y.y.y.y#X#2QtQt",
"QtQt#3#4#5.y.y.y.y.y.y.y.y.y#6#7#8#6.y.y.y.y.y.y.y.y.y#5#9a.QtQt",
"QtQt.Ya#aaab.y.y.y.y.y.y.y.yacadadac.y.y.y.y.y.y.y.yabaaae.YQtQt",
"QtQt.qafagah.y.y.y.y.y.y.y.yaiajajai.y.y.y.y.y.y.y.yahakal.qQtQt",
"QtQtQtQtamanao.1.y.y.y.y.y.y.y.y.y.y.y.y.y.y.y.y.1aoapaqQtQtQtQt",
"QtQtQtQtaraqasat.1.y.y.y.y.y.y.y.y.y.y.y.y.y.y.yauasaqarQtQtQtQt",
"QtQtQtQtQtQtavawaxayaz.G.y.y.y.y.y.y.y.y.y.y.y.yaAaBarQtQtQtQtQt",
"QtQtQtQtQtQt.qaCaDaEaFaGaHaI.y.y.y.yaJaK.y.y.y.yaLaMaNQtQtQtQtQt",
"QtQtQtQtQtQtQtQtQtaOaPaQaRaSaTaUaUaTaVaWaXaY.y.yaZa0a1QtQtQtQtQt",
"QtQtQtQtQtQtQtQtQtQtQta2a3a4a5a6a6a5a7a8a9b.b#.yba#ibbQtQtQtQtQt",
"QtQtQtQtQtQtQtQtQtQtQtQtQtQtQtQtQtQtQtQtbcbdbebfbgbh.iQtQtQtQtQt",
"QtQtQtQtQtQtQtQtQtQtQtQtQtQtQtQtQtQtQtQtQtbi.ebjbkblbmQtQtQtQtQt"};
