/* XPM */
static char *dummy[]={
"32 32 281 2",
"Qt c None",
"cu c #000304",
"a5 c #00080b",
"br c #00080c",
".# c #000a0f",
".6 c #000c11",
"av c #000c12",
".i c #000e14",
"ce c #00141e",
"bO c #001621",
"bs c #001824",
"bt c #001924",
"b0 c #001c29",
"bu c #002433",
".j c #002d42",
"ct c #002e43",
"ck c #002f44",
"b6 c #003045",
"b1 c #002f45",
".k c #003148",
".l c #003249",
".m c #003349",
".n c #00334a",
".o c #00354d",
".u c #003850",
"c# c #003951",
"a9 c #004464",
".d c #004664",
"cl c #004665",
".4 c #004666",
"cp c #004869",
"bE c #005277",
".v c #00618d",
"be c #006291",
".a c #006391",
"cv c #006492",
"b7 c #006b99",
"bv c #006e9e",
"a6 c #006b9d",
"c. c #0074a6",
".7 c #006fa3",
"#A c #0070a3",
"#B c #0070a4",
"#U c #0071a4",
"ac c #0072a4",
"al c #0072a5",
"aH c #0073a6",
".p c #007bb0",
".t c #007db3",
"cj c #0084c0",
"bT c #008bc6",
"bU c #008eca",
"bX c #0092d0",
"bW c #0095d4",
".Q c #008ccd",
"cs c #038dce",
"cq c #038ece",
"cf c #0691d1",
"bF c #0696d5",
".w c #0090d3",
".b c #0392d5",
"bq c #0393d5",
".c c #0694d5",
"cw c #0695d6",
"b5 c #0a99d9",
"ca c #0a9ad9",
".x c #0095da",
".y c #0096db",
".z c #0098dc",
".A c #0099dd",
".J c #0099de",
".B c #009bde",
".C c #009cdf",
".D c #009de0",
".E c #009de1",
".I c #009ee1",
"#D c #00a0e3",
"#T c #00a1e3",
"#W c #00a1e4",
"aa c #00a2e4",
"a1 c #00a2e5",
"#E c #00a3e5",
"aZ c #00a4e5",
"#S c #00a4e6",
"#X c #00a5e6",
"a# c #00a5e7",
"#F c #00a6e7",
"ak c #00a6e8",
"#Y c #00a7e8",
"a. c #00a7e9",
"au c #00a8e9",
"#G c #00a9e9",
"#R c #00a9ea",
"aY c #00aaea",
"#Z c #00aaeb",
"#H c #00abeb",
"aI c #00abec",
"ad c #00acec",
"#0 c #00aced",
"#I c #00aded",
"at c #00aeed",
".N c #0195da",
"#Q c #01aeed",
"aJ c #01aeee",
"aj c #02aeed",
"aF c #02aeee",
"aP c #02afee",
"#J c #03afee",
".K c #0496da",
"#P c #04afee",
"as c #04b0ee",
"aw c #05b0ee",
"aS c #06b0ee",
"#K c #06b1ee",
"#1 c #07b1ee",
"#O c #07b1ef",
"#9 c #08b1ee",
"aX c #08b1ef",
"a0 c #09b2ee",
"#L c #09b2ef",
"bP c #0a9adc",
"bJ c #0aa6e5",
"#2 c #0ab3ef",
"#M c #0bb3ef",
"aE c #0cb3ef",
"#N c #0cb4ef",
"#3 c #0db4ef",
"#8 c #0eb4ef",
"ar c #0eb5ef",
"bZ c #0f9cdd",
"#4 c #0fb5ef",
"ax c #10b5ef",
"ai c #10b5f0",
"#7 c #10b6ef",
"#5 c #10b6f0",
"cr c #119cdc",
"#6 c #11b6f0",
"ae c #12b7f0",
"ah c #13b7f0",
"bf c #14a0df",
"bg c #14a2e0",
"bp c #14a2e1",
"bh c #14a5e2",
"bi c #14a6e4",
"bj c #14a8e5",
"bo c #14a9e5",
"#k c #14a9e6",
"bk c #14aae6",
"#w c #14aae7",
"#l c #14abe8",
"#v c #14ace8",
"bl c #14ade9",
"#m c #14aeea",
"bm c #14afea",
"bn c #14afeb",
"#n c #14b0eb",
"#o c #14b2ed",
"aW c #14b8f0",
"#p c #15b3ee",
"af c #15b8f0",
"aD c #16b8f0",
"ag c #16b9f0",
"#q c #17b5ef",
"aq c #17b9f0",
"aO c #17baf0",
"#r c #18b6ef",
"aV c #18baf0",
"aR c #18baf1",
"#u c #19b6ef",
"am c #19baf1",
"#s c #1ab7ef",
"ap c #1abaf1",
"aC c #1abbf1",
"#t c #1bb7ef",
"an c #1bbbf1",
"ao c #1bbcf1",
"b. c #1ca0de",
".e c #1ca3e0",
"cm c #1ca4e0",
"#j c #1ca9e5",
"a2 c #1cace6",
"aN c #1cbcf1",
"bw c #1da9e4",
"bD c #1daae5",
"aU c #1dbcf1",
"ay c #1ebdf1",
".h c #1fa4e0",
"co c #1fa5e1",
".F c #1faae5",
"#x c #1fabe5",
"aB c #1fbdf1",
"aT c #20bef1",
"az c #21bef1",
"aA c #21bff2",
"a3 c #22aee7",
"aM c #22bff2",
"b2 c #23a3df",
"aK c #25c0f2",
"aL c #25c1f2",
"aQ c #26c1f2",
"cd c #28a5df",
".H c #2aaee6",
".5 c #54b8e6",
"b8 c #54bdea",
".G c #54bfeb",
"bK c #54c1ed",
"bA c #54c3ef",
".q c #5ec0eb",
"ci c #66bfe8",
"a7 c #69c1e9",
".R c #6ac1e9",
"b4 c #6dc4eb",
"cb c #6dc5ec",
"bS c #6dc6ed",
"bI c #6dc9ef",
"bz c #6dcbf0",
"a8 c #70c4ea",
".s c #70c7ed",
"b9 c #70c8ed",
"cg c #74c5ea",
".8 c #7ec9ec",
"#h c #7ecaec",
"#z c #7ecaed",
"#C c #7ecbed",
"#V c #7ecbee",
"ab c #7eccee",
"aG c #7ecdee",
"bV c #7ecff0",
"bL c #7ed0f1",
"bB c #7ed2f2",
".f c #90d2ef",
"b# c #94d3f0",
"cn c #94d4f0",
".g c #98d5f0",
"bQ c #9fd7f1",
".M c #a2d8f1",
"bY c #a4d9f2",
".L c #a7daf2",
".P c #aadbf2",
".3 c #aadcf2",
".S c #aadcf3",
".2 c #aaddf3",
".T c #aaddf4",
".U c #aadef4",
".1 c #aadef5",
".V c #aadff5",
".W c #aadff6",
".X c #aae0f6",
".Y c #aae1f7",
".Z c #aae2f7",
".0 c #aae2f8",
".O c #abdcf2",
"bG c #afdff5",
"bN c #afe0f5",
"bx c #afe1f5",
"bC c #afe1f6",
"#i c #b8e4f6",
"ch c #bbe2f5",
"#y c #bbe5f7",
"ba c #bfe5f6",
"bd c #bfe6f6",
"bb c #bfe6f7",
"bc c #bfe7f7",
"## c #bfe7f8",
"#a c #bfe8f8",
"#b c #bfe8f9",
"#c c #bfe9f9",
"#d c #bfe9fa",
"#e c #bfeafa",
"#g c #bfebfa",
"#f c #c0ebfa",
"#. c #c6e9f8",
"a4 c #c6eaf8",
"b3 c #cdeaf7",
"cc c #d2ecf8",
"bR c #edf8fc",
"by c #edf8fd",
".9 c #f0f9fd",
"bH c #f9fcfe",
"bM c #f9fdfe",
".r c #ffffff",
"QtQtQtQtQtQtQtQtQtQtQtQtQt.#.a.b.c.a.#QtQtQtQtQtQtQtQtQtQtQtQtQt",
"QtQtQtQtQtQtQtQtQtQtQtQtQt.d.e.f.g.h.dQtQtQtQtQtQtQtQtQtQtQtQtQt",
".i.j.k.k.k.k.k.k.l.l.m.n.o.p.q.r.r.s.t.u.n.m.l.l.k.k.k.k.k.k.j.i",
".v.w.x.x.x.x.x.y.z.A.B.C.D.E.F.G.G.H.I.D.C.B.J.z.y.x.x.x.x.x.w.v",
".K.L.r.r.r.r.r.r.r.r.r.r.r.r.r.r.r.r.r.r.r.r.r.r.r.r.r.r.r.r.M.x",
".N.O.r.r.r.r.r.r.r.r.r.r.r.r.r.r.r.r.r.r.r.r.r.r.r.r.r.r.r.r.P.x",
".Q.R.P.P.S.T.U.V.W.X.Y.Y.Z.Z.0.0.0.0.0.Z.Y.Y.X.X.V.1.T.2.3.P.R.Q",
".4.Q.5.P.S.T.U.V.W.X.Y.Y.Z.Z.0.0.0.0.0.Z.Y.Y.X.X.V.1.T.2.3.5.Q.4",
".6.7.8.r.9#.###a#b#c#d#e#e#e#f#f#f#f#g#e#e#d#c#b#a###..9.r#h.7.6",
".6.7#h.r#i#j#k#l#m#n#o#p#q#r#s#t#t#s#u#q#p#o#n#m#v#w#x#y.r#z#A.6",
".6#B#C.r.V#D#E#F#G#H#I#J#K#L#M#N#N#M#L#O#P#Q#H#R#F#S#T.V.r#C#U.6",
".6#U#V.r.V#W#X#Y#Z#0#J#1#2#3#4#5#6#7#8#M#9#P#I#Ha.a#aa.V.rab#U.6",
".6acab.r.X#E#F#Gad#Q#1#2#4aeafagagafahai#M#Oajad#Rak#E.X.rabal.6",
".6alab.r.X#S#Y#Z#I#P#L#3aeagamanaoapaqahar#2asat#Zau#S.X.rabalav",
"avalab.r.X#Xau#H#Qaw#MaxafamayazaAaBaCaD#5aE#KaF#Haua#.X.raGaHav",
"avaHab.r.Xa#auaIaJ#K#N#6agaoazaKaLaMaNaOae#3#1aPad#Ra#.X.raGaHav",
"avaHab.r.Xa#auaIaJ#K#N#6aqaNaAaQaQaMaNaRae#3#1aPad#R#F.X.raGaHav",
"avalab.r.X#Xau#HaJaSaE#7aDaCaBaMaMaTanaq#6#3#KaFaIaua#.X.raGaHav",
"avalab.r.X#Sa.#Z#Ias#L#8ahaqaCaUaUanaVaW#4#2aw#Q#Zau#S.X.rabaHav",
".6alab.r.X#Eak#Radaj#O#M#5ahagaVaRaqaW#6aEaX#J#0aY#YaZ.X.rabalav",
".6#Uab.r.Vaaa#a.#H#I#P#9aEar#6aeae#6#4#Na0aw#I#Hau#Fa1.W.rab#U.6",
".6#B#C.r#.a2#S#F#R#H#QasaX#2#N#3#3#3#MaXaw#Qad#R#Y#Sa3a4.r#C#U.6",
".6#A#h.r.r.r.r.r.r.r.r.r.r.r.r.r.r.r.r.r.r.r.r.r.r.r.r.r.r#z#A.6",
"a5a6a7.r.r.r.r.r.r.r.r.r.r.r.r.r.r.r.r.r.r.r.r.r.r.r.r.r.ra8a6a5",
"Qta9b.b#bababbbc###a#b#b#c#c#d#d#d#d#c#c#c#b#a##bcbbbdba.fb.a9Qt",
"Qt.#be.cbfbgbhbibjbk#vbl#mbmbn#n#nbnbn#mbl#v#wbobibhbpbfbq.a.#Qt",
"QtQtQtbrbsbtbubvbwbx.r.rbybzbA.r.rbBbzby.r.rbCbDbvbubtbsbrQtQtQt",
"QtQtQtQtQtQtbEbFbGbH.r.rbIbJbK.r.rbLbJbI.r.rbMbNbFbEQtQtQtQtQtQt",
"QtQtQtQtQtbObPbQ.r.rbRbSbTbU.G.r.rbVbWbXbSbR.r.rbYbZb0QtQtQtQtQt",
"QtQtQtQtQtb1b2b3.r.rb4b5b6b7b8.r.rb9c.c#cacb.r.rcccd.kQtQtQtQtQt",
"QtQtQtQtQtcecfcgchcicjckQtclcmcncncoclQtckcjcichcgcfceQtQtQtQtQt",
"QtQtQtQtQtQtcpcqcrcsctcuQt.#cvcwbqcv.#QtcuctcscrcqcpQtQtQtQtQtQt"};
