/* XPM */
static char *dummy[]={
"32 32 156 2",
"Qt c None",
"ax c #000305",
".b c #000507",
"at c #000609",
".# c #00070a",
"#1 c #000a0f",
"#8 c #000b0f",
"#T c #001016",
"#3 c #00141c",
"#E c #001820",
"#I c #001821",
"#q c #011821",
".a c #00151f",
"#2 c #001a25",
"#7 c #001b26",
".c c #001c2a",
".S c #001e2c",
".M c #00202e",
"ay c #002434",
"#j c #002638",
".I c #002a3c",
".k c #002a3d",
".u c #002b3e",
".B c #002c3e",
"az c #003047",
".g c #003a55",
".p c #003c56",
".y c #003d57",
"#O c #003e59",
"#0 c #003f5a",
".1 c #004565",
".T c #004768",
"au c #00496a",
"ap c #004e71",
"#S c #005677",
"#X c #005678",
"#x c #005379",
"#N c #005479",
"#b c #00577f",
".2 c #006391",
"#a c #006491",
".f c #006492",
".d c #006695",
"#P c #0072a2",
"#Z c #0073a3",
"#p c #0480ac",
"#t c #0580ac",
"#R c #0082b6",
"#Y c #0083b7",
".e c #0078b1",
"#Q c #0087be",
"#D c #0190c5",
"#J c #0290c5",
"#f c #0c96c7",
"#h c #0d97c7",
".N c #0084bf",
"al c #008ac6",
"ao c #008bc6",
"av c #0088c7",
".h c #008bc9",
".l c #008dcb",
".L c #008ecb",
".q c #008fcc",
".t c #008fcd",
".v c #0090ce",
".F c #0091ce",
".z c #0092cf",
".D c #0092d0",
"#k c #008dcc",
"aq c #119edc",
"aw c #0d9bdb",
".U c #149fdd",
".0 c #14a0de",
"aj c #009fe2",
"ah c #00a2e4",
"af c #00a6e7",
"ac c #00a9e9",
"ae c #00a9ea",
"aa c #00acec",
"#9 c #02afed",
"a# c #03afee",
"#4 c #08b2ef",
"#6 c #09b2ef",
"#U c #0cb4ef",
"#W c #0db4ef",
"#F c #10b5f0",
"#H c #11b6f0",
"#r c #12b7f0",
"#s c #13b8f0",
".6 c #14b7f0",
"#g c #14b8f0",
".9 c #15b8f0",
"#y c #16a4e2",
"#M c #16a5e2",
"#C c #28b7ed",
"#K c #28b8ee",
"#c c #31ace3",
"#o c #37bff1",
"#u c #38bff1",
"#e c #3dc2f2",
"#i c #3ec3f2",
".5 c #41c5f2",
"#. c #42c5f2",
".W c #45c6f2",
".Z c #45c7f2",
".m c #46b5e7",
".J c #46b8e8",
".K c #46b8e9",
".w c #46b9e9",
".G c #46baea",
".H c #46baeb",
".C c #46bbeb",
".i c #4ab5e6",
".3 c #54bae8",
"#z c #60c3ec",
".O c #62c1ea",
".R c #62c1eb",
".r c #62c2ec",
".s c #62c3ec",
".A c #62c4ed",
".E c #62c5ee",
"am c #74c9ed",
"an c #74c9ee",
"#B c #86d4f3",
"#L c #86d5f4",
".j c #97d5f0",
"#l c #9dd8f2",
"#w c #9dd9f2",
"ar c #a9dcf3",
"#A c #a9e0f6",
"ak c #aadff5",
"ai c #aae0f6",
"ag c #aae1f7",
"ad c #aae2f8",
"ab c #aae3f9",
"a. c #abe4f9",
"#5 c #ade5f9",
"#V c #afe6f9",
"#G c #b0e7fa",
".7 c #b1e7fa",
".8 c #b1e8fa",
".X c #b2e7fa",
".Y c #b2e8fa",
"#n c #c7ecfa",
"#v c #c8ecfa",
".4 c #d0f0fc",
"## c #d1f0fc",
".P c #d2f1fc",
".Q c #dcf4fc",
".n c #e9f6fc",
".x c #e9f7fc",
"#d c #e9f8fd",
".V c #eaf8fd",
"#m c #f6fbfd",
"as c #f7fcfd",
".o c #ffffff",
"QtQtQtQtQtQtQtQtQtQtQtQtQtQtQtQtQtQtQtQtQtQtQtQtQtQtQtQtQtQtQtQt",
"QtQtQtQtQtQtQtQtQtQtQtQtQtQtQtQtQtQtQtQtQtQtQtQtQtQtQtQtQtQtQtQt",
"QtQtQtQtQtQtQtQtQtQtQtQtQtQt.#.a.a.bQtQtQtQtQtQtQtQtQtQtQtQtQtQt",
"QtQtQtQtQtQtQtQtQtQtQtQtQt.c.d.e.e.f.cQtQtQtQtQtQtQtQtQtQtQtQtQt",
"QtQtQtQtQtQtQtQtQtQtQtQt.g.h.i.j.j.i.h.gQtQtQtQtQtQtQtQtQtQtQtQt",
"QtQtQtQtQtQtQtQtQtQtQt.k.l.m.n.o.o.n.m.l.kQtQtQtQtQtQtQtQtQtQtQt",
"QtQtQtQtQtQtQtQtQtQt.p.q.r.n.o.o.o.o.n.s.t.pQtQtQtQtQtQtQtQtQtQt",
"QtQtQtQtQtQtQtQtQt.u.v.w.n.o.o.o.o.o.o.x.w.v.uQtQtQtQtQtQtQtQtQt",
"QtQtQtQtQtQtQtQt.y.z.A.n.o.o.o.o.o.o.o.o.n.A.z.yQtQtQtQtQtQtQtQt",
"QtQtQtQtQtQtQt.B.z.C.x.o.o.o.o.o.o.o.o.o.o.x.C.D.BQtQtQtQtQtQtQt",
"QtQtQtQtQtQt.y.z.E.x.o.o.o.o.o.o.o.o.o.o.o.o.x.E.z.yQtQtQtQtQtQt",
"QtQtQtQtQt.u.F.G.x.o.o.o.o.o.o.o.o.o.o.o.o.o.o.x.H.F.uQtQtQtQtQt",
"QtQtQtQt.p.t.A.n.o.o.o.o.o.o.o.o.o.o.o.o.o.o.o.o.n.A.t.pQtQtQtQt",
"QtQtQt.I.l.J.x.o.o.o.o.o.o.o.o.o.o.o.o.o.o.o.o.o.o.x.K.L.kQtQtQt",
"QtQt.M.N.O.n.o.o.o.o.o.o.P.Q.o.o.o.o.Q.P.o.o.o.o.o.o.n.R.N.SQtQt",
"QtQt.T.U.n.o.o.o.o.o.o.V.W.X.o.o.o.o.Y.Z.V.o.o.o.o.o.o.n.0.1QtQt",
"QtQt.2.3.o.o.o.o.o.o.4.5.6.7.o.o.o.o.8.9#.##.o.o.o.o.o.o.3#aQtQt",
"QtQt#b#c.o.o.o.o.o#d#e#f#g.8.o.o.o.o.Y.9#h#i.V.o.o.o.o.o#c#bQtQt",
"QtQt#j#k#l#m.o.o#n#o#p#q#r.7.o.o.o.o.7#s#q#t#u#v.o.o#m#w#k#jQtQt",
"QtQt.##x#y#z#A#B#C#D#EQt#F#G.o.o.o.o#G#HQt#I#J#K#L#A#z#M#N.#QtQt",
"QtQtQtQt#O#P#Q#R#S#TQtQt#U#V.o.o.o.o#V#WQtQt#T#X#Y#Q#Z#0QtQtQtQt",
"QtQtQtQtQt#1#2#3QtQtQtQt#4#5.o.o.o.o#5#6QtQtQtQt#3#7#8QtQtQtQtQt",
"QtQtQtQtQtQtQtQtQtQtQtQt#9a..o.o.o.oa.a#QtQtQtQtQtQtQtQtQtQtQtQt",
"QtQtQtQtQtQtQtQtQtQtQtQtaaab.o.o.o.oabaaQtQtQtQtQtQtQtQtQtQtQtQt",
"QtQtQtQtQtQtQtQtQtQtQtQtacad.o.o.o.oadaeQtQtQtQtQtQtQtQtQtQtQtQt",
"QtQtQtQtQtQtQtQtQtQtQtQtafag.o.o.o.oagafQtQtQtQtQtQtQtQtQtQtQtQt",
"QtQtQtQtQtQtQtQtQtQtQtQtahai.o.o.o.oaiahQtQtQtQtQtQtQtQtQtQtQtQt",
"QtQtQtQtQtQtQtQtQtQtQtQtajak.o.o.o.oakajQtQtQtQtQtQtQtQtQtQtQtQt",
"QtQtQtQtQtQtQtQtQtQtQtQtalam.o.o.o.oanaoQtQtQtQtQtQtQtQtQtQtQtQt",
"QtQtQtQtQtQtQtQtQtQtQtQtapaqarasasaraqapQtQtQtQtQtQtQtQtQtQtQtQt",
"QtQtQtQtQtQtQtQtQtQtQtQtatauavawawavauatQtQtQtQtQtQtQtQtQtQtQtQt",
"QtQtQtQtQtQtQtQtQtQtQtQtQtaxayazazayaxQtQtQtQtQtQtQtQtQtQtQtQtQt"};
