/* XPM */
static char *dummy[]={
"32 32 156 2",
"Qt c None",
"ax c #000305",
".b c #000507",
"at c #000609",
".# c #00070a",
"#2 c #000a0f",
"#9 c #000b0f",
"#U c #001016",
"#4 c #00141c",
"#F c #001820",
"#J c #001821",
"#r c #011821",
".a c #00151f",
"#3 c #001a25",
"#8 c #001b26",
".c c #001c2a",
".T c #001e2c",
".M c #00202e",
"ay c #002434",
"#k c #002638",
".I c #002a3c",
".k c #002a3d",
".u c #002b3e",
".A c #002c3e",
"az c #003047",
".g c #003a55",
".q c #003c56",
".x c #003d57",
"#P c #003e59",
"#1 c #003f5a",
".2 c #004565",
".U c #004768",
"au c #00496a",
"ap c #004e71",
"#T c #005677",
"#Y c #005678",
"#y c #005379",
"#O c #005479",
"#c c #00577f",
".3 c #006391",
"#b c #006491",
".f c #006492",
".d c #006695",
"#Q c #0072a2",
"#0 c #0073a3",
"#q c #0480ac",
"#u c #0580ac",
"#S c #0082b6",
"#Z c #0083b7",
".e c #0078b1",
"#R c #0087be",
"#E c #0190c5",
"#K c #0290c5",
"#g c #0c96c7",
"#i c #0d97c7",
".N c #0083bf",
".S c #0084bf",
"am c #008ac6",
"av c #0088c7",
".h c #008ac9",
".l c #008ccb",
".p c #008dcb",
".L c #008ecb",
".r c #008fcc",
".H c #008fcd",
".v c #0090ce",
".E c #0091ce",
".y c #0092cf",
"#l c #008dcc",
"aq c #119edc",
"aw c #0d9bdb",
".V c #149fdd",
".1 c #14a0de",
"ak c #009fe2",
"ai c #00a2e4",
"ag c #00a6e7",
"ad c #00a9e9",
"af c #00a9ea",
"ab c #00acec",
"a. c #02afed",
"aa c #03afee",
"#5 c #08b2ef",
"#7 c #09b2ef",
"#V c #0cb4ef",
"#X c #0db4ef",
"#G c #10b5f0",
"#I c #11b6f0",
"#s c #12b7f0",
"#t c #13b8f0",
".7 c #14b7f0",
"#h c #14b8f0",
"#. c #15b8f0",
"#z c #16a4e2",
"#N c #16a5e2",
"#D c #28b7ed",
"#L c #28b8ee",
"#d c #31ace3",
"#p c #37bff1",
"#v c #38bff1",
"#f c #3dc2f2",
"#j c #3ec3f2",
".6 c #41c5f2",
"## c #42c5f2",
".X c #45c6f2",
".0 c #45c7f2",
".m c #46b5e7",
".J c #46b8e8",
".K c #46b8e9",
".w c #46b9e9",
".F c #46baea",
".G c #46baeb",
".B c #46bbeb",
".i c #4ab5e6",
".4 c #54bae8",
"#A c #60c3ec",
".O c #62c1ea",
".R c #62c1eb",
".s c #62c2ec",
".t c #62c3ec",
".z c #62c4ed",
".D c #62c5ee",
"an c #74c9ed",
"ao c #74c9ee",
"#C c #86d4f3",
"#M c #86d5f4",
".j c #97d5f0",
"#m c #9dd8f2",
"#x c #9dd9f2",
"ar c #a9dcf3",
"#B c #a9e0f6",
"al c #aadff5",
"aj c #aae0f6",
"ah c #aae1f7",
"ae c #aae2f8",
"ac c #aae3f9",
"a# c #abe4f9",
"#6 c #ade5f9",
"#W c #afe6f9",
"#H c #b0e7fa",
".8 c #b1e7fa",
".9 c #b1e8fa",
".Y c #b2e7fa",
".Z c #b2e8fa",
"#o c #c7ecfa",
"#w c #c8ecfa",
".5 c #d0f0fc",
"#a c #d1f0fc",
".P c #d2f1fc",
".Q c #dcf4fc",
".n c #e9f6fc",
".C c #e9f7fc",
"#e c #e9f8fd",
".W c #eaf8fd",
"#n c #f6fbfd",
"as c #f7fcfd",
".o c #ffffff",
"QtQtQtQtQtQtQtQtQtQtQtQtQtQtQtQtQtQtQtQtQtQtQtQtQtQtQtQtQtQtQtQt",
"QtQtQtQtQtQtQtQtQtQtQtQtQtQtQtQtQtQtQtQtQtQtQtQtQtQtQtQtQtQtQtQt",
"QtQtQtQtQtQtQtQtQtQtQtQtQtQt.#.a.a.bQtQtQtQtQtQtQtQtQtQtQtQtQtQt",
"QtQtQtQtQtQtQtQtQtQtQtQtQt.c.d.e.e.f.cQtQtQtQtQtQtQtQtQtQtQtQtQt",
"QtQtQtQtQtQtQtQtQtQtQtQt.g.h.i.j.j.i.h.gQtQtQtQtQtQtQtQtQtQtQtQt",
"QtQtQtQtQtQtQtQtQtQtQt.k.l.m.n.o.o.n.m.p.kQtQtQtQtQtQtQtQtQtQtQt",
"QtQtQtQtQtQtQtQtQtQt.q.r.s.n.o.o.o.o.n.t.r.qQtQtQtQtQtQtQtQtQtQt",
"QtQtQtQtQtQtQtQtQt.u.v.w.n.o.o.o.o.o.o.n.w.v.uQtQtQtQtQtQtQtQtQt",
"QtQtQtQtQtQtQtQt.x.y.z.n.o.o.o.o.o.o.o.o.n.z.y.xQtQtQtQtQtQtQtQt",
"QtQtQtQtQtQtQt.A.y.B.C.o.o.o.o.o.o.o.o.o.o.C.B.y.AQtQtQtQtQtQtQt",
"QtQtQtQtQtQt.x.y.D.C.o.o.o.o.o.o.o.o.o.o.o.o.C.D.y.xQtQtQtQtQtQt",
"QtQtQtQtQt.u.E.F.C.o.o.o.o.o.o.o.o.o.o.o.o.o.o.C.G.E.uQtQtQtQtQt",
"QtQtQtQt.q.H.z.n.o.o.o.o.o.o.o.o.o.o.o.o.o.o.o.o.n.z.H.qQtQtQtQt",
"QtQtQt.I.p.J.n.o.o.o.o.o.o.o.o.o.o.o.o.o.o.o.o.o.o.n.K.L.kQtQtQt",
"QtQt.M.N.O.n.o.o.o.o.o.o.P.Q.o.o.o.o.Q.P.o.o.o.o.o.o.n.R.S.TQtQt",
"QtQt.U.V.n.o.o.o.o.o.o.W.X.Y.o.o.o.o.Z.0.W.o.o.o.o.o.o.n.1.2QtQt",
"QtQt.3.4.o.o.o.o.o.o.5.6.7.8.o.o.o.o.9#.###a.o.o.o.o.o.o.4#bQtQt",
"QtQt#c#d.o.o.o.o.o#e#f#g#h.9.o.o.o.o.Z#.#i#j.W.o.o.o.o.o#d#cQtQt",
"QtQt#k#l#m#n.o.o#o#p#q#r#s.8.o.o.o.o.8#t#r#u#v#w.o.o#n#x#l#kQtQt",
"QtQt.##y#z#A#B#C#D#E#FQt#G#H.o.o.o.o#H#IQt#J#K#L#M#B#A#N#O.#QtQt",
"QtQtQtQt#P#Q#R#S#T#UQtQt#V#W.o.o.o.o#W#XQtQt#U#Y#Z#R#0#1QtQtQtQt",
"QtQtQtQtQt#2#3#4QtQtQtQt#5#6.o.o.o.o#6#7QtQtQtQt#4#8#9QtQtQtQtQt",
"QtQtQtQtQtQtQtQtQtQtQtQta.a#.o.o.o.oa#aaQtQtQtQtQtQtQtQtQtQtQtQt",
"QtQtQtQtQtQtQtQtQtQtQtQtabac.o.o.o.oacabQtQtQtQtQtQtQtQtQtQtQtQt",
"QtQtQtQtQtQtQtQtQtQtQtQtadae.o.o.o.oaeafQtQtQtQtQtQtQtQtQtQtQtQt",
"QtQtQtQtQtQtQtQtQtQtQtQtagah.o.o.o.oahagQtQtQtQtQtQtQtQtQtQtQtQt",
"QtQtQtQtQtQtQtQtQtQtQtQtaiaj.o.o.o.oajaiQtQtQtQtQtQtQtQtQtQtQtQt",
"QtQtQtQtQtQtQtQtQtQtQtQtakal.o.o.o.oalakQtQtQtQtQtQtQtQtQtQtQtQt",
"QtQtQtQtQtQtQtQtQtQtQtQtaman.o.o.o.oaoamQtQtQtQtQtQtQtQtQtQtQtQt",
"QtQtQtQtQtQtQtQtQtQtQtQtapaqarasasaraqapQtQtQtQtQtQtQtQtQtQtQtQt",
"QtQtQtQtQtQtQtQtQtQtQtQtatauavawawavauatQtQtQtQtQtQtQtQtQtQtQtQt",
"QtQtQtQtQtQtQtQtQtQtQtQtQtaxayazazayaxQtQtQtQtQtQtQtQtQtQtQtQtQt"};
