/* XPM */
static char *dummy[]={
"32 32 277 2",
"Qt c None",
".# c #000102",
".a c #000a0e",
".b c #000c11",
".c c #000c12",
"cm c #000d13",
".d c #002233",
".l c #003f5d",
"ch c #004f74",
".e c #00618e",
".f c #006da0",
".g c #006fa3",
".h c #0070a4",
".i c #0071a4",
".j c #0072a5",
".k c #0073a6",
".w c #0080bb",
".m c #0390d1",
"ce c #0090d3",
"cg c #0392d4",
"ci c #0694d6",
".A c #0095da",
"cn c #0096da",
"bG c #0097db",
"co c #0098dc",
"cs c #0098dd",
"cp c #0099dd",
"cq c #009ade",
"cr c #009bde",
"#O c #009bdf",
"#6 c #009cdf",
"ah c #009ce0",
"bf c #009de0",
"#P c #009de1",
".5 c #009ee1",
"aI c #009fe1",
".X c #009fe2",
"ag c #00a0e2",
"ak c #00a0e3",
"#Q c #00a1e3",
"aw c #00a1e4",
"#5 c #00a2e4",
"#R c #00a3e5",
"#4 c #00a4e6",
"ax c #00a5e6",
".2 c #00a5e7",
"af c #00a6e7",
"al c #00a6e8",
"#S c #00a7e8",
"#8 c #00a8e9",
"#T c #00a9ea",
"a2 c #00aaea",
"am c #00aaeb",
"#9 c #00abeb",
"ay c #00abec",
"#U c #00acec",
"an c #00aced",
"av c #00aded",
"#V c #01aeed",
"a6 c #02aeed",
"ae c #02aeee",
"aH c #02afed",
"b4 c #0397db",
"bW c #03a8e8",
"bX c #03a9e9",
"b. c #03afed",
"aW c #03afee",
"bo c #04afed",
"bk c #04afee",
"ao c #04b0ee",
"#W c #05b0ee",
"bS c #069add",
"bT c #06a1e3",
"b1 c #06a3e4",
"b0 c #06a9e8",
"b# c #06b0ee",
"#X c #07b1ee",
"az c #07b1ef",
"aG c #08b1ef",
"aL c #08b2ef",
"ap c #09b2ee",
"#Y c #09b2ef",
"aV c #09b3ef",
".T c #0a99db",
"a. c #0ab2ef",
"#0 c #0ab3ef",
"#Z c #0bb3ef",
"aA c #0cb4ef",
"a# c #0db4ef",
".7 c #0e9bdc",
".Z c #0eaae8",
".0 c #0eabe9",
"#3 c #0eb1ed",
"aM c #0eb4ef",
"aq c #0eb5ef",
"aX c #0fb5ef",
"aa c #10b5f0",
"ac c #10b6f0",
"cd c #119cdc",
"ar c #11b6ef",
"ab c #11b6f0",
"bg c #12b7f0",
"a7 c #13b7f0",
"bh c #13b8f0",
".9 c #149ddc",
"#. c #149edd",
"#k c #14a8e5",
"#b c #14aae6",
"#h c #14b0eb",
"aN c #14b8f0",
"as c #15b8f0",
"at c #16b9f0",
"a8 c #17b9f0",
"ba c #18b9f0",
"bc c #18baf1",
"aO c #19baf0",
"bb c #19bbf1",
"aB c #1abbf1",
"aE c #1bbbf1",
".V c #1ca2df",
"bQ c #1ca3df",
".W c #1ca8e4",
".4 c #1caae6",
".3 c #1caee9",
"bK c #1cb3ed",
"bL c #1cb4ed",
"aC c #1cbcf1",
"aD c #1dbcf1",
"aP c #1ebdf1",
"#n c #1fa3df",
"#e c #1fb3ec",
"#f c #1fb4ec",
"aS c #1fbdf1",
"a3 c #20bef1",
"aY c #21bef2",
"aQ c #22bef1",
"aR c #22bff1",
"a0 c #22bff2",
"a4 c #24c0f2",
"a5 c #25c0f2",
"aZ c #26c1f2",
"## c #29a9e2",
"#a c #29b0e7",
"#j c #29b2e9",
"#i c #29b6ec",
"bH c #38afe4",
"bI c #38b6e9",
"bO c #38b8ea",
"bN c #38bcee",
".n c #4ab3e4",
".v c #4db5e4",
"b5 c #54b8e6",
"#7 c #54bbe8",
"ai c #54bbe9",
"be c #54bce8",
"aj c #54bce9",
"aK c #54bcea",
"aJ c #54bdea",
".x c #58b9e6",
"bR c #5bbae7",
"bl c #5bbee9",
"b2 c #5bc0eb",
"bU c #5bc4ee",
"bZ c #5bc7f1",
"ad c #5ecdf4",
"bi c #60cef4",
"au c #61cff4",
"bm c #63cef4",
"bd c #63d0f5",
"aF c #64d1f5",
"a9 c #65d1f5",
"aT c #67d2f5",
"a1 c #68d2f5",
".U c #71c4ea",
"#N c #71c6ec",
".6 c #71c8ed",
".Y c #71caef",
".1 c #71cdf2",
".o c #74c5ea",
"#1 c #76d4f6",
".u c #77c6eb",
"#l c #77ccef",
"#c c #77cff1",
"#g c #77d2f3",
".p c #7ec9ec",
".q c #7ecaec",
".r c #7ecbed",
".s c #7eccee",
".t c #7ecdee",
"bE c #7ecdef",
"cb c #7eceef",
"bp c #7ecef0",
"bq c #7ecff1",
"bD c #7ed0f1",
"br c #7ed1f2",
"c. c #7ed2f2",
"bs c #7ed2f3",
"bC c #7ed3f3",
"bt c #7ed4f4",
"bu c #7ed5f5",
"bv c #7fd6f6",
"bw c #81d7f6",
"bx c #82d8f6",
"by c #83d8f6",
"bz c #84d8f6",
"bF c #8dcfee",
"bP c #8dd4f2",
"bJ c #8dd6f4",
"b9 c #8dd7f4",
"bM c #8dd9f6",
"bB c #8ddaf6",
"cf c #91d1ee",
"b6 c #9bd5f0",
"b7 c #9bd8f2",
"ca c #9bd9f3",
"c# c #9bdbf5",
".B c #aadbf2",
"cl c #aadcf2",
"cj c #aadcf3",
"ck c #aaddf3",
"#z c #aaddf4",
".O c #aadef4",
".F c #aadef5",
"#A c #aadff5",
".M c #aae0f6",
"#B c #aae1f7",
"#C c #aae2f7",
"#M c #aae2f8",
"#D c #aae3f8",
"#E c #aae3f9",
"#F c #aae4f9",
"#G c #abe4f9",
"bj c #ace4f9",
"#H c #ace5f9",
"b3 c #adddf3",
"bV c #ade3f7",
"bY c #ade3f8",
"#I c #ade5f9",
"bn c #aee5f9",
"aU c #aee6f9",
".S c #b4dff4",
".R c #b8e1f4",
".I c #b8e5f7",
".J c #b8e6f8",
"#L c #b8e7f9",
"#2 c #b8e8fa",
"cc c #bbe2f5",
"#m c #bbe3f5",
"#d c #bbe8f9",
".8 c #bfe4f5",
"#o c #bfe5f6",
"#x c #bfe7f8",
"#r c #bfe8f8",
"#u c #bfe9fa",
".D c #c6e7f6",
"#y c #c6e8f7",
".E c #c6e9f8",
"b8 c #c6eaf8",
".N c #c6eaf9",
"#s c #c6ecfa",
"bA c #c7edfb",
"#p c #cdebf8",
"#q c #cdecf9",
"#w c #cdedfa",
"#v c #cdeefa",
".C c #e2f3fa",
".P c #e2f3fb",
".G c #e2f4fb",
".L c #e2f4fc",
"#t c #e2f5fc",
"#J c #e3f6fd",
".y c #f0f8fc",
".Q c #f0f9fc",
".H c #f0f9fd",
".K c #f0fafd",
"#K c #f0fafe",
".z c #ffffff",
"QtQtQtQtQtQtQtQtQtQtQtQtQtQtQtQtQtQtQtQtQtQtQtQtQtQtQtQtQtQtQtQt",
"QtQtQtQtQtQtQtQtQtQtQtQtQtQtQtQtQtQtQtQtQtQtQtQtQtQtQtQtQtQtQtQt",
"QtQtQtQtQtQtQtQtQtQtQtQtQtQtQtQtQtQtQtQtQtQtQtQtQtQtQtQtQtQtQtQt",
"QtQtQtQtQtQtQtQtQtQtQtQtQtQtQtQtQtQtQtQtQtQtQtQtQtQtQtQtQtQtQtQt",
"QtQt.#.a.b.b.b.b.b.b.b.b.b.c.c.c.c.c.c.b.b.b.b.b.b.b.b.b.a.#QtQt",
".#.d.e.f.g.g.g.g.g.g.h.i.j.j.k.k.k.k.k.j.i.h.g.g.g.g.g.g.f.e.d.#",
".l.m.n.o.p.p.p.p.p.q.r.s.s.s.t.t.t.t.s.s.s.r.q.p.p.p.p.p.u.v.m.l",
".w.x.y.z.z.z.z.z.z.z.z.z.z.z.z.z.z.z.z.z.z.z.z.z.z.z.z.z.z.y.x.w",
".A.B.z.C.B.D.z.z.E.F.G.z.H.I.J.K.z.L.M.N.z.z.E.O.P.z.Q.R.C.z.S.T",
".A.B.z.U.A.V.z.z.W.X.Y.z.J.Z.0.J.z.1.2.3.z.z.4.5.6.z.R.7.U.z.8.9",
".A.B.z.u#.##.z.z#a#b#c.z#d#e#f#d.z#g#h#i.z.z#j#k#l.z#m#n.U.z.8.9",
".A.B.z.C#o#p.z.z#q#r.L.z.K#s#s.K.z#t#u#v.z.z#w#x.G.z.H#y.C.z.8.9",
".A.B.z.P#z.O#A.M#B#C#D#E#F#G#H#H#I#H#J.z#K#L#M#B.M#A.F#z.P.z.8.9",
".A.B.z#N#O#P#Q#R#S#T#U#V#W#X#Y#Z#Z#0#1.z#2#3#T#S#4#5.5#6#N.z.8.9",
".A.B.z#7#6.X#5.2#8#9#V#Wa.a#aaababacad.z#Gae#U#Taf#Ragahai.z.8.9",
".A.B.zaj#Pak#4alamanaoapaqarasatatasau.z#H#Wav#9#S#4ak.5aj.z.8.9",
".A.B.zaj.5awax#8ay#VazaAabataBaCaDaEaF.z#IaGaH#U#8.2#5aIaJ.z.8.9",
".A.B.zaK.X#5.2#8#UaHaLaMaNaOaPaQaRaSaT.zaUaVaWav#Taf#5.XaJ.z.8.9",
".A.B.zaJ.X#5af#TanaWa.aXasaBaYaZaZa0a1.zaU#Zaoava2al#R.XaJ.z.8.9",
".A.B.zaJ.X#5af#T#UaWa.aqasaBa3a4a5aYaT.zaU#0aoav#Taf#R.XaJ.z.8.9",
".A.B.zaK.5aw.2#8#Ua6aLa#a7a8aCaSaSaDa9.z#I#Yb.#U#8af#5.XaJ.z.8.9",
".A.B.zaj.5#Q#4#Sam#Vb##ZaaaNbabbaBbcbd.z#I#X#V#9#8axaw.5aj.z.8.9",
".A.B.zbebf.X#Rafa2#UaW#X#ZaXbga7bhbgbi.zbjbk#Ua2al#4ak#Paj.z.8.9",
".A.B.zbl#O.5#5ax#8amavaWaz#Za#aqaqa#bm.zbnbo#9#8ax#5.X#6#7.z.8.9",
".A.B.z#y.sbpbqbrbsbtbubvbwbxbybzbzbybA.z#tbBbtbCbrbDbpbE#y.z.8.9",
".A.B.z.z.z.z.z.z.z.z.z.z.z.z.z.z.z.z.z.z.z.z.z.z.z.z.z.z.z.z.8.9",
".A.B.zbFbGbH.z.zbI#RbJ.z#sbKbL#s.zbMambN.z.zbOawbP.z#ybQbF.z.8.9",
".A.B.zbR.AbS.z.zbT#QbU.zbVbWbXbY.zbZ#Sb0.z.zb1.Xb2.zb3b4b5.z.8.9",
".A.B.z.D.pb6.z.zb7bpb8.z.LbJb9.L.z.Nc.c#.z.zcacb#y.z.CbF.D.zcccd",
"cebF.z.z.z.z.z.z.z.z.z.z.z.z.z.z.z.z.z.z.z.z.z.z.z.z.z.z.z.zcfcg",
"chcibF.B.B.B.B.B.Bcjck#z#z.O.O.O.O.O.O#z#zckcjcl.B.B.B.B.BbFcich",
"cmchce.A.A.A.A.A.AcnbGcocpcqcr#O#OcrcqcpcsbGcn.A.A.A.A.A.Acechcm"};
