/* XPM */
static char *dummy[]={
"32 32 181 2",
"Qt c None",
".r c #00080b",
".# c #00080c",
".b c #000a0f",
".w c #000c11",
".a c #001824",
".k c #004464",
".c c #006291",
".s c #006b9d",
".x c #006fa3",
".d c #0392d4",
".j c #0693d4",
".N c #0099dd",
".Z c #009add",
".O c #009bdf",
".Y c #009cdf",
".P c #009ee1",
"#m c #009fe2",
"#y c #00a0e2",
".Q c #00a0e3",
".2 c #00a1e3",
"## c #00a1e4",
".R c #00a2e4",
"az c #00a2e5",
".S c #00a3e5",
".X c #00a4e6",
"aa c #00a5e6",
".T c #00a5e7",
".W c #00a6e7",
".U c #00a6e8",
".3 c #00a7e8",
".V c #00a8e9",
".4 c #00a9ea",
"#c c #00aaea",
".5 c #00aaeb",
".6 c #00abeb",
".7 c #00acec",
"#n c #00adec",
"#d c #00aded",
"#6 c #01aceb",
"aL c #01aeed",
"#e c #02aeed",
"#f c #02afed",
"aA c #03afee",
"aG c #04afed",
"aK c #04b0ee",
"at c #06a9e8",
"ai c #06aae9",
"aB c #07b1ee",
"#q c #07b1ef",
"#S c #08aceb",
"#o c #08b0ee",
"aH c #08b1ee",
"#t c #08b1ef",
"#r c #08b2ef",
"#s c #09b2ef",
"#x c #0aacea",
"#p c #0ab2ee",
"aI c #0bb3ef",
"aC c #0db4ef",
"#F c #0eb5ef",
"aJ c #0fb5ef",
".e c #149ddc",
".f c #149ddd",
".g c #149edd",
".h c #149ede",
"aY c #149fdd",
".i c #149fde",
"aX c #14a0df",
"#B c #17b6ef",
"#g c #19b5ef",
"#L c #19b6ef",
"#. c #1aafe9",
"#O c #1bbaf0",
".l c #1ca0dd",
"aW c #1fa2de",
".8 c #1fb4ec",
"#E c #21baf0",
"ao c #22b3ec",
".q c #23a3df",
"#P c #26bdf1",
".A c #2aa9e1",
".B c #2aaae3",
".C c #2aace4",
".K c #2aace5",
".D c #2aaee6",
".E c #2ab0e7",
".F c #2ab1e8",
".G c #2ab2e9",
".H c #2ab3ea",
".I c #2ab4ea",
".J c #2ab4eb",
"ac c #2cbaef",
"an c #2db8ed",
"#G c #2ebef1",
"#2 c #2fbaee",
"aq c #36c3f2",
"aD c #37c2f1",
"#Y c #40c6f3",
"aF c #42bded",
"#9 c #45c8f3",
"af c #48caf3",
"#I c #4ac2f0",
"#7 c #4dc6f2",
".9 c #4fc2ef",
".t c #54b8e6",
"#5 c #54b9e6",
".0 c #54bae7",
"#a c #54bbe9",
"#k c #54bcea",
"#z c #54beeb",
"#J c #54bfeb",
"#T c #54bfec",
"#3 c #54c0ec",
"ab c #54c1ed",
"ax c #5bcdf4",
"aw c #66d0f5",
"al c #6dd4f6",
"#Z c #6ed3f5",
".v c #70c3ea",
".L c #70c4ea",
"a# c #70d0f4",
".y c #7ec9ec",
"#4 c #7ecaec",
".M c #7ecbed",
".1 c #7eccee",
"#b c #7ecdee",
"#l c #7eceef",
"#A c #7ecef0",
"#K c #7ecff0",
"#U c #7ed0f1",
"ak c #7ed9f6",
"#V c #7fd6f6",
"as c #82d4f4",
"#u c #82d7f6",
"#j c #84d4f4",
".m c #90d1ee",
".z c #94d2ef",
".p c #9bd5f0",
"au c #9bdef6",
"#N c #9ce1f8",
"ag c #9de2f8",
"ay c #9fddf6",
"#C c #a2e2f8",
"aN c #aadff5",
"aO c #aae0f6",
"aP c #aae1f7",
"aQ c #aae2f8",
"#h c #aae3f8",
"aT c #aae3f9",
"#D c #aae4f9",
"#R c #abe3f8",
"av c #abe4f9",
"#8 c #abe6f9",
"aR c #ace5f9",
"#M c #ade5f9",
"aS c #aee6f9",
"#Q c #b5e8fa",
".n c #bfe4f5",
"aV c #bfe4f6",
".o c #bfe5f6",
"aU c #c6e9f8",
"ah c #c6ecfa",
"ap c #c9effb",
"ad c #d2f0fb",
"aM c #d4effa",
"ar c #d5f2fc",
"#X c #d8f3fc",
"#1 c #d9f2fc",
"a. c #ecf9fd",
"#H c #edf9fd",
"#w c #f0fafd",
"aE c #f1fafe",
"am c #f2fbfe",
"#0 c #f3fbfe",
"#W c #f6fcfe",
"aj c #f7fcfe",
"ae c #f8fcfe",
"#i c #f9fdfe",
"#v c #fbfdfe",
".u c #ffffff",
"QtQtQtQtQtQtQtQtQtQtQtQtQtQtQtQtQtQtQtQtQtQtQtQtQtQtQtQtQtQtQtQt",
"QtQtQtQtQtQtQtQtQtQtQtQtQtQtQtQtQtQtQtQtQtQtQtQtQtQtQtQtQtQtQtQt",
"QtQtQtQtQtQtQtQtQtQtQtQtQtQtQtQtQtQtQtQtQtQtQtQtQtQtQtQtQtQtQtQt",
"QtQtQt.#.a.a.a.a.a.a.a.a.a.a.a.a.a.a.a.a.a.a.a.a.a.a.a.a.#QtQtQt",
"Qt.b.c.d.e.e.e.e.e.e.e.f.g.h.i.i.i.i.h.g.f.e.e.e.e.e.e.e.j.c.bQt",
"Qt.k.l.m.n.n.n.n.n.n.n.n.o.o.o.o.o.o.o.o.n.n.n.n.n.n.n.n.p.q.kQt",
".r.s.t.u.u.u.u.u.u.u.u.u.u.u.u.u.u.u.u.u.u.u.u.u.u.u.u.u.u.v.s.r",
".w.x.t.u.u.u.u.u.u.u.u.u.u.u.u.u.u.u.u.u.u.u.u.u.u.u.u.u.u.y.x.w",
".w.x.t.u.u.z.A.B.C.D.E.F.G.H.I.J.J.I.H.G.F.E.D.K.B.A.L.u.u.y.x.w",
".w.x.t.u.u.M.N.O.P.Q.R.S.T.U.V.V.V.V.U.W.X.R.Q.P.Y.Z.0.u.u.y.x.w",
".w.x.t.u.u.1.Y.P.2.S.T.3.4.5.6.7.7.6.5.8.9#..S##.P.Y#a.u.u.y.x.w",
".w.x.t.u.u#b.P.Q.S.T.V#c.7#d#e#f#f#e#g#h#i#j.W.S.Q.P#k.u.u.y.x.w",
".w.x.t.u.u#l#m.R.T.V.6#n#o#p#q#r#s#t#u#v.u#w#x.W.S#y#z.u.u.y.x.w",
".w.x.t.u.u#A.2.S.3.4#n#B#C#D#E#F#F#G#H.u.u.u#I.V.X.R#J.u.u.y.x.w",
".w.x.t.u.u#K.R.T.4.7#L#M.u.u#N#O#P#Q.u.u.u.u#R#S.W.S#T.u.u.y.x.w",
".w.x.t.u.u#U.S.U.5#d#V#W.u.u#X#Y#Z#0.u.u.u.u#1#2.3.X#3.u.u#4.x.w",
".w.x#5.u.u#U.X.V#6#7.u.u.u.u#8#9a..u.u.u.u.u.ua#.Vaaab.u.u#4.x.w",
".w.x#5.u.u#Uaa.Vacad.u.u.uaeafag.u.u.u.u.u.u.uah.4.Tab.u.u#4.x.w",
".w.x#5.u.u#Uaaaiah.u.u.uajakalam.u.u.u.u.u.u.u.uan.Tab.u.u#4.x.w",
".w.x#5.u.u#U.Xao.u.u.u.uapaqar.u.u.u.u.u.u.u.u.uasaaab.u.u#4.x.w",
".w.x.t.u.u#U.Xatau#hav#Mawax.u.u.u.u.u.u.u.u.u.uay.X#3.u.u#4.x.w",
".w.x.t.u.u#Kaz.W.4.7aAaBaCaDaE.u.u.u.u.u.u.u.u#waF.S#3.u.u#4.x.w",
".w.x.t.u.u#A##.X.V.5#naGaHaIaCaJaJ#FaI#raKaL.5.V.X.R#T.u.u.y.x.w",
".w.x.t.u.uaMaNaOaPaQ#h#DaR#M#MaSaSaS#MaRavaTaQaPaOaNaU.u.u.y.x.w",
".w.x.t.u.u.u.u.u.u.u.u.u.u.u.u.u.u.u.u.u.u.u.u.u.u.u.u.u.u.y.x.w",
".w.x.t.u.u.u.u.u.u.u.u.u.u.u.u.u.u.u.u.u.u.u.u.u.u.u.u.u.u.y.x.w",
".w.x.t.u.u.u.u.u.u.u.u.u.u.u.u.u.u.u.u.u.u.u.u.u.u.u.u.u.u.y.x.w",
".w.x.t.u.u.u.u.u.u.u.u.u.u.u.u.u.u.u.u.u.u.u.u.u.u.u.u.u.u.y.x.w",
".w.x.t.u.u.u.u.u.u.u.u.u.u.u.u.u.u.u.u.u.u.u.u.u.u.u.u.u.u.y.x.w",
".r.s.t.u.u.u.u.u.u.u.u.u.u.u.u.u.u.u.u.u.u.u.u.u.u.u.u.u.u.v.s.r",
"Qt.k.l.z.n.n.n.n.n.n.naV.o.o.o.o.o.o.o.oaV.n.n.n.n.n.n.n.zaW.kQt",
"Qt.b.c.j.e.e.e.e.e.e.f.g.g.i.iaXaXaX.iaY.g.f.e.e.e.e.e.e.d.c.bQt"};
