/* XPM */
static char *dummy[]={
"32 32 182 2",
"Qt c None",
".r c #00080b",
".# c #00080c",
".b c #000a0f",
".w c #000c11",
".a c #001824",
".k c #004464",
".c c #006291",
".s c #006b9d",
".x c #006fa3",
".d c #0392d4",
".j c #0693d4",
".O c #0099dd",
".0 c #009add",
".P c #009bdf",
".Z c #009cdf",
".Q c #009ee1",
"#n c #009fe2",
"#z c #00a0e2",
".R c #00a0e3",
".3 c #00a1e3",
"#a c #00a1e4",
".S c #00a2e4",
"aA c #00a2e5",
".T c #00a3e5",
".Y c #00a4e6",
"ab c #00a5e6",
".U c #00a5e7",
".X c #00a6e7",
".V c #00a6e8",
".4 c #00a7e8",
".W c #00a8e9",
".5 c #00a9ea",
"#d c #00aaea",
".6 c #00aaeb",
".7 c #00abeb",
".8 c #00acec",
"#o c #00adec",
"#e c #00aded",
"#7 c #01aceb",
"aM c #01aeed",
"#f c #02aeed",
"#g c #02afed",
"aB c #03afee",
"aH c #04afed",
"aL c #04b0ee",
"au c #06a9e8",
"aj c #06aae9",
"aC c #07b1ee",
"#r c #07b1ef",
"#T c #08aceb",
"#p c #08b0ee",
"aI c #08b1ee",
"#u c #08b1ef",
"#s c #08b2ef",
"#t c #09b2ef",
"#y c #0aacea",
"#q c #0ab2ee",
"aJ c #0bb3ef",
"aD c #0db4ef",
"#G c #0eb5ef",
"aK c #0fb5ef",
".e c #149ddc",
".f c #149ddd",
".g c #149edd",
".h c #149ede",
"aZ c #149fdd",
".i c #149fde",
"aY c #14a0df",
"#C c #17b5ef",
"#h c #19b5ef",
"#M c #19b6ef",
"## c #1aafe9",
"#P c #1bbaf0",
".l c #1ca0dd",
"aX c #1fa2de",
".9 c #1fb4ec",
"#F c #21baf0",
"ap c #22b3ec",
".q c #23a3df",
"#Q c #26bdf1",
".A c #2aa9e1",
".B c #2aaae3",
".C c #2aace4",
".L c #2aace5",
".D c #2aaee6",
".E c #2aafe7",
".K c #2ab0e7",
".F c #2ab1e8",
".G c #2ab2e9",
".H c #2ab3ea",
".I c #2ab4ea",
".J c #2ab4eb",
"ad c #2cbaef",
"ao c #2db8ed",
"#H c #2ebef1",
"#3 c #2fbaee",
"ar c #36c3f2",
"aE c #37c2f1",
"#Z c #40c6f3",
"aG c #42bded",
"a. c #45c8f3",
"ag c #48caf3",
"#J c #4ac2f0",
"#8 c #4dc6f2",
"#. c #4fc2ef",
".t c #54b8e6",
"#6 c #54b9e6",
".1 c #54bae7",
"#b c #54bbe9",
"#l c #54bcea",
"#A c #54beeb",
"#K c #54bfeb",
"#U c #54bfec",
"#4 c #54c0ec",
"ac c #54c1ed",
"ay c #5bcdf4",
"ax c #66d0f5",
"am c #6dd4f6",
"#0 c #6ed3f5",
".v c #70c3ea",
".M c #70c4ea",
"aa c #70d0f4",
".y c #7ec9ec",
"#5 c #7ecaec",
".N c #7ecbed",
".2 c #7eccee",
"#c c #7ecdee",
"#m c #7eceef",
"#B c #7ecef0",
"#L c #7ecff0",
"#V c #7ed0f1",
"al c #7ed9f6",
"#W c #7fd6f6",
"at c #82d4f4",
"#v c #82d7f6",
"#k c #84d4f4",
".m c #90d1ee",
".z c #94d2ef",
".p c #9bd5f0",
"av c #9bdef6",
"#O c #9ce1f8",
"ah c #9de2f8",
"az c #9fddf6",
"#D c #a2e2f8",
"aO c #aadff5",
"aP c #aae0f6",
"aQ c #aae1f7",
"aR c #aae2f8",
"#i c #aae3f8",
"aU c #aae3f9",
"#E c #aae4f9",
"#S c #abe3f8",
"aw c #abe4f9",
"#9 c #abe6f9",
"aS c #ace5f9",
"#N c #ade5f9",
"aT c #aee6f9",
"#R c #b5e8fa",
".n c #bfe4f5",
"aW c #bfe4f6",
".o c #bfe5f6",
"aV c #c6e9f8",
"ai c #c6ecfa",
"aq c #c9eefb",
"ae c #d2f0fb",
"aN c #d4effa",
"as c #d5f2fc",
"#Y c #d8f3fc",
"#2 c #d9f2fc",
"a# c #ecf9fd",
"#I c #edf9fd",
"#x c #f0fafd",
"aF c #f1fafe",
"an c #f2fbfe",
"#1 c #f3fbfe",
"#X c #f6fcfe",
"ak c #f7fcfe",
"af c #f8fcfe",
"#j c #f9fdfe",
"#w c #fbfdfe",
".u c #ffffff",
"QtQtQtQtQtQtQtQtQtQtQtQtQtQtQtQtQtQtQtQtQtQtQtQtQtQtQtQtQtQtQtQt",
"QtQtQtQtQtQtQtQtQtQtQtQtQtQtQtQtQtQtQtQtQtQtQtQtQtQtQtQtQtQtQtQt",
"QtQtQtQtQtQtQtQtQtQtQtQtQtQtQtQtQtQtQtQtQtQtQtQtQtQtQtQtQtQtQtQt",
"QtQtQt.#.a.a.a.a.a.a.a.a.a.a.a.a.a.a.a.a.a.a.a.a.a.a.a.a.#QtQtQt",
"Qt.b.c.d.e.e.e.e.e.e.e.f.g.h.i.i.i.i.h.g.f.e.e.e.e.e.e.e.j.c.bQt",
"Qt.k.l.m.n.n.n.n.n.n.n.n.o.o.o.o.o.o.o.o.n.n.n.n.n.n.n.n.p.q.kQt",
".r.s.t.u.u.u.u.u.u.u.u.u.u.u.u.u.u.u.u.u.u.u.u.u.u.u.u.u.u.v.s.r",
".w.x.t.u.u.u.u.u.u.u.u.u.u.u.u.u.u.u.u.u.u.u.u.u.u.u.u.u.u.y.x.w",
".w.x.t.u.u.z.A.B.C.D.E.F.G.H.I.J.J.I.H.G.F.K.D.L.B.A.M.u.u.y.x.w",
".w.x.t.u.u.N.O.P.Q.R.S.T.U.V.W.W.W.W.V.X.Y.S.R.Q.Z.0.1.u.u.y.x.w",
".w.x.t.u.u.2.Z.Q.3.T.U.4.5.6.7.8.8.7.6.9#.##.T#a.Q.Z#b.u.u.y.x.w",
".w.x.t.u.u#c.Q.R.T.U.W#d.8#e#f#g#g#f#h#i#j#k.X.T.R.Q#l.u.u.y.x.w",
".w.x.t.u.u#m#n.S.U.W.7#o#p#q#r#s#t#u#v#w.u#x#y.X.T#z#A.u.u.y.x.w",
".w.x.t.u.u#B.3.T.4.5#o#C#D#E#F#G#G#H#I.u.u.u#J.W.Y.S#K.u.u.y.x.w",
".w.x.t.u.u#L.S.U.5.8#M#N.u.u#O#P#Q#R.u.u.u.u#S#T.X.T#U.u.u.y.x.w",
".w.x.t.u.u#V.T.V.6#e#W#X.u.u#Y#Z#0#1.u.u.u.u#2#3.4.Y#4.u.u#5.x.w",
".w.x#6.u.u#V.Y.W#7#8.u.u.u.u#9a.a#.u.u.u.u.u.uaa.Wabac.u.u#5.x.w",
".w.x#6.u.u#Vab.Wadae.u.u.uafagah.u.u.u.u.u.u.uai.5.Uac.u.u#5.x.w",
".w.x#6.u.u#Vabajai.u.u.uakalaman.u.u.u.u.u.u.u.uao.Uac.u.u#5.x.w",
".w.x#6.u.u#V.Yap.u.u.u.uaqaras.u.u.u.u.u.u.u.u.uatabac.u.u#5.x.w",
".w.x.t.u.u#V.Yauav#iaw#Naxay.u.u.u.u.u.u.u.u.u.uaz.Y#4.u.u#5.x.w",
".w.x.t.u.u#LaA.X.5.8aBaCaDaEaF.u.u.u.u.u.u.u.u#xaG.T#4.u.u#5.x.w",
".w.x.t.u.u#B#a.Y.W.6#oaHaIaJaDaKaK#GaJ#saLaM.6.W.Y.S#U.u.u.y.x.w",
".w.x.t.u.uaNaOaPaQaR#i#EaS#N#NaTaTaT#NaSawaUaRaQaPaOaV.u.u.y.x.w",
".w.x.t.u.u.u.u.u.u.u.u.u.u.u.u.u.u.u.u.u.u.u.u.u.u.u.u.u.u.y.x.w",
".w.x.t.u.u.u.u.u.u.u.u.u.u.u.u.u.u.u.u.u.u.u.u.u.u.u.u.u.u.y.x.w",
".w.x.t.u.u.u.u.u.u.u.u.u.u.u.u.u.u.u.u.u.u.u.u.u.u.u.u.u.u.y.x.w",
".w.x.t.u.u.u.u.u.u.u.u.u.u.u.u.u.u.u.u.u.u.u.u.u.u.u.u.u.u.y.x.w",
".w.x.t.u.u.u.u.u.u.u.u.u.u.u.u.u.u.u.u.u.u.u.u.u.u.u.u.u.u.y.x.w",
".r.s.t.u.u.u.u.u.u.u.u.u.u.u.u.u.u.u.u.u.u.u.u.u.u.u.u.u.u.v.s.r",
"Qt.k.l.z.n.n.n.n.n.n.naW.o.o.o.o.o.o.o.oaW.n.n.n.n.n.n.n.zaX.kQt",
"Qt.b.c.j.e.e.e.e.e.e.f.g.g.i.iaYaYaY.iaZ.g.f.e.e.e.e.e.e.d.c.bQt"};
