/* XPM */
static char *dummy[]={
"32 32 238 2",
"Qt c None",
".h c #000102",
".X c #000204",
".x c #000305",
".g c #000508",
"bE c #00080c",
"#T c #000d13",
".N c #001018",
"bt c #00141e",
".i c #001621",
".Y c #001824",
".7 c #001925",
".O c #001b28",
".# c #001c29",
"#k c #001c2a",
"#7 c #002537",
".f c #002639",
".w c #00293c",
".W c #002a3d",
"#c c #002d41",
"#F c #002d42",
"bN c #002e43",
"bi c #00334b",
"bM c #003b57",
".6 c #003c58",
".a c #004260",
".y c #004363",
"#l c #004463",
"bQ c #004868",
".j c #004c6f",
".e c #004e72",
".M c #00567f",
"b# c #005982",
".b c #005a85",
".v c #005b85",
".d c #005e8b",
".c c #006391",
"#d c #006a9b",
"bR c #006c9d",
".P c #006c9e",
"#S c #0071a5",
"#u c #0074a9",
"bs c #0079af",
".Z c #0079b0",
".z c #007ab3",
".k c #007eb8",
"#j c #007fb8",
"a2 c #0080bc",
"#U c #0083bd",
"bD c #0085c2",
".5 c #0086c3",
".L c #0089c8",
".V c #038ac8",
"#6 c #008aca",
"av c #008dce",
".u c #038ece",
"bL c #0693d2",
"aU c #0091d4",
"bh c #0695d6",
".0 c #23a3de",
"aA c #0096db",
"#p c #00abeb",
"aW c #00acec",
"a9 c #00adec",
"ap c #00aded",
"bw c #00aeed",
"#B c #01aded",
"#A c #01aeed",
"aC c #02aeed",
"aZ c #02aeee",
"bc c #02afed",
"a8 c #03afed",
"#J c #03afee",
"#O c #04afee",
"bx c #04b0ee",
"aO c #0598dc",
"#K c #05b0ee",
"#N c #05b1ee",
"bf c #06aeec",
"#P c #06b0ee",
"#L c #06b1ee",
"#Y c #07b1ee",
"#M c #07b1ef",
"#I c #08b0ee",
"aR c #08b1ee",
"aD c #08b2ef",
"#2 c #09b2ef",
"#b c #0a9adc",
"bC c #0aaeec",
"a4 c #0aafec",
"bq c #0aafed",
"#C c #0ab0ed",
"#Z c #0ab2ef",
"#X c #0bb1ee",
"#0 c #0bb3ef",
"#9 c #0cb3ef",
"#1 c #0cb4ef",
"aG c #0f9cdd",
"#z c #10b2ee",
"ac c #12b7f0",
".l c #139ddd",
".A c #159fdd",
"bP c #159fde",
"bv c #15b1ec",
"bk c #15b2ec",
"#q c #15b2ed",
"al c #17b9f0",
"aS c #18b4ee",
"#y c #19b6ef",
"ad c #19b8f0",
"bp c #1ab7ef",
".t c #1ca1de",
".Q c #1ca2de",
"aq c #1eb9f0",
"aH c #22b7ee",
"#f c #23b4ec",
"af c #26a7e0",
".K c #2aa7e1",
"bH c #2ab8ee",
"aB c #2ab9ef",
".U c #2da9e1",
"bA c #2daae1",
"a0 c #2dbaef",
"bd c #2dbdf1",
"#x c #2ebcf0",
"bG c #31baee",
"aP c #31bbef",
"ah c #31bcf0",
".m c #33abe2",
"a7 c #37c0f2",
"#t c #38aee3",
"a. c #3ac2f2",
".s c #3fb0e4",
"#3 c #41c3f2",
"bB c #42c0ef",
"bb c #42c1f0",
".8 c #46b3e5",
"be c #4cc7f3",
".n c #4db6e6",
"bI c #4dc3f0",
"aw c #4dc5f1",
"ai c #4ec8f3",
".r c #51b8e7",
".o c #54bae7",
"bl c #59caf4",
"aX c #5acbf4",
".4 c #5bbce8",
"bF c #5bc8f1",
"aV c #5bc9f2",
"ae c #5cccf4",
".q c #5fbee8",
"#R c #62bfe9",
"#i c #66c1e9",
"b. c #66ccf3",
"#w c #66cdf4",
"#a c #6dc3ea",
"by c #6dcef3",
"#W c #6dd0f4",
"bo c #6dd1f5",
"ax c #70d2f5",
"#V c #71c4ea",
".B c #71c4eb",
".p c #74c6eb",
".R c #78c8ec",
"am c #78d6f6",
"br c #7bcaec",
"a1 c #7fcbed",
"#o c #7fd5f5",
"aK c #81d7f6",
"aJ c #84d8f6",
"#r c #89d8f5",
"#H c #89d9f6",
"aL c #8ad9f6",
"bJ c #8dd9f5",
"ao c #8dd9f6",
"#Q c #8fdbf6",
"#D c #94dcf6",
"at c #96e0f8",
".J c #98d4f0",
"au c #9bd6f1",
"bO c #9bd7f1",
"bu c #9bddf6",
"#8 c #9bdef7",
"bm c #9ee0f8",
"aQ c #9fe1f8",
"aT c #a2d9f2",
"az c #aadcf3",
"#e c #aae2f7",
"bn c #ace5f9",
"bK c #adddf3",
"a3 c #ade3f8",
"aY c #ade5f9",
"a# c #aee5f9",
"aN c #afdef4",
"aE c #afe6f9",
".T c #b0dff4",
"ab c #b0e7fa",
"ak c #b1e8fa",
"aI c #b2e7fa",
"#g c #b7e6f9",
"## c #b8e6f8",
"a5 c #b8e8fa",
"aF c #b9e3f5",
".C c #bde4f5",
".1 c #bfe4f5",
"#n c #c2ebfa",
"as c #c3edfb",
"#5 c #c6e7f6",
".I c #c6e8f7",
"#. c #cdedfa",
"bg c #cdeefa",
"#v c #cdeefb",
"#4 c #cfeffb",
".3 c #d4edf8",
"bj c #d4f0fb",
"bz c #d7eff9",
"ag c #d7f2fb",
"#m c #d7f2fc",
"aj c #d9f3fc",
".9 c #dbf0fa",
".D c #ddf1fa",
"aM c #dff4fc",
"ba c #e6f6fc",
".H c #e9f6fb",
"an c #e9f8fd",
"ar c #eaf8fd",
"#h c #edf7fc",
"#G c #edf9fd",
".S c #f0f9fc",
"aa c #f1fafe",
"#E c #f4fbfe",
"ay c #f5fcfe",
"#s c #f7fbfd",
".E c #f7fcfd",
".2 c #f7fcfe",
".G c #fbfdfe",
"a6 c #fdfefe",
".F c #ffffff",
"QtQtQtQtQtQtQtQtQtQtQtQtQtQtQtQtQtQtQtQtQtQtQtQtQtQtQtQtQtQtQtQt",
"QtQtQtQtQtQtQtQtQtQtQtQt.#.a.b.c.c.c.d.e.f.gQtQtQtQtQtQtQtQtQtQt",
"QtQtQtQtQtQtQtQt.h.i.j.k.l.m.n.o.p.q.r.s.t.u.v.w.xQtQtQtQtQtQtQt",
"QtQtQtQtQtQtQtQt.y.z.A.B.C.D.E.F.F.F.G.H.I.J.K.L.M.NQtQtQtQtQtQt",
"QtQtQtQtQtQt.O.P.Q.R.S.F.F.F.F.F.F.F.F.F.F.F.E.T.U.V.W.XQtQtQtQt",
"QtQtQtQtQt.Y.Z.0.1.2.F.F.F.F.F.F.F.F.F.F.F.F.F.F.3.4.5.6QtQtQtQt",
"QtQtQtQt.7.Z.8.9.F.F.F.F.F.F.F.F#.##.F.F.F.F.F.F.F.F#a#b#c.hQtQt",
"QtQtQtQt#d.0.9.F.F.F.F.F.F.F.F.F#e#f#g.F.F.F.F.F.F.F#h#i#j#kQtQt",
"QtQt.h#l.Q.1.F.F.F.F.F.F.F.G#m#n#o#p#q#r.G.F.F.F.F.F.F#s#t#u.xQt",
"QtQt.i.z.R.2.F.F.F.F.F.F#v#w#x#y#z#A#B#C#D#E.F.F.F.F.F.F.T.A#FQt",
"QtQt.j.A.S.F.F.F.F.F#G#H#I#J#K#L#M#M#N#O#P#Q.F.F.F.F.F.F.E#R#S#T",
"QtQt#U#V.F.F.F.F.F.F#W#X#O#Y#Z#0#1#1#0#2#3#4.F.F.F.F.F.F.F#5#6#7",
"Qt.#.l.C.F.F.F.F.G#8#B#O#9a.a#aaabacadae.2.F.F.F.F.F.F.F.F.Faf.e",
"Qt.a.m.D.F.F.F.Fagah#J#Yaiaj.F.Fakalaman.F.F.F.F.F.F.F.F.F.F#i#u",
"Qt.b.n.E.F.F.F.Faoap#Kaqar.F.F.Fasat.F.F.F.F.F.F.F.F.F.F.F.Fauav",
"Qt.c.o.F.F.F.F.Faw#A#Lax.F.F.F.Fayay.F.F.F.F.F.F.F.F.F.F.F.FazaA",
"Qt.c.p.F.F.F.F.FaBaCaDaE.F.F.F.F.F.F.F.F.F.F.F.F.F.F.F.F.F.FaFaG",
"Qt.c.q.F.F.F.F.FaH#A#9aI.F.F.F.F.F.F.F.F.F.FaJaKaLaM.F.F.F.FaNaO",
"Qt.d.r.G.F.F.F.FaP#B#NaQ.F.F.F.F.F.F.F.F.FaaaR#JaS#n.F.F.F.FaTaU",
"Qt.e.s.H.F.F.F.FaVaW#OaX.F.F.F.F.F.F.F.F.FaY#PaZa0ag.F.F.F.Fa1a2",
"Qt.f.t.I.F.F.F.Fa3a4#A#Ka5a6.F.F.F.F.F.Faja7a8a9b..G.F.F.F.F#tb#",
"Qt.g.u.J.F.F.F.FbabbaWbcbda5.F.F.F.F.FarbeaR#Bbfbg.F.F.F.F.Hbhbi",
"QtQt.v.K.E.F.F.F.FbjbkaWaC#Kblbmbnbnbobpa8#Bbq#r.F.F.F.F.Gbrbsbt",
"QtQt.w.L.T.F.F.F.F.FbubvaWbwaZ#Jbxbx#JaZa9#pby#G.F.F.F.FbzbA.j.h",
"QtQt.x.M.U.3.F.F.F.F.FbjbBbCaWaWa9a9aW#paPbu.F.F.F.F.F.G.4bDbEQt",
"QtQtQt.N.V.4.F.F.F.F.F.Fbaa3bFbGbHbHbIbJag.G.F.F.F.F.FbKbLbMQtQt",
"QtQtQtQtbN.5#a#h.F.F.F.F.F.F.F.F.F.F.F.F.F.F.F.F.F.FbObPbQ.xQtQt",
"QtQtQtQt.X.6#b#i#s.F.F.F.F.F.F.F.F.F.F.F.F.F.F.F.GbKbPbR.gQtQtQt",
"QtQtQtQtQtQt#c#j#t.T.E.F.F.F.F.F.F.F.F.F.F.F.Gbz.4bLbQ.gQtQtQtQt",
"QtQtQtQtQtQt.h#k#u.A#R#5.F.F.F.F.F.F.F.F.F.HbrbAbDbM.xQtQtQtQtQt",
"QtQtQtQtQtQtQtQt.x#F#S#6af#iauazaFaNaTa1#tbhbs.jbEQtQtQtQtQtQtQt",
"QtQtQtQtQtQtQtQtQtQt#T#7.e#uavaAaGaOaUa2b#bibt.hQtQtQtQtQtQtQtQt"};
