/* XPM */
static char *dummy[]={
"32 32 217 2",
"Qt c None",
".h c #000102",
".X c #000204",
".x c #000305",
".g c #000508",
"bo c #00080c",
"#z c #000d13",
".N c #001018",
"bd c #00141e",
".i c #001621",
".Y c #001824",
".7 c #001925",
".O c #001b28",
".# c #001c29",
"#f c #001c2a",
"#L c #002637",
".f c #002639",
".w c #00293c",
".W c #002a3d",
"#a c #002d42",
"bs c #002e43",
"a7 c #00334b",
"br c #003b57",
".6 c #003c58",
".a c #004260",
".y c #004363",
"#g c #004463",
"bv c #004869",
".j c #004c6f",
".e c #004e72",
".M c #00567f",
"aY c #005982",
".b c #005a85",
".v c #005b85",
".d c #005f8b",
".c c #006391",
"#b c #006a9b",
"bw c #006c9d",
".P c #006c9e",
"#y c #0071a5",
"#m c #0074a9",
"bc c #0079af",
".Z c #0079b1",
".z c #007ab3",
".k c #007eb8",
"#e c #007fb9",
"aT c #0081bc",
"#A c #0083be",
"bn c #0085c2",
".5 c #0086c3",
".L c #0089c8",
".V c #038ac8",
"#K c #008aca",
"ab c #008dce",
".u c #038ece",
"bq c #0693d2",
"aN c #0092d4",
"a6 c #0695d6",
".0 c #23a3de",
"al c #0096db",
"bf c #00acec",
"#s c #01aded",
"a8 c #02aeed",
"#t c #03afee",
"#D c #04afee",
"at c #04b0ee",
"aF c #0598dc",
"a9 c #05b0ee",
"a0 c #06b1ee",
"#E c #07b1ee",
"#N c #09b2ef",
"as c #09b3ef",
"## c #0a9adc",
"#F c #0ab2ef",
"aV c #0ab3ef",
"#O c #0cb4ef",
"a1 c #0db4ef",
"#G c #0eb4ef",
"ah c #0eb5ef",
"ax c #0f9cdd",
"#P c #0fb5ef",
"ar c #10b5f0",
"#W c #10b6ef",
"aH c #10b6f0",
"#Q c #11b6f0",
"aB c #12b4ef",
"#R c #12b7f0",
".l c #139ddd",
"#X c #13b7f0",
"aA c #14b8f0",
".A c #159fdd",
"bu c #159fde",
"b. c #15b5ef",
"aq c #15b8f0",
"#Y c #16b9f0",
"#0 c #17b9f0",
"#Z c #17baf0",
"aI c #18baf0",
"#5 c #18baf1",
"ag c #19baf1",
"#o c #1ab3ed",
"ai c #1ab7f0",
"#9 c #1abbf1",
"ap c #1bbbf1",
".t c #1ca1de",
".Q c #1ca2de",
"#6 c #1cbcf1",
"bg c #1db7ef",
"a2 c #1db9f0",
"#8 c #1dbcf1",
"#7 c #1ebcf1",
"az c #1fbdf1",
"ad c #20bef1",
"#u c #21b9f0",
"af c #21bff1",
"aJ c #22bbf0",
"ae c #22bff2",
"au c #24b9ef",
"ay c #24c0f2",
"ao c #25c1f2",
"#U c #26a7e0",
"an c #27c2f2",
".K c #2aa7e1",
".U c #2da9e1",
"bk c #2daae1",
"#1 c #32c0f1",
".m c #33abe2",
"a. c #35c1f1",
"#l c #38aee3",
".s c #3fb0e4",
"aW c #43c5f2",
".8 c #46b3e5",
"aP c #4cc8f3",
".n c #4db6e6",
".r c #51b8e7",
"b# c #51c9f3",
".o c #54bae7",
"be c #54c7f2",
"#r c #54c8f2",
"#C c #55c9f3",
"aZ c #57caf3",
"#H c #57cbf3",
"#M c #58caf3",
"aU c #59cbf4",
"#V c #5acbf4",
".4 c #5bbce8",
"aO c #5bccf4",
"#4 c #5cccf4",
"aG c #5dccf4",
"ac c #5dcdf4",
"am c #5ecdf4",
".q c #5fbee8",
"#x c #62bfe9",
"#d c #66c1e9",
"#n c #66cbf2",
"#p c #68cef4",
"#. c #6dc3ea",
"#B c #71c4ea",
".B c #71c4eb",
"#S c #73d4f5",
".p c #74c6eb",
"a3 c #74d4f6",
"aK c #76d4f6",
".R c #78c8ec",
"bb c #7bcaec",
"aS c #7fcbed",
"bm c #89d8f5",
"#v c #8ddbf7",
".J c #98d4f0",
"aC c #99def7",
"aa c #9bd6f1",
"bt c #9bd7f1",
"#2 c #9be0f8",
"aX c #9de1f8",
"aM c #a2d9f2",
"ak c #aadcf3",
"bh c #abe4f8",
"bp c #adddf3",
"aE c #afdef4",
".T c #b0dff4",
"bl c #b0e4f8",
"a# c #b0e6f9",
"aQ c #b5e8fa",
"aw c #b9e3f5",
".C c #bde4f5",
".1 c #bfe4f5",
"#I c #c2ecfa",
"#i c #c4ebfa",
"#J c #c6e7f6",
".I c #c6e8f7",
"#T c #cbeffb",
"av c #cfeffb",
".3 c #d4edf8",
"ba c #d6f2fc",
"bj c #d7eff9",
"#h c #d7f1fb",
".9 c #dbf0fa",
"a4 c #dcf4fc",
".D c #ddf1fa",
"aj c #e2f5fc",
"aL c #e3f6fd",
".H c #e9f6fb",
"#w c #eaf8fd",
"#c c #edf7fc",
"bi c #edf9fd",
"aD c #eff9fd",
".S c #f0f9fc",
"#q c #f0fafd",
"#3 c #f1fafe",
"#j c #f6fcfe",
"#k c #f7fbfd",
".E c #f7fcfd",
".2 c #f7fcfe",
"aR c #f8fcfe",
".G c #fbfdfe",
"a5 c #fdfefe",
".F c #ffffff",
"QtQtQtQtQtQtQtQtQtQtQtQtQtQtQtQtQtQtQtQtQtQtQtQtQtQtQtQtQtQtQtQt",
"QtQtQtQtQtQtQtQtQtQtQtQt.#.a.b.c.c.c.d.e.f.gQtQtQtQtQtQtQtQtQtQt",
"QtQtQtQtQtQtQtQt.h.i.j.k.l.m.n.o.p.q.r.s.t.u.v.w.xQtQtQtQtQtQtQt",
"QtQtQtQtQtQtQtQt.y.z.A.B.C.D.E.F.F.F.G.H.I.J.K.L.M.NQtQtQtQtQtQt",
"QtQtQtQtQtQt.O.P.Q.R.S.F.F.F.F.F.F.F.F.F.F.F.E.T.U.V.W.XQtQtQtQt",
"QtQtQtQtQt.Y.Z.0.1.2.F.F.F.F.F.F.F.F.F.F.F.F.F.F.3.4.5.6QtQtQtQt",
"QtQtQtQt.7.Z.8.9.F.F.F.F.F.F.F.F.F.F.F.F.F.F.F.F.F.F#.###a.hQtQt",
"QtQtQtQt#b.0.9.F.F.F.F.F.F.F.F.F.F.F.F.F.F.F.F.F.F.F#c#d#e#fQtQt",
"QtQt.h#g.Q.1.F.F.F.F.F#h#i#j.F.F.F.F.F.F.F.F.F.F.F.F.F#k#l#m.xQt",
"QtQt.i.z.R.2.F.F.F.F.F#n#o#p#q.F.F.F.F.F.F.F.F.F.F.F.F.F.T.A#aQt",
"QtQt.j.A.S.F.F.F.F.F.F#r#s#t#u#v#w.F.F.F.F.F.F.F.F.F.F.F.E#x#y#z",
"QtQt#A#B.F.F.F.F.F.F.F#C#D#E#F#G#H#I.F.F.F.F.F.F.F.F.F.F.F#J#K#L",
"Qt.#.l.C.F.F.F.F.F.F.F#M#N#O#P#Q#R#R#S#T.F.F.F.F.F.F.F.F.F.F#U.e",
"Qt.a.m.D.F.F.F.F.F.F.F#V#O#W#X#Y#Z#0#Y#1#2#3.F.F.F.F.F.F.F.F#d#m",
"Qt.b.n.E.F.F.F.F.F.F.F#4#P#X#5#6#7#8#9#Y#Qa.a##3.F.F.F.F.F.Faaab",
"Qt.c.o.F.F.F.F.F.F.F.Fac#Q#Y#6adaeaf#7ag#Xahai#Maj.F.F.F.F.Fakal",
"Qt.c.p.F.F.F.F.F.F.F.Fam#R#Z#7aeanaoadapaqarasatauav.F.F.F.Fawax",
"Qt.c.q.F.F.F.F.F.F.F.Fam#R#0#8afaoayaz#9aAar#NaBaCaD.F.F.F.FaEaF",
"Qt.d.r.G.F.F.F.F.F.F.FaGaHaq#9#7adaz#6aI#XaJaKaL.F.F.F.F.F.FaMaN",
"Qt.e.s.H.F.F.F.F.F.F.FaO#G#R#Yagap#9aIaAaPaQaR.F.F.F.F.F.F.FaSaT",
"Qt.f.t.I.F.F.F.F.F.F.FaUaVah#Q#XaqaAaWaX.F.F.F.F.F.F.F.F.F.F#laY",
"Qt.g.u.J.F.F.F.F.F.F.FaZa0aVa1aha2a3a4a5.F.F.F.F.F.F.F.F.F.Ha6a7",
"QtQt.v.K.E.F.F.F.F.F.F#ra8a9b.b#ba.F.F.F.F.F.F.F.F.F.F.F.Gbbbcbd",
"QtQt.w.L.T.F.F.F.F.F.Fbebfbgbhbi.F.F.F.F.F.F.F.F.F.F.F.Fbjbk.j.h",
"QtQt.x.M.U.3.F.F.F.F.Fblbmbi.F.F.F.F.F.F.F.F.F.F.F.F.F.G.4bnboQt",
"QtQtQt.N.V.4.F.F.F.F.F.F.F.F.F.F.F.F.F.F.F.F.F.F.F.F.FbpbqbrQtQt",
"QtQtQtQtbs.5#.#c.F.F.F.F.F.F.F.F.F.F.F.F.F.F.F.F.F.Fbtbubv.xQtQt",
"QtQtQtQt.X.6###d#k.F.F.F.F.F.F.F.F.F.F.F.F.F.F.F.Gbpbubw.gQtQtQt",
"QtQtQtQtQtQt#a#e#l.T.E.F.F.F.F.F.F.F.F.F.F.F.Gbj.4bqbv.gQtQtQtQt",
"QtQtQtQtQtQt.h#f#m.A#x#J.F.F.F.F.F.F.F.F.F.Hbbbkbnbr.xQtQtQtQtQt",
"QtQtQtQtQtQtQtQt.x#a#y#K#U#daaakawaEaMaS#la6bc.jboQtQtQtQtQtQtQt",
"QtQtQtQtQtQtQtQtQtQt#z#L.e#mabalaxaFaNaTaYa7bd.hQtQtQtQtQtQtQtQt"};
