/* XPM */
static char *dummy[]={
"32 32 237 2",
"Qt c None",
".1 c #000001",
".A c #000102",
".U c #000204",
".# c #000507",
".8 c #001118",
"#q c #001219",
"aw c #001119",
"#4 c #001925",
".d c #002232",
".J c #002433",
".B c #002636",
"bO c #002436",
"#3 c #002838",
"#P c #002a3b",
"an c #002f44",
"#k c #00364a",
".n c #003349",
".r c #00344a",
".v c #00354b",
".z c #00364c",
".K c #00364d",
".T c #00364e",
"aJ c #00354e",
"#d c #003d56",
"#j c #003e56",
".C c #003c55",
".I c #003c56",
"aF c #003a54",
".a c #003a56",
".j c #004461",
"#O c #004865",
"#z c #004a68",
"a4 c #004a6c",
".o c #004d6f",
".s c #004f70",
".w c #005071",
".D c #005172",
"#r c #00587b",
"aK c #00547b",
"ac c #005a82",
"am c #005b82",
".7 c #005d84",
".2 c #00628c",
".H c #006d99",
".0 c #006996",
".V c #006c9a",
"a5 c #006797",
"#s c #0078a6",
"#y c #0079a6",
".E c #007bac",
"ax c #0073a6",
"bL c #0075ac",
"#5 c #0082b9",
".e c #0086c4",
".i c #0087c4",
".S c #008eca",
".9 c #0093cf",
"#c c #0094d0",
"#N c #0095d0",
".L c #008fcd",
"#i c #009ad5",
"#A c #0398d3",
"#e c #039bd5",
".b c #008cce",
"#p c #00a5e2",
"#t c #00a6e3",
"#2 c #039ddc",
"#l c #03a6e2",
"#Q c #0a9fdb",
"bk c #0090d3",
"bh c #0693d4",
"aI c #0695d6",
"aG c #0a99d9",
"ad c #14a4e0",
"al c #14a5e1",
".M c #009fe1",
".c c #0095da",
"bP c #0096da",
"bQ c #0096db",
".m c #009ade",
".q c #009ce0",
".u c #009fe2",
".y c #00a2e4",
".R c #00a3e4",
".N c #00a4e6",
".G c #00a5e7",
".O c #00a6e7",
"#x c #04b0ee",
"#u c #07b1ee",
"bJ c #0d9adb",
"a3 c #0d9bdc",
"ao c #0ea0e0",
"av c #0ea1e1",
"bl c #149ddc",
".Q c #14afea",
"aL c #189fdd",
".k c #1ba4e1",
"bg c #1ca1de",
"a6 c #23a3df",
".p c #2aace4",
".t c #2aafe6",
".x c #2ab1e8",
".F c #2ab3eb",
"#B c #34baed",
"bN c #38ace2",
".6 c #38b6ea",
".P c #38bbed",
"ar c #3dc5f2",
"bM c #3fafe2",
".3 c #3fb9ea",
"as c #3fc6f3",
"#K c #40c4f2",
"#F c #43c5f2",
"#0 c #45c6f2",
"#b c #46bfee",
"#o c #48c5f2",
"#V c #48c7f2",
".Z c #4abbeb",
"a# c #4ac9f3",
"#7 c #4cc9f3",
"ak c #4ccaf3",
"ag c #4fcaf3",
"bp c #54bae7",
"bq c #54bbe8",
"aN c #54bce9",
"a2 c #54bde9",
"br c #54bdea",
"aO c #54beeb",
"bs c #54bfec",
"aP c #54c0ec",
"bt c #54c0ed",
"bx c #54c1ed",
"aQ c #54c2ee",
"bu c #54c3ee",
"aR c #54c3ef",
"a1 c #54c4ef",
"bv c #54c4f0",
"bw c #54c5f0",
"aS c #54c5f1",
"a0 c #54c6f1",
"aT c #54c7f2",
"#J c #54caf4",
"aU c #55c9f3",
"aq c #56cdf4",
".W c #57c0ec",
"aV c #57caf3",
"at c #57cdf4",
"aW c #59cbf4",
"aZ c #5acbf4",
"ay c #5bbee9",
"aE c #5bbeea",
"aX c #5bccf4",
"aY c #5cccf4",
"a. c #5ccff4",
"#1 c #5fc6ef",
"#. c #5fc7f0",
"#C c #5fcaf2",
"#M c #5fcaf3",
"#h c #62cbf3",
"#m c #64cdf3",
"#6 c #66c7ee",
"ab c #66c7ef",
"#R c #69caf0",
"#w c #69d0f5",
"#G c #6ed2f5",
"a7 c #70c5eb",
"bf c #70c6eb",
"aM c #70c6ec",
".h c #71c5ea",
"#Z c #71d4f6",
"#8 c #75d5f6",
"aj c #76d6f6",
".f c #78c8eb",
"bA c #7ecaed",
"bB c #7ecbed",
"a8 c #7eccee",
"bC c #7ecdee",
"a9 c #7eceef",
"bD c #7ecef0",
"b. c #7ecff0",
"bH c #7ed0f0",
"bE c #7ed0f1",
"b# c #7ed1f1",
"bF c #7ed1f2",
"ba c #7ed2f2",
"bG c #7ed2f3",
"bb c #7ed3f3",
"#f c #7ed4f4",
"bc c #7fd5f5",
"#D c #80d6f6",
"bd c #81d7f6",
"#E c #82d7f6",
"#L c #82d8f6",
"#v c #83d8f6",
"be c #84d8f6",
"#W c #8adbf7",
"ah c #8bdcf7",
"bj c #8dcfee",
"bz c #8dd1ef",
"bi c #9bd5f0",
"bI c #9bd7f1",
"ap c #a2dbf3",
"au c #a2dcf3",
"bn c #aadbf2",
".g c #aadcf3",
"bK c #b7e1f4",
"aB c #baeafa",
"aC c #bcebfa",
"bm c #bfe4f5",
"bo c #c6e7f6",
"by c #c6e9f8",
"#U c #d1f1fc",
"af c #d3f2fc",
"#S c #dff4fc",
"aH c #e2f3fa",
"ae c #e2f4fb",
".5 c #e2f4fc",
".4 c #e6f6fc",
"aA c #e7f7fd",
"aD c #e8f8fd",
"#a c #e9f7fd",
"#g c #e9f8fd",
"#n c #eaf8fd",
"#I c #ebf8fd",
"#Y c #ebf9fd",
"#9 c #ecf9fd",
"az c #f0f9fd",
"ai c #f2fbfe",
".Y c #f4fafd",
"aa c #f4fbfd",
"## c #f4fbfe",
"#H c #f5fbfe",
"#X c #f5fcfe",
".X c #f7fcfe",
"#T c #fbfdfe",
".l c #ffffff",
"QtQtQtQtQtQtQtQtQtQt.#.a.b.c.c.c.c.c.c.b.a.#QtQtQtQtQtQtQtQtQtQt",
"QtQtQtQtQtQtQtQtQtQt.d.e.f.g.g.g.g.g.g.h.i.dQtQtQtQtQtQtQtQtQtQt",
"QtQtQtQtQtQtQtQtQtQt.j.k.l.l.l.l.l.l.l.l.m.nQtQtQtQtQtQtQtQtQtQt",
"QtQtQtQtQtQtQtQtQtQt.o.p.l.l.l.l.l.l.l.l.q.rQtQtQtQtQtQtQtQtQtQt",
"QtQtQtQtQtQtQtQtQtQt.s.t.l.l.l.l.l.l.l.l.u.vQtQtQtQtQtQtQtQtQtQt",
"QtQtQtQtQtQtQtQtQtQt.w.x.l.l.l.l.l.l.l.l.y.zQtQtQtQtQtQtQtQtQtQt",
"QtQtQtQtQt.A.B.C.w.D.E.F.l.l.l.l.l.l.l.l.G.H.D.w.I.J.AQtQtQtQtQt",
"QtQtQtQtQt.K.L.M.y.N.O.P.l.l.l.l.l.l.l.l.Q.O.N.R.M.S.TQtQtQtQtQt",
"QtQtQtQt.U.V.W.X.l.l.l.l.l.l.l.l.l.l.l.l.l.l.l.l.Y.Z.0QtQtQtQtQt",
"QtQtQtQt.1.2.3.4.l.l.l.l.l.l.l.l.l.l.l.l.l.l.l.l.5.6.7QtQtQtQtQt",
"QtQtQtQtQt.8.9#.##.l.l.l.l.l.l.l.l.l.l.l.l.l.l#a#b#c.8QtQtQtQtQt",
"QtQtQtQtQtQt#d#e#f##.l.l.l.l.l.l.l.l.l.l.l.l#g#h#i#jQtQtQtQtQtQt",
"QtQtQtQtQtQtQt#k#l#m##.l.l.l.l.l.l.l.l.l.l#n#o#p#kQtQtQtQtQtQtQt",
"QtQtQtQtQt#q#r#s#t#u#v##.l.l.l.l.l.l.l.l#n#w#x#t#y#r#qQtQtQtQtQt",
"QtQtQt.A#z#A#B#C#D#E#F#G#H.l.l.l.l.l.l#I#J#K#L#D#M#B#N#OQtQtQtQt",
"QtQtQt#P#Q#R#S#T.l.l#U#V#W#X.l.l.l.l#Y#Z#0#U.l.l#T#S#1#2#3QtQtQt",
"QtQt#4#5#6.Y.l.l.l.l.l#I#7#8#X.l.l#9a.a##I.l.l.l.l.laaab#5#4QtQt",
"QtQtacadae.l.l.l.l.l.l.lafagahai#9ajakaf.l.l.l.l.l.l.laealamQtQt",
".1anaoap.l.l.l.l.l.l.l.l.l#Yaqarasat#Y.l.l.l.l.l.l.l.l.lauavan.1",
"awaxayaz.l.l.l.l.l.l.l.l.l.laAaBaCaD.l.l.l.l.l.l.l.l.l.lazaEaxaw",
"aFaGaH.l.l.l.l.l.l.l.l.l.l.l.l.l.l.l.l.l.l.l.l.l.l.l.l.l.laHaIaJ",
"aKaLaMaNaOaPaQaRaSaTaUaVaWaXaYaYaYaYaXaZaVaUaTa0a1aQaPaOa2aMa3a4",
"a5a6a7a8a9b.b#babb#fbc#Dbd#L#vbebe#v#Lbd#Dbc#fbbbab#b.a9a8bfbga5",
"bhbi.l.l.l.l.l.l.l.l.l.l.l.l.l.l.l.l.l.l.l.l.l.l.l.l.l.l.l.lbjbk",
"blbm.l.l.l.l.l.l.l.l.l.l.l.l.l.l.l.l.l.l.l.l.l.l.l.l.l.l.l.lbn.c",
"blbm.lbobpbqbraObsbtaQbuaRbvbvbwbwbwbva1buaQbxaPby.lbzbpbo.lbn.c",
"blbm.lbobAbBbCa9bDb.bEbFbFbabGbGbGbGbabFbFbEbHb.by.lbIbAbo.lbn.c",
"blbm.l.l.l.l.l.l.l.l.l.l.l.l.l.l.l.l.l.l.l.l.l.l.l.l.l.l.l.lbn.c",
"blbm.l.l.l.l.l.l.l.l.l.l.l.l.l.l.l.l.l.l.l.l.l.l.l.l.l.l.l.lbn.c",
"bJbK.l.l.l.l.l.l.l.l.l.l.l.l.l.l.l.l.l.l.l.l.l.l.l.l.l.l.l.lbn.c",
"bLbMbnbnbnbnbnbnbnbnbnbn.g.g.g.g.g.g.g.gbnbnbnbnbnbnbnbnbnbnbNbL",
"bObL.c.c.c.c.c.c.c.c.c.c.c.cbPbQbQbP.c.c.c.c.c.c.c.c.c.c.c.cbLbO"};
