/* XPM */
static char *dummy[]={
"32 32 227 2",
"Qt c None",
".e c #000102",
".w c #000405",
".m c #000609",
".F c #00080b",
".P c #000a0f",
".G c #000c11",
".H c #000c12",
".# c #00131c",
".d c #00151f",
".x c #002231",
"bE c #002436",
".I c #002739",
".a c #002d41",
".f c #003046",
".l c #003852",
".E c #003e59",
".b c #004261",
".Q c #004464",
".n c #004a6b",
".c c #004b6d",
".O c #004d6f",
".v c #005d87",
".3 c #006291",
".R c #006b9d",
".S c #006fa3",
".T c #0070a3",
".U c #0071a4",
".2 c #0072a4",
".V c #0073a6",
".W c #0075a7",
"bB c #0075ac",
".g c #0079af",
".k c #007bb3",
".J c #0084bc",
".X c #0086c0",
".y c #0394d2",
".N c #0398d7",
".1 c #0699d8",
".o c #0a97d6",
".h c #0093d4",
"#h c #0392d4",
"#e c #0693d4",
".D c #11a0de",
".u c #15a0dd",
".Y c #2aaee5",
"a4 c #0095da",
"aU c #0096db",
"bF c #0097db",
"aN c #0098dc",
"bG c #0098dd",
"aI c #0099dd",
"aV c #009ade",
"ay c #009bde",
"au c #009bdf",
"#G c #009cdf",
"#V c #009ce0",
"#8 c #009de0",
"az c #009ee1",
"#H c #009fe2",
"ap c #00a0e2",
"#W c #00a0e3",
"aA c #00a1e3",
"aW c #00a1e4",
"#I c #00a2e4",
"#X c #00a3e5",
"#9 c #00a4e5",
"aB c #00a4e6",
"#J c #00a5e7",
"aq c #00a6e7",
"#Y c #00a6e8",
"a. c #00a7e8",
"av c #00a8e9",
"#Z c #00a9ea",
"a# c #00aaea",
"af c #00aaeb",
"a5 c #06a2e3",
"bx c #0a99db",
"bA c #0d9adb",
"#i c #149ddc",
"bd c #149fde",
"be c #14a1df",
"bk c #14aee9",
"bj c #14afea",
"bf c #16a4e1",
".i c #1ba3e0",
"bl c #1cafe9",
"aM c #21afe8",
"aY c #21b8ef",
"#B c #22baf0",
".4 c #23a3df",
"#K c #23b4ec",
"aj c #24b4ec",
"a7 c #26b9ef",
".j c #2aaae2",
"#z c #2abef1",
"#S c #2dbbef",
"aP c #32bef1",
"ba c #33b5ea",
"bi c #33b9ed",
"#A c #34c0f1",
"#5 c #36bcef",
"#C c #37c0f1",
"bC c #38ace2",
"a2 c #3ab7ea",
"bm c #3cb9eb",
"#y c #3cc3f2",
"#M c #3cc5f2",
"aw c #3ec3f2",
"#1 c #3ec6f2",
"aK c #40c3f2",
"ar c #41c5f2",
"b# c #44bcec",
"ab c #44c7f3",
"#R c #48c5f2",
"aC c #49c6f3",
"aF c #4abeed",
"an c #4ac0ee",
"al c #50caf4",
"ah c #53ccf4",
"#r c #54bce9",
"#s c #54beeb",
"#t c #54c0ed",
"aS c #56c2ed",
"ae c #56c5f0",
"bg c #59bfea",
"aR c #59c4ee",
"bh c #5dc8f1",
"#u c #5fc6ef",
"ad c #60caf2",
".K c #62c3ec",
"as c #62c8f0",
".0 c #66c5ed",
"#x c #68d1f5",
"a1 c #6bcaf0",
".5 c #70c3ea",
".p c #70c6ec",
"a8 c #70d0f4",
".z c #78caee",
"#4 c #7bd4f5",
".6 c #7ec9ec",
".7 c #7ecaed",
".8 c #7ecbee",
"#d c #7eccee",
".9 c #7ecdef",
"#. c #7eceef",
"#c c #7ecef0",
"at c #7ed1f2",
"#N c #81d9f6",
".t c #82cdee",
"bn c #89d4f2",
"a6 c #8ad9f6",
"#D c #8adaf6",
"## c #90d5f2",
"#L c #92def8",
"aG c #94d8f4",
"ao c #94d9f4",
"aJ c #94def8",
"ag c #95dff8",
"#g c #98d4f0",
".C c #98d7f2",
"aZ c #98def7",
"aD c #9ae0f8",
"#f c #9bd5f0",
".M c #9bd8f3",
"am c #9fe2f8",
"aT c #aadbf2",
"aH c #aadcf3",
"bD c #aaddf3",
"#F c #aaddf4",
"#7 c #aadef4",
"#2 c #ade6f9",
"aQ c #aee5f9",
"bc c #b1def3",
"by c #b4dff4",
"#b c #b4e2f6",
"b. c #b4e4f7",
"aX c #b5e7f9",
"#0 c #b5e8fa",
"ax c #b6e8fa",
"bz c #b7e1f4",
"#n c #b7e9fa",
"#v c #bbe7f8",
"#Q c #bceafa",
"ac c #bdebfa",
"#j c #bfe4f5",
"bq c #bfe5f6",
"bv c #bfe8f9",
"#m c #bfebfa",
"br c #c0e6f6",
"aL c #c0e8f8",
"ai c #c4ebf9",
"#q c #c6e8f7",
"bw c #c6eaf9",
"#o c #c6edfb",
"bb c #c7eaf8",
"#T c #c7ecfa",
"a9 c #c9edfa",
"#O c #d1f0fc",
"aO c #d5f1fc",
"#6 c #d6f1fb",
"aa c #d8f3fc",
"a3 c #d9f1fa",
"#l c #d9f3fc",
".q c #dbf0fa",
"ak c #dbf2fb",
"bu c #ddf3fb",
"#p c #ddf4fc",
"#w c #def5fc",
"bs c #e0f3fb",
".s c #e2f3fb",
".Z c #e2f4fb",
"#a c #e6f5fc",
"a0 c #e7f6fc",
"bp c #e9f6fb",
"#3 c #e9f8fd",
"bo c #edf8fc",
"#E c #edf9fd",
".L c #f0f9fd",
"aE c #f4fbfd",
"#P c #f4fbfe",
"#k c #f6fcfe",
".A c #f7fcfe",
"bt c #f9fdfe",
".B c #fbfdfe",
"#U c #fdfefe",
".r c #ffffff",
"QtQtQtQtQtQtQtQtQtQtQtQtQtQtQtQtQtQtQtQtQtQtQtQtQtQtQtQtQtQtQtQt",
"QtQtQtQtQtQtQtQtQtQtQtQtQtQtQtQtQtQtQtQtQtQtQtQtQtQtQtQtQtQtQtQt",
"QtQtQtQtQtQtQtQtQtQtQtQt.#.a.b.c.c.b.a.dQtQtQtQtQtQtQtQtQtQtQtQt",
"QtQtQtQtQtQtQtQtQtQt.e.f.g.h.i.j.j.i.h.k.l.mQtQtQtQtQtQtQtQtQtQt",
"QtQtQtQtQtQtQtQtQtQt.n.o.p.q.r.r.r.r.s.t.u.v.wQtQtQtQtQtQtQtQtQt",
"QtQtQtQtQtQtQtQtQt.x.y.z.A.r.r.r.r.r.r.B.C.D.E.eQtQtQtQtQtQtQtQt",
"QtQt.F.G.G.G.H.H.I.J.K.L.r.r.r.r.r.r.r.r.B.M.N.O.H.H.G.G.G.FQtQt",
".P.Q.R.S.T.U.V.W.X.Y.Z.r.r.r.r.r.r.r.r.r.r.B.0.1.W.V.2.T.S.R.Q.P",
".3.4.5.6.7.8.9#.###a.r.r.r.r.r.r.r.r.r.r.r.r.B#b#c.9#d.7.6.5.4.3",
"#e#f.r.r.r.r.r.r.r.r.r.r.r.r.r.r.r.r.r.r.r.r.r.r.r.r.r.r.r.r#g#h",
"#i#j.r.r.r.r.r.r.r.r.r.r.r.r.r.r.r.r.r.r.r.r.r.r.r.r.r.r.r.r#j#i",
"#i#j.r.r.r.r.r.r.r.r.r.r.r.r.r.r.r.r.r.r.r.r.r.r.r.r.r.r.r.r#j#i",
"#i#j.r.r.r.r.r.r.r.r.r.r.r.r.r.r#k#l#m#n#o#p.r.r.r.r.r.r.r.r#j#i",
"#i#j#q#r#s#t#u#v.r.r.r.r.r.r.r#w#x#y#z#A#B#C#D#E.r.r.r.r.r.r#j#i",
"#i#j#F#G#H#I#J#K.r.r.r.r.r.B#L#M#N#O.r.r#P#Q#R#S#T#U.r.r.r.r#j#i",
"#i#j#F#V#W#X#Y#Z.r.r.r.r.r#0#1#2.B.r.r.r.r.r#3#4#5#6.r.r.r.r#j#i",
"#i#j#7#8#W#9a.a#.r.r.r.raaabac.r.r.r.r.r.r.r.r.radae.r.r.r.r#j#i",
"#i#j#7#8#W#9a.af.r.r.r.ragah.B.r.r.r.r.r.r.r.r.raiajak.r.r.r#j#i",
"#i#j#7#8#W#Xa.af.r.r.r.ralam.r.r.r.r.r.r.r.r.r.r#Panao.r.r.r#j#i",
"#i#j#F#8ap#Xaq#Z.r.r.r.rar#n.r.r.r.r.r.r.r.r.r.r.rasat.r.r.r#j#i",
"#i#j#Fau#H#I#Jav.r.r.r.rawax.r.r.r.r.r.r.r.r.r.r.rasat.r.r.r#j#i",
"#i#j#FayazaAaBa..r.r.r.raCaD.r.r.r.r.r.r.r.r.r.raEaFaG.r.r.r#j#i",
"#i#jaHaI#8#H#X#J.r.r.r.raJaK.B.r.r.r.r.r.r.r.r.raLaM.Z.r.r.r#j#i",
"#i#jaHaNauazaA#9.r.r.r.raOaPaQ.r.r.r.r.r.r.r.r.raRaS.r.r.r.r#j#i",
"#i#jaTaUaV#V#HaW.r.r.r.r.raXaYaZ.B.r.r.r.r.ra0a1a2a3.r.r.r.r#j#i",
"#i#jaTa4aNay#8a5.r.r.r.r.r.Ba6a7a8a9.r.raEb.b#babb#U.r.r.r.r#j#i",
"#i#jbc#ibdbebfbg.r.r.r.r.r.r.rakbhbibjbkblbmbnbo.r.r.r.r.r.r#j#i",
"#i#jbp#j#jbqbrbs.r.r.r.r.r.r.r.rbtbubvbvbw#a.r.r.r.r.r.r.r.r#j#i",
"#i#j.r.r.r.r.r.r.r.r.r.r.r.r.r.r.r.r.r.r.r.r.r.r.r.r.r.r.r.r#j#i",
"bxby.r.r.r.r.r.r.r.r.r.r.r.r.r.r.r.r.r.r.r.r.r.r.r.r.r.r.r.rbzbA",
"bBbCaTaTaTaTaTaTaTaTaHaHbDbD#F#F#F#FbDbDaHaHaTaTaTaTaTaTaTaTbCbB",
"bEbBa4a4a4a4a4a4a4a4a4aUbFaNaNaNbGaNaNbFaUa4a4a4a4a4a4a4a4a4bBbE"};
