/* XPM */
static char *dummy[]={
"32 32 236 2",
"Qt c None",
".# c #00080b",
".c c #000a0f",
".a c #000c11",
".b c #000c12",
"bF c #002436",
".d c #004464",
".m c #006291",
".e c #006b9d",
".f c #006fa3",
".g c #0070a3",
".l c #0070a4",
".h c #0071a4",
".k c #0072a4",
".i c #0073a6",
".j c #0074a7",
"bx c #0075ac",
".B c #0392d4",
".x c #0693d4",
"bG c #0095da",
"bH c #0097db",
"bP c #0097dc",
"bI c #0098dc",
"bO c #0099dd",
"bJ c #009ade",
"bK c #009bdf",
"bL c #009cdf",
"bN c #009ce0",
"bM c #009de0",
".6 c #00a4e6",
"a4 c #00a5e6",
"#h c #00a6e7",
"#c c #00a6e8",
"a2 c #00a7e8",
"#s c #00a8e9",
"#n c #00a9ea",
"a3 c #00aaea",
"aL c #00aaeb",
"#y c #00abeb",
"a0 c #00acec",
"#M c #00adec",
"aW c #00aded",
"#. c #01aeed",
"#W c #06b1ee",
"#k c #07b1ee",
"av c #07b1ef",
"a. c #08b1ef",
"ak c #08b2ef",
"ae c #09b2ef",
"bt c #0a99db",
"#v c #0cb3ef",
"bw c #0d9adb",
"#Q c #0da2e2",
"#G c #11b6f0",
".C c #149ddc",
".G c #14a1e0",
".Y c #14a2e0",
"bk c #14a3e1",
".H c #14a4e2",
".X c #14a5e2",
"a8 c #14a5e3",
"bj c #14a6e3",
".I c #14a6e4",
".W c #14a7e4",
"a9 c #14a7e5",
"bi c #14a8e5",
".L c #14ade9",
".T c #14adea",
"ba c #14aeea",
".M c #14afea",
".S c #14afeb",
"bb c #14b0eb",
".R c #14b1ec",
"bc c #14b2ed",
"bd c #14b3ee",
".P c #15b3ee",
"bh c #16abe8",
"b# c #16ade9",
"be c #16b4ef",
"bf c #16b5ef",
"a7 c #18a1df",
"bl c #18a2df",
"#5 c #19b8ef",
"b. c #1aace7",
"bg c #1aafe9",
".F c #1ba2df",
"ap c #1ca8e4",
"#1 c #1cbbf1",
"#4 c #1ebaf0",
".V c #1fade7",
".K c #1fafe9",
".N c #1fb5ed",
"az c #1fbdf1",
".Z c #22a6e0",
"aa c #22bff2",
".n c #23a3df",
"al c #24bff2",
"ag c #25c0f2",
"#X c #26bbf0",
"aD c #28bcf0",
"aH c #2aace5",
"aZ c #2aade5",
"#R c #2ab0e7",
"#S c #2ab2ea",
"#8 c #2ab3ea",
"#T c #2ab5ec",
"#U c #2ab8ee",
"#7 c #2ab9ee",
".Q c #2abaef",
"#V c #2bbbf0",
"aC c #2dbff1",
"#6 c #30bdf1",
"#0 c #33c2f2",
".J c #34b5e9",
".U c #34b7eb",
".O c #34bdf0",
"by c #38ace2",
"#A c #38b2e6",
"#O c #38b2e7",
"#Y c #38c2f2",
"#Z c #3cc4f2",
".2 c #3fb1e5",
"#e c #3fb2e5",
"#3 c #3fc6f3",
"#b c #41c2f1",
"#2 c #41c7f3",
"#a c #42c3f2",
"aw c #42c4f2",
"#K c #47c7f3",
"#J c #49c8f3",
"ay c #4ecbf4",
"#f c #54b9e7",
"#p c #54bae7",
"#q c #54bae8",
"#g c #54bbe8",
"#r c #54bce9",
"#9 c #54bdea",
"ad c #54beea",
"aq c #54c0ec",
"ar c #54c2ee",
"as c #54c4f0",
"aF c #54c5f0",
"at c #54c7f2",
"aM c #55c8f2",
"au c #55c9f3",
"aE c #56c9f3",
"aj c #58bdea",
"an c #58beea",
"#m c #5acbf4",
"a5 c #5bbce8",
"#l c #5bccf4",
"#x c #5dcdf4",
"#w c #5ecdf4",
"ac c #5fcef4",
"ai c #60cef4",
"ab c #61cff4",
"am c #62cff4",
"ah c #62d0f4",
"ax c #64d0f5",
".1 c #66c0e9",
"aB c #68d2f5",
"aA c #69d3f5",
"#z c #6dc5ec",
".o c #70c3ea",
"#N c #71d0f4",
"#D c #71d1f4",
"aG c #78c9ed",
"#F c #7ad6f6",
"ao c #7bcbee",
".p c #7ec9ec",
".q c #7ecaec",
".w c #7ecaed",
".r c #7ecbed",
".s c #7eccee",
".t c #7ecdef",
".u c #7eceef",
".v c #7ecef0",
"aI c #7ecff0",
"aY c #7ecff1",
"aJ c #7ed1f2",
"aK c #7ed2f3",
"aX c #7ed3f3",
"#d c #7fd1f2",
".7 c #7fd2f3",
".9 c #7fd6f5",
"aN c #82d7f6",
"aV c #82d8f6",
"aO c #84d9f6",
"aU c #85d9f6",
"aP c #87daf6",
"aT c #88daf6",
"#P c #89d0f0",
"aQ c #89dbf7",
"aR c #8bdcf7",
"aS c #8cddf7",
".A c #98d4f0",
".y c #9bd5f0",
"a6 c #a6daf2",
"bz c #aadbf2",
"bA c #aadcf3",
"bE c #aaddf3",
"bB c #aaddf4",
"bC c #aadef4",
"bD c #aadef5",
"#B c #aadff5",
"#C c #aae0f6",
"#i c #aae1f7",
"#o c #aae2f7",
"#t c #aae2f8",
"a1 c #aae3f8",
"#E c #abe4f9",
"#j c #ace4f9",
"#u c #ade5f9",
"af c #aee6f9",
"#L c #afe6fa",
"#H c #b1e7fa",
"#I c #b2e8fa",
"bu c #b4dff4",
"a# c #b5e9fa",
"bv c #b7e1f4",
".D c #bfe4f5",
".3 c #bfe5f6",
".4 c #bfe6f7",
".5 c #bfe7f7",
"bp c #bfe8f9",
".8 c #bfe9f9",
"bq c #bfe9fa",
"## c #bfeafa",
"bs c #c0e8f8",
"bo c #c0e8f9",
".E c #c2e5f6",
".0 c #c2e6f6",
"bn c #c4e9f8",
"br c #c4eaf9",
"bm c #f4fafd",
".z c #ffffff",
"QtQtQtQtQtQtQtQtQtQtQtQtQtQtQtQtQtQtQtQtQtQtQtQtQtQtQtQtQtQtQtQt",
"QtQtQtQtQtQtQtQtQtQtQtQtQtQtQtQtQtQtQtQtQtQtQtQtQtQtQtQtQtQtQtQt",
"QtQtQtQtQtQtQtQtQtQtQtQtQtQtQtQtQtQtQtQtQtQtQtQtQtQtQtQtQtQtQtQt",
"QtQtQtQtQtQtQtQtQtQtQtQtQtQtQtQtQtQtQtQtQtQtQtQtQtQtQtQtQtQtQtQt",
"QtQtQtQtQtQtQtQtQtQtQtQtQtQtQtQtQtQtQtQtQtQtQtQtQtQtQtQtQtQtQtQt",
"QtQtQtQtQtQtQtQtQtQtQtQtQtQtQtQtQtQtQtQtQtQtQtQtQtQtQtQtQtQtQtQt",
"QtQt.#.a.a.a.a.a.a.a.a.b.b.b.b.b.b.b.b.b.b.a.a.a.a.a.a.a.a.#QtQt",
".c.d.e.f.f.f.f.f.f.g.h.i.i.j.j.j.j.j.j.i.i.k.l.f.f.f.f.f.f.e.d.c",
".m.n.o.p.p.p.p.p.q.r.s.s.t.u.u.v.v.u.u.t.s.s.r.w.p.p.p.p.p.o.n.m",
".x.y.z.z.z.z.z.z.z.z.z.z.z.z.z.z.z.z.z.z.z.z.z.z.z.z.z.z.z.z.A.B",
".C.D.z.z.z.z.z.z.z.z.z.z.z.z.z.z.z.z.z.z.z.z.z.z.z.z.z.z.z.z.D.C",
".C.D.z.z.z.z.z.z.z.z.z.z.z.z.z.z.z.z.z.z.z.z.z.z.z.z.z.z.z.z.D.C",
".C.D.z.E.F.G.H.I.J.K.L.M.N.O.P.P.P.Q.Q.R.S.T.U.V.W.X.Y.Z.0.z.D.C",
".C.D.z.1.2.3.4.5.6.7.8.8.9#.#######a#b##.8.8#c#d.5.4.3#e.1.z.D.C",
".C.D.z#f#g.z.z.z#h#i.z.z#j#k.z.z.z#l#m.z.z.z#n#o.z.z.z#g#p.z.D.C",
".C.D.z#q#r.z.z.z#s#t.z.z#u#v.z.z.z#w#x.z.z.z#y#t.z.z.z#r#q.z.D.C",
".C.D.z#z#A#B#C#i#n#D#E#u#F#G#H#I#I#J#K#L#u#j#M#N#i#C#B#O#z.z.D.C",
".C.D.z#P#Q#R#S#T#U#V#W#X#Y#Z#0#1#2#3#Z#4#5#6#V#7#T#8#R#Q#P.z.D.C",
".C.D.z#r#9.z.z.z.z.za.#u.z.za#aa.z.z.zabac.z.z.z.z.z.zad#r.z.D.C",
".C.D.z#rad.z.z.z.z.zaeaf.z.za#ag.z.z.zahai.z.z.z.z.z.zad#r.z.D.C",
".C.D.zajad.z.z.z.z.zak#u.z.za#al.z.z.zamai.z.z.z.z.z.zadan.z.D.C",
".C.D.zaoapaqarasatauavawabaxayazaAaBaxaCaD#maEataFaraqapao.z.D.C",
".C.D.zaGaHaIaJaKaLaMaNaOaPaQaRaSaSaRaQaTaUaVaWataXaJaYaZaG.z.D.C",
".C.D.z#g#r.z.z.z#s#t.z.z.z.z.z.z.z.z.z.z.z.za0a1.z.z.z#r#g.z.D.C",
".C.D.z#q#g.z.z.za2#o.z.z.z.z.z.z.z.z.z.z.z.za3#o.z.z.z#r#q.z.D.C",
".C.D.z#f#g.z.z.za4#i.z.z.z.z.z.z.z.z.z.z.z.z#s#i.z.z.z#ga5.z.D.C",
".C.D.za6a7.Ya8a9b.b#babbbcbdbebfbfbf.Pbc.R.Sbgbhbibjbkbla6.z.D.C",
".C.D.zbm.0.3.4.5bnbobp.8bq##############.8.8brbs.5.4.3.0bm.z.D.C",
".C.D.z.z.z.z.z.z.z.z.z.z.z.z.z.z.z.z.z.z.z.z.z.z.z.z.z.z.z.z.D.C",
"btbu.z.z.z.z.z.z.z.z.z.z.z.z.z.z.z.z.z.z.z.z.z.z.z.z.z.z.z.zbvbw",
"bxbybzbzbzbzbzbzbAbAbBbBbCbD#B#B#B#BbDbCbCbBbEbAbzbzbzbzbzbzbybx",
"bFbxbGbGbGbGbGbGbGbHbIbJbKbLbMbMbMbMbNbKbJbObPbGbGbGbGbGbGbGbxbF"};
