/* XPM */
static char *dummy[]={
"32 32 260 2",
"Qt c None",
".q c #000001",
"ad c #000305",
"#p c #000405",
"ae c #000508",
".I c #000608",
"bh c #000609",
"#6 c #00080b",
"bR c #00080c",
".# c #000a0f",
"b9 c #000c11",
".h c #001018",
"bD c #001118",
".3 c #00131c",
".r c #001722",
"bs c #001823",
"bC c #001a27",
".g c #001c2a",
"bS c #001e2b",
".a c #001f2d",
"cb c #002233",
"#B c #00293c",
"bT c #002b3e",
"a5 c #002a3e",
"bb c #002b3e",
"b3 c #002c40",
".b c #002b3f",
".S c #002e43",
".H c #003046",
"bl c #003248",
".c c #003148",
"bW c #00344a",
"bU c #00344b",
"bV c #00354b",
".f c #00334b",
".B c #00344c",
"bQ c #00354e",
".J c #00405d",
"bc c #00415e",
"bg c #00425f",
".d c #004260",
".e c #004463",
"b2 c #004666",
".i c #004869",
"bE c #004c6d",
"#M c #004a6c",
"av c #004b6c",
"aB c #004b6d",
"#d c #004e72",
"aO c #004f73",
"aW c #004f74",
".s c #005b84",
"bt c #005f88",
"#Z c #006391",
"an c #006491",
"au c #006492",
"ac c #006797",
"am c #006898",
"bX c #006c9b",
"af c #00699a",
"b4 c #006a9b",
"bF c #00709f",
".j c #006b9d",
".4 c #0072a7",
"aX c #0075a9",
"a4 c #0076aa",
".C c #0079b1",
"bm c #007fb5",
"c. c #0080bb",
".p c #0081bc",
"bG c #0089c2",
".k c #0083bf",
"#q c #0084c1",
"aI c #0086c3",
"aN c #0087c3",
".P c #008bcb",
"bd c #0090cf",
"bf c #0091cf",
"bH c #0097d6",
".t c #038ece",
"bu c #0396d4",
".l c #008fd1",
".o c #0090d1",
"bK c #009bdc",
"ca c #0593d4",
"b5 c #0d99d9",
"bI c #00a0e3",
"bJ c #00a1e3",
".9 c #00aaeb",
"#. c #00abeb",
"#h c #00abec",
"#i c #00aded",
"#u c #01aeed",
".m c #0397db",
"br c #039bde",
"#n c #04aeed",
"#J c #07b1ee",
"#G c #08b1ee",
"#V c #0bb3ef",
"a6 c #0c9edf",
"ba c #0c9fe0",
"a1 c #0cb4ef",
".T c #0e9bdc",
"bi c #0ea1e1",
"c# c #0f9bdb",
".K c #0f9cdc",
"a2 c #10b5ef",
"bB c #119fde",
"bY c #11a2e0",
"## c #11afeb",
"#3 c #13b8f0",
"#e c #159edd",
"aP c #15a1e0",
"aV c #15a2e0",
"#C c #1aa0de",
"aC c #1aa2df",
"aH c #1aa3df",
"#4 c #1ab9f0",
"#K c #1bb7ef",
"a. c #1dbcf1",
".n c #1fa3df",
"#v c #1fb8ef",
"a# c #21bcf1",
".D c #22a4df",
"bn c #22abe4",
".8 c #24b6ed",
"ai c #24c0f2",
"#F c #28baf0",
"bL c #2aaee6",
"#z c #2abaef",
"bP c #2ca7e0",
"ar c #2cc3f2",
"b8 c #2fa8e0",
"aq c #2fc3f2",
"bv c #31b2e7",
"#U c #33c0f1",
"aj c #33c3f2",
".u c #34ace1",
".A c #34ace2",
"#W c #34bff1",
"#y c #37c0f1",
"#N c #3aade2",
"#Y c #3aaee3",
"aw c #3aafe3",
"aA c #3aafe4",
"#t c #41c2f1",
"#j c #46c4f2",
"aS c #46c7f2",
"a9 c #49c6f3",
"ay c #49caf3",
"#9 c #4ecbf3",
"bZ c #50b9e8",
"#0 c #54b9e7",
"ao c #54bae7",
"at c #54bae8",
".Z c #54c5f0",
"#2 c #56ccf4",
"aY c #59beea",
"#R c #59cbf4",
"b. c #5acbf4",
"aT c #5accf4",
".Y c #5bc7f1",
"#a c #5bc8f1",
"#m c #5bcbf3",
"aF c #5bcff5",
"ah c #5dd1f4",
"b6 c #62bde8",
".5 c #62bee8",
"#c c #62bfe8",
"ab c #62c0e9",
"al c #62c0ea",
"bj c #62c3ec",
".O c #64bfe9",
".v c #66c0e9",
".z c #66c1e9",
"bw c #66c6ee",
"#7 c #69c2ea",
"#o c #69cdf3",
".L c #6bc2e9",
".0 c #71cef2",
"#r c #78c7eb",
"aJ c #78c9ed",
"#I c #79d5f6",
"#H c #81d7f6",
"a0 c #82d8f6",
".X c #86d6f4",
".E c #89ceee",
"bo c #89d2f1",
"aa c #89dbf7",
"a7 c #8bd2f0",
"#Q c #8bdaf7",
".U c #8dd0ee",
"be c #8dd3f1",
".Q c #8fd1ee",
"aG c #94dff8",
".7 c #96dbf6",
"as c #97e1f8",
"#k c #98def7",
"#l c #9ee0f8",
"bk c #a2dbf3",
"#g c #a4e0f7",
"#5 c #aae4f9",
"b7 c #abdcf2",
"bq c #addff4",
"bx c #ade0f5",
"a3 c #b1e7f9",
"bM c #b4e2f5",
"ax c #b6eafa",
".w c #b7e2f4",
"bA c #bbe4f5",
".1 c #bbe8f9",
"ak c #bcebfa",
"ap c #bfecfb",
"#L c #c3ebfa",
"aR c #c3ecfa",
"#D c #c4e7f6",
"aD c #c4e7f7",
"a8 c #c8edfb",
".W c #cfeefa",
"#E c #cfeffb",
"#1 c #d3f2fc",
"b0 c #d4edf9",
"#A c #d4f1fb",
"bO c #d6eef9",
"#S c #d7f2fc",
"#X c #d8f2fc",
"aE c #d8f3fc",
"aU c #daf3fc",
"bp c #dbf1fa",
"az c #dbf4fc",
"b# c #dcf4fc",
"by c #def2fb",
".F c #dff2fa",
"aL c #e1f6fc",
"bz c #e2f4fb",
"b1 c #e4f3fa",
"#O c #e4f4fb",
"#w c #e6f7fd",
"#s c #e7f7fd",
"aM c #e8f8fd",
".x c #e9f6fb",
"aQ c #e9f6fc",
"ag c #e9f8fd",
"#8 c #ecf9fd",
"bN c #edf7fc",
"aZ c #eff8fd",
".N c #f0f9fc",
".6 c #f0f9fd",
".2 c #f0fafd",
".R c #f2f9fd",
"#P c #f2fbfe",
"#x c #f4fbfe",
".M c #f7fbfd",
"#b c #f7fcfe",
"#T c #f8fcfe",
".V c #f9fdfe",
".G c #fbfdfe",
"aK c #fbfefe",
"#f c #fdfefe",
".y c #ffffff",
"QtQtQtQtQtQtQtQtQtQtQtQtQtQtQtQtQtQtQtQtQtQtQtQtQtQtQtQtQtQtQtQt",
"QtQtQtQtQtQtQtQtQtQtQtQtQtQtQtQtQtQtQtQtQtQtQtQtQtQtQtQtQtQtQtQt",
"QtQtQtQtQtQtQtQtQtQtQt.#.a.b.c.d.e.f.b.g.#QtQtQtQtQtQtQtQtQtQtQt",
"QtQtQtQtQtQtQtQtQt.h.i.j.k.l.m.n.n.m.o.p.j.i.hQtQtQtQtQtQtQtQtQt",
"QtQtQtQtQtQt.q.r.s.t.u.v.w.x.y.y.y.y.x.w.z.A.t.s.r.qQtQtQtQtQtQt",
"QtQtQtQtQtQt.B.C.D.E.F.G.y.y.y.y.y.y.y.y.G.F.E.D.C.HQtQtQtQtQtQt",
"QtQtQtQt.I.J.K.L.M.y.y.y.y.y.y.y.y.y.y.y.y.y.y.N.O.K.J.IQtQtQtQt",
"QtQtQtQt.J.P.Q.R.y.y.y.y.y.y.y.y.y.y.y.y.y.y.y.y.R.Q.P.JQtQtQtQt",
"QtQt.q.S.T.U.y.y.y.y.y.y.V.W.X.Y.Z.0.1.2.y.y.y.y.y.y.U.T.S.qQtQt",
"QtQt.3.4.5.6.y.y.y.y.y.y.7.8.9#.#..9###a#b.y.y.y.y.y.6#c.4.3QtQt",
"QtQt#d#e.N.y.y.y.y.y#f#g#h#i#j#k#l#m#n#h#o#b.y.y.y.y.y.x#e#dQtQt",
"Qt#p#q#r.y.y.y.y.y.y#s#t#u#v#w.y.y#x#y#u#z#A.y.y.y.y.y.y#r#qQtQt",
"Qt#B#C#D.y.y.y.y.y.y#E#F#G#H.y.y.y.y#I#J#K#L.y.y.y.y.y.y#D#C#BQt",
"Qt#M#N#O.y.y.y.y.y.y#P#Q#R#S.y.y.y#T#U#V#W#X.y.y.y.y.y.y#O#Y#MQt",
"Qt#Z#0.y.y.y.y.y.y.y.y.y.y.y.y.y#1#2#3#4#5.y.y.y.y.y.y.y.y#0#ZQt",
"#6.j#7.y.y.y.y.y.y.y.y.y.y.y.y#8#9a.a#aa.G.y.y.y.y.y.y.y.yabacad",
"aeaf#7.y.y.y.y.y.y.y.y.y.y.yagahaiajak.G.y.y.y.y.y.y.y.y.yalamad",
"Qtanao.y.y.y.y.y.y.y.y.y.y.yapaqaras.y.y.y.y.y.y.y.y.y.y.yatauQt",
"Qtavaw#O.y.y.y.y.y.y.y.y.y.yaxaiayaz.y.y.y.y.y.y.y.y.y.y#OaAaBQt",
"Qt#BaCaD.y.y.y.y.y.y.y.y.y.yaEaFaG#b.y.y.y.y.y.y.y.y.y.yaDaH#BQt",
"Qt#paIaJ.y.y.y.y.y.y.y.y.y.yaKaLaM.y.y.y.y.y.y.y.y.y.y.yaJaNQtQt",
"QtQtaOaPaQ.y.y.y.y.y.y.y.y.yaRaSaTaU.y.y.y.y.y.y.y.y.yaQaVaWQtQt",
"QtQt.3aXaYaZ.y.y.y.y.y.y.y.ya0a1a2a3.y.y.y.y.y.y.y.yaZaYa4.3QtQt",
"QtQt.qa5a6a7.y.y.y.y.y.y.y.ya8a9b.b#.y.y.y.y.y.y.y.ya7babb.qQtQt",
"QtQtQtQtbcbdbe.6.y.y.y.y.y.y.y.y.y.y.y.y.y.y.y.y.6bebfbgQtQtQtQt",
"QtQtQtQtbhbgbibj.6.y.y.y.y.y.y.y.y.y.y.y.y.y.y.ybkbibgbhQtQtQtQt",
"QtQtQtQtQtQtblbmbnbobp.G.y.y.y.y.y.y.y.y.y.y.y.ybqbrbhQtQtQtQtQt",
"QtQtQtQtQtQt.qbsbtbubvbwbxby.y.y.y.ybz#b.y.y.y.ybAbBbCQtQtQtQtQt",
"QtQtQtQtQtQtQtQtQtbDbEbFbGbHbIbJbJbIbKbLbMbN.y.ybObPbQQtQtQtQtQt",
"QtQtQtQtQtQtQtQtQtQtQtbRbSbTbUbVbVbUbWbXbYbZb0.yb1#Nb2QtQtQtQtQt",
"QtQtQtQtQtQtQtQtQtQtQtQtQtQtQtQtQtQtQtQtb3b4b5b6b7b8.iQtQtQtQtQt",
"QtQtQtQtQtQtQtQtQtQtQtQtQtQtQtQtQtQtQtQtQtb9.ec.c#cacbQtQtQtQtQt"};
