/* XPM */
static char *dummy[]={
"32 32 331 2",
"Qt c None",
"#N c #000001",
"aQ c #000101",
".R c #000102",
".8 c #000204",
"aA c #000305",
".o c #000405",
".Z c #000406",
"b# c #000507",
"#4 c #000608",
".g c #00070a",
"aX c #00070b",
"#3 c #00080c",
"cl c #00090c",
"dh c #00080c",
"#g c #00090d",
".# c #000a0e",
"di c #000b10",
".a c #000c11",
"da c #000c12",
"cW c #000e15",
"b6 c #000f15",
"aR c #000f16",
".w c #000f16",
"aB c #00121a",
".Y c #00141e",
".b c #00141e",
"ca c #00151f",
"by c #001821",
"ag c #001721",
"bl c #001c26",
"bs c #001b27",
".E c #001b27",
"#G c #001c28",
".Q c #001d2b",
"cL c #001e2b",
"bE c #001f2c",
"c3 c #001f2e",
"#M c #00202e",
"ba c #002331",
"b0 c #002433",
"aY c #002433",
"b5 c #002838",
"#f c #002637",
"bV c #00293b",
"cF c #002b3d",
"cz c #002d3f",
"cM c #002a3d",
".h c #002a3e",
"#O c #002d42",
"cb c #003145",
".7 c #002e43",
"ah c #002f44",
"av c #04384a",
"aw c #003146",
"bg c #00334a",
"cr c #00344b",
"cE c #00364c",
"bk c #00334b",
"bD c #00344c",
"af c #003c57",
"#2 c #003d57",
"d# c #003e57",
"#n c #003a55",
"aP c #04465e",
"dd c #003e5a",
"#5 c #00405e",
".c c #00415e",
"aC c #004360",
"bP c #004764",
"bK c #004b68",
".9 c #004868",
"c2 c #004969",
"cm c #004b6c",
"cR c #004c6e",
".J c #004f72",
"ae c #005576",
".A c #005176",
".X c #005277",
"aS c #00587b",
"c4 c #005278",
"#h c #00547b",
".p c #00577e",
"c5 c #00577f",
"cu c #005e84",
"de c #005881",
".0 c #005d85",
"a5 c #026b91",
".d c #005e89",
"a4 c #016d94",
"cS c #00608c",
"br c #007099",
"cq c #006e9a",
"ck c #006f9a",
"cA c #006694",
".M c #006895",
".S c #006996",
"a2 c #00729d",
"a3 c #00739e",
"aZ c #006997",
"ad c #00729e",
"bm c #0075a1",
".x c #006897",
"a1 c #0074a1",
"b. c #037ba7",
"bW c #0074a3",
"ax c #006c9d",
"bx c #0072a2",
"bL c #0072a3",
"dc c #006ea0",
".e c #006fa1",
"cX c #0070a2",
"bz c #0079aa",
"#A c #006fa3",
".i c #0071a4",
".f c #0071a4",
"ai c #0075a8",
"au c #0b89b5",
".P c #0077ab",
"bQ c #0081b3",
"#1 c #007cb0",
"bt c #0084b8",
"db c #0079b0",
"bh c #007ab1",
"c# c #0083b8",
"#L c #017db3",
"a6 c #048dbf",
"#F c #007bb3",
"#m c #007ab2",
"cv c #007bb3",
"az c #017cb5",
"bb c #018dc2",
"ac c #0091c8",
"#s c #0080bb",
"#. c #0085bf",
".W c #0086c0",
"cK c #0088c1",
"cN c #0081bd",
"#e c #0083c0",
"a0 c #008dc9",
"cf c #0092cc",
"b7 c #0192cc",
"cV c #0395ce",
"b4 c #009ad5",
"#P c #0089c8",
"bf c #008cca",
"bF c #019ad6",
".6 c #058dca",
".q c #008ccb",
"cQ c #0090ce",
".1 c #0094d2",
"#0 c #0098d5",
"aT c #0396d3",
"bU c #0092d1",
"cG c #0092d2",
"d. c #0098d7",
"#o c #008fd0",
"ab c #01a7e3",
"bj c #0691d1",
"b1 c #0099da",
"cc c #009cdd",
"#v c #0392d4",
"bi c #0694d5",
".j c #0696d7",
"dg c #0898d8",
".B c #0d9cdb",
"#B c #0093d6",
"cg c #0097da",
"#r c #0696d7",
".V c #069edf",
"a7 c #09afeb",
"aO c #0bb1eb",
"aj c #0da1df",
"bA c #0da7e4",
"bn c #0fafeb",
"c6 c #119cdb",
"at c #1db7ed",
"bC c #0095da",
"bO c #15afea",
"#w c #0095da",
"cs c #009ee1",
"aW c #0195da",
"ay c #0497da",
"aa c #07b1ee",
"aD c #08a6e5",
".F c #0a9edf",
".I c #0a9fdf",
"a# c #0bb3ef",
"aN c #0cb4ef",
"#6 c #0e9edf",
"cy c #0ea8e7",
"c1 c #11a2e0",
"aM c #14b6ef",
"bZ c #16afea",
"#i c #18a2e0",
"#K c #1da9e4",
"a. c #1db9f0",
"cD c #20b5ed",
"## c #22abe5",
"#Z c #22b3eb",
"bc c #22b5ed",
"df c #24a6e1",
"aE c #24b2ea",
".y c #26a8e2",
"bR c #28b8ee",
"cO c #29a9e2",
"ct c #29b1e8",
"a9 c #2abbf1",
"cn c #2cb4ea",
"aL c #2ebef1",
".5 c #2fade3",
".k c #31ace3",
"bM c #31b8ec",
"bJ c #33bbef",
"cY c #34aee4",
"bX c #36b9ec",
"bG c #36bcef",
"b8 c #37bdef",
"#z c #38aee3",
".K c #38b2e6",
"bu c #38bef0",
"aU c #3bb3e7",
"cP c #3fb3e6",
"a8 c #40c3f2",
"aF c #41beee",
"#E c #44b5e7",
".r c #46b5e6",
"aK c #47c5f3",
"bq c #4cc6f2",
"#l c #4db5e5",
".l c #4db8e7",
"cT c #4dbae9",
"aG c #4fc4f1",
"cj c #51c5f1",
"aJ c #53c8f3",
"#H c #54b9e6",
"cw c #54bbe8",
".N c #54beeb",
".T c #54bfec",
"cB c #54c0ec",
"#Y c #54c5f0",
"aH c #55c8f3",
"aI c #56c9f3",
"bw c #58c3ee",
"cp c #58c9f3",
"ak c #5bc2ed",
".O c #5fc2ec",
"#7 c #62c2eb",
"#d c #64c0e9",
"as c #66d0f5",
"#t c #6dc3e9",
"c0 c #6dc5ec",
"#9 c #6ed2f5",
"aV c #6fc3ea",
".m c #70c6ec",
"#J c #70caef",
"cU c #71cff3",
"bo c #76d3f5",
".n c #7eccee",
".2 c #7ed0f1",
"#a c #7fcff0",
"ce c #7fd1f2",
"cJ c #82cff0",
"#j c #86cfef",
"#X c #86d7f5",
"c9 c #88d2f1",
"c7 c #89d0ef",
"be c #8ad2f1",
"#Q c #8dd1ef",
"cx c #8dd6f3",
"c. c #90daf6",
"cZ c #94d4f0",
".4 c #97d7f2",
"b2 c #9bdbf4",
"#u c #9fd7f1",
".G c #9fd9f2",
".H c #9fd9f3",
"bS c #9fdff7",
"#C c #a2d9f1",
".s c #a2daf2",
".z c #a2daf3",
"ch c #a2dbf4",
"bd c #a2e0f7",
"#W c #a3e2f8",
"#x c #a6daf1",
"#q c #a9dbf2",
"#V c #ace5f9",
"#p c #adddf3",
"#U c #aee6f9",
"al c #b2e3f7",
".U c #b4e2f6",
"ar c #b7e9fa",
"#D c #bde5f7",
"#T c #bdeafa",
"b3 c #bfeafa",
"bY c #c0e9f9",
"bv c #c1ebfa",
".C c #c6e8f7",
"cC c #c6edfa",
"cH c #c9e9f8",
"#I c #c9ebf9",
"co c #cbeefa",
"bH c #cdeefa",
"c8 c #cfecf9",
"am c #cfeefa",
"aq c #d1f0fc",
"bB c #d4eef9",
"bT c #d4effa",
"#c c #d6eef9",
"bp c #daf3fc",
".t c #dbf0fa",
"bI c #ddf3fc",
".L c #e2f3fb",
"cd c #e2f4fb",
"#8 c #e4f6fd",
"#b c #e9f7fc",
"bN c #e9f8fd",
"b9 c #eaf8fd",
"an c #ebf8fd",
"ap c #ecf9fd",
".3 c #edf8fc",
"ci c #edf9fd",
"#R c #f0f9fd",
"#S c #f1fbfe",
"cI c #f4fafd",
"#y c #f7fbfd",
"#k c #f7fbfe",
".u c #f7fcfe",
"ao c #f9fdfe",
".D c #fbfdfe",
".v c #ffffff",
"QtQtQtQtQtQtQtQtQtQtQtQtQtQt.#.a.a.#QtQtQtQtQtQtQtQtQtQtQtQtQtQt",
"QtQtQtQtQtQtQtQtQtQtQt.b.c.d.e.f.f.e.d.c.bQtQtQtQtQtQtQtQtQtQtQt",
"QtQtQtQtQtQtQtQt.g.h.i.j.k.l.m.n.n.m.l.k.j.i.h.gQtQtQtQtQtQtQtQt",
"QtQtQtQtQtQtQt.o.p.q.r.s.t.u.v.v.v.v.u.t.s.r.q.p.oQtQtQtQtQtQtQt",
"QtQtQtQtQtQt.w.x.y.s.v.v.v.v.v.v.v.v.v.v.v.v.z.y.x.wQtQtQtQtQtQt",
"QtQtQtQtQtQt.A.B.C.D.v.v.v.v.v.v.v.v.v.v.v.v.D.C.B.AQtQtQtQtQtQt",
"QtQtQtQtQt.E.F.G.v.v.v.v.v.v.v.v.v.v.v.v.v.v.v.v.H.I.EQtQtQtQtQt",
"QtQtQtQtQt.J.K.L.v.v.v.v.v.v.v.v.v.v.v.v.v.v.v.v.L.K.JQtQtQtQtQt",
"QtQtQtQtQt.M.N.v.v.v.v.v.v.v.v.v.v.v.v.v.v.v.v.v.v.O.P.Q.RQtQtQt",
"QtQtQtQtQt.S.T.v.v.v.v.v.v.v.v.v.v.v.v.v.v.v.v.v.v.U.V.W.X.YQtQt",
"QtQt.Z.Q.0.1.2.v.v.v.v.v.v.v.v.v.v.v.v.v.v.v.v.v.v.v.3.4.5.6.7.8",
"QtQt.9#.###a#b.v.v.v.v.v.v.v.v.v.v.v.v.v.v.v.v.v.v.v.v.v#c#d#e#f",
"#g#h#i#j#k.v.v.v.v.v.v.v.v.v.v.v.v.v.v.v.v.v.v.v.v.v.v.v.v.v#l#m",
"#n#o#p.u.v.v.v.v.v.v.v.v.v.v.v.v.v.v.v.v.v.v.v.v.v.v.v.v.v.v#q#r",
"#s#t.v.v.v.v.v.v.v.v.v.v.v.v.v.v.v.v.v.v.v.v.v.v.v.v.v.v.v.v#u#v",
"#w#x.v.v.v.v.v.v.v.v.v.v.v.v.v.v.v.v.v.v.v.v.v.v.v.v.v.v.v#y#z#A",
"#B#C.v.v.v.v.v.v.v.v.v.v.v.v.v.v.v.v.v.v.v.v.v.v.v.v.v.D#D#E#F#G",
"#m#H.v.v.v.v.v.v.v.v.v.v.v.v.v.v.v.v.v.v.v.v.v.v.v.v#I#J#K#L#M#N",
"#O#P#Q#R.v.v.v.v.v.v.v.v.v.v.v.v.v.v#S#T#U#V#W#X#Y#Z#0#1#2#3QtQt",
"#4#5#6#7.L.v.v.v.v.v.v.v.v.v.v.v.v#8#9a.a#aaabacadaeafagQtQtQtQt",
"QtQtahaiajakalamanao.v.vaoapaqarasatauavQtQtQt.oawaxayazaAQtQtQt",
"QtQt#NaBaC#1aDaEaFaGaHaIaJaKaLaMaNaOaPaQQtQtaRaSaTaUaVaWaXQtQtQt",
"QtQtQtQtQtQtaYaZa0a1a2a3a4a5a6a7a8a9b.b#aQbabbbcbd.ubebfQtQtQtQt",
"QtQtQtQt.obgbhbibjbkQtQtblbmbnbobpbqbraQbsbtbubv.v.vbwbxQtQtQtQt",
"QtQtaQbybzbA#JbBbCbDQtbEbFbGbH.vbIbJbKQtbLbMbN.v.v.ubObPQtQtQtQt",
"QtQtbabQbRbS.ubTbUbVaRbWbXam.v.vbYbZb0Qtb1b2.v.v.vb3b4b5QtQtQtQt",
"Qtb6b7b8b9.v.vc.c#cacbcccd.v.v.vcecfQtQtcgch.v.vcicjckclQtQtQtQt",
"Qtcmcnco.v.v.ucpcq.Zcrcs.v.v.v.uctcuQtQtcvcw.v.vcxcyczQtQtQtQtQt",
"QtcAcB.v.v.vcCcDcEQtcFcGcH.vcIcJcKcLQtQtcMcNcOcPcQcRQtQtQtQtQtQt",
"QtcScT.u.v.vcUcVclQtcWcXcYcZc0c1c2.ZQtQt.8c3c4c5.h.gQtQtQtQtQtQt",
"Qt#Oc6c7c8c9d.d#QtQtQtdacSdbdcddQtQtQtQtQtQtQtQtQtQtQtQtQtQtQtQt",
"QtaAdebidfdg.9dhQtQtQtQt.o.bdi#NQtQtQtQtQtQtQtQtQtQtQtQtQtQtQtQt"};
