/* XPM */
static char *dummy[]={
"32 32 253 2",
"Qt c None",
"a4 c #000204",
".P c #000305",
"aS c #000405",
".A c #000508",
".# c #00080b",
"bG c #00080c",
"bv c #00080c",
"bC c #000c11",
".B c #000c11",
"#G c #000e14",
".f c #000e15",
".a c #001018",
"bT c #001119",
"aR c #00131c",
"aG c #00141e",
"#a c #001a27",
"bX c #001c2a",
".o c #002030",
"#H c #002130",
"bN c #002231",
"bH c #002233",
".V c #002436",
"aF c #002739",
"aw c #00283a",
"a5 c #00293c",
"#3 c #002d42",
"#R c #002f45",
"ap c #003047",
"#4 c #003148",
".g c #00334b",
".b c #003954",
".Q c #003b57",
"af c #004a6c",
"#t c #004c70",
"bU c #004f74",
"#i c #005075",
".G c #00547b",
".w c #00567e",
".c c #00577e",
"bY c #005b85",
".O c #005c87",
"a3 c #005e8a",
".4 c #005f8b",
".H c #00618e",
"aT c #006391",
".d c #006391",
"b3 c #006b9d",
"b6 c #006c9d",
".e c #006c9d",
"bO c #0071a5",
".p c #0071a6",
"#F c #0072a7",
"#u c #0074a9",
"bF c #0075ab",
".h c #0076ac",
"aQ c #0077ae",
"aH c #0078b0",
"bM c #007cb4",
"bc c #007cb5",
"bk c #007db5",
"bI c #0080bc",
"b4 c #0084c2",
".W c #0085c1",
".3 c #0085c2",
"aE c #008ccc",
"ax c #008dcd",
"bl c #008dcf",
"bu c #008ecf",
".q c #008fd2",
".x c #0692d2",
"#2 c #0092d5",
"bP c #0d99d8",
"bS c #0d99d9",
"#S c #0094d7",
"av c #0095d8",
".i c #0696d8",
"bZ c #0d9ada",
".C c #159cda",
".F c #159dda",
"aq c #0095d9",
"bE c #2aa7e0",
"b5 c #0096da",
"#5 c #0096db",
"ae c #0097db",
".2 c #00abec",
"#U c #00acec",
"#d c #00adec",
"#q c #00aded",
"ac c #00aeed",
"#K c #01aded",
"#. c #01aeed",
"aK c #02aded",
"aB c #02aeed",
"a1 c #02aeee",
"bg c #02afee",
"#x c #03aded",
"#C c #03aeed",
"#m c #03afed",
"#V c #03afee",
"bf c #04afee",
"#7 c #04b0ee",
"ab c #05b0ee",
"aA c #06aeec",
"aj c #06b1ee",
"aD c #07afed",
"b. c #07b1ee",
"#g c #07b1ef",
"#b c #0a9adc",
"am c #0a9bdc",
"ao c #0a9bdd",
"#y c #0cb2ee",
"#p c #0cb4ef",
"#B c #12b7f0",
"bs c #14b4ee",
"a6 c #159edd",
".I c #159fdd",
".N c #159fde",
"#J c #15b2ed",
"#Q c #15b3ed",
"a9 c #15b3ee",
"aL c #15b5ef",
"aO c #16b5ef",
"#O c #17b9f0",
"aY c #19b6ef",
"a0 c #1ab7f0",
"br c #1cb6ee",
"#Y c #1dbdf1",
"ag c #1fa4df",
"al c #1fa4e0",
"bt c #1fb7ee",
"#Z c #1fbdf1",
"aX c #24b8ee",
"a2 c #24b8ef",
"be c #29b9ef",
"bh c #29baef",
".5 c #2aa7e1",
"## c #2aa8e1",
"#c c #2ab9ef",
".j c #2ca8e1",
"a. c #31c3f2",
"bw c #32abe2",
"bB c #32ace2",
"a# c #33c3f2",
".T c #36bbed",
"#j c #38ade2",
"#s c #38ade3",
"b# c #39c0f2",
".U c #3abcee",
"bb c #3ac0f2",
"bV c #3cb0e3",
"bq c #41c1f0",
"bJ c #42b2e4",
"bL c #42b2e5",
".k c #44b3e4",
".n c #44b3e5",
"#L c #48c5f3",
"#P c #49c5f3",
"aU c #51b8e6",
"#l c #51c6f1",
"#r c #51c6f2",
".l c #54b9e7",
"#e c #56c9f3",
".r c #58bae7",
"b0 c #58bbe7",
".y c #5bbce8",
"bj c #5bbde8",
"aJ c #5dcaf2",
".8 c #6acef4",
"#z c #6fd1f5",
".m c #70c5eb",
".7 c #74d1f4",
"aC c #74d3f6",
"#v c #7bc9ec",
"#E c #7bcaec",
"an c #7bd3f4",
"#w c #7bd3f5",
"#D c #7bd4f5",
"#n c #7bd5f6",
"ak c #7ed5f5",
"bp c #80d5f5",
"b1 c #82cced",
".D c #86cded",
"#6 c #86d7f5",
"ad c #86d7f6",
".X c #89cfee",
"aI c #8dd0ef",
"aP c #8dd1ef",
"ba c #97def8",
"bQ c #98d5f0",
"aM c #9adff8",
".R c #9bd6f1",
"aN c #9bdff8",
"as c #a2e0f7",
".s c #a6daf2",
"#h c #a6dbf2",
"bd c #a9e2f8",
"bi c #a9e3f8",
"b2 c #aadcf3",
".1 c #aae3f8",
".9 c #aae4f9",
"#f c #ace5f9",
"bW c #addef3",
"bm c #aedef3",
"#o c #aee6f9",
"aZ c #afe6f9",
"#T c #b0e4f8",
"#1 c #b0e5f8",
"#A c #b0e7fa",
"#N c #b1e7fa",
"#X c #b3e8fa",
"ai c #b3e9fa",
"#0 c #b5e9fa",
"#W c #b6e8fa",
".J c #b7e2f5",
"a8 c #b7e7f9",
"a7 c #b8e2f5",
"#I c #bbe3f5",
"bz c #bfeafa",
"#9 c #c4eefb",
"aa c #c5eefb",
"by c #c6ecfa",
"aW c #c7ecfa",
"bA c #c9edfb",
"at c #caeefb",
"au c #cbeefb",
".z c #cdeaf7",
".L c #cfeefa",
"bK c #d0ecf8",
".M c #d2effa",
".S c #d2effb",
"ay c #d4edf8",
".t c #d6eef9",
"bD c #dbf0fa",
".0 c #dbf3fc",
"#k c #e2f3fa",
"az c #e2f5fc",
"bR c #e6f5fb",
".6 c #e6f6fc",
"bx c #e7f7fc",
"#M c #e8f7fd",
".u c #eff8fc",
".E c #f0f9fc",
"bo c #f0fafd",
"aV c #f4fafd",
"#8 c #f4fbfe",
"ah c #f5fcfe",
"ar c #f7fcfd",
".Z c #f7fcfe",
".K c #f9fdfe",
".Y c #fbfdfe",
"bn c #fdfefe",
".v c #ffffff",
"QtQtQtQtQtQtQtQtQtQtQtQtQtQtQt.#.#QtQtQtQtQtQtQtQtQtQtQtQtQtQtQt",
"QtQtQtQtQtQtQtQtQtQtQt.a.b.c.d.e.e.d.c.b.aQtQtQtQtQtQtQtQtQtQtQt",
"QtQtQtQtQtQtQtQt.f.g.h.i.j.k.l.m.m.l.n.j.i.h.g.fQtQtQtQtQtQtQtQt",
"QtQtQtQtQtQtQt.o.p.q.r.s.t.u.v.v.v.v.u.t.s.r.q.p.oQtQtQtQtQtQtQt",
"QtQtQtQtQt.#.w.x.y.z.v.v.v.v.v.v.v.v.v.v.v.v.z.y.x.w.AQtQtQtQtQt",
"QtQtQtQt.B.w.C.D.E.v.v.v.v.v.v.v.v.v.v.v.v.v.v.E.D.F.G.BQtQtQtQt",
"QtQtQt.A.H.I.J.v.v.v.v.v.v.v.K.L.M.K.v.v.v.v.v.v.v.J.N.O.PQtQtQt",
"QtQtQt.Q.C.R.v.v.v.v.v.v.v.v.S.T.U.S.v.v.v.v.v.v.v.v.R.F.bQtQtQt",
"QtQt.V.W.X.Y.v.v.v.v.v.Z.0.v.1.2.2.1.v.0.Z.v.v.v.v.v.Y.X.3.VQtQt",
"QtQt.4.5.E.v.v.v.v.v.6.7.8.v.9#.#..9.v.8.7.6.v.v.v.v.v.E##.4QtQt",
"Qt#a#b.s.v.v.v.v.v.0#c#d#e.v#f#g#g#f.v#e#d#c.0.v.v.v.v.v#h#b#aQt",
"Qt#i#j#k.v.v.v.v.6#l#d#m#n.v#o#p#p#o.v#n#m#q#r.6.v.v.v.v#k#s#tQt",
".a#u#v.v.v.v.v.v#w#x#y#z.v.v#A#B#B#A.v.v#z#y#C#D.v.v.v.v.v#E#F#G",
"#H.3#I.v.v.v.v.Z#J#K#L#M.v.v#N#O#O#N.v.v#M#P#.#Q.Z.v.v.v.v#I.3#H",
"#R#S.E.v.v.v.v#T#U#V#W.v.v.v#X#Y#Z#0.v.v.v#W#V#q#1.v.v.v.v.E#2#3",
"#4#5.v.v.v.v.v#6#q#7#8.v.v.v#9a.a#aa.v.v.v#8abacad.v.v.v.v.vae#4",
"afag.v.v.v.v.v#w#qab.v.v.v.vahaiaiah.v.v.v.vaj#.ak.v.v.v.v.val#4",
".bam.v.v.v.v.van#q#7.v.v.v.v.v.v.v.v.v.v.v.vab#.ak.v.v.v.v.vao#4",
"apaqar.v.v.v.vas#q#Vat.v.v.v.v.v.v.v.v.v.vau#7#qas.v.v.v.varav#R",
"awaxay.v.v.v.vazaAaBaC.Y.v.v.v.v.v.v.v.v.YaC#VaDaz.v.v.v.vayaEaF",
"aGaHaI.v.v.v.v.vaJaKaLaM.v.v.v.v.v.v.v.vaNaOaBaJ.v.v.v.v.vaPaQaR",
"aSaTaUaV.v.v.v.vaWaX#.aYaZ.Y.v.v.v.v.YaZa0a1a2aW.v.v.v.vaVaUa3a4",
"Qta5a6a7.v.v.v.v.va8a9#.b.b#ba#f#fbabbb.#.a9a8.v.v.v.v.va7.Ia5Qt",
"Qt.Pbc.y.v.v.v.v.v.vbdbe#q#.#V#7#7bfbg#Kbhbi.v.v.v.v.v.vbjbk.PQt",
"QtQt#4blbmbn.v.v.v.v.vbobpbqbrbsbsbtbqbp.Z.v.v.v.v.vbnbmbu#4QtQt",
"QtQtbv.4bw.t.v.v.v.v.v.vbnbxbybzbzbAbxbn.v.v.v.v.v.v.tbB.4bvQtQt",
"QtQtQtbC.h##bD.v.v.v.v.v.v.v.v.v.v.v.v.v.v.v.v.v.vbDbEbFbGQtQtQt",
"QtQtQtQtbHbIbJbK.v.v.v.v.v.v.v.v.v.v.v.v.v.v.v.vbKbLbMbNQtQtQtQt",
"QtQtQtQtQtbCbObPbQbR.v.v.v.v.v.v.v.v.v.v.v.vbRbQbSbObCQtQtQtQtQt",
"QtQtQtQtQtQtbTbU#bbVbWaV.v.v.v.v.v.v.v.vaVbWbVambUbTQtQtQtQtQtQt",
"QtQtQtQtQtQtQtQtbXbY.3bZb0b1b2b2b2b2b1b0bZ.3bYbXQtQtQtQtQtQtQtQt",
"QtQtQtQtQtQtQtQtQt.P#H.Qb3b4b5#5#5b5.3b6.Q#H.PQtQtQtQtQtQtQtQtQt"};
