/* XPM */
static char *dummy[]={
"32 32 94 2",
"Qt c None",
".x c #000001",
".o c #000204",
".U c #000305",
"#c c #00080b",
".# c #000a0f",
"#g c #000c11",
"#p c #000c12",
".f c #00141e",
".Q c #001925",
".n c #001c29",
".w c #001f2e",
".3 c #002d42",
".g c #004464",
".e c #004e72",
".a c #006291",
".E c #006391",
"#h c #006492",
"#k c #006592",
"#t c #006593",
"#m c #006693",
"#r c #006694",
".y c #006492",
".p c #006695",
"#b c #006b9d",
".m c #006fa3",
"#f c #0070a3",
"#j c #0071a4",
"#l c #0072a5",
"#q c #0073a6",
".P c #0077ad",
".D c #0079b1",
".T c #017cb5",
".v c #0189c7",
".K c #0189c8",
".d c #0389c8",
".b c #0392d4",
"#B c #0693d4",
".2 c #0196da",
".l c #0697da",
".c c #149ddc",
".h c #1ca0dd",
".k c #1fa1de",
"#A c #1fa2de",
".W c #26b2ea",
".G c #2aade5",
".L c #2aafe7",
".A c #2babe3",
".s c #2fa9e1",
".u c #36abe1",
".J c #36abe2",
".O c #36ace2",
".R c #38b7eb",
"#a c #3eb0e4",
".1 c #44b3e5",
".F c #54b8e6",
".4 c #54b9e6",
"#v c #54b9e7",
"#d c #54bae7",
"#i c #54bbe8",
"#u c #54bce8",
"#n c #54bce9",
"#s c #54bcea",
".9 c #54bfeb",
".z c #58b9e6",
".8 c #58c2ed",
"#. c #5bc0eb",
".q c #5ebce7",
"#y c #70c3ea",
".X c #70cbf0",
".7 c #74cdf1",
"#x c #7ec9ec",
"#w c #7ecaed",
"#e c #7ecbed",
"## c #7eccee",
"#o c #7ecdee",
".0 c #7ecdef",
".Z c #7ecef0",
".Y c #7ecff1",
".S c #8dd6f3",
".i c #90d1ee",
".V c #90d8f4",
"#z c #94d2ef",
".t c #99d5f0",
".H c #aadef4",
".M c #aadff5",
".B c #abddf4",
".j c #bfe4f5",
".6 c #c2e9f9",
".C c #cfebf7",
".N c #cfebf8",
".I c #e9f6fb",
".5 c #fbfdfe",
".r c #ffffff",
"QtQtQtQtQtQtQtQtQtQtQtQtQtQtQtQtQtQtQtQtQtQtQtQtQtQtQtQtQtQtQtQt",
"QtQtQtQtQtQtQtQtQtQtQtQtQtQtQtQtQtQtQtQtQtQtQtQtQtQtQtQtQtQtQtQt",
"QtQtQt.#.a.b.c.c.c.c.c.c.c.c.c.c.c.c.c.c.d.e.fQtQtQtQtQtQtQtQtQt",
"QtQtQt.g.h.i.j.j.j.j.j.j.j.j.j.j.j.j.j.j.k.l.m.nQtQtQtQtQtQtQtQt",
"QtQt.o.p.q.r.r.r.r.r.r.r.r.r.r.r.r.r.r.r.s.t.u.v.w.xQtQtQtQtQtQt",
"QtQt.x.y.z.r.r.r.r.r.r.r.r.r.r.r.r.r.r.r.A.B.C.u.D.wQtQtQtQtQtQt",
"QtQtQt.E.F.r.r.r.r.r.r.r.r.r.r.r.r.r.r.r.G.H.r.I.J.K.w.xQtQtQtQt",
"QtQtQt.E.F.r.r.r.r.r.r.r.r.r.r.r.r.r.r.r.L.M.r.r.N.O.P.QQtQtQtQt",
"QtQtQt.E.F.r.r.r.r.r.r.r.r.r.r.r.r.r.r.r.R.S.r.r.r.I.J.T.UQtQtQt",
"QtQtQt.E.F.r.r.r.r.r.r.r.r.r.r.r.r.r.r.r.V.W.X.Y.Z.0.1.2.3QtQtQt",
"QtQtQt.E.4.r.r.r.r.r.r.r.r.r.r.r.r.r.r.r.5.6.7.8.9#.###a#b#cQtQt",
"QtQtQt.E#d.r.r.r.r.r.r.r.r.r.r.r.r.r.r.r.r.r.r.r.r.r.r#e#f#gQtQt",
"QtQtQt#h#i.r.r.r.r.r.r.r.r.r.r.r.r.r.r.r.r.r.r.r.r.r.r###j#gQtQt",
"QtQtQt#k#i.r.r.r.r.r.r.r.r.r.r.r.r.r.r.r.r.r.r.r.r.r.r###l#gQtQt",
"QtQtQt#m#n.r.r.r.r.r.r.r.r.r.r.r.r.r.r.r.r.r.r.r.r.r.r#o#l#pQtQt",
"QtQtQt#m#n.r.r.r.r.r.r.r.r.r.r.r.r.r.r.r.r.r.r.r.r.r.r.0#q#pQtQt",
"QtQtQt#r#s.r.r.r.r.r.r.r.r.r.r.r.r.r.r.r.r.r.r.r.r.r.r.0#q#pQtQt",
"QtQtQt#r#s.r.r.r.r.r.r.r.r.r.r.r.r.r.r.r.r.r.r.r.r.r.r.0#q#pQtQt",
"QtQtQt#m#s.r.r.r.r.r.r.r.r.r.r.r.r.r.r.r.r.r.r.r.r.r.r.0#q#pQtQt",
"QtQtQt#m#n.r.r.r.r.r.r.r.r.r.r.r.r.r.r.r.r.r.r.r.r.r.r#o#q#pQtQt",
"QtQtQt#t#u.r.r.r.r.r.r.r.r.r.r.r.r.r.r.r.r.r.r.r.r.r.r###l#gQtQt",
"QtQtQt#h#i.r.r.r.r.r.r.r.r.r.r.r.r.r.r.r.r.r.r.r.r.r.r###j#gQtQt",
"QtQtQt.E#d.r.r.r.r.r.r.r.r.r.r.r.r.r.r.r.r.r.r.r.r.r.r#e#f#gQtQt",
"QtQtQt.E#v.r.r.r.r.r.r.r.r.r.r.r.r.r.r.r.r.r.r.r.r.r.r#w.m#gQtQt",
"QtQtQt.E.F.r.r.r.r.r.r.r.r.r.r.r.r.r.r.r.r.r.r.r.r.r.r#x.m#gQtQt",
"QtQtQt.E.F.r.r.r.r.r.r.r.r.r.r.r.r.r.r.r.r.r.r.r.r.r.r#x.m#gQtQt",
"QtQtQt.E.F.r.r.r.r.r.r.r.r.r.r.r.r.r.r.r.r.r.r.r.r.r.r#x.m#gQtQt",
"QtQtQt.E.F.r.r.r.r.r.r.r.r.r.r.r.r.r.r.r.r.r.r.r.r.r.r#x.m#gQtQt",
"QtQtQt.E.F.r.r.r.r.r.r.r.r.r.r.r.r.r.r.r.r.r.r.r.r.r.r#x.m#gQtQt",
"QtQtQt.E.F.r.r.r.r.r.r.r.r.r.r.r.r.r.r.r.r.r.r.r.r.r.r#y#b#cQtQt",
"QtQtQt.g.h#z.j.j.j.j.j.j.j.j.j.j.j.j.j.j.j.j.j.j.j.j#z#A.gQtQtQt",
"QtQtQt.#.a#B.c.c.c.c.c.c.c.c.c.c.c.c.c.c.c.c.c.c.c.c.b.a.#QtQtQt"};
