/* XPM */
static char *dummy[]={
"32 32 348 2",
"Qt c None",
"cs c #000204",
".U c #000305",
"cg c #000405",
".B c #000508",
".# c #00080b",
"c8 c #00080c",
"cT c #00080c",
"c1 c #000c11",
".C c #000c11",
"ad c #000e14",
".f c #000e15",
".a c #001018",
"dm c #001119",
"cf c #00131c",
"b3 c #00141e",
"#w c #001a27",
"dq c #001c2a",
".o c #002030",
"ae c #002130",
"dg c #002231",
"c9 c #002233",
".4 c #002436",
"b2 c #002739",
"bQ c #00283a",
"ct c #00293c",
"aF c #002d42",
"au c #002f45",
"bG c #003047",
"aG c #003148",
".g c #00334b",
".b c #003954",
".V c #003b57",
"a1 c #004a6c",
"#Z c #004c70",
"dn c #004f74",
"#L c #005075",
".H c #00547b",
".w c #00567e",
".c c #00577e",
"dr c #005b85",
".T c #005c87",
"cr c #005e8a",
"#h c #005f8b",
".I c #00618e",
"ch c #006391",
".d c #006391",
"dw c #006b9d",
"dz c #006c9d",
".e c #006c9d",
"dh c #0071a5",
".p c #0071a6",
"ac c #0072a7",
"#0 c #0074a9",
"c7 c #0075ab",
".h c #0076ac",
"ce c #0077ae",
"b4 c #0078b0",
"df c #007cb4",
"cE c #007cb5",
"cL c #007db5",
"d. c #0080bc",
"dx c #0084c2",
".5 c #0085c1",
"#g c #0085c2",
"b1 c #008ccc",
"bR c #008dcd",
"cM c #008dcf",
"cS c #008ecf",
".q c #0692d2",
".x c #0a94d2",
".A c #0a94d3",
"aE c #0092d5",
"di c #0d99d8",
"dl c #0d99d9",
"av c #0094d7",
"bP c #0095d8",
".i c #0a98d8",
"ds c #0d9ada",
".D c #159cda",
".G c #159dda",
"bH c #0095d9",
"c6 c #2aa7e0",
"dy c #0096da",
"aH c #0096db",
"a0 c #0097db",
".9 c #00a5e7",
"#f c #00a6e7",
".0 c #00a6e8",
"#. c #00a7e8",
"cc c #00a7e9",
"cD c #00a8e8",
"#e c #00a8e9",
"## c #00a9e9",
"#d c #00a9ea",
"#n c #00aaea",
"#a c #00aaeb",
"#B c #00abeb",
"#o c #00abec",
"#t c #00acec",
"#p c #00aced",
"#C c #00adec",
"#s c #00aded",
"ai c #01aded",
"at c #01aeed",
"bT c #02aeed",
"#D c #02aeee",
"cJ c #02afee",
"#Q c #03afed",
"#3 c #03afee",
"cA c #04afee",
"#E c #04b0ee",
"#m c #05a8e8",
"aW c #05b0ee",
"ah c #06a8e7",
".Z c #06a8e8",
"ck c #06a9e8",
"#F c #06b0ee",
"#H c #06b1ee",
"#I c #07afed",
"#4 c #07b1ee",
"bU c #07b1ef",
"as c #08b1ee",
"b0 c #08b1ef",
"cB c #08b2ef",
"#R c #09b2ef",
"#x c #0a9adc",
"bm c #0a9bdc",
"bF c #0a9bdd",
"#q c #0ab1ee",
"aj c #0ab2ef",
"aM c #0ab3ef",
"#S c #0bb3ef",
"cq c #0cb4ef",
"#U c #0db3ef",
"ax c #0db4ef",
"aC c #0eb4ef",
"#5 c #0eb5ef",
"cz c #0fb2ee",
"ak c #0fb5ef",
"aV c #10b6ef",
"aJ c #11ade9",
".1 c #11adea",
"cb c #11b6ef",
"#6 c #11b6f0",
"bq c #12b4ef",
"bZ c #12b6f0",
"bC c #13b5ef",
"al c #13b7f0",
"cH c #14ade9",
"c5 c #14adea",
"co c #14b6ef",
"bO c #14b8f0",
"cu c #159edd",
".J c #159fdd",
".S c #159fde",
"aN c #15b8f0",
"#P c #16ade9",
"#X c #16aee9",
"am c #16b8f0",
".Q c #17ade9",
"ay c #17b9f0",
"#8 c #18b8f0",
"b7 c #19b6ef",
"bN c #19baf0",
"bY c #19baf1",
"aO c #1abaf0",
".R c #1baee9",
"c4 c #1cb0ea",
"a2 c #1fa4df",
"bl c #1fa4e0",
"cX c #1fb4ec",
"cP c #1fb6ee",
"cI c #20b9f0",
"c# c #20bbf0",
"br c #22baf0",
"aL c #23b9ef",
"bB c #23baf0",
"#b c #24b7ee",
"aX c #24b9ef",
"aa c #25baf0",
"#i c #2aa7e1",
"#v c #2aa8e1",
"bn c #2ab5eb",
"bE c #2ab5ec",
"az c #2bc0f1",
".j c #2ca8e1",
"b6 c #2db5eb",
"bV c #2dbef1",
"a7 c #2ebdf1",
"bg c #2fbef1",
"#G c #30bef1",
".P c #31b6eb",
"cU c #32abe2",
"c0 c #32ace2",
"cC c #32bff1",
"bs c #34c1f1",
"bA c #35c1f2",
"c3 c #36b8ec",
"bM c #36c4f2",
"#M c #38ade2",
"#Y c #38ade3",
"#J c #38bdf0",
".Y c #3ab9ec",
"cR c #3abaec",
"do c #3cb0e3",
"bb c #3dc7f3",
"d# c #42b2e4",
"de c #42b2e5",
"#r c #43c3f2",
"bz c #43c7f2",
".k c #44b3e4",
".n c #44b3e5",
"#2 c #46beed",
"#T c #48c6f2",
"a4 c #4ac0ee",
"bj c #4ac0ef",
"aU c #4ac8f3",
"cn c #4bc7f3",
"#l c #4fc0ee",
"#u c #4fc1ee",
"ci c #51b8e6",
"cp c #52caf3",
"cW c #54c3ee",
"cZ c #54c3ef",
"by c #54ccf4",
"bp c #55c8f3",
"a8 c #55caf3",
"bD c #56c9f3",
"bf c #56caf3",
".r c #58bae7",
"dt c #58bbe7",
".l c #58bbe8",
"cx c #58c4ef",
"bt c #59cdf4",
"cF c #5bbce8",
"cK c #5bbde8",
".8 c #5dc6ef",
".y c #5fbde8",
"aK c #5fc9f1",
"aY c #5fcaf2",
"ar c #60cef4",
"#9 c #61cef4",
"ca c #62cff4",
"cy c #63ccf3",
"#7 c #64d0f4",
".O c #66c9f0",
"cl c #67cef4",
"#A c #6fccf1",
"bo c #70cff3",
"#c c #72d0f4",
"bw c #72d6f6",
".m c #74c6ec",
"a5 c #74d1f3",
"bi c #74d1f4",
".2 c #78d0f2",
"#1 c #7bc9ec",
"ab c #7bcaec",
".3 c #7bd1f3",
"a3 c #7ed1f2",
"bk c #7ed2f2",
"a9 c #80d8f6",
"be c #81d8f6",
"an c #81d9f6",
"du c #82cced",
"aI c #82d2f2",
"aZ c #82d3f3",
"#W c #86d8f6",
"#V c #87d9f6",
"aP c #87dcf7",
".E c #89cfee",
"bX c #8cddf7",
"b5 c #8dd0ef",
"cd c #8dd1ef",
".6 c #90d2ef",
"cj c #90d8f4",
"cY c #90daf6",
"cQ c #91daf6",
"bK c #92def8",
"ap c #93def8",
"a6 c #95ddf7",
"bh c #96ddf7",
"c. c #96def8",
"bJ c #97daf4",
"ao c #97dff8",
"dj c #98d5f0",
"aQ c #99e1f8",
".W c #9bd6f1",
".X c #9ddcf5",
"aw c #9edcf5",
"aD c #9eddf5",
"b. c #a3e3f8",
"bd c #a4e3f8",
"#y c #a6daf2",
"#K c #a6dbf2",
".N c #a6dff6",
"aA c #a6e4f9",
"aR c #a6e5f9",
".s c #a9dcf2",
"dv c #aadcf3",
"dp c #addef3",
"cN c #aedef3",
"aB c #aee6f9",
"bx c #b3e8fa",
".K c #b7e2f5",
"cv c #b8e2f5",
"#O c #b9e6f8",
"b8 c #b9e9fa",
"af c #bbe3f5",
"dd c #bfe8f9",
"bL c #c0ecfa",
"cm c #c3ecfa",
"dc c #c6ebf9",
"cO c #c7ebf9",
"bW c #c8eefb",
"a# c #c9eefb",
"ba c #cdf0fc",
"da c #d0ecf8",
"bS c #d0eefa",
"b# c #d2f1fb",
"a. c #d2f1fc",
".z c #d4edf8",
"cG c #d4effa",
".t c #d6eef9",
"cV c #d9f1fb",
"c2 c #dbf0fa",
"bu c #dbf4fc",
"bc c #dff5fc",
".M c #e0f4fb",
"aT c #e0f5fd",
"#N c #e2f3fa",
"bv c #e5f7fd",
"dk c #e6f5fb",
"b9 c #e8f8fd",
"ag c #e9f7fc",
"cw c #edf8fd",
".u c #eff8fc",
"#j c #f0f9fc",
"aq c #f1fafe",
".F c #f4fafd",
"aS c #f5fcfe",
"#z c #f6fbfe",
"bI c #f7fcfd",
"#k c #f7fcfe",
"db c #f9fdfe",
".7 c #fbfdfe",
".L c #fdfefe",
".v c #ffffff",
"QtQtQtQtQtQtQtQtQtQtQtQtQtQtQt.#.#QtQtQtQtQtQtQtQtQtQtQtQtQtQtQt",
"QtQtQtQtQtQtQtQtQtQtQt.a.b.c.d.e.e.d.c.b.aQtQtQtQtQtQtQtQtQtQtQt",
"QtQtQtQtQtQtQtQt.f.g.h.i.j.k.l.m.m.l.n.j.i.h.g.fQtQtQtQtQtQtQtQt",
"QtQtQtQtQtQtQt.o.p.q.r.s.t.u.v.v.v.v.u.t.s.r.q.p.oQtQtQtQtQtQtQt",
"QtQtQtQtQt.#.w.x.y.z.v.v.v.v.v.v.v.v.v.v.v.v.z.y.A.w.BQtQtQtQtQt",
"QtQtQtQt.C.w.D.E.F.v.v.v.v.v.v.v.v.v.v.v.v.v.v.F.E.G.H.CQtQtQtQt",
"QtQtQt.B.I.J.K.v.v.v.L.M.N.O.P.Q.R.P.O.N.M.L.v.v.v.K.S.T.UQtQtQt",
"QtQtQt.V.D.W.v.v.v.v.X.Y.Z.0.1.2.3.1.0.Z.Y.X.v.v.v.v.W.G.bQtQtQt",
"QtQt.4.5.6.7.v.v.M.8.9#.###a#b#c#c#b#a#d#e#f.8.M.v.v.7.6#g.4QtQt",
"QtQt#h#i#j.v.v#k#l#m#e#n#o#p#q#r#r#q#s#t#a#e#m#u#k.v.v#j#v#hQtQt",
"Qt#w#x#y.v.v#z#A#f#e#B#C#D#E#F#G#G#H#E#D#I#J##.0#A#z.v.v#K#x#wQt",
"Qt#L#M#N.v.v#O#P#e#a#C#Q#F#R#S#T#T#S#R#U#V#W#B#e#X#O.v.v#N#Y#ZQt",
".a#0#1.v.v.v#2#.#n#t#3#4#S#5#6#7#7#8#9a.a#aa#C#a#.#2.v.v.vabacad",
"ae#gaf.v.vagah#e#oai#Fajakalamanaoapaq.varasat#t#e.Zag.v.vaf#gae",
"auav#j.v.vaw#f#d#t#3#RaxalayazaA.v.v.LaBaC#R#3#s#d.0aD.v.v#jaEaF",
"aGaH.v.v.vaIaJaKaL#EaMakaNaOaPaQaRaSaTaUaV#SaWaXaYaJaZ.v.v.va0aG",
"a1a2.v.v.va3a4a5a6a7a8a9b.b#babbbbbabcbdbebfbgbhbibjbk.v.v.vblaG",
".bbm.v.v.va3bnbobpbqbrbsbtbubvbwbwbxbybzbAbBbCbDbobEbk.v.v.vbFaG",
"bGbHbI.v.vbJ.0#d#s#3#R#5bK.7.v.vbLbMbNbOakaM#E#s#n#.bJ.v.vbIbPau",
"bQbR.z.v.vbS.9#e#tbTbUbVaq.vbubWbXbYaNbZaxb0#3#t#d#fbS.v.v.zb1b2",
"b3b4b5.v.v.vb6#.#B#sb7b8b9c.c#cacaalcbax#RaW#s#Bccb6.v.v.vcdcecf",
"cgchci.F.v.vcjck#d#Bclcmcnco#5cpcpakcq#R#F#D#t#dckcj.v.v.Fcicrcs",
"Qtctcucv.v.vcwcx#.#dcyczcA#HcBcCcCcB#4cAat#t#ncDcxcw.v.vcv.JctQt",
"Qt.UcEcF.v.v.vcGcH#.#n#t#sat#3b7cIcAcJai#t#n#ecHcG.v.v.vcKcL.UQt",
"QtQtaGcMcN.L.v.vcO.Y#.#e#n#ocPcQcQcP#o#a#e#.cRcO.v.v.LcNcSaGQtQt",
"QtQtcT#hcU.t.v.v.LcVcW.Z#.#ecXcYcYcX###..ZcZcV.L.v.v.tc0#hcTQtQt",
"QtQtQtc1.h#vc2.v.v.v.vcG.8c3c4c5c5c4c3.8cG.v.v.v.vc2c6c7c8QtQtQt",
"QtQtQtQtc9d.d#da.v.v.v.vdb.Mdcdddddc.Mdb.v.v.v.vdadedfdgQtQtQtQt",
"QtQtQtQtQtc1dhdidjdk.v.v.v.v.v.v.v.v.v.v.v.vdkdjdldhc1QtQtQtQtQt",
"QtQtQtQtQtQtdmdn#xdodp.F.v.v.v.v.v.v.v.v.FdpdobmdndmQtQtQtQtQtQt",
"QtQtQtQtQtQtQtQtdqdr#gdsdtdudvdvdvdvdudtds#gdrdqQtQtQtQtQtQtQtQt",
"QtQtQtQtQtQtQtQtQt.Uae.VdwdxdyaHaHdy#gdz.Vae.UQtQtQtQtQtQtQtQtQt"};
