/* XPM */
static char *dummy[]={
"32 32 383 2",
"Qt c None",
"cC c #000204",
".1 c #000305",
"cs c #000405",
".B c #000508",
".# c #00080b",
"dC c #00080c",
"dg c #00080c",
"dt c #000c11",
".C c #000c11",
"as c #000e14",
".f c #000e15",
".a c #001018",
"dV c #001119",
"cr c #00131c",
"c# c #00141e",
"#I c #001a27",
"dZ c #001c2a",
".o c #002030",
"at c #002130",
"dP c #002231",
"dD c #002233",
"#c c #002436",
"c. c #002739",
"bT c #00283a",
"cD c #00293c",
"a0 c #002d42",
"aL c #002f45",
"bG c #003047",
"a1 c #003148",
".g c #00334b",
".b c #003954",
".2 c #003b57",
"bh c #004a6c",
"aa c #004c70",
"dW c #004f74",
"#Z c #005075",
".L c #00547b",
".w c #00567e",
".c c #00577e",
"d0 c #005b85",
".0 c #005c87",
"cB c #005e8a",
"#s c #005f8b",
".M c #00618e",
"ct c #006391",
".d c #006391",
"d5 c #006b9d",
"d8 c #006c9d",
".e c #006c9d",
"dQ c #0071a5",
".p c #0071a6",
"ar c #0072a7",
"ab c #0074a9",
"dB c #0075ab",
".h c #0076ac",
"cq c #0077ae",
"ca c #0078b0",
"dO c #007cb4",
"cT c #007cb5",
"c4 c #007db5",
"dE c #0080bc",
"d6 c #0084c2",
"#d c #0085c1",
"#r c #0085c2",
"b9 c #008ccc",
"bU c #008dcd",
"c5 c #008dcf",
"df c #008ecf",
".q c #0692d2",
".x c #0a94d2",
".A c #0a94d3",
"aZ c #0092d5",
"dR c #0d99d8",
"dU c #0d99d9",
"aM c #0094d7",
"bS c #0095d8",
".i c #0a98d8",
"d1 c #0d9ada",
".D c #159cda",
".K c #159dda",
"bH c #0095d9",
"dA c #2aa7e0",
"d7 c #0096da",
"a2 c #0096db",
"bg c #0097db",
"#w c #00a4e5",
".T c #00a4e6",
".U c #00a5e6",
"cW c #00a5e7",
"#x c #00a6e7",
"#G c #00a6e8",
".8 c #00a7e8",
"bx c #00a7e9",
"cR c #00a8e8",
".9 c #00a8e9",
"aP c #00a9ea",
"a4 c #00aaea",
"#o c #00aaeb",
"#m c #00abeb",
"#n c #00abec",
"aQ c #00acec",
"da c #00adec",
"#D c #00aded",
"be c #00aeed",
"dk c #01a5e6",
"c8 c #01a5e7",
"de c #01a6e7",
"#C c #01aeed",
"#B c #02aded",
"bY c #02aeed",
"c0 c #02afee",
"#h c #03a5e6",
"aR c #03afee",
"cZ c #04afee",
"a5 c #04b0ee",
"cH c #05a6e6",
"cS c #05a6e7",
"bl c #05b0ee",
"#L c #06a6e6",
"dn c #06abea",
"#J c #0a9adc",
"bA c #0a9bdc",
"bF c #0a9bdd",
"#M c #0aacea",
"d# c #0db0ed",
"c1 c #0fb2ee",
"aB c #0fb5ef",
"aG c #10b5ef",
"#i c #11abe9",
"b1 c #11b6f0",
"b4 c #12b6f0",
"ay c #13b3ee",
"aC c #13b7f0",
"bk c #14abe7",
"by c #14abe8",
"#. c #14aeea",
"cI c #14b0ec",
"cQ c #14b1ec",
"bL c #14b8f0",
"cE c #159edd",
".N c #159fdd",
".Z c #159fde",
"a6 c #15b8f0",
"ba c #15b9f0",
"a3 c #16ace7",
"bf c #16ace8",
"c9 c #16aeea",
"#l c #16b2ec",
"aD c #16b8f0",
"aF c #16b9f0",
"aE c #17b9f0",
"bM c #18baf0",
"b2 c #18baf1",
"bO c #19baf0",
"b3 c #19baf1",
"a7 c #1abaf0",
"b# c #1abbf1",
"aU c #1bbbf1",
"bo c #1bbcf1",
".5 c #1cade8",
"am c #1cbaf0",
"bt c #1cbcf1",
"bN c #1dbcf1",
"aV c #1dbdf1",
"bi c #1fa4df",
"bz c #1fa4e0",
"bX c #1fb3ec",
"b7 c #1fb4ec",
"a8 c #1fbdf1",
"b. c #1fbef1",
"bB c #20bef1",
"bp c #21bef2",
"#E c #22b7ef",
"a9 c #22bff1",
"bs c #22bff2",
"#3 c #23afe8",
"a. c #23b0e9",
"bC c #24c0f2",
"bD c #25c0f2",
"ci c #26bdf0",
"bq c #26c1f2",
"ck c #27bdf0",
"ch c #27bdf1",
"br c #27c1f2",
"c7 c #28b2e9",
"dq c #28b3ea",
"cl c #28bdf1",
"cj c #28bef0",
"#t c #2aa7e1",
"#H c #2aa8e1",
"dJ c #2ab3ea",
".j c #2ca8e1",
"b6 c #2cbcf0",
"#y c #2db7ed",
"dK c #31b5ea",
"ax c #31bbef",
"aJ c #31bcef",
"dh c #32abe2",
"ds c #32ace2",
"#b c #32b6ea",
"cg c #32c0f1",
"cm c #33c0f1",
"dm c #34baed",
"aY c #34bef1",
"al c #36c1f1",
"ak c #37c1f2",
"#0 c #38ade2",
"a# c #38ade3",
"#4 c #38b9ec",
"cV c #39b8eb",
"aI c #39c0f1",
"bQ c #3bc1f1",
"dX c #3cb0e3",
"cX c #3cbdef",
"dx c #3dbbec",
"dI c #3fbaeb",
"bK c #41baec",
"bR c #41bbec",
"dF c #42b2e4",
"dN c #42b2e5",
"#q c #43bded",
".k c #44b3e4",
".n c #44b3e5",
"dj c #44bbec",
"dr c #44bcec",
"cv c #49beec",
".V c #49bfed",
"#g c #4abdec",
".7 c #4ac0ee",
"#U c #4bc5f2",
"dd c #4cc1ef",
"bu c #4dc8f3",
"aj c #4fc8f3",
"bd c #50c8f3",
"an c #50c9f3",
"cu c #51b8e6",
"db c #51c5f1",
"bb c #51c9f3",
"#Q c #57caf3",
"bE c #57caf4",
".r c #58bae7",
"d2 c #58bbe7",
".l c #58bbe8",
"bw c #58caf4",
"cU c #5bbce8",
"c3 c #5bbde8",
"bP c #5ccdf4",
"aW c #5dcdf4",
"b5 c #5ecdf4",
".y c #5fbde8",
"#R c #5fccf4",
"#T c #5fcdf4",
"#p c #62caf2",
"aO c #64c7ef",
"#N c #66ccf2",
"aH c #67d0f4",
".H c #69c8ef",
".6 c #6ac9f0",
"#F c #70cef2",
"aw c #70cff2",
"aK c #70cff3",
"cY c #71d2f4",
"cG c #72ccf0",
".m c #74c6ec",
"#v c #74ccf0",
".R c #77cef0",
"ac c #7bc9ec",
"aq c #7bcaec",
"bW c #7bd1f2",
"b8 c #7bd1f3",
"cJ c #7bd3f4",
"#S c #7bd5f6",
".I c #7ed0f1",
"d3 c #82cced",
"cw c #82d3f3",
"cd c #83d7f6",
"#5 c #86d5f4",
"#P c #87d8f6",
"dl c #88d5f3",
"#A c #88d8f6",
".E c #89cfee",
"dw c #89d6f4",
"cO c #8bdaf6",
"cb c #8dd0ef",
"cp c #8dd1ef",
".G c #8dd5f2",
".4 c #8dd5f3",
"#X c #8dd6f3",
"c2 c #8dd9f5",
"dv c #8ed6f3",
"#e c #90d2ef",
"co c #91dcf7",
"dz c #92d8f4",
"cn c #95def8",
"dS c #98d5f0",
".3 c #9bd6f1",
"do c #9fdef6",
".S c #a2def5",
"#K c #a6daf2",
"#Y c #a6dbf2",
"cL c #a7e3f9",
"cN c #a8e3f9",
".s c #a9dcf2",
"d4 c #aadcf3",
"ao c #aae4f9",
"cM c #ace5f9",
"dY c #addef3",
"c6 c #aedef3",
"dL c #aee2f6",
"cK c #aee5f9",
"aT c #afe6f9",
"bn c #b0e6f9",
"#6 c #b4e6f9",
".O c #b7e2f5",
"#W c #b7e7f9",
"cF c #b8e2f5",
"az c #b9e8fa",
"au c #bbe3f5",
"#j c #bbe7f8",
"cc c #bbe8fa",
"ag c #bbe9fa",
"#a c #bde7f8",
".Q c #bfe7f8",
"bj c #bfe8f8",
"## c #bfe8f9",
".Y c #c0e8f8",
"d. c #c0e9f9",
"#k c #c0eafa",
"b0 c #c2ecfa",
"cy c #c3edfb",
"cz c #c4edfb",
"cP c #c6ecfa",
"ce c #c6edfa",
"ap c #c6edfb",
"di c #c7ebf9",
"bZ c #c7edfb",
".X c #cbecf9",
"av c #cdedfa",
"aA c #cff0fb",
"dG c #d0ecf8",
"dp c #d2effa",
"cx c #d3f1fc",
".z c #d4edf8",
"aS c #d5f1fc",
"bm c #d5f2fc",
".t c #d6eef9",
"bJ c #d6f0fa",
"#z c #d7f1fb",
"bV c #d9f1fb",
"du c #dbf0fa",
"ad c #dbf2fa",
"ae c #dbf2fb",
"af c #dbf3fc",
"#7 c #dff4fc",
"dH c #e0f4fb",
"dy c #e0f4fc",
"cf c #e0f5fc",
"#1 c #e2f3fa",
".J c #e2f4fb",
"ah c #e3f6fc",
"aN c #e4f5fc",
"dT c #e6f5fb",
"#V c #e6f6fc",
"#f c #e9f7fc",
"ai c #eaf8fd",
"bv c #ebf8fd",
".W c #edf8fd",
"cA c #edf9fd",
".u c #eff8fc",
"bc c #effafd",
"#u c #f0f9fc",
"#2 c #f0f9fd",
"#9 c #f0fafd",
".F c #f4fafd",
"#8 c #f4fbfe",
"dM c #f6fbfd",
"dc c #f6fbfe",
"bI c #f7fcfd",
"#O c #f7fcfe",
".P c #fbfdfe",
"aX c #fdfefe",
".v c #ffffff",
"QtQtQtQtQtQtQtQtQtQtQtQtQtQtQt.#.#QtQtQtQtQtQtQtQtQtQtQtQtQtQtQt",
"QtQtQtQtQtQtQtQtQtQtQt.a.b.c.d.e.e.d.c.b.aQtQtQtQtQtQtQtQtQtQtQt",
"QtQtQtQtQtQtQtQt.f.g.h.i.j.k.l.m.m.l.n.j.i.h.g.fQtQtQtQtQtQtQtQt",
"QtQtQtQtQtQtQt.o.p.q.r.s.t.u.v.v.v.v.u.t.s.r.q.p.oQtQtQtQtQtQtQt",
"QtQtQtQtQt.#.w.x.y.z.v.v.v.v.v.v.v.v.v.v.v.v.z.y.A.w.BQtQtQtQtQt",
"QtQtQtQt.C.w.D.E.F.v.v.v.v.v.G.H.H.I.J.v.v.v.v.F.E.K.L.CQtQtQtQt",
"QtQtQt.B.M.N.O.v.v.P.Q.R.v.S.T.U.U.T.V.W.X.Y.P.v.v.O.Z.0.1QtQtQt",
"QtQtQt.2.D.3.v.v.F.4.5.6.W.7.8.9.9.9#.###a#b.4.F.v.v.3.K.bQtQtQt",
"QtQt#c#d#e.P.v#f#g#h#i#j#k#l#m#n#n#m#o#p.W#q#h#g#f.v.P#e#r#cQtQt",
"QtQt#s#t#u.v.F#v#w#x#y#z#A#B#C#C#C#C#D#E.v#F#G.T#v.F.v#u#H#sQtQt",
"Qt#I#J#K.v.v.4#L#x#M#N#O#P#Q#R#S#S#T#Q#U#V#W#M#G#L#X.v.v#Y#J#IQt",
"Qt#Z#0#1.v#2#3#4#5#6#7.v#O.v.v.v.v.v.v#8.P#9#6#5#4a.#2.v#1a#aaQt",
".aabac.v.vadae.vafagahaiajakalamamalakanao.vapaf.vaead.v.vaqaras",
"at#rau.v.v.vavawaxayazaAaBaCaDaEaEaFaCaGaH.vaIaJaKav.v.v.vau#rat",
"aLaM#u.vaNaO#xaPaQaRaSaTaCaEaUaVaVaUaEaCaWaXaY#DaP#GaOaN.v#uaZa0",
"a1a2.v.v.Ya3.8a4#Da5aSaTa6a7a8a9a9b.b#babbbcbdbe#o.8bf.Y.v.vbga1",
"bhbi.v.vbjbk.8#o#DblbmbnaFbobpbqbrbsbtaEbubvbw#C#mbxbybj.v.vbza1",
".bbA.v.vbjbk.8a4#Da5bmaTaDb#bBbCbDbpboaEbubvbE#C#m.8bybj.v.vbFa1",
"bGbHbI.vbJbK#GaP#DaRaSaTbLbMbNa8b.bNbObLbP.PbQ#Da4.8bRbJ.vbIbSaL",
"bTbU.z.vaXbVbWbXaQbYbZb0b1a6b2b#b#b3a6b4b5.vb6aQb7b8bVaX.v.zb9c.",
"c#cacb.v.v#2#f.vcccdcecfcgchcicjcjckclcmcn.vcoag.v#f#2.v.vcpcqcr",
"csctcu.F.v.Jcvcw#z.P.v.PcxapcycyczcyapcxcA.v.P#zcwcv#f.v.FcucBcC",
"QtcDcEcF.v.vcGcH.8cIcJ.PcKcLcMcMcMcMcNcO#9cPcQcRcScG.v.vcF.NcDQt",
"Qt.1cTcU.v.vbVcVcW.8cX#VcY#CaRa5a5cZc0c1#Oc2.9#xcVbV.v.vc3c4.1Qt",
"QtQta1c5c6aX.vadc7c8c9d.#Wd#aQdadaaQ#ndbdcdddec7.J.vaXc6dfa1QtQt",
"QtQtdg#sdh.t.v.vdidjdkdl#7dmaPa4a4aPdndodpdqdrdi.v.v.tds#sdgQtQt",
"QtQtQtdt.h#Hdu.v.v.vdvaO.vdw#x#G#G#xdxdy#adz.v.v.vdudAdBdCQtQtQt",
"QtQtQtQtdDdEdFdG.v.vaXdH.v.WdIdJdJdKdLaXdMaX.v.vdGdNdOdPQtQtQtQt",
"QtQtQtQtQtdtdQdRdSdT.v.v.v.v.v.v.v.v.v.v.v.vdTdSdUdQdtQtQtQtQtQt",
"QtQtQtQtQtQtdVdW#JdXdY.F.v.v.v.v.v.v.v.v.FdYdXbAdWdVQtQtQtQtQtQt",
"QtQtQtQtQtQtQtQtdZd0#rd1d2d3d4d4d4d4d3d2d1#rd0dZQtQtQtQtQtQtQtQt",
"QtQtQtQtQtQtQtQtQt.1at.2d5d6d7a2a2d7#rd8.2at.1QtQtQtQtQtQtQtQtQt"};
