/* XPM */
static char *dummy[]={
"32 32 383 2",
"Qt c None",
"cC c #000204",
".2 c #000305",
"cs c #000405",
".C c #000508",
".# c #00080b",
"dC c #00080c",
"dg c #00080c",
"dt c #000c11",
".D c #000c11",
"at c #000e14",
".f c #000e15",
".a c #001018",
"dV c #001119",
"cr c #00131c",
"c# c #00141e",
"#J c #001a27",
"dZ c #001c2a",
".o c #002030",
"au c #002130",
"dP c #002231",
"dD c #002233",
"#d c #002436",
"c. c #002739",
"bT c #00283a",
"cD c #00293c",
"a1 c #002d42",
"aM c #002f45",
"bG c #003047",
"a2 c #003148",
".g c #00334b",
".b c #003954",
".3 c #003b57",
"bh c #004a6c",
"ab c #004c70",
"dW c #004f74",
"#0 c #005075",
".M c #00547b",
".x c #00567e",
".c c #00577e",
"d0 c #005b85",
".1 c #005c87",
"cB c #005e8a",
"#t c #005f8b",
".N c #00618e",
"ct c #006391",
".d c #006391",
"d5 c #006b9d",
"d8 c #006c9d",
".e c #006c9d",
"dQ c #0071a5",
".p c #0071a6",
"as c #0072a7",
"ac c #0074a9",
"dB c #0075ab",
".h c #0076ac",
"cq c #0077ae",
"ca c #0078b0",
"dO c #007cb4",
"cT c #007cb5",
"c4 c #007db5",
"dE c #0080bc",
"d6 c #0084c2",
"#e c #0085c1",
"#s c #0085c2",
"b9 c #008ccc",
"bU c #008dcd",
"c5 c #008dcf",
"df c #008ecf",
".q c #0692d2",
".w c #0693d2",
".y c #0a94d2",
".B c #0a94d3",
"a0 c #0092d5",
"dR c #0d99d8",
"dU c #0d99d9",
"aN c #0094d7",
"bS c #0095d8",
".i c #0a98d8",
"d1 c #0d9ada",
".E c #159cda",
".L c #159dda",
"bH c #0095d9",
"dA c #2aa7e0",
"d7 c #0096da",
"a3 c #0096db",
"bg c #0097db",
"#x c #00a4e5",
".U c #00a4e6",
".V c #00a5e6",
"cW c #00a5e7",
"#y c #00a6e7",
"#H c #00a6e8",
".9 c #00a7e8",
"bx c #00a7e9",
"cR c #00a8e8",
"#. c #00a8e9",
"aQ c #00a9ea",
"a5 c #00aaea",
"#p c #00aaeb",
"#n c #00abeb",
"#o c #00abec",
"aR c #00acec",
"da c #00adec",
"#E c #00aded",
"be c #00aeed",
"dk c #01a5e6",
"c8 c #01a5e7",
"de c #01a6e7",
"#D c #01aeed",
"#C c #02aded",
"bY c #02aeed",
"c0 c #02afee",
"#i c #03a5e6",
"aS c #03afee",
"cZ c #04afee",
"a6 c #04b0ee",
"cH c #05a6e6",
"cS c #05a6e7",
"bl c #05b0ee",
"#M c #06a6e6",
"dn c #06abea",
"#K c #0a9adc",
"bA c #0a9bdc",
"bF c #0a9bdd",
"#N c #0aacea",
"d# c #0db0ed",
"c1 c #0fb2ee",
"aC c #0fb5ef",
"aH c #10b5ef",
"#j c #11abe9",
"b1 c #11b6f0",
"b4 c #12b6f0",
"az c #13b3ee",
"aD c #13b7f0",
"bk c #14abe7",
"by c #14abe8",
"## c #14aeea",
"cI c #14b0ec",
"cQ c #14b1ec",
"bL c #14b8f0",
"cE c #159edd",
".O c #159fdd",
".0 c #159fde",
"a7 c #15b8f0",
"bb c #15b9f0",
"a4 c #16ace7",
"bf c #16ace8",
"c9 c #16aeea",
"#m c #16b2ec",
"aE c #16b8f0",
"aG c #16b9f0",
"aF c #17b9f0",
"bM c #18baf0",
"b2 c #18baf1",
"bO c #19baf0",
"b3 c #19baf1",
"a8 c #1abaf0",
"ba c #1abbf1",
"aV c #1bbbf1",
"bo c #1bbcf1",
".6 c #1cade8",
"an c #1cbaf0",
"bt c #1cbcf1",
"bN c #1dbcf1",
"aW c #1dbdf1",
"bi c #1fa4df",
"bz c #1fa4e0",
"bX c #1fb3ec",
"b7 c #1fb4ec",
"a9 c #1fbdf1",
"b# c #1fbef1",
"bB c #20bef1",
"bp c #21bef2",
"#F c #22b7ef",
"b. c #22bff1",
"bs c #22bff2",
"#4 c #23afe8",
"a# c #23b0e9",
"bC c #24c0f2",
"bD c #25c0f2",
"ci c #26bdf0",
"bq c #26c1f2",
"ck c #27bdf0",
"ch c #27bdf1",
"br c #27c1f2",
"c7 c #28b2e9",
"dq c #28b3ea",
"cl c #28bdf1",
"cj c #28bef0",
"#u c #2aa7e1",
"#I c #2aa8e1",
"dJ c #2ab3ea",
".j c #2ca8e1",
"b6 c #2cbcf0",
"#z c #2db7ed",
"dK c #31b5ea",
"ay c #31bbef",
"aK c #31bcef",
"dh c #32abe2",
"ds c #32ace2",
"#c c #32b6ea",
"cg c #32c0f1",
"cm c #33c0f1",
"dm c #34baed",
"aZ c #34bff1",
"am c #36c1f1",
"al c #37c1f2",
"#1 c #38ade2",
"aa c #38ade3",
"#5 c #38b9ec",
"cV c #39b8eb",
"aJ c #39c0f1",
"bQ c #3bc1f1",
"dX c #3cb0e3",
"cX c #3cbdef",
"dx c #3dbbec",
"dI c #3fbaeb",
"bK c #41baec",
"bR c #41bbec",
"dF c #42b2e4",
"dN c #42b2e5",
"#r c #43bded",
".k c #44b3e4",
".n c #44b3e5",
"dj c #44bbec",
"dr c #44bcec",
"cv c #49beec",
".W c #49bfed",
"#h c #4abdec",
".8 c #4ac0ee",
"#V c #4bc5f2",
"dd c #4cc1ef",
"bu c #4dc8f3",
"ak c #4fc8f3",
"bd c #50c8f3",
"ao c #50c9f3",
"cu c #51b8e6",
"db c #51c6f1",
"bc c #51c9f3",
"#R c #57caf3",
"bE c #57caf4",
".r c #58bae7",
"d2 c #58bbe7",
".l c #58bbe8",
"bw c #58caf4",
"cU c #5bbce8",
"c3 c #5bbde8",
"bP c #5ccdf4",
"aX c #5dcdf4",
"b5 c #5ecdf4",
".z c #5fbde8",
"#S c #5fccf4",
"#U c #5fcdf4",
"#q c #62caf2",
"aP c #64c7ef",
"#O c #66ccf2",
"aI c #67d0f4",
".I c #69c8ef",
".7 c #6ac9f0",
"#G c #70cef2",
"ax c #70cff2",
"aL c #70cff3",
"cY c #71d2f4",
"cG c #72ccf0",
".m c #74c6ec",
"#w c #74ccf0",
".S c #78cef0",
"ad c #7bc9ec",
"ar c #7bcaec",
"bW c #7bd1f2",
"b8 c #7bd1f3",
"cJ c #7bd3f4",
"#T c #7bd5f6",
".J c #7ed0f1",
"d3 c #82cced",
"cw c #82d3f3",
"cd c #83d7f6",
"#6 c #86d5f4",
"#Q c #87d8f6",
"dl c #88d5f3",
"#B c #88d8f6",
".F c #89cfee",
"dw c #89d6f4",
"cO c #8bdaf6",
"cb c #8dd0ef",
"cp c #8dd1ef",
".H c #8dd5f2",
".5 c #8dd5f3",
"#Y c #8dd6f3",
"c2 c #8dd9f5",
"dv c #8ed6f3",
"#f c #90d2ef",
"co c #91dcf7",
"dz c #92d8f4",
"cn c #95def8",
"dS c #98d5f0",
".4 c #9bd6f1",
"do c #9fdef7",
".T c #a2def5",
"#L c #a6daf2",
"#Z c #a6dbf2",
"cL c #a7e3f9",
"cN c #a8e3f9",
".s c #a9dcf2",
"d4 c #aadcf3",
"ap c #aae4f9",
"cM c #ace5f9",
"dY c #addef3",
"cK c #aee5f9",
"c6 c #afdef3",
"dL c #afe2f6",
"aU c #afe6f9",
"bn c #b0e6f9",
"#7 c #b4e6f9",
".P c #b7e2f5",
"#X c #b7e7f9",
"cF c #b8e2f5",
"aA c #b9e8fa",
"av c #bbe3f5",
"#k c #bbe7f8",
"cc c #bbe8fa",
"ah c #bbe9fa",
"#b c #bde7f8",
".R c #bfe7f8",
"bj c #bfe8f8",
"#a c #bfe8f9",
".Z c #c0e8f8",
"d. c #c0e9f9",
"#l c #c0eafa",
"b0 c #c2ecfa",
"cy c #c3edfb",
"cz c #c4edfb",
"cP c #c6ecfa",
"ce c #c6edfa",
"aq c #c6edfb",
"di c #c7ebf9",
"bZ c #c7edfb",
".Y c #cbecf9",
"aw c #cdedfa",
"aB c #cff0fb",
"dG c #d0ecf8",
"dp c #d2effa",
"cx c #d3f1fc",
".A c #d4edf8",
"aT c #d5f1fc",
"bm c #d5f2fc",
".t c #d6eef9",
"bJ c #d6f0fa",
"#A c #d7f1fb",
"bV c #d9f1fb",
"du c #dbf0fa",
"ae c #dbf2fa",
"af c #dbf2fb",
"ag c #dbf3fc",
"#8 c #dff4fc",
"dH c #e0f4fb",
"dy c #e0f4fc",
"cf c #e0f5fc",
"#2 c #e2f3fa",
".K c #e2f4fb",
"ai c #e3f6fc",
"aO c #e4f5fc",
"dT c #e6f5fb",
"#W c #e6f6fc",
"#g c #e9f7fc",
"aj c #eaf8fd",
"bv c #ebf8fd",
".X c #edf8fd",
"cA c #edf9fd",
".u c #eff8fc",
"#v c #f0f9fc",
"#3 c #f0f9fd",
"a. c #f0fafd",
".G c #f4fafd",
"#9 c #f4fbfe",
"dM c #f6fbfd",
"dc c #f6fbfe",
"bI c #f7fcfd",
"#P c #f7fcfe",
".Q c #fbfdfe",
"aY c #fdfefe",
".v c #ffffff",
"QtQtQtQtQtQtQtQtQtQtQtQtQtQtQt.#.#QtQtQtQtQtQtQtQtQtQtQtQtQtQtQt",
"QtQtQtQtQtQtQtQtQtQtQt.a.b.c.d.e.e.d.c.b.aQtQtQtQtQtQtQtQtQtQtQt",
"QtQtQtQtQtQtQtQt.f.g.h.i.j.k.l.m.m.l.n.j.i.h.g.fQtQtQtQtQtQtQtQt",
"QtQtQtQtQtQtQt.o.p.q.r.s.t.u.v.v.v.v.u.t.s.r.w.p.oQtQtQtQtQtQtQt",
"QtQtQtQtQt.#.x.y.z.A.v.v.v.v.v.v.v.v.v.v.v.v.A.z.B.x.CQtQtQtQtQt",
"QtQtQtQt.D.x.E.F.G.v.v.v.v.v.H.I.I.J.K.v.v.v.v.G.F.L.M.DQtQtQtQt",
"QtQtQt.C.N.O.P.v.v.Q.R.S.v.T.U.V.V.U.W.X.Y.Z.Q.v.v.P.0.1.2QtQtQt",
"QtQtQt.3.E.4.v.v.G.5.6.7.X.8.9#.#.#.###a#b#c.5.G.v.v.4.L.bQtQtQt",
"QtQt#d#e#f.Q.v#g#h#i#j#k#l#m#n#o#o#n#p#q.X#r#i#h#g.v.Q#f#s#dQtQt",
"QtQt#t#u#v.v.G#w#x#y#z#A#B#C#D#D#D#D#E#F.v#G#H.U#w.G.v#v#I#tQtQt",
"Qt#J#K#L.v.v.5#M#y#N#O#P#Q#R#S#T#T#U#R#V#W#X#N#H#M#Y.v.v#Z#K#JQt",
"Qt#0#1#2.v#3#4#5#6#7#8.v#P.v.v.v.v.v.v#9.Qa.#7#6#5a##3.v#2aaabQt",
".aacad.v.vaeaf.vagahaiajakalamananamalaoap.vaqag.vafae.v.varasat",
"au#sav.v.v.vawaxayazaAaBaCaDaEaFaFaGaDaHaI.vaJaKaLaw.v.v.vav#sau",
"aMaN#v.vaOaP#yaQaRaSaTaUaDaFaVaWaWaVaFaDaXaYaZ#EaQ#HaPaO.v#va0a1",
"a2a3.v.v.Za4.9a5#Ea6aTaUa7a8a9b.b.b#babbbca.bdbe#p.9bf.Z.v.vbga2",
"bhbi.v.vbjbk.9#p#EblbmbnaGbobpbqbrbsbtaFbubvbw#D#nbxbybj.v.vbza2",
".bbA.v.vbjbk.9a5#Ea6bmaUaEbabBbCbDbpboaFbubvbE#D#n.9bybj.v.vbFa2",
"bGbHbI.vbJbK#HaQ#EaSaTaUbLbMbNa9b#bNbObLbP.QbQ#Ea5.9bRbJ.vbIbSaM",
"bTbU.A.vaYbVbWbXaRbYbZb0b1a7b2babab3a7b4b5.vb6aRb7b8bVaY.v.Ab9c.",
"c#cacb.v.v#3#g.vcccdcecfcgchcicjcjckclcmcn.vcoah.v#g#3.v.vcpcqcr",
"csctcu.G.v.Kcvcw#A.Q.v.QcxaqcycyczcyaqcxcA.v.Q#Acwcv#g.v.GcucBcC",
"QtcDcEcF.v.vcGcH.9cIcJ.QcKcLcMcMcMcMcNcOa.cPcQcRcScG.v.vcF.OcDQt",
"Qt.2cTcU.v.vbVcVcW.9cX#WcY#DaSa6a6cZc0c1#Pc2#.#ycVbV.v.vc3c4.2Qt",
"QtQta2c5c6aY.vaec7c8c9d.#Xd#aRdadaaR#odbdcdddec7.K.vaYc6dfa2QtQt",
"QtQtdg#tdh.t.v.vdidjdkdl#8dmaQa5a5aQdndodpdqdrdi.v.v.tds#tdgQtQt",
"QtQtQtdt.h#Idu.v.v.vdvaP.vdw#y#H#H#ydxdy#bdz.v.v.vdudAdBdCQtQtQt",
"QtQtQtQtdDdEdFdG.v.vaYdH.v.XdIdJdJdKdLaYdMaY.v.vdGdNdOdPQtQtQtQt",
"QtQtQtQtQtdtdQdRdSdT.v.v.v.v.v.v.v.v.v.v.v.vdTdSdUdQdtQtQtQtQtQt",
"QtQtQtQtQtQtdVdW#KdXdY.G.v.v.v.v.v.v.v.v.GdYdXbAdWdVQtQtQtQtQtQt",
"QtQtQtQtQtQtQtQtdZd0#sd1d2d3d4d4d4d4d3d2d1#sd0dZQtQtQtQtQtQtQtQt",
"QtQtQtQtQtQtQtQtQt.2au.3d5d6d7a3a3d7#sd8.3au.2QtQtQtQtQtQtQtQtQt"};
