/* XPM */
static char *dummy[]={
"32 32 228 2",
"Qt c None",
"a. c #000001",
"#v c #000102",
".V c #000203",
".2 c #000405",
".U c #001118",
"ak c #001119",
"#j c #00141c",
".Q c #00161f",
"#X c #001925",
".# c #002333",
"bF c #002436",
"#W c #002838",
"#L c #002a3b",
".b c #002a3c",
".l c #002b3e",
".x c #002c3e",
".C c #002c3f",
"a# c #002f44",
"#i c #003449",
".7 c #00384f",
"aA c #00354e",
".M c #003c55",
"aw c #003954",
".e c #003c56",
".s c #003d57",
".D c #003e58",
"#K c #004865",
".a c #004463",
"#w c #004a68",
"aV c #004a6c",
"aB c #00547b",
"#2 c #005a82",
"#9 c #005b82",
".1 c #005e84",
".W c #00648e",
".6 c #006c98",
"aW c #006797",
".3 c #00709e",
"#u c #007aa9",
"al c #0073a6",
"#k c #007eaf",
"bA c #0075ac",
"#Y c #0082b9",
".c c #0086c3",
".8 c #0094cf",
"#h c #0095cf",
".R c #0091cd",
".T c #0092cd",
"#J c #0095d0",
".k c #008dcb",
".r c #008fcd",
".w c #0091ce",
".B c #0093cf",
".I c #0093d1",
".L c #0094d1",
".f c #038ecc",
".m c #0390cd",
".t c #0392cf",
".y c #0393d0",
".E c #0395d1",
"#x c #0398d3",
"#V c #039ddb",
"#M c #0a9fdb",
"be c #0090d3",
"bb c #0693d4",
"az c #0695d6",
"ax c #0a98d9",
"#3 c #14a4e0",
"#8 c #14a4e1",
"#g c #00a8e8",
"#t c #00a8e9",
".9 c #06a9e8",
"bi c #0095da",
"bG c #0096da",
"bH c #0096db",
"#l c #00adec",
"#s c #00aded",
"#m c #03afed",
"#r c #04afee",
"#n c #08b2ef",
"#q c #09b2ef",
"by c #0d9adb",
"aU c #0d9bdc",
"#p c #0db4ef",
"aa c #0ea0e0",
"aj c #0ea1e1",
"bf c #149ddc",
"aC c #189fdd",
"#E c #1ab8f0",
"ba c #1ca1de",
".d c #1ca2df",
"aX c #23a3df",
"#7 c #25bcf0",
"#S c #25bdf0",
"#. c #2ab9ee",
"#f c #2ab9ef",
"## c #2bbbf0",
"#e c #2cbcf0",
"#a c #2fbef1",
"#d c #30bef1",
"#y c #34b9ed",
"#I c #34baed",
"#o c #34c0f1",
"#6 c #34c1f1",
"#D c #37c1f1",
"bE c #38ace2",
".0 c #38b7ea",
"#R c #38c2f1",
"#1 c #38c2f2",
"#c c #3ac2f2",
"ar c #3bc4f2",
"au c #3cc4f2",
"as c #3ec5f3",
"bB c #3fafe2",
".X c #3fb9eb",
"at c #3fc6f3",
".q c #46b7e8",
".A c #46bbeb",
".K c #46bcec",
".5 c #4abeed",
"ad c #4cc8f3",
"ai c #4dc8f3",
"aq c #53caf3",
"bk c #54bae7",
"bl c #54bbe8",
"aE c #54bce9",
"bm c #54bdea",
"aF c #54beeb",
"aG c #54c0ec",
"bn c #54c1ed",
".4 c #54c2ee",
"aH c #54c3ef",
"aT c #54c4ef",
"bo c #54c4f0",
"bp c #54c5f0",
"aI c #54c6f1",
"aJ c #54c7f2",
"#b c #54caf3",
"aK c #55c9f3",
"aS c #56c9f3",
"aL c #57caf3",
"aR c #58caf3",
"aM c #5acbf4",
"am c #5bbee9",
"av c #5bbeea",
"aN c #5bccf4",
"#C c #5cccf4",
"aO c #5dccf4",
"aQ c #5dcdf4",
"aP c #5ecdf4",
".S c #5fc5ee",
"#U c #5fc6ef",
"#z c #5fcaf2",
".j c #62c1ea",
".n c #62c2eb",
".v c #62c4ed",
".z c #62c5ed",
".H c #62c6ee",
".J c #62c6ef",
".P c #62c7ef",
"#Z c #66c7ee",
"#F c #66cff4",
"#N c #69c9f0",
"aY c #70c5eb",
"b# c #70c6eb",
"aD c #70c6ec",
".g c #7bcaed",
"ae c #7bd7f6",
"bs c #7ecaed",
"bx c #7ecbed",
"bt c #7ecbee",
"aZ c #7eccee",
"bu c #7ecdee",
"a0 c #7eceef",
".u c #7ecef0",
"a1 c #7ecff0",
"bv c #7ed0f0",
".F c #7ed0f1",
"a2 c #7ed1f1",
".N c #7ed1f2",
"a3 c #7ed2f2",
"b. c #7ed2f3",
"a4 c #7ed3f3",
"a9 c #7ed3f4",
"a5 c #7ed4f4",
"a6 c #7fd5f5",
"#A c #7fd6f6",
"#H c #80d6f6",
"#B c #81d7f6",
"#G c #82d7f6",
"a7 c #83d8f6",
"a8 c #84d8f6",
"bd c #8dcfee",
"br c #8dd1ef",
"bc c #9bd5f0",
"bw c #9bd7f1",
"ab c #a2dbf3",
"bh c #aadbf2",
"bC c #aadcf2",
"bD c #aadcf3",
"#Q c #aee6f9",
"#0 c #afe6fa",
"af c #b1e7fa",
"ag c #b2e8fa",
"ah c #b3e8fa",
"bz c #b7e1f4",
"#5 c #b8e9fa",
"bg c #bfe4f5",
"#T c #c3ecfb",
"bj c #c6e7f6",
"bq c #c6e9f8",
"ap c #cbeefb",
"#O c #dff4fc",
"ay c #e2f3fa",
"#4 c #e2f4fb",
".Z c #e2f4fc",
"ac c #e2f6fd",
".Y c #e6f6fc",
".i c #e9f6fc",
".G c #e9f7fc",
".h c #f0f9fc",
"an c #f0f9fd",
".o c #f4fafd",
".O c #f4fbfd",
"#P c #fbfdfe",
"ao c #fdfefe",
".p c #ffffff",
"QtQtQtQtQtQtQtQtQtQtQtQtQtQt.#.a.a.#QtQtQtQtQtQtQtQtQtQtQtQtQtQt",
"QtQtQtQtQtQtQtQtQtQtQtQtQt.b.c.d.d.c.bQtQtQtQtQtQtQtQtQtQtQtQtQt",
"QtQtQtQtQtQtQtQtQtQtQtQt.e.f.g.h.i.j.k.eQtQtQtQtQtQtQtQtQtQtQtQt",
"QtQtQtQtQtQtQtQtQtQtQt.l.m.n.o.p.p.i.q.r.lQtQtQtQtQtQtQtQtQtQtQt",
"QtQtQtQtQtQtQtQtQtQt.s.t.u.o.p.p.p.p.i.v.w.sQtQtQtQtQtQtQtQtQtQt",
"QtQtQtQtQtQtQtQtQt.x.y.z.o.p.p.p.p.p.p.i.A.B.CQtQtQtQtQtQtQtQtQt",
"QtQtQtQtQtQtQtQt.D.E.F.o.p.p.p.p.p.p.p.p.G.H.I.DQtQtQtQtQtQtQtQt",
"QtQtQtQtQtQtQt.C.E.J.o.p.p.p.p.p.p.p.p.p.p.G.K.L.CQtQtQtQtQtQtQt",
"QtQtQtQtQtQt.M.E.N.O.p.p.p.p.p.p.p.p.p.p.p.p.G.P.L.MQtQtQtQtQtQt",
"QtQtQtQtQt.Q.R.S.O.p.p.p.p.p.p.p.p.p.p.p.p.p.p.G.K.T.UQtQtQtQtQt",
"QtQtQtQt.V.W.X.Y.p.p.p.p.p.p.p.p.p.p.p.p.p.p.p.p.Z.0.1QtQtQtQtQt",
"QtQtQtQt.2.3.4.O.p.p.p.p.p.p.p.p.p.p.p.p.p.p.p.p.O.5.6QtQtQtQtQt",
"QtQtQtQtQt.7.8.9#.###a#b.p.p.p.p.p.p.p.p#c#d#e#f#g#h#iQtQtQtQtQt",
"QtQtQtQtQt#j#k#g#l#m#n#o.p.p.p.p.p.p.p.p#p#q#r#s#t#u#jQtQtQtQtQt",
"QtQtQt#v#w#x#y#z#A#B#C#D.p.p.p.p.p.p.p.p#E#F#G#H#z#I#J#KQtQtQtQt",
"QtQtQt#L#M#N#O#P.p.p#Q#R.p.p.p.p.p.p.p.p#S#T.p.p#P#O#U#V#WQtQtQt",
"QtQt#X#Y#Z.o.p.p.p.p#0#1.p.p.p.p.p.p.p.p#S#T.p.p.p.p.o#Z#Y#XQtQt",
"QtQt#2#3#4.p.p.p.p.p#5#6.p.p.p.p.p.p.p.p#7#T.p.p.p.p.p#4#8#9QtQt",
"a.a#aaab.p.p.p.p.p.pacadaeafagahahagafaeaiac.p.p.p.p.p.pabaja#a.",
"akalaman.p.p.p.p.p.paoapaqarasatatasau#bapao.p.p.p.p.p.panavalak",
"awaxay.p.p.p.p.p.p.p.p.p.p.p.p.p.p.p.p.p.p.p.p.p.p.p.p.p.payazaA",
"aBaCaDaEaFaG.4aHaIaJaKaLaMaNaOaPaPaQ#CaMaRaSaJaIaT.4aGaFaEaDaUaV",
"aWaXaYaZa0a1a2a3a4a5a6#H#Ba7a8a8a8a8a7#G#Ha6a5a9b..Na1a0aZb#baaW",
"bbbc.p.p.p.p.p.p.p.p.p.p.p.p.p.p.p.p.p.p.p.p.p.p.p.p.p.p.p.pbdbe",
"bfbg.p.p.p.p.p.p.p.p.p.p.p.p.p.p.p.p.p.p.p.p.p.p.p.p.p.p.p.pbhbi",
"bfbg.pbjbkblbmaFaGbn.4aHaTbobpbpbpbpboaTaH.4bnaGbq.pbrbkbj.pbhbi",
"bfbg.pbjbsbtbua0a1bv.F.N.Nb.b.b.b.b.b.a3.N.F.Fa1bq.pbwbxbj.pbhbi",
"bfbg.p.p.p.p.p.p.p.p.p.p.p.p.p.p.p.p.p.p.p.p.p.p.p.p.p.p.p.pbhbi",
"bfbg.p.p.p.p.p.p.p.p.p.p.p.p.p.p.p.p.p.p.p.p.p.p.p.p.p.p.p.pbhbi",
"bybz.p.p.p.p.p.p.p.p.p.p.p.p.p.p.p.p.p.p.p.p.p.p.p.p.p.p.p.pbhbi",
"bAbBbhbhbhbhbhbhbhbhbhbCbDbDbDbDbDbDbDbDbDbhbhbhbhbhbhbhbhbhbEbA",
"bFbAbibibibibibibibibibibibGbHbHbHbHbGbibibibibibibibibibibibAbF"};
