/* XPM */
static char *dummy[]={
"32 32 203 2",
"Qt c None",
".# c #000102",
"#K c #000304",
".c c #000305",
"b. c #000507",
"a0 c #00080b",
".a c #000a0e",
"bi c #000a0f",
"#U c #000b10",
".b c #000c11",
"#2 c #000c12",
".d c #00141e",
".k c #001824",
"#t c #001924",
"#h c #001925",
"a1 c #002131",
"#B c #002a3d",
".W c #002f45",
".j c #003148",
".t c #003751",
".O c #003954",
"b# c #003a56",
".9 c #00415f",
"aX c #004160",
"a9 c #004464",
".0 c #004869",
".y c #004a6c",
".e c #005c88",
"#J c #00648e",
"bh c #006291",
".i c #006391",
"aZ c #006b9d",
".f c #006da0",
"#T c #0075a7",
".g c #006fa3",
".h c #0070a3",
"aG c #0071a4",
"ay c #0072a5",
"ar c #0073a6",
"ak c #0074a7",
"ab c #0075a7",
"#7 c #0076a8",
"#1 c #0076a9",
".l c #007cb5",
"#g c #007eb8",
"#s c #0085bf",
"#A c #0088c2",
"a2 c #0085c3",
"ba c #038dce",
".V c #038ece",
".N c #0a93d2",
".H c #0a94d3",
"bg c #0392d4",
".u c #0092d7",
".8 c #149ddb",
".z c #0095da",
"#i c #0096da",
"#u c #0096db",
"#C c #0097db",
"aE c #0aafec",
"#I c #0ca6e5",
".s c #119cdc",
"aI c #12aeea",
"bb c #149ddc",
"bf c #149ddd",
"bc c #149edd",
"bd c #149fdd",
"be c #149fde",
"aR c #18ade8",
".Y c #1ab2ec",
".Z c #1fa1de",
"a8 c #1fa2de",
"#z c #1fade6",
"aM c #21b5ed",
"av c #23b9f0",
"#9 c #26bdf1",
"am c #27bbf0",
"ao c #28bcf0",
"#r c #2aade5",
"#H c #2fb5ea",
"#Y c #2fb9ee",
"a# c #30bdf0",
"af c #30bff1",
"aS c #31b7eb",
"#y c #34b6eb",
"#d c #34baee",
".m c #3bade2",
".F c #3cb2e6",
"aD c #3dc0f0",
".4 c #3fbff0",
"at c #3fc2f1",
"aL c #41bfef",
".C c #42b2e4",
"az c #44c1f0",
"#f c #46b5e6",
"#o c #46bfee",
"#Q c #46bfef",
"#5 c #46c3f1",
"ah c #47c4f2",
"ae c #48c6f3",
".G c #4ab6e6",
".K c #4bbceb",
"aN c #4bc3f0",
".3 c #4dc6f2",
".E c #4fbcea",
".J c #4fbfec",
"#R c #4fc1ee",
".Q c #4fc2ef",
"#Z c #4fc3ef",
"#6 c #4fc4f1",
".X c #4fc5f1",
"ai c #4fc6f2",
"ad c #4fc8f3",
"#a c #51c8f3",
".2 c #52c8f3",
"aF c #54c7f1",
"## c #57caf3",
".r c #58b9e6",
"#w c #5bcef4",
"#S c #5dc3ed",
"#k c #5dcef4",
"#4 c #5fcff4",
"#3 c #60cff4",
"#v c #61d0f4",
".R c #62c7ef",
"#N c #64d2f5",
"#W c #65d2f5",
"aT c #66caf1",
"#E c #67d3f5",
"#M c #68d3f5",
"#l c #6cd2f5",
"#p c #6dcbf1",
"#e c #6dccf1",
".5 c #6dcdf2",
"aK c #6fcef2",
"aY c #70c3ea",
".n c #74c5ea",
"#F c #75d6f6",
"#X c #77d7f6",
"aJ c #79d1f3",
".o c #7ec9ec",
".p c #7ecaec",
".q c #7ecaed",
"aQ c #7ecbed",
"ax c #7eccee",
"aq c #7ecdef",
"aj c #7eceef",
"aa c #7ecef0",
"#0 c #7ecff0",
".M c #7fcaec",
"au c #82d7f6",
"#8 c #8bdbf7",
"aA c #8fdaf6",
"a7 c #94d2ef",
"as c #96ddf7",
".U c #9bd5f0",
"ap c #9ee0f8",
"an c #9fe1f8",
".B c #a6dbf2",
"aU c #a6e0f7",
"aO c #a6e1f7",
"a. c #a6e4f9",
"aw c #aae4f8",
"a3 c #bbe2f5",
"ag c #bceafa",
"aC c #bde9f9",
"a4 c #bfe4f5",
"a5 c #bfe4f6",
"a6 c #bfe5f6",
"aW c #c2e9f8",
"al c #c2ebfa",
"#q c #c9ebf9",
".7 c #dbf0fa",
"#n c #dbf2fb",
"#P c #dbf2fc",
"#c c #dbf3fc",
".D c #e0f3fb",
".P c #e0f4fc",
".1 c #e1f5fd",
".v c #e2f3fa",
"#j c #e3f6fd",
"#V c #e4f6fd",
"#D c #e5f7fd",
".L c #e6f5fb",
".S c #e9f7fc",
"aP c #e9f7fd",
"#b c #e9f8fd",
"#m c #eaf8fd",
"#x c #ebf8fd",
"#G c #ebf9fd",
"#O c #ecf9fd",
".6 c #edf8fd",
"ac c #edf9fd",
"aH c #f0f9fd",
"aV c #f0fafd",
".x c #f4fafd",
".A c #f7fbfe",
".I c #f7fcfe",
"#. c #f8fcfe",
"#L c #f8fdfe",
".T c #fbfdfe",
"aB c #fdfefe",
".w c #ffffff",
"QtQt.#.a.b.b.b.b.b.b.b.b.b.b.b.b.b.b.b.b.b.b.b.b.b.b.cQtQtQtQtQt",
"Qt.d.e.f.g.g.g.g.g.g.g.g.g.g.g.h.h.g.g.g.g.g.g.g.g.g.i.jQtQtQtQt",
".k.l.m.n.o.o.o.o.o.o.o.o.p.p.q.q.q.q.p.p.p.o.o.o.o.o.r.s.jQtQtQt",
".t.u.v.w.w.w.w.w.w.w.w.w.w.w.w.w.w.w.w.w.w.w.w.w.w.w.x.r.i.cQtQt",
".y.z.w.w.w.w.w.w.w.w.w.w.w.w.w.w.w.w.w.w.w.w.w.w.w.w.w.o.g.bQtQt",
".y.z.w.w.w.w.w.w.w.w.w.w.w.w.w.w.w.w.w.w.w.w.w.w.w.w.w.o.g.bQtQt",
".y.z.w.w.w.w.w.w.w.w.w.w.w.w.w.w.w.w.w.w.w.w.w.w.w.w.w.o.g.bQtQt",
".y.z.w.w.w.w.w.w.w.w.w.w.w.w.w.w.w.w.w.w.w.w.w.w.w.A.B.C.f.aQtQt",
".y.z.w.w.w.w.w.w.w.w.w.w.w.w.w.w.w.w.w.w.w.w.w.w.D.E.F.G.H.y.#Qt",
".y.z.w.w.w.w.w.w.w.w.w.w.w.w.w.w.w.w.w.w.w.w.w.I.J.K.L.x.M.N.O.#",
".y.z.w.w.w.w.w.w.w.w.w.w.w.w.w.w.w.w.w.w.w.w.P.Q.R.S.w.w.T.U.V.W",
".y.z.w.w.w.w.w.w.w.w.w.w.w.w.w.w.w.w.w.w.w.I.X.Y.S.w.w.w.w.T.Z.0",
".y.z.w.w.w.w.w.w.w.w.w.w.w.w.w.w.w.w.w.w.1.2.3.4.5.6.w.w.w.7.8.9",
".y.z.w.w.w.w.w.w.w.w.w.w.w.w.w.w.w.w.w#.###a#b#c#d#e.w.w.7#f#g#h",
".y#i.w.w.w.w.w.w.w.w.w.w.w.w.w.w.w.w#j#k#l#m.w.w#n#o#p#q#r#s#tQt",
".y#u.w.w.w.w.w.w.w.w.w.w.w.w.w.w.w#.#v#w#x.w.w.w.w#n#y#z#A#BQtQt",
".y#C.w.w.w.w.w.w.w.w.w.w.w.w.w.w#D#E#F#G.w.w.w.w.w#n#H#I#J#KQtQt",
".y#u.w.w.w.w.w.w.w.w.w.w.w.w.w#L#M#N#O.w.w.w.w.w#P#Q#R#S#T#UQtQt",
".y#u.w.w.w.w.w.w.w.w.w.w.w.w#V#W#X#O.w.w.w.w.w#c#Y#Z.I#0#1#2QtQt",
".y#i.w.w.w.w.w.w.w.w.w.w.w#.#3#4#O.w.w.w.w.w#c#5#6.P.w#0#7#2QtQt",
".y.z.w.w.w.w.w.w.w.w.w.w.w#8#9a..w.w.w.w.w#ca#.X.I.w.waaab#2QtQt",
".y.z.w.w.w.w.w.w.w.w.w.wacadaeafag.w.w.w#cahai.P.w.w.wajak#2QtQt",
".y.z.w.w.w.w.w.w.w.w.w.walamacanaoap.w#ca#ai.I.w.w.w.waqar#2QtQt",
".y.z.w.w.w.w.w.w.w.w.w.wasat.w.Tauavawahai.P.w.w.w.w.waxay#2QtQt",
".y.z.w.w.w.w.w.w.w.w.w.wazaAaB#xaCaDaEaF.I.w.w.w.w.w.waxaG.bQtQt",
".y.z.w.w.w.w.w.w.w.w.waHaIaJaKaLaMaNaOaP.w.w.w.w.w.w.waQ.h.bQtQt",
".y.z.w.w.w.w.w.w.w.w.w#qaRaSaTaUaV.w.w.w.w.w.w.w.w.w.w.p.g.bQtQt",
".y.z.w.w.w.w.w.w.w.w.w.xaW#n.w.w.w.w.w.w.w.w.w.w.w.w.w.o.g.bQtQt",
".y.z.w.w.w.w.w.w.w.w.w.w.w.w.w.w.w.w.w.w.w.w.w.w.w.w.w.o.g.bQtQt",
"aX.z.w.w.w.w.w.w.w.w.w.w.w.w.w.w.w.w.w.w.w.w.w.w.w.w.waYaZa0QtQt",
"a1a2.na3a4a4a4a4a4a4a4a4a5a6a6a6a6a6a6a6a4a4a4a4a4a4a7a8a9QtQtQt",
"b.b#ba.sbbbbbbbbbbbbbbbbbcbcbdbebebebcbcbfbbbbbbbbbbbgbhbiQtQtQt"};
