/* XPM */
static char *dummy[]={
"32 32 232 2",
"Qt c None",
".s c #000202",
"aB c #000507",
"bz c #00080c",
".x c #000a0f",
".B c #000d12",
"bs c #000d13",
"bc c #000e13",
"a8 c #010f13",
"a0 c #020f13",
".C c #001017",
".P c #001118",
".N c #001119",
".R c #00151e",
".L c #001620",
".K c #001720",
".d c #00141e",
".k c #00151e",
".# c #001824",
".c c #001924",
".Q c #001a25",
".O c #001a26",
".M c #001b26",
"aC c #002232",
".J c #002736",
".S c #002436",
".a c #003751",
"aD c #003c56",
"af c #003a56",
"aW c #00405c",
"bA c #004464",
"bG c #004766",
".b c #004a6c",
"aE c #004e6f",
"aV c #004e70",
"aF c #005071",
"aU c #005172",
"aT c #005374",
"aS c #005575",
"aR c #005676",
"aQ c #035876",
"aP c #065977",
"aO c #085a77",
"aN c #0b5c78",
"aM c #0d5d78",
"aL c #105f78",
"aK c #136078",
"aJ c #146882",
".l c #005a85",
".r c #00618b",
"bH c #006291",
"bL c #006592",
".t c #006391",
"bt c #006492",
"bo c #006693",
"bl c #006794",
"bh c #006995",
"bd c #006a96",
"b. c #006b97",
"a4 c #006c98",
"aX c #006d99",
"by c #0072a2",
".D c #006d9e",
".w c #0075a6",
".A c #0079ab",
"bv c #007cac",
"br c #007eae",
"bn c #0080b0",
"bk c #0182b2",
"bg c #0585b3",
"bb c #0887b3",
"a9 c #0d88b3",
"a7 c #108ab4",
"a3 c #148cb4",
"aZ c #168eb4",
".T c #0075ac",
".I c #0083b7",
".e c #007cb5",
".j c #007fb7",
"aG c #0088bf",
"aI c #1da6d3",
"ag c #0087c4",
"#7 c #008ccd",
"ae c #018dce",
"bI c #0090d3",
"bK c #0092d5",
".f c #149bd9",
".i c #149edc",
"#v c #0095da",
"bJ c #0096db",
"ah c #009ade",
"ai c #009de0",
"aA c #009ee1",
"aj c #00a0e3",
"az c #00a1e3",
"ak c #00a4e5",
"ay c #00a4e6",
"ax c #00a7e8",
"aw c #00abeb",
"av c #01aeed",
"au c #05b0ee",
".0 c #06abea",
".V c #0a99db",
"#a c #0a9bdd",
".X c #0a9dde",
".7 c #0aa6e6",
".4 c #0aabe9",
"at c #0cb3ef",
"#J c #0d9adb",
"#6 c #0f9bdc",
"#. c #0fa2e1",
".9 c #0fa4e3",
".2 c #0faeeb",
"as c #10b6f0",
".U c #119cdc",
"#T c #149ddc",
"#b c #149ddd",
".W c #149fde",
"## c #14a2e0",
".8 c #14a8e5",
".6 c #14ace8",
".5 c #14ade9",
".3 c #14afeb",
".1 c #14b0eb",
"bB c #159ddc",
"bF c #15a3e1",
"ar c #17b9f0",
"aq c #1bbbf1",
"an c #20bef1",
"ap c #21bef2",
"ao c #24c0f2",
".g c #2aa6e0",
".h c #2aa7e0",
".E c #2aaae3",
"bp c #2aace4",
"#z c #2aafe7",
"be c #2ab1e8",
"a. c #2ab5eb",
"aY c #2ab5ec",
".m c #3fafe3",
"#V c #3fbaeb",
"#Z c #3fbaec",
"a5 c #3fbbec",
"#j c #3fc0f0",
"#c c #46b2e4",
".q c #46b7e7",
".u c #54b8e6",
"bw c #54b9e6",
".y c #54b9e7",
"bu c #54bbe8",
".Y c #54bce9",
"bm c #54bdea",
"#h c #54beea",
"bi c #54bfeb",
"#M c #54c0ec",
"b# c #54c1ed",
"#2 c #54c3ee",
"a1 c #54c3ef",
"al c #54c4ef",
"#C c #56c9f3",
"#O c #5acbf4",
"#Y c #5dcdf4",
"#e c #5ebde8",
"#t c #5ebee9",
"#g c #5ec0eb",
"#p c #5ec6ef",
"#n c #5ec9f2",
"#1 c #60cff4",
"#8 c #62bee8",
"ad c #64bfe9",
"#4 c #64d0f5",
"ac c #67d2f5",
"bx c #69c6ed",
".v c #77ccef",
".F c #7ecdee",
"#y c #7eceef",
"bq c #7ecef0",
"#L c #7ecff0",
"#U c #7ecff1",
".z c #7ed0f1",
".H c #7ed1f2",
".Z c #7ed3f4",
"a# c #7ed4f4",
"#i c #7ed5f5",
"bC c #7fc9ec",
"bE c #7fcbed",
"bj c #7fd6f6",
"#B c #80d6f6",
"bf c #82d7f6",
"#N c #82d8f6",
"ba c #84d9f6",
"#X c #85d9f6",
"#0 c #87daf6",
"a6 c #89dbf7",
"#3 c #8adbf7",
"ab c #8bdcf7",
"a2 c #8cdcf7",
"am c #8dddf7",
"aH c #8eddf7",
"#s c #8fd4f2",
"#r c #8fd5f2",
"#l c #8fdaf6",
"#x c #9bd6f1",
"#H c #9bd7f2",
"#F c #9bdcf6",
"#E c #9bdef7",
"#w c #aadbf2",
"bD c #aadcf3",
"#I c #b7e1f4",
"#5 c #b9e2f4",
"#d c #bbe2f4",
"#u c #bfe4f5",
"#f c #bfe5f6",
"#q c #bfe7f8",
"#o c #bfe8f9",
"#m c #bfe9f9",
"#k c #bfeafa",
".G c #cdebf9",
"#G c #cdecf9",
"#A c #cdedfa",
"aa c #cdeefb",
"#D c #cdeffb",
"#W c #e6f6fc",
".n c #e9f6fb",
".p c #e9f6fc",
"#K c #f0f9fc",
"#S c #f0f9fd",
"#Q c #f0fafd",
"#9 c #f7fbfd",
"#R c #f7fcfe",
"#P c #f8fcfe",
".o c #ffffff",
"QtQtQtQtQtQtQtQtQtQtQtQtQtQtQtQtQtQtQtQtQtQtQtQtQtQtQtQtQtQtQtQt",
"QtQtQtQtQtQtQtQtQtQtQtQtQtQtQtQtQtQtQtQtQtQtQtQtQtQtQtQtQtQtQtQt",
"QtQtQtQtQtQt.#.a.b.b.b.b.a.cQtQtQtQtQtQtQtQtQtQtQtQtQtQtQtQtQtQt",
"QtQtQtQtQt.d.e.f.g.g.h.h.i.j.kQtQtQtQtQtQtQtQtQtQtQtQtQtQtQtQtQt",
"QtQtQtQtQt.l.m.n.o.o.o.o.p.q.r.sQtQtQtQtQtQtQtQtQtQtQtQtQtQtQtQt",
"QtQtQtQtQt.t.u.o.o.o.o.o.o.v.w.xQtQtQtQtQtQtQtQtQtQtQtQtQtQtQtQt",
"QtQtQtQtQt.t.y.o.o.o.o.o.o.z.A.BQtQtQtQtQtQtQtQtQtQtQtQtQtQtQtQt",
"QtQt.C.C.#.D.E.F.G.o.o.o.o.H.I.J.K.L.M.N.M.O.P.Q.R.R.c.C.#.CQtQt",
".S.T.U.V.W.X.Y.o.o.o.o.o.o.Z.0.1.2.2.3.4.5.6.7.8.9#.###a#b.U.T.S",
".T#c#d#e#f#g#h.o.o.o.o.o.o#i#j#k#l#l#m#n#m#o#p#q#r#s#f#t#u#d#c.T",
"#v#w.o#x.o#y#z.z#A.o.o.o.o#B#C.o#D#D.o#E.o.o#F.o#G#G.o#H.o.o#I#J",
"#v#w.o#K.o#L#M.o.o.o.o.o.o#N#O.o#P#P.o#Q.o.o#Q.o#R#R.o#S.o.o#u#T",
"#v#w.o.o.o#U#V#o#W.o.o.o.o#X#Y.o.o.o.o.o.o.o.o.o.o.o.o.o.o.o#u#T",
"#v#w.o.o.o.z#Z#o#W.o.o.o.o#0#1.o.o.o.o.o.o.o.o.o.o.o.o.o.o.o#u#T",
"#v#w.o.o.o.H#2.o.o.o.o.o.o#3#4.o.o.o.o.o.o.o.o.o.o.o.o.o.o.o#5#6",
"#7#8#9.o.o.Ha.a#aa.o.o.o.oabac.o.o.o.o.o.o.o.o.o.o.o.o.o.o#9adae",
"afagahaiajakal.o.o.o.o.o.oamanaoaoapaqarasatauavawaxayazaAahagaf",
"aBaCaDaEaFaGal.o.o.o.o.o.oaHaIaJaKaLaMaNaOaPaQaRaSaTaUaFaVaWaCaB",
"QtQtQtQtQtaXaYa#aa.o.o.o.oamaZa0QtQtQtQtQtQtQtQtQtQtQtQtQtQtQtQt",
"QtQtQtQtQtaXa1.o.o.o.o.o.oa2a3a0QtQtQtQtQtQtQtQtQtQtQtQtQtQtQtQt",
"QtQtQtQtQta4a5#m#W.o.o.o.oa6a7a8QtQtQtQtQtQtQtQtQtQtQtQtQtQtQtQt",
"QtQtQtQtQta4a5#m#W.o.o.o.o#0a9a8QtQtQtQtQtQtQtQtQtQtQtQtQtQtQtQt",
"QtQtQtQtQtb.b#.o.o.o.o.o.obabbbcQtQtQtQtQtQtQtQtQtQtQtQtQtQtQtQt",
"QtQtQtQtQtbdbe.H#A.o.o.o.obfbgbcQtQtQtQtQtQtQtQtQtQtQtQtQtQtQtQt",
"QtQtQtQtQtbhbi.o.o.o.o.o.objbkbcQtQtQtQtQtQtQtQtQtQtQtQtQtQtQtQt",
"QtQtQtQtQtblbm.o.o.o.o.o.o#ibnbcQtQtQtQtQtQtQtQtQtQtQtQtQtQtQtQt",
"QtQtQtQtQtbobpbq#G.o.o.o.o.ZbrbsQtQtQtQtQtQtQtQtQtQtQtQtQtQtQtQt",
"QtQtQtQtQtbtbu.o.o.o.o.o.o.Hbv.BQtQtQtQtQtQtQtQtQtQtQtQtQtQtQtQt",
"QtQtQtQtQt.tbw.o.o.o.o.o.o.z.A.BQtQtQtQtQtQtQtQtQtQtQtQtQtQtQtQt",
"QtQtQtQtQt.t.u.o.o.o.o.o.obxbybzQtQtQtQtQtQtQtQtQtQtQtQtQtQtQtQt",
"QtQtQtQtQtbAbBbC#w#wbDbDbEbFbGQtQtQtQtQtQtQtQtQtQtQtQtQtQtQtQtQt",
"QtQtQtQtQt.xbHbI#v#v#vbJbKbL.xQtQtQtQtQtQtQtQtQtQtQtQtQtQtQtQtQt"};
