/* XPM */
static char *dummy[]={
"32 32 605 2",
"dl c #484434",
"co c #59594c",
"fy c #5b5270",
"dm c #5d583c",
"dv c #605f5b",
"cN c #625d5f",
"b5 c #6c6086",
"cn c #70657e",
"dc c #706c7b",
"fH c #716f6d",
"cU c #767187",
"cq c #776779",
"dL c #77766a",
"c9 c #787564",
"fo c #787674",
"e# c #78787d",
"#L c #7a738d",
"dV c #7b787a",
"c0 c #7c6e8b",
".u c #7c7c7f",
"b3 c #7d6e94",
"fc c #7d738e",
"d# c #7d7c78",
"dn c #7d7e7e",
"eq c #7f7c8b",
"cL c #7f7d68",
"eQ c #8171a1",
"cC c #81729b",
"cs c #81739f",
"dk c #82767d",
"cQ c #827b97",
"fx c #827c95",
"ek c #838181",
"bG c #847899",
"cr c #8575a2",
"a0 c #8578a0",
"d3 c #857c99",
"fw c #85838a",
"fb c #85848b",
"db c #8676a8",
"dx c #8677a0",
"b4 c #86799d",
"cf c #87789f",
"ea c #877e58",
".P c #87848a",
"dK c #878883",
"bl c #887ca1",
"cg c #887d87",
"a2 c #888394",
"d4 c #897aa5",
"bH c #8b7caa",
"cP c #8b7cad",
"gK c #8c4838",
"cO c #8c7cac",
"es c #8c7ea0",
"er c #8d7db1",
"bZ c #8e7fa9",
"cK c #8e8e8f",
"hk c #8f3c2e",
"d6 c #8f82a0",
"dt c #8f8550",
"cm c #907f8c",
"ds c #928c80",
"fS c #928e9b",
"c8 c #928f8a",
"#t c #9388aa",
"f9 c #938c9f",
"bD c #938ca0",
"eP c #938d9f",
"da c #938e9e",
"gH c #947470",
"d5 c #9483b5",
"gz c #949a9b",
"aT c #9584a5",
"bF c #9584b7",
"dG c #9586b2",
"fz c #9586b3",
"#u c #96939a",
"bA c #978486",
"bi c #988aa8",
"cF c #988c9b",
"dD c #9988b8",
"dz c #9a9aa3",
"e4 c #9aa2b5",
"ci c #9c8bab",
"ff c #9c8cb2",
"bf c #9d8ebc",
"ax c #9d8fb1",
"dW c #9da6a9",
"dF c #9e8ec0",
"hl c #9e9276",
".M c #9e95b6",
"ho c #9e994b",
"fd c #9f8d96",
"aX c #9f90b2",
"am c #a096b9",
"hz c #a09b76",
"gj c #a0a5a9",
"bT c #a18fab",
"aY c #a191be",
"h. c #a1959c",
".O c #a199af",
"bm c #a294c3",
"c3 c #a2958a",
"#K c #a295bd",
"c2 c #a2978b",
"gx c #a34a3b",
"bj c #a38e99",
"di c #a393c0",
"bc c #a394bc",
"dJ c #a397be",
"dy c #a3a0a6",
"eH c #a3a2a1",
"eT c #a491a3",
"bv c #a493b7",
"aF c #a494c1",
"aC c #a495bc",
"#i c #a49cb2",
"dE c #a594c6",
"dM c #a59a68",
"bS c #a697bf",
"aj c #a698c0",
"dH c #a69dae",
"fT c #a797c7",
"cB c #a798c1",
"g2 c #a7a692",
"ah c #a899c3",
"a1 c #a89ac4",
"ez c #a8a28d",
"dS c #a8a39b",
"gP c #a8a48b",
"a3 c #a8a6b1",
"bo c #a8a8aa",
"bB c #a999cb",
"gb c #a9a09d",
"gB c #a9aaad",
"eL c #a9aaaf",
"f5 c #a9abb0",
"cJ c #aa9187",
"b1 c #aa9b9a",
"fV c #ab8c70",
"aH c #ab9bc7",
"d8 c #ab9dbc",
".5 c #ab9fc2",
"gZ c #abacb4",
"gv c #ac8c76",
"bk c #ac9bcd",
"cx c #ac9ec8",
"eA c #aca070",
"ep c #acabb4",
"fU c #ad9899",
"bV c #ad9dcc",
"ad c #ae9ecd",
"dh c #ae9ece",
"cA c #ae9ecf",
"dN c #aeaca4",
"gp c #aeacbc",
"dY c #aeadb0",
"gV c #af8b73",
"#1 c #afa0cb",
"bO c #afa6c7",
"g7 c #afa8a4",
"e7 c #afbac2",
"fe c #b09785",
"bt c #b0a0cd",
"dg c #b0a0cf",
"b0 c #b0a1cc",
"gY c #b0a2a7",
"g. c #b0a7ca",
".r c #b0ad8b",
"hb c #b0af97",
".T c #b0b0af",
"ge c #b17632",
"gX c #b18777",
"fW c #b19e8d",
"ev c #b1a2cf",
"eU c #b1a2d0",
"aO c #b1a4cd",
"e. c #b1a5cb",
"#3 c #b1acb7",
"fM c #b1af8c",
"#q c #b1b5b9",
"#h c #b2a2ce",
"cX c #b2a2d2",
"av c #b2a6d0",
"ab c #b2a8cd",
".N c #b2abc2",
"e3 c #b2aca8",
"cw c #b2b4b8",
"bw c #b39ea3",
"#T c #b3a8cb",
".6 c #b3b0bd",
"aI c #b3b2c0",
"ft c #b3b4bb",
"gy c #b3b6b8",
"bC c #b4a4d1",
"fg c #b4a4d4",
"cc c #b4a4d5",
"gc c #b4b1ac",
"#y c #b4b4b3",
"hr c #b4b8b9",
"aG c #b5a5d1",
"dI c #b5a5d4",
"#s c #b5a8d2",
"fG c #b5afab",
"a9 c #b6a6d2",
"ay c #b6a6d7",
"aE c #b6a7d2",
"ec c #b6af9b",
".s c #b6b378",
"aQ c #b7a7d6",
"gf c #b7b3a8",
"df c #b7b3be",
"he c #b7b5b9",
"e6 c #b7c3c6",
"c7 c #b8a58f",
"aD c #b8a8d9",
"cp c #b8b0a0",
"#D c #b8b2ca",
".t c #b8b6c5",
"go c #b8b7c0",
"#6 c #b8b8b8",
"de c #b8b8be",
"e8 c #b8b8c3",
"bu c #b9aad2",
"cD c #b9aca9",
"gT c #b9b24b",
"fK c #b9b58d",
"#r c #b9b9ca",
"e5 c #b9c1c4",
"hj c #ba776b",
"al c #baaad8",
"bb c #baabd3",
"ga c #bab4ae",
"gu c #bab999",
"en c #babbc0",
"fq c #bac1df",
"#Y c #bbabd7",
"aW c #bbabda",
"c# c #bbb0d7",
"gd c #bbb463",
"#e c #bbb5d4",
"aN c #bbb8c2",
".9 c #bbbabe",
".i c #bbbabf",
"cv c #bbbcc0",
"bx c #bcacd8",
"cY c #bcacd9",
"aU c #bcacdb",
"bW c #bcb2be",
"g6 c #bcb756",
"cM c #bcb8b2",
"a8 c #bcb9c5",
"#4 c #bcbbbc",
".D c #bcbcbc",
"cT c #bcbcc4",
"fp c #bcc0b6",
"el c #bcc0c3",
"by c #bdacbd",
"d9 c #bdadda",
"cW c #bdaddb",
"bh c #bdaddc",
"#E c #bdafdd",
"cZ c #bdb0dc",
"ct c #bdb8c5",
"bI c #bdbbce",
"b9 c #bdc0c4",
"gg c #be9c92",
"fR c #bebdbf",
"a4 c #bebebe",
"#d c #bebec6",
"#C c #bec1c6",
"#c c #bec2c7",
"aS c #bfacb4",
".L c #bfafdc",
"bg c #bfafde",
"ce c #bfb0dc",
"fL c #bfbda0",
"bL c #bfbec3",
"dd c #bfbecc",
"ap c #bfbfbf",
"aB c #c0b0dc",
"cV c #c0b0df",
"#I c #c0b1dc",
"ey c #c0b3cb",
"bn c #c0bcc3",
"dC c #c0c0cb",
"eJ c #c0c5c7",
"bQ c #c1b1de",
".I c #c1b2da",
"fA c #c1b2df",
"gC c #c1c074",
"#R c #c1c5c9",
"dw c #c1c7ca",
"eW c #c2b0cc",
"aZ c #c2b1e1",
"cz c #c2b2e0",
"eV c #c2b2e2",
"dX c #c2c2c4",
".W c #c2c3c6",
"#S c #c2c5cb",
"#g c #c3b3e2",
".4 c #c3b4e0",
"#N c #c3c4d1",
"#U c #c4b3e2",
"fh c #c4b4df",
".Y c #c4badb",
".a c #c4c3c7",
".G c #c4c3ca",
"gq c #c4c499",
"au c #c4c4ce",
"hw c #c4c7c7",
"ba c #c5b5e2",
"ak c #c5b5e4",
"cj c #c5bdc5",
"ei c #c5beb9",
"g3 c #c5bf43",
"eR c #c5bfbe",
"ej c #c5c0ba",
"#v c #c5c5c6",
"a# c #c5c7ca",
"ha c #c5ccd6",
"fr c #c5cce7",
"bd c #c6b2bd",
"dj c #c6b6e1",
"#f c #c6b6e3",
"aA c #c6b6e4",
".Z c #c6b6e5",
"#2 c #c6b7e6",
"bs c #c6c4d0",
"bp c #c6c6c5",
".X c #c6c6d0",
"bR c #c7b7e4",
"#G c #c7b7e5",
"cd c #c7b7e6",
"ew c #c7b7e7",
"#Z c #c7b8e3",
"ag c #c7b8e4",
"ai c #c7b8e5",
"g# c #c7bf91",
"f0 c #c7c2ab",
".F c #c7c9c8",
"ex c #c8b7e5",
"#W c #c8b8e5",
"cb c #c8b8e6",
"aP c #c8b8e7",
"fX c #c8bbaf",
"do c #c8beb4",
"#B c #c8cbcf",
"h# c #c8ccc1",
"eu c #c9aa9c",
"#V c #c9b9e6",
"aV c #c9b9e8",
"cy c #c9b9e9",
".H c #c9c1d9",
"gF c #c9c597",
".q c #c9c9c9",
"fN c #c9c9d2",
"az c #cabae6",
"ca c #cabae7",
"af c #cabae8",
"b. c #cabae9",
"#0 c #cabbe6",
"bP c #cabbe8",
"hf c #cac56f",
"aa c #cacad2",
"#M c #cacad3",
"gl c #cacbf3",
"gD c #cacc46",
"be c #cbac95",
"bE c #cbb2a1",
"aR c #cbbae6",
"#F c #cbbbe7",
".J c #cbbbe8",
"#X c #cbbbe9",
"b# c #cbbdea",
"gE c #cbc954",
"gO c #cbcaf1",
"eO c #cbcbd0",
"g1 c #cbcbef",
"gn c #cbcbf1",
".A c #cbcbf2",
"bK c #cbccef",
"eo c #cbccf0",
"b7 c #cbccf1",
"fu c #cbccf2",
"#k c #cbcdf1",
".B c #cbcdf2",
"gJ c #ccb39a",
"ae c #ccbce8",
".K c #ccbce9",
".1 c #ccbcea",
"aw c #ccbceb",
"#H c #ccbde8",
"#J c #ccbde9",
".0 c #ccbdea",
"fn c #ccc4be",
"eM c #cccbf0",
"hd c #cccbf1",
"aJ c #cccbf2",
".R c #cccbf3",
"#l c #ccccd5",
".k c #ccccf1",
".l c #ccccf2",
".j c #ccccf3",
"gN c #cccdf3",
"fs c #ccd3ed",
".3 c #cdbce9",
".2 c #cdbdea",
"ac c #cdbee8",
"e9 c #cdcbf3",
"f7 c #cdccf2",
"cu c #cdccf3",
"gm c #cdcdf2",
"Qt c #cdcdf3",
"gS c #cec847",
".m c #ceccd5",
"#w c #ceccf1",
"at c #ceced2",
".w c #cecff1",
"dT c #cfc6b3",
"dp c #cfc8c3",
"#m c #cfcfcf",
".x c #cfcff3",
".8 c #cfd0f1",
"fO c #cfd0f2",
"f4 c #cfd8e0",
".# c #d0cef3",
"g0 c #d0d0de",
"hc c #d1d0f4",
"ao c #d1d1f2",
"g5 c #d2d35a",
"cS c #d2d3f0",
"b6 c #d3d4e3",
"gM c #d4d3f2",
"b8 c #d4d5e6",
"hA c #d4d5f0",
"#p c #d4d9de",
"#5 c #d5d4f2",
"eI c #d5d7d8",
"f1 c #d5dbdf",
"bU c #d6bba2",
".n c #d6d5d5",
"f. c #d6d5f4",
".S c #d6d6f1",
"eb c #d7c787",
"#x c #d7d5f2",
"hn c #d7d6c4",
".C c #d7d6ea",
"eB c #d8d0c3",
".Q c #d8d7e5",
".7 c #d8d8ef",
"dB c #d8d9db",
"eh c #d9d3cc",
"f6 c #d9d7ed",
"#j c #d9d7ef",
"dA c #d9d7f2",
"gk c #d9d8ee",
"f8 c #d9d8f1",
"hi c #d9d9de",
"d1 c #d9d9f1",
"gA c #d9daed",
"f# c #d9daef",
"e0 c #dad3ca",
"gQ c #dad649",
"eZ c #dad6ce",
"fQ c #dad8f2",
"gL c #dad9db",
"fv c #dad9e0",
"fa c #dad9f3",
"d2 c #dad9f4",
"dZ c #dadae2",
"eN c #dadaef",
"hq c #dadaf2",
"g8 c #dbab8d",
"dQ c #dbd3cd",
".y c #dbd8f3",
".v c #dbd9eb",
"hp c #dbd9f1",
"eK c #dbe0e1",
"bY c #dcc0a5",
"cR c #dcd9f3",
".E c #dcdcdb",
"dr c #ddd6cd",
"fJ c #dddcbd",
"d0 c #dddcf1",
"eY c #ded8ce",
".z c #dedcef",
"gR c #dedf4a",
"g4 c #dfdf4c",
"gU c #e0e2e1",
"b2 c #e1ccb1",
"ef c #e1d8d0",
"cG c #e1dad1",
"#O c #e1e1e1",
"aM c #e1e2e3",
"fB c #e2bfa3",
"eD c #e2dbd3",
"hg c #e2dd93",
"fP c #e2e1ef",
".p c #e2e2e2",
".V c #e2e3e5",
"c. c #e2e6ed",
"et c #e3d7cb",
"fF c #e3dad2",
"ht c #e3e3b7",
"fI c #e4e4e3",
"an c #e4e4f0",
"c1 c #e5d6c3",
"gI c #e5dfbd",
".b c #e5e5e5",
"bN c #e5e9ec",
"#Q c #e5e9ee",
"ar c #e6e9ee",
"g9 c #e7e8c8",
"#A c #e7e9ee",
"a6 c #e7e9ef",
"gt c #e8eaec",
"#9 c #e8ebef",
"aK c #e8ebf0",
"gi c #e8ecee",
"br c #e8ecef",
"eS c #e9d9cb",
"fY c #e9e0d5",
"gW c #e9e6c6",
"a. c #e9ecf1",
"gr c #eaebf0",
"hx c #eaeded",
"gw c #ebe8c9",
"#. c #ebeaea",
"bJ c #ebebf3",
"hh c #ecebe3",
"hm c #ecebe8",
"#b c #eceef2",
"#o c #eceff3",
"#P c #ecf0f3",
"e1 c #ede4dc",
"du c #ede4dd",
"dq c #eee5de",
"as c #eeeef2",
"em c #efefef",
"aL c #eff0f3",
"gs c #f0f0f4",
"fi c #f1d7c0",
"ch c #f2decd",
"fZ c #f2e8dd",
"dP c #f2eae1",
"hs c #f2f2de",
"bM c #f2f2f6",
"hy c #f2f3f1",
"d7 c #f3ece3",
"a7 c #f3f4f8",
"dU c #f4ebe2",
".h c #f4f3f5",
"bq c #f4f5f6",
"#z c #f4f6f7",
"gG c #f4f7f5",
"fE c #f5e8df",
"aq c #f6f7fa",
"d. c #f7f0e8",
"#8 c #f8f9fa",
"#a c #f8f9fb",
"dR c #f9f0e9",
"a5 c #f9f9f9",
"fC c #fae8d4",
"eX c #faede1",
"cE c #faf0e5",
"gh c #faf8f9",
".U c #fafafa",
"f2 c #fafcfc",
"bz c #fbe2ce",
"c4 c #fbeee4",
"eC c #fbf0e7",
"ee c #fbf1e7",
"eG c #fbf2e8",
"hv c #fbfbf9",
".g c #fbfbfa",
"#n c #fbfbfb",
"cl c #fcebdb",
"ed c #fceee8",
"bX c #fcefe6",
"fm c #fcf0e7",
"ck c #fcf0e8",
"fj c #fcf1e5",
"eg c #fcf1e6",
"dO c #fcf1e9",
"eF c #fcf2eb",
".f c #fcfcfb",
".e c #fcfcfc",
"hu c #fcfdfb",
"fk c #fdefe6",
"e2 c #fdefe7",
"fl c #fdf0e7",
"cI c #fdf1e8",
"c6 c #fdf1e9",
"f3 c #fdfcfb",
"## c #fdfcfc",
".c c #fdfdfd",
"c5 c #fef0e6",
"fD c #fef0e7",
"cH c #fef0e8",
"#7 c #fefefd",
".o c #fefefe",
"eE c #fff1e8",
".d c #ffffff",
"QtQtQtQt.#.a.b.c.d.d.d.d.d.d.d.d.e.e.f.g.h.i.j.k.l.j.j.lQtQtQtQt",
"QtQtQtQt.m.n.c.c.d.d.d.d.d.d.o.o.p.q.r.s.t.u.v.w.x.y.z.AQtQtQtQt",
"QtQt.B.C.D.c.d.d.d.d.o.o.e.e.E.F.G.H.I.J.K.L.M.N.O.P.Q.RQtQtQtQt",
"QtQt.S.T.e.c.d.d.d.d.o.U.V.W.X.Y.Z.0.1.K.K.2.3.K.4.5.6.7QtQtQtQt",
".k.8.9#..d.d.o.o###a#b#c#d#e#f.K.2.2.2.2.2.2.2.K.K#g#h#i#j#kQtQt",
".j#l#m.e.d.d.o#n#o#p#q#r#s.K.K.K.2.2.2.2.K.K.K.J.K#g#t#u#v#wQtQt",
"#x#y.c.d.o.c#z#A#B#C#D#E.2.2.2.2.K.K.2.2#F#G#H#I#J.J#K#L#M.j.lQt",
"#N#O.o.o#n#P#Q#R#S#T#U.1.2.2.2.2#V#W.2.2#X#Y#Z#0#1.Z#2#3#4#5.lQt",
"#6.c#7#8#9a.a#aaab#X.2.2.2.2.K.Jacadae#HafagahaiajakalamanaoQtQt",
"ap.caqarasatauavawae.2.2.2.2.K#VawaxayazaAaBaCaDaEaFaGaHaIaJQtQt",
".D.eaKaLaMaNaO.K.2.2.2.2.K.KaPaQaRaSaTaUaVaWaXaYaZa0a1a2a3.k.lQt",
"a4a5a6a7a8a9b.b#.2.2.2.2.KbabbbcaAbdbebfbgbhbibjbkblbmbnbo.w.lQt",
"bpbqbrbsbt.J.K.K.K.K.K.J#FbubvbwbxbybzbAbBbCbDbEbFbGbHbIbJbKQtQt",
"bLbMbNbObP.2.JbQ.2.J.KbR#VbSbTbUbVbWbXbYbZb0b1b2b3b4b5b6b7.jQtQt",
"b8b9c.c#.Kcacbcc.2.Kcdakcecfcgchcicjckclcmcncocpcqcrcsct.kcuQtQt",
".xcvcwcxcyaVczcA.J.Kak#gcBcCcDcEcFcGcHcIcJcKcLcMcNcOcPcQcR.lQtQt",
".kcScTcUcVcdcWcXcY.JakakcZc0c1c2c3c4c5c6c7c8c9d.d#dadbdcddaJQtQt",
".l.RdedfdgcVaQdhdibab.#gdjdkdldmdndodpdqdrdsdtdudvdwdxdydz.lQtQt",
".ldAdBdCdDdEdFdGdHdI.KakdJdKdLdMdNdOdPdQdRdSdTdUdVdWdXdYdZ.jQtQt",
".ld0d1d2d3d4d5d6d7d8d9ake.e#eaebecedeeefegeheiejekela5emeneoQtQt",
"QtQtQt.lepeqereseteuevewexeyezeAeBeCcGeDeEeEeFeGeHeIeJeKeLeMQtQt",
"QtQtQt.leNeOePeQeReSeTeUeVeWeXeYeZe0e1egeEeEe2e3e4e5e6e7e8e9QtQt",
"QtQtQtQtf.f#fafbfcfdfefffgfhfifjfkfkflfmckflfnfofpfqfrfsft.RQtQt",
"QtQtQtQt.l.lfuf#fvfwfxfyfzfAfBfCfDfDflfEfFfGfHfIfJfKfLfMfN.kQtQt",
"QtQtQtQtQtQtQtQtfOfPfQfRfSfTfUfVfWfXfYfZf0elf1f2f3f4f5f6.kf7QtQt",
"QtQtQtQtQtQtQtQt.k.lb7f7f8f9g.g#gagbgcgdgegfggghgigjgkglf7gmQtQt",
"QtQtQtQtQtQtQtQtQtQtQtQtgngogpgqgrgsgtgugvgwgxgygzgAQtQtQtQtQtQt",
"QtQtQtQtQtQtQtQtQtQtQtQt.AgBgCgDgEgFgGgHgIgJgKgLgMgNQtQtQtQtQtQt",
"QtQtQtQtQtQtQtQtQtQtQtQtgOgPgQgRgSgTgUgVgWgXgYgZg0b7QtQtQtQtQtQt",
"QtQtQtQtQtQtQtQtQtQtQtQtg1g2g3g4g5g6g7g8g9h.h#hahbhcQtQtQtQtQtQt",
"QtQtQtQtQtQtQtQtQtQtQtQthdhehfhghh.ghihjhkhlhmhnhohpQtQtQtQtQtQt",
"QtQtQtQtQtQtQtQtQtQtQtQt.lhqhrhsht###nhuhvhwhxhyhzhAQtQtQtQtQtQt"};
