/* XPM */
static char *dummy[]={
"32 32 266 2",
"Qt c None",
"#v c #000102",
"bJ c #000203",
".# c #000304",
".j c #000305",
"#J c #000406",
".S c #000507",
".k c #000609",
"b2 c #00070a",
"#h c #00080b",
"bd c #00090c",
"bo c #000b0e",
"#g c #000a0e",
".I c #000b0f",
"bT c #000d13",
"bz c #001117",
".6 c #00131b",
"#w c #00161f",
".a c #00151f",
"ce c #001824",
"b1 c #001b27",
".R c #001a26",
".x c #001c28",
"bK c #001c2a",
"b7 c #001d2b",
"aF c #002333",
"bI c #002736",
"#n c #002333",
"ag c #002736",
".w c #002436",
"at c #002a3a",
"#I c #002739",
".T c #002c3e",
"ah c #002c3e",
"aS c #003041",
".b c #002b3f",
".l c #002c40",
"b0 c #002d41",
"a4 c #023648",
".H c #002f45",
"bZ c #00344a",
"#V c #00364c",
"aE c #00394e",
"#o c #003a52",
"bS c #00405a",
"bn c #03465e",
"b8 c #003b57",
"aT c #003f5b",
".c c #004260",
"#U c #004866",
".J c #004968",
".y c #004c6c",
".0 c #005375",
"by c #025c7c",
"#i c #005b7f",
"bH c #006084",
"bc c #066485",
"bU c #00547b",
".5 c #00567e",
"#K c #006086",
".7 c #00648c",
".i c #005c87",
"cb c #005e8b",
"ca c #005f8c",
"au c #006893",
"#a c #006d99",
".m c #006390",
"a5 c #006693",
".d c #006797",
"bY c #006998",
"#f c #006a9a",
"bR c #0075a4",
"#6 c #0075a5",
"ch c #0071a6",
"#u c #0076aa",
"#5 c #007eb0",
"bp c #0074a9",
".e c #0078af",
"be c #0079b1",
".n c #007ab1",
"a3 c #0895c6",
"bQ c #0088bf",
".K c #0087c0",
"b3 c #0080bb",
"af c #0091c9",
"as c #0095cc",
".U c #038ec5",
"b6 c #0081bd",
"bx c #039ad1",
".Z c #0084c1",
"aR c #079ed4",
"aG c #008dca",
"#H c #008fcb",
"cf c #0086c4",
".1 c #0097d2",
"## c #0088c7",
"aD c #03a0da",
".z c #0591cd",
"bm c #0aa4da",
"#p c #009eda",
"#W c #039eda",
"#x c #06a0dc",
"bb c #0cabe3",
"bP c #0098d8",
".o c #0691d1",
".f c #0392d3",
"bG c #03a6e4",
".h c #0a94d5",
"#b c #14abe6",
"cd c #0695d7",
"b9 c #0d98d8",
"#m c #0d9ddc",
".v c #159bd9",
".L c #23aae3",
"aU c #14a4e1",
"bw c #17b3ed",
"bO c #009de0",
"bN c #069ddf",
"cg c #0a99db",
".Q c #0d9adb",
"#T c #0faae7",
".g c #119cdc",
"ar c #12b4ef",
"ai c #18ace7",
"bF c #1cb2eb",
".8 c #21b3eb",
"bX c #22a4df",
"bq c #22a7e1",
"a2 c #24bcf0",
".4 c #26a4df",
".G c #26a5df",
"#j c #26b5ec",
".A c #28abe3",
"#G c #28b2e9",
".p c #2aa6df",
"#4 c #2ab6ed",
".V c #2db3e9",
"bl c #2dbef1",
"#t c #38b3e7",
"#L c #38bbed",
"aQ c #3cc2f2",
"bV c #3fafe3",
"c# c #41afe3",
"#7 c #4abfee",
"ae c #4ac4f2",
"bA c #4db7e6",
"av c #50bfec",
"bE c #51c2ef",
"#e c #54bae7",
"a6 c #54bce9",
"a1 c #58ccf3",
"#B c #5fcef4",
"#F c #60c7f0",
".q c #62bee7",
".B c #62c0ea",
"ba c #63cef4",
"aC c #68d0f5",
".2 c #69caf1",
".Y c #74c5ea",
"bf c #78c9ed",
"#y c #7fd4f4",
"#A c #7fd8f6",
"ad c #81d7f6",
"cc c #82cbec",
"bv c #82d6f5",
"#P c #8bdcf7",
".r c #8dcfee",
"bM c #8dd1ef",
"bg c #8dd3f1",
"bD c #8dd6f4",
"b5 c #8ed0ee",
".u c #90d1ee",
"bk c #91dcf7",
".M c #92d5f2",
"#8 c #93ddf7",
"aW c #94d8f4",
"b. c #94daf5",
"#E c #94dbf6",
"#S c #96daf5",
"bC c #97d7f2",
"ak c #98def7",
"az c #99dff8",
"#Z c #9ce0f8",
"b4 c #9dd6f0",
".W c #9edcf5",
"aJ c #9edef6",
"an c #9ee1f8",
"aq c #9fe1f8",
".9 c #a0def6",
"bh c #a2def5",
"aZ c #a4e2f8",
".C c #a6dbf2",
"ac c #a6e3f9",
"#. c #a9dbf2",
"#l c #a9ddf4",
"aK c #a9e3f8",
"#O c #ace5f9",
".s c #adddf3",
"#N c #aee6f9",
"a. c #afe6f9",
"#q c #b0e4f8",
"#1 c #b3e8f9",
"bL c #b4dff3",
"bt c #b4e3f6",
"ay c #b4e6f9",
".P c #b7e1f4",
"aH c #b7e4f6",
".t c #bbe2f5",
"a7 c #bbe6f7",
"ax c #bbe8f9",
"ab c #bceafa",
"#c c #c0e9f9",
"bs c #c2e8f7",
"a8 c #c2e8f8",
"aj c #c2e9f8",
"#X c #c2eaf9",
"#D c #c2eafa",
"#0 c #c4ecfb",
"aP c #c5edfb",
"#k c #c6ebf9",
"bu c #c6ecfa",
"a0 c #c7eefb",
"#2 c #cbeffb",
"aL c #cceffb",
"aY c #cdeefa",
"b# c #ceeffb",
"#9 c #cff0fb",
".F c #d0ebf8",
"ap c #d0f0fb",
".N c #d2eef9",
"#Q c #d3f1fc",
"br c #d4eef9",
".3 c #d4effa",
"al c #d5f1fb",
"c. c #d6edf8",
"aO c #d6f2fc",
"bi c #d7f1fb",
"#z c #d7f2fc",
"aa c #dbf4fc",
"#r c #ddf4fc",
"a9 c #dff3fc",
"bW c #e2f2fa",
"aI c #e2f4fc",
"#M c #e2f5fc",
"aN c #e5f7fd",
"#3 c #e6f6fc",
"am c #e7f7fd",
"bB c #e9f6fc",
"#C c #e9f8fd",
"aB c #eaf8fd",
"aA c #ebf8fd",
"#Y c #edf9fd",
"aM c #eefafd",
".D c #f0f9fc",
"aV c #f0f9fd",
"aX c #f0fafd",
"bj c #f1fafe",
".X c #f4fafd",
"aw c #f4fbfd",
"#R c #f4fbfe",
"ao c #f5fbfe",
"a# c #f5fcfe",
"#s c #f8fcfe",
"#d c #f9fdfe",
".O c #fbfdfe",
".E c #ffffff",
"QtQtQtQtQtQtQtQtQtQtQtQtQtQtQtQtQtQtQtQtQtQtQtQtQtQtQtQtQtQtQtQt",
"QtQtQtQtQtQtQtQtQtQtQtQtQtQtQtQtQtQtQtQtQtQtQtQtQtQtQtQtQtQtQtQt",
"QtQtQtQtQtQtQtQtQtQtQtQtQtQtQtQtQtQtQtQtQtQtQtQtQtQtQtQtQtQtQtQt",
"QtQtQtQtQtQtQtQtQtQtQtQtQtQtQtQtQtQtQtQtQtQtQtQtQtQtQtQtQtQtQtQt",
"QtQtQtQtQtQtQtQtQtQtQtQtQtQtQtQtQtQtQtQt.#.a.b.c.d.e.f.g.h.i.jQt",
"QtQtQtQtQtQtQtQtQtQtQtQtQtQtQtQtQtQt.k.l.m.n.o.p.q.r.s.t.u.v.wQt",
"QtQtQtQtQtQtQtQtQtQtQtQtQtQtQtQt.x.y.z.A.B.C.D.E.E.E.E.E.F.G.HQt",
"QtQtQtQtQtQtQtQtQtQtQtQtQtQt.I.J.K.L.M.N.O.E.E.E.E.E.E.E.P.Q.RQt",
"QtQtQtQtQtQtQtQtQtQtQtQt.S.T.U.V.W.X.E.E.E.E.E.E.E.E.E.E.Y.ZQtQt",
"QtQtQtQtQtQtQtQtQtQtQtQt.0.1.2.3.E.E.E.E.E.E.E.E.E.E.E.E.4.5QtQt",
"QtQtQtQtQtQtQtQtQtQt.6.7.8.9.E.E.E.E.E.E.E.E.E.E.E.E.E#.##.wQtQt",
"QtQtQtQtQtQtQtQtQtQt#a#b#c#d.E.E.E.E.E.E.E.E.E.E.E.E.D#e#f#gQtQt",
"QtQtQtQtQtQtQtQt#h#i#j#k.E.E.E.E.E.E.E.E.E.E.E.E.E.E#l#m#nQtQtQt",
"QtQtQtQtQtQtQtQt#o#p#q.O.E.E.E#r#s.E.E.E.E.E.E.E.E.E#t#u#vQtQtQt",
"QtQtQtQtQtQtQt#w#x#y.E.E.O#z#A#B#s.E.E.E.E#C#D#E#F#G#H#IQtQtQtQt",
"QtQtQtQtQtQt#J#K#L#M.E.E#N#O#P#Q.E.E.E.E.E.E#R#M#S#T#U.SQtQtQtQt",
"QtQtQtQtQtQt#V#W#X.E#Y#Z#0#1#2.E.E.E.E.E.E.E.E#3#4#5#JQtQtQtQtQt",
"QtQtQtQtQtQt#6#7.O.E#8#0#9a..E.E.E.Ea#aaabacadaeafagQtQtQtQtQtQt",
"QtQtQtQtQtahaiaj#Rakalamanao.E.E.E.E.E#sapaqarasatQtQtQtQtQtQtQt",
"QtQtQtQt.kauavawaxay#RazaA.E.E.E.E.E.E.EaBaCaDaEQtQtQtQtQtQtQtQt",
"QtQtQtQtaFaGaHaIaJ.OaKaL.E.E.E.EaMaNaOaPaQaRaSQtQtQtQtQtQtQtQtQt",
"QtQtQtQtaTaUaVaWaXaYaZ#d.E.E.E.EaAa0a1a2a3a4QtQtQtQtQtQtQtQtQtQt",
"QtQtQtQta5a6a7a8a9b..E.E.E.E.E.Eb#babbbcbdQtQtQtQtQtQtQtQtQtQtQt",
"QtQtQtQtbebfbgaVbhbi.E.E.E.EbjbkblbmbnboQtQtQtQtQtQtQtQtQtQtQtQt",
"QtQtQtQtbpbqbrbsbt.E.E#RbubvbwbxbybzQtQtQtQtQtQtQtQtQtQtQtQtQtQt",
"QtQtQtQtbpbAbBbC.X.3bDbEbFbGbHbIbJQtQtQtQtQtQtQtQtQtQtQtQtQtQtQt",
"QtQtQtbK.gbLbMbNbObPbQbRbSbTQtQtQtQtQtQtQtQtQtQtQtQtQtQtQtQtQtQt",
"QtQt#vbUbVbWbXbYbZb0b1b2QtQtQtQtQtQtQtQtQtQtQtQtQtQtQtQtQtQtQtQt",
"QtQtbKb3b4b5b6b7QtQtQtQtQtQtQtQtQtQtQtQtQtQtQtQtQtQtQtQtQtQtQtQt",
"QtQtb8b9c.c#ca.SQtQtQtQtQtQtQtQtQtQtQtQtQtQtQtQtQtQtQtQtQtQtQtQt",
"QtQtcb.pcccdceQtQtQtQtQtQtQtQtQtQtQtQtQtQtQtQtQtQtQtQtQtQtQtQtQt",
"QtQt.HcfcgchQtQtQtQtQtQtQtQtQtQtQtQtQtQtQtQtQtQtQtQtQtQtQtQtQtQt"};
