/* XPM */
static char *dummy[]={
"32 32 268 2",
"Qt c None",
"#w c #000102",
"bL c #000203",
".# c #000304",
".j c #000305",
"#K c #000406",
".S c #000507",
".k c #000609",
"b4 c #00070a",
"#i c #00080b",
"be c #00090c",
"bp c #000b0e",
"#h c #000a0e",
".I c #000b0f",
"bV c #000d13",
"bA c #001117",
".6 c #00131b",
"#x c #00161f",
".a c #00151f",
"cg c #001824",
"b3 c #001b27",
".R c #001a26",
".x c #001c28",
"bM c #001c2a",
"b9 c #001d2b",
"aG c #002333",
"bK c #002736",
"#o c #002333",
"ah c #002736",
".w c #002436",
"#a c #002536",
"au c #002a3a",
"#J c #002839",
".T c #002c3e",
"ai c #002c3e",
"aT c #013041",
".b c #002b3f",
".l c #002c40",
"b2 c #002e41",
"a5 c #023648",
".H c #002f45",
"b1 c #00344a",
"#W c #00364c",
"aF c #00394e",
"#p c #003a52",
"bU c #00405a",
"bo c #03465e",
"c. c #003b57",
"aU c #003f5b",
".c c #004260",
"#V c #004866",
".J c #004968",
".y c #004c6c",
".0 c #005375",
"bz c #025c7d",
"#j c #005b7f",
"bJ c #006084",
"bd c #066486",
"bW c #00547b",
".5 c #00567e",
"#L c #006086",
".7 c #00648c",
".i c #005c87",
"cd c #005e8b",
"cc c #00608c",
"av c #006894",
"#b c #006e99",
".m c #006390",
"a6 c #006693",
".d c #006797",
"b0 c #006998",
"#g c #006a9a",
"bT c #0075a4",
"#7 c #0076a5",
"cj c #0071a6",
"#v c #0077aa",
"#6 c #007eb0",
"bB c #0074a9",
"bq c #0074aa",
".e c #0078af",
"bf c #007ab1",
".n c #007ab1",
"a4 c #0995c7",
"bS c #0088bf",
".K c #0087c0",
"b5 c #0080bb",
"ag c #0091c9",
"at c #0095cc",
".U c #038ec5",
"b8 c #0081bd",
"by c #039ad1",
".Z c #0084c1",
"aS c #079ed4",
"aH c #008dca",
"#I c #008fcb",
"ch c #0086c4",
".1 c #0097d2",
"## c #0088c7",
"aE c #03a1da",
".z c #0591cd",
"bn c #0aa4db",
"#q c #009eda",
"#X c #039eda",
"#y c #06a0dc",
"bc c #0cabe3",
"bR c #0098d8",
".o c #0691d1",
".f c #0392d4",
"bI c #03a6e4",
".h c #0a94d5",
"#c c #14abe6",
"cf c #0695d7",
"c# c #0d98d8",
"#n c #0d9ddc",
".v c #159bd9",
".L c #23aae3",
"aV c #14a4e1",
"bx c #17b4ed",
"bQ c #009de0",
"bP c #069ddf",
"ci c #0a99db",
".Q c #0d9adb",
"#U c #0faae7",
".g c #119cdc",
"as c #12b4ef",
"aj c #18ace7",
"bH c #1cb2eb",
".8 c #21b3eb",
"bZ c #22a4df",
"br c #22a7e1",
"a3 c #24bcf0",
".4 c #26a4df",
".G c #26a5df",
"#k c #26b5ec",
".A c #28abe3",
"#H c #28b2e9",
".p c #2aa6df",
"#5 c #2ab6ed",
".V c #2db3e9",
"bm c #2dbef1",
"#u c #38b3e7",
"#M c #38bbed",
"aR c #3cc2f2",
"bX c #3fafe3",
"cb c #41afe3",
"#8 c #4abfee",
"af c #4ac4f2",
"bC c #4db7e6",
"aw c #50bfec",
"bG c #51c2ef",
"#f c #54bae7",
"a7 c #54bce9",
"a2 c #58ccf3",
"#C c #5fcef4",
"#G c #60c7f0",
".q c #62bee7",
".B c #62c0ea",
"bb c #63cef4",
"aD c #68d0f5",
".2 c #69caf1",
".Y c #74c5ea",
"bg c #78c9ed",
"#z c #7fd4f4",
"#B c #7fd8f6",
"ae c #81d7f6",
"ce c #82cbec",
"bw c #82d6f5",
"#Q c #8bdcf7",
".r c #8dcfee",
"bO c #8dd1ef",
"bh c #8dd3f1",
"bF c #8dd6f4",
"b7 c #8ed0ee",
".u c #90d1ee",
"bl c #91dcf7",
".M c #92d5f2",
"#9 c #93ddf7",
"aX c #94d8f4",
"b# c #94daf5",
"#F c #94dbf6",
"#T c #96daf5",
"bE c #97d7f2",
"al c #98def7",
"aA c #99dff8",
"#0 c #9ce0f8",
"b6 c #9dd6f0",
".W c #9edcf5",
"aK c #9edef6",
"ao c #9ee1f8",
"ar c #9fe1f8",
".9 c #a0def6",
"bi c #a2def5",
"a0 c #a4e2f8",
".C c #a6dbf2",
"ad c #a6e3f9",
"#. c #a9dbf2",
"#m c #a9ddf4",
"aL c #a9e3f8",
"#P c #ace5f9",
".s c #adddf3",
"#O c #aee6f9",
"a# c #afe6f9",
"#r c #b0e4f8",
"#2 c #b3e8f9",
"bN c #b4dff3",
"bu c #b4e3f6",
"az c #b4e6f9",
".P c #b7e1f4",
"aI c #b7e4f6",
".t c #bbe2f5",
"a8 c #bbe6f7",
"ay c #bbe8f9",
"ac c #bceafa",
"#d c #c0e9f9",
"bt c #c2e8f7",
"a9 c #c2e8f8",
"ak c #c2e9f8",
"#Y c #c2eaf9",
"#E c #c2eafa",
"#1 c #c4ecfb",
"aQ c #c5edfb",
"#l c #c6ebf9",
"bv c #c6ecfa",
"a1 c #c7eefb",
"#3 c #cbeffb",
"aM c #cceffb",
"aZ c #cdeefa",
"ba c #ceeffb",
"a. c #cff0fb",
".F c #d0ebf8",
"aq c #d0f0fb",
".N c #d2eef9",
"#R c #d3f1fc",
"bs c #d4eef9",
".3 c #d4effa",
"am c #d5f1fb",
"ca c #d6edf8",
"aP c #d6f2fc",
"bj c #d7f1fb",
"#A c #d7f2fc",
"ab c #dbf4fc",
"#s c #ddf4fc",
"b. c #dff3fc",
"bY c #e2f2fa",
"aJ c #e2f4fc",
"#N c #e2f5fc",
"aO c #e5f7fd",
"#4 c #e6f6fc",
"an c #e7f7fd",
"bD c #e9f6fc",
"#D c #e9f8fd",
"aC c #eaf8fd",
"aB c #ebf8fd",
"#Z c #edf9fd",
"aN c #eefafd",
".D c #f0f9fc",
"aW c #f0f9fd",
"aY c #f0fafd",
"bk c #f1fafe",
".X c #f4fafd",
"ax c #f4fbfd",
"#S c #f4fbfe",
"ap c #f5fbfe",
"aa c #f5fcfe",
"#t c #f8fcfe",
"#e c #f9fdfe",
".O c #fbfdfe",
".E c #ffffff",
"QtQtQtQtQtQtQtQtQtQtQtQtQtQtQtQtQtQtQtQtQtQtQtQtQtQtQtQtQtQtQtQt",
"QtQtQtQtQtQtQtQtQtQtQtQtQtQtQtQtQtQtQtQtQtQtQtQtQtQtQtQtQtQtQtQt",
"QtQtQtQtQtQtQtQtQtQtQtQtQtQtQtQtQtQtQtQtQtQtQtQtQtQtQtQtQtQtQtQt",
"QtQtQtQtQtQtQtQtQtQtQtQtQtQtQtQtQtQtQtQtQtQtQtQtQtQtQtQtQtQtQtQt",
"QtQtQtQtQtQtQtQtQtQtQtQtQtQtQtQtQtQtQtQt.#.a.b.c.d.e.f.g.h.i.jQt",
"QtQtQtQtQtQtQtQtQtQtQtQtQtQtQtQtQtQt.k.l.m.n.o.p.q.r.s.t.u.v.wQt",
"QtQtQtQtQtQtQtQtQtQtQtQtQtQtQtQt.x.y.z.A.B.C.D.E.E.E.E.E.F.G.HQt",
"QtQtQtQtQtQtQtQtQtQtQtQtQtQt.I.J.K.L.M.N.O.E.E.E.E.E.E.E.P.Q.RQt",
"QtQtQtQtQtQtQtQtQtQtQtQt.S.T.U.V.W.X.E.E.E.E.E.E.E.E.E.E.Y.ZQtQt",
"QtQtQtQtQtQtQtQtQtQtQtQt.0.1.2.3.E.E.E.E.E.E.E.E.E.E.E.E.4.5QtQt",
"QtQtQtQtQtQtQtQtQtQt.6.7.8.9.E.E.E.E.E.E.E.E.E.E.E.E.E#.###aQtQt",
"QtQtQtQtQtQtQtQtQtQt#b#c#d#e.E.E.E.E.E.E.E.E.E.E.E.E.D#f#g#hQtQt",
"QtQtQtQtQtQtQtQt#i#j#k#l.E.E.E.E.E.E.E.E.E.E.E.E.E.E#m#n#oQtQtQt",
"QtQtQtQtQtQtQtQt#p#q#r.O.E.E.E#s#t.E.E.E.E.E.E.E.E.E#u#v#wQtQtQt",
"QtQtQtQtQtQtQt#x#y#z.E.E.O#A#B#C#t.E.E.E.E#D#E#F#G#H#I#JQtQtQtQt",
"QtQtQtQtQtQt#K#L#M#N.E.E#O#P#Q#R.E.E.E.E.E.E#S#N#T#U#V.SQtQtQtQt",
"QtQtQtQtQtQt#W#X#Y.E#Z#0#1#2#3.E.E.E.E.E.E.E.E#4#5#6#KQtQtQtQtQt",
"QtQtQtQtQtQt#7#8.O.E#9#1a.a#.E.E.E.EaaabacadaeafagahQtQtQtQtQtQt",
"QtQtQtQtQtaiajak#Salamanaoap.E.E.E.E.E#taqarasatauQtQtQtQtQtQtQt",
"QtQtQtQt.kavawaxayaz#SaAaB.E.E.E.E.E.E.EaCaDaEaFQtQtQtQtQtQtQtQt",
"QtQtQtQtaGaHaIaJaK.OaLaM.E.E.E.EaNaOaPaQaRaSaTQtQtQtQtQtQtQtQtQt",
"QtQtQtQtaUaVaWaXaYaZa0#e.E.E.E.EaBa1a2a3a4a5QtQtQtQtQtQtQtQtQtQt",
"QtQtQtQta6a7a8a9b.b#.E.E.E.E.E.EbabbbcbdbeQtQtQtQtQtQtQtQtQtQtQt",
"QtQtQtQtbfbgbhaWbibj.E.E.E.EbkblbmbnbobpQtQtQtQtQtQtQtQtQtQtQtQt",
"QtQtQtQtbqbrbsbtbu.E.E#SbvbwbxbybzbAQtQtQtQtQtQtQtQtQtQtQtQtQtQt",
"QtQtQtQtbBbCbDbE.X.3bFbGbHbIbJbKbLQtQtQtQtQtQtQtQtQtQtQtQtQtQtQt",
"QtQtQtbM.gbNbObPbQbRbSbTbUbVQtQtQtQtQtQtQtQtQtQtQtQtQtQtQtQtQtQt",
"QtQt#wbWbXbYbZb0b1b2b3b4QtQtQtQtQtQtQtQtQtQtQtQtQtQtQtQtQtQtQtQt",
"QtQtbMb5b6b7b8b9QtQtQtQtQtQtQtQtQtQtQtQtQtQtQtQtQtQtQtQtQtQtQtQt",
"QtQtc.c#cacbcc.SQtQtQtQtQtQtQtQtQtQtQtQtQtQtQtQtQtQtQtQtQtQtQtQt",
"QtQtcd.pcecfcgQtQtQtQtQtQtQtQtQtQtQtQtQtQtQtQtQtQtQtQtQtQtQtQtQt",
"QtQt.HchcicjQtQtQtQtQtQtQtQtQtQtQtQtQtQtQtQtQtQtQtQtQtQtQtQtQtQt"};
