/* XPM */
static char *dummy[]={
"32 32 217 2",
"Qt c None",
".g c #000102",
"ae c #000204",
".9 c #000608",
"#Q c #00090d",
".z c #000a0f",
".t c #000c11",
".o c #000c12",
".# c #003148",
".M c #004464",
".a c #005f8b",
".h c #00608c",
".i c #00618e",
".f c #00628e",
".A c #006291",
".j c #006391",
"#y c #006492",
".p c #006693",
".w c #006895",
"ad c #006796",
".8 c #00699a",
"#P c #006d9f",
".s c #006fa3",
"#x c #0070a3",
"au c #0070a4",
"ag c #0071a4",
".n c #0073a6",
".v c #0075a7",
".B c #0090d3",
".C c #0095da",
"bq c #0096db",
"bt c #0097db",
"bn c #0098dc",
"bs c #0099dc",
"#R c #0099dd",
"bo c #009ade",
"bp c #009bde",
"bl c #009bdf",
"#S c #009cdf",
"ac c #009ce0",
"bh c #009de0",
"br c #009de1",
"bm c #009ee1",
".F c #009fe2",
"bk c #00a0e2",
"ab c #00a0e3",
".G c #00a1e3",
"be c #00a1e4",
".H c #00a2e4",
"#T c #00a2e5",
".I c #00a3e5",
"bd c #00a3e6",
".J c #00a4e5",
".K c #00a4e6",
"bg c #00a5e6",
"a3 c #00a5e7",
"#U c #00a6e7",
"aO c #00a6e8",
"aa c #00a7e8",
"bi c #00a7e9",
"a4 c #00a8e9",
"ba c #00a8ea",
"b# c #00a9e9",
"#V c #00a9ea",
"aP c #00aaea",
"bj c #00aaeb",
"aZ c #00abeb",
"aQ c #00acec",
"#W c #00aced",
"a# c #00aded",
"a5 c #01aeed",
"#X c #03afee",
"aR c #04afee",
"a. c #04b0ee",
"b. c #05b0ee",
"bb c #06b0ee",
"bc c #07b1ee",
"aS c #08b1ee",
"a6 c #08b2ef",
"aY c #09b2ee",
"#Y c #09b2ef",
"#9 c #0ab3ef",
"a7 c #0bb3ef",
"a9 c #0cb3ef",
"aT c #0cb4ef",
"aX c #0db4ef",
".b c #0e9adb",
"a8 c #0eb4ef",
"#Z c #0eb5ef",
"#8 c #0fb5ef",
"aW c #10b5ef",
"aU c #12b7f0",
"aV c #13b7f0",
"aw c #14ace8",
"aL c #14ade9",
"ax c #14afeb",
"#0 c #14b8f0",
"ay c #15b2ed",
"#7 c #15b8f0",
"az c #16b5ef",
"aK c #17b5ef",
"#1 c #19baf0",
"#6 c #1abbf0",
"aA c #1bb7ef",
".N c #1ca0dd",
"aJ c #1cb8f0",
"#2 c #1ebdf1",
"aB c #1fb9f0",
"#5 c #1fbdf1",
"aI c #20baf0",
"#3 c #22bef1",
"#4 c #22bff1",
"aC c #24bcf0",
"aH c #25bcf1",
"#g c #26aee6",
"#n c #26afe7",
"#j c #26b5ec",
"#l c #26b6ed",
"aD c #28bdf1",
"aG c #28bef1",
"aE c #2bc0f1",
"aF c #2dc0f1",
".0 c #38aee4",
"#z c #38afe4",
".T c #38b6ea",
"#r c #38b8eb",
"#s c #38baed",
"#u c #38bbed",
".c c #46b2e4",
".e c #4db5e5",
".k c #54b8e6",
"#w c #54b9e6",
".Q c #54b9e7",
".D c #54bae7",
".q c #54bae8",
".R c #54bbe8",
".x c #54bce9",
".1 c #54bde9",
"#. c #54beea",
".L c #54beeb",
"bf c #54bfeb",
".Y c #54c0ec",
"a0 c #54c0ed",
".X c #54c1ed",
".5 c #54c2ee",
".3 c #54c3ee",
"#c c #54c3ef",
"aM c #62c6ef",
".7 c #69c0e9",
"#e c #69c5ec",
"#a c #69cbf1",
"bu c #70c3ea",
"#d c #70c9ee",
"## c #70cdf2",
".r c #7ec9ec",
".y c #7ecaec",
"a1 c #7ecaed",
".m c #7ecbed",
"af c #7ecbee",
".Z c #7eccee",
".u c #7ecdee",
".6 c #7ecdef",
".E c #7ecef0",
"a2 c #7ecff0",
".S c #7ecff1",
"aN c #7ed0f1",
".2 c #7ed1f2",
".4 c #7ed2f2",
"#b c #7ed3f4",
"av c #89d4f2",
".O c #8dcfee",
"#h c #8dd6f3",
"#i c #8dd7f4",
"#m c #8dd8f5",
"#q c #90d6f3",
"#v c #90d7f3",
"#t c #90d9f5",
".P c #aadbf2",
"bw c #aadcf2",
"bv c #aadcf3",
"#A c #aadef4",
"#B c #aadff5",
".U c #aae0f6",
".W c #aae1f6",
".V c #aae1f7",
"#C c #aae2f8",
"#D c #aae3f8",
"#O c #aae3f9",
"#E c #abe4f9",
"#F c #ade5f9",
"#G c #aee6f9",
"#N c #afe6f9",
"#H c #b0e7fa",
"#M c #b1e7fa",
"#I c #b2e8fa",
"#J c #b3e8fa",
"#L c #b3e9fa",
"#K c #b4e9fa",
"ai c #bfe8f9",
"aj c #bfe9f9",
"ak c #bfeafa",
"as c #c0ebfa",
"al c #c1ebfb",
"#f c #c2e7f7",
"#o c #c2e8f7",
"#k c #c2eaf9",
"am c #c2ecfb",
"an c #c3edfb",
"ao c #c4edfb",
"ar c #c5edfb",
"ap c #c5eefb",
"aq c #c6eefb",
"at c #d4effa",
"ah c #dff3fb",
".d c #f0f9fc",
"#p c #fbfdfe",
".l c #ffffff",
"QtQtQtQtQtQtQtQtQtQtQtQtQtQtQtQtQtQtQtQtQtQtQtQtQtQtQtQtQtQtQtQt",
"QtQtQtQtQtQt.#.a.a.#QtQtQtQtQtQtQtQtQtQtQtQt.#.a.a.#QtQtQtQtQtQt",
"QtQtQtQtQt.#.b.c.c.b.#QtQtQtQtQtQtQtQtQtQt.#.b.c.c.b.#QtQtQtQtQt",
"QtQtQtQtQt.a.c.d.d.e.f.gQtQtQtQtQtQtQtQtQt.h.c.d.d.e.i.gQtQtQtQt",
"QtQtQtQtQt.j.k.l.l.m.n.oQtQtQtQtQtQtQtQtQt.p.q.l.l.r.s.tQtQtQtQt",
"QtQtQtQtQt.j.k.l.l.u.v.oQtQtQtQtQtQtQtQtQt.w.x.l.l.y.s.tQtQtQtQt",
"Qt.z.A.B.C.C.D.l.l.E.F.G.H.I.J.K.K.J.I.H.G.F.L.l.l.m.C.C.B.A.zQt",
"Qt.M.N.O.P.Q.R.l.l.S.T.U.U.U.V.V.V.V.W.U.U.X.Y.l.l.Z.0.P.O.N.MQt",
"Qt.j.k.l.l.Z.1.l.l.2.3.l.l.l.l.l.l.l.l.l.l.4.5.l.l.6.x.l.l.7.8.9",
"Qt.j.k.l.l.6#..l.l###a.l.l.l.l.l.l.l.l.l.l#b#c.l.l#d#e.l.l.r.s.t",
"Qt.j.k.l.l#f#g#h#i#j#k.l.l.l.l.l.l.l.l.l.l#k#l#m#h#n#o.l.l.r.s.t",
"Qt.j.k.l.l#p#q#r#s#t#p.l.l.l.l.l.l.l.l.l.l#p#t#u#r#v#p.l.l.y.s.t",
"Qt.j#w.l.l.l.l.l.l.l.l.l.l.l.l.l.l.l.l.l.l.l.l.l.l.l.l.l.l.y.s.t",
"Qt.j.D.l.l.l.l.l.l.l.l.l.l.l.l.l.l.l.l.l.l.l.l.l.l.l.l.l.l.m#x.t",
"Qt#y#z#A#B.U.V#C#D#E#F#G#H#I#J#K#K#L#I#M#N#F#E#O#C.V.U#B#A.q#P#Q",
"Qt#y#R#S.F#T#U#V#W#X#Y#Z#0#1#2#3#4#5#6#7#8#9a.a##Vaa.Iabac#Radae",
"Qt#y.q.l.l.l.l.l.l.l.l.l.l.l.l.l.l.l.l.l.l.l.l.l.l.l.l.l.lafag.t",
"Qt#y.q.l.l.l.l.l.l.l.l.l.l.l.l.l.l.l.l.l.l.l.l.l.l.l.l.l.l.mag.t",
"Qt#y.q.l.lahaiajakakalamanaoapaqaqaparanamalasakajaiat.l.l.mau.t",
"Qt.j.D.l.lavawaxayazaAaBaCaDaEaFaFaEaGaHaIaJaKayaxaLaM.l.l.mau.t",
"Qt.j.Q.l.laN.KaOaPaQaRaSaT#8aU#0#0aVaWaXaYa.a#aZaa.Ka0.l.la1#x.t",
"Qt.j#w.l.la2.Ha3a4aZa5a.a6a7a8#8#8a8a9#Yb.a5aZb##U.I.Y.l.l.y.s.t",
"Qt.j.k.l.l.E.G.IaObaaZa##Xbbbca6#Ybcbb#Xa#aQ#Vaabdbebf.l.l.y.s.t",
"Qt.j.k.l.l.6.Fbe.Kaa#VaZ#Wa5#X#XaR#Xa5a#aZ#Vaabg.H.F.L.l.l.r.s.t",
"Qt.j.k.l.l.Zbh.F.H.K#Ubi#VbjaQaQaQaQbjaPa4#U.K.Hbkbh.x.l.l.r.s.t",
"Qt.j.k.l.l.mblbhbk.H.Ia3aOa4a4#V#Vb#a4aa#U.K.Hbkbmbl.R.l.l.r.s.t",
"Qt.j.k.l.la1bnbobhbmabbe.I.Ka3#U#Ua3.K.I.H.G.Fbhbp#R.Q.l.l.r.s.t",
"Qt.j.k.l.l.rbqbnbo#Sbr.Fabbe.H#T#T.Hbeab.Fbmacbobsbt.k.l.l.r.s.t",
"Qt.j.k.l.l.l.l.l.l.l.l.l.l.l.l.l.l.l.l.l.l.l.l.l.l.l.l.l.l.r.s.t",
"Qt.j.k.l.l.l.l.l.l.l.l.l.l.l.l.l.l.l.l.l.l.l.l.l.l.l.l.l.lbu.8.9",
"Qt.M.N.O.P.P.P.P.P.P.P.P.Pbvbvbvbvbvbvbw.P.P.P.P.P.P.P.P.O.N.MQt",
"Qt.z.A.B.C.C.C.C.C.C.C.C.C.C.C.C.C.C.C.C.C.C.C.C.C.C.C.C.B.A.zQt"};
