/* XPM */
static char *dummy[]={
"32 32 252 2",
"Qt c None",
".p c #000204",
".d c #000507",
".# c #00080c",
".c c #000c11",
".a c #001824",
".b c #001924",
".o c #002a3d",
".e c #002c40",
".y c #007ab2",
".f c #007cb5",
".w c #0083c0",
".q c #0085c3",
"b2 c #0092d6",
".z c #0695d7",
"b3 c #0095da",
"b4 c #0096da",
"b5 c #0097dc",
".3 c #0098dc",
".U c #0098dd",
".C c #0099dd",
".Q c #009add",
"#b c #009ade",
".4 c #009bde",
".D c #009bdf",
".P c #009cdf",
"#c c #009ce0",
"#l c #009de0",
".E c #009de1",
".O c #009ee1",
"#v c #009fe1",
".F c #009fe2",
".N c #00a0e2",
".1 c #00a0e3",
".G c #00a1e3",
".M c #00a1e4",
".V c #00a2e4",
"bE c #00a2e5",
".H c #00a3e5",
".W c #00a4e5",
".I c #00a4e6",
".5 c #00a5e6",
".J c #00a5e7",
".K c #00a6e7",
".L c #00a6e8",
".X c #00a7e8",
".Y c #00a8e9",
"bj c #00a8ea",
".6 c #00a9e9",
".Z c #00a9ea",
".0 c #00aaea",
".7 c #00aaeb",
"#d c #00abeb",
"#E c #00abec",
".8 c #00acec",
"#e c #00adec",
".9 c #00aded",
"#4 c #01a0e2",
"#R c #01aded",
"#f c #01aeed",
"#D c #02aeed",
"aH c #03a1e3",
"#a c #03aaea",
"by c #03abea",
"#g c #03afee",
"aj c #04afee",
"#h c #04b0ee",
"#Q c #05b0ee",
".g c #0697da",
"#p c #07b1ee",
"#o c #08b1ee",
"bz c #08b2ef",
"#q c #09b2ef",
"bv c #0ab2ef",
"#r c #0ab3ef",
"#3 c #0bb3ef",
"#y c #0cb3ef",
"bs c #0cb4ef",
".B c #0d9cdd",
"bu c #0db4ef",
"#z c #0eb5ef",
"#5 c #0fa8e6",
"#A c #0fb5ef",
"bt c #10b6ef",
".T c #119ddd",
".2 c #119edd",
".R c #119ede",
"aO c #11b5ef",
"#I c #11b6f0",
"bp c #12b6ef",
"bo c #12b7f0",
".h c #149ddc",
".i c #149ddd",
".j c #149edd",
".k c #149fde",
".l c #14a0df",
".m c #14a1df",
".n c #14a1e0",
"bH c #14ace9",
"#6 c #14ade9",
"#7 c #14b0eb",
"#J c #14b7f0",
"#F c #15b4ee",
"bn c #15b8f0",
"#K c #15b9f0",
"be c #16b9f0",
"bI c #18a1df",
"bm c #18b9f0",
"aC c #19b6ef",
"ba c #1aaae5",
"a5 c #1abaf1",
"#V c #1bbaf0",
"#W c #1bbbf0",
"ay c #1bbbf1",
"br c #1cb4ed",
"aP c #1cb9f0",
"aW c #1cbcf1",
"#s c #1db9f0",
"#. c #1eb5ee",
"#m c #1eb6ee",
"aG c #1faee8",
"#k c #1fb6ee",
"a4 c #1fbdf1",
"ai c #21baf0",
"aV c #21bff2",
"af c #23bdf1",
"aU c #26c1f2",
"bK c #2aabe3",
"bL c #2aace4",
"bU c #2aace5",
"bM c #2aaee6",
"bN c #2ab0e7",
"bO c #2ab1e9",
"bT c #2ab2e9",
"bP c #2ab3e9",
"bQ c #2ab4ea",
"bR c #2ab5eb",
"bS c #2ab5ec",
"aF c #2ab6ec",
"aE c #2ab8ed",
"aD c #2abaf0",
"bk c #2abdf1",
"#8 c #2cbaef",
"bJ c #2daae2",
"ax c #2dc2f2",
"#x c #2ebdf1",
"#L c #2fc0f1",
"aB c #30bef1",
"bf c #30c0f1",
"a3 c #30c3f2",
"bi c #34bdef",
"aI c #35b3e8",
"ak c #36b4e8",
"ab c #40c6f3",
"#X c #43c7f3",
"bD c #46bfee",
"#u c #47c4f2",
"a0 c #4fbdeb",
"bd c #4fcaf4",
"aw c #50cdf4",
"b# c #53c1ed",
".r c #54b8e5",
"b. c #54c4ef",
"a9 c #54c6f1",
"## c #56c6f1",
"a6 c #56ccf4",
"#n c #57c9f3",
"aY c #58cbf4",
"bl c #5bcdf4",
"ar c #61cef4",
"at c #62d0f5",
"aT c #65d3f5",
"bF c #66ccf2",
"#S c #6acff4",
"#C c #6cd0f5",
"aq c #71d3f5",
"#B c #72d3f5",
"aX c #78d6f6",
".A c #7bc8ec",
".S c #7fcaec",
"bB c #7fd4f4",
"#H c #80d7f6",
"bb c #82d8f6",
"ac c #84daf7",
"a8 c #86d8f6",
"bC c #8ddaf6",
"#0 c #8ddcf7",
"#w c #8fdaf6",
"#i c #90dbf7",
"#P c #91dcf7",
"a7 c #98dff8",
"az c #98e0f8",
"bV c #a2d8f1",
"#Y c #a2e3f8",
"aN c #a4e2f8",
"aJ c #a6dff5",
"bx c #a6e1f8",
".s c #a9dbf2",
"bW c #aadbf2",
"bX c #aadcf2",
"bY c #aadcf3",
"b1 c #aaddf3",
"bZ c #aaddf4",
"b0 c #aadef4",
"aK c #aae1f7",
"aL c #aae2f8",
"aM c #aae3f9",
"a# c #abe4f9",
"#2 c #b0e6f9",
"#U c #b0e7f9",
"bA c #b5e7f9",
"ag c #b5e8fa",
"al c #b6e4f7",
"ae c #baeafa",
"a. c #bbeafa",
"a2 c #bdebfa",
".t c #bfe4f5",
".u c #bfe5f6",
".v c #bfe6f6",
"am c #bfe8f9",
"an c #bfe9f9",
"ah c #c5edfb",
"bq c #c6ecfa",
"#1 c #c7eefb",
"#9 c #c8edfb",
"#M c #caeffb",
"ao c #cbeefb",
"av c #cef1fc",
"a1 c #d0f0fb",
"bw c #d2f0fc",
"aA c #d3f1fc",
"aa c #d9f3fc",
"bh c #dff4fc",
"au c #dff5fc",
"ad c #e0f6fc",
"#N c #e1f5fc",
"bg c #e3f6fd",
"aR c #e5f7fd",
"#O c #e7f7fd",
"aS c #effafd",
"#G c #f0fafd",
"#t c #f1fafe",
"as c #f3fbfe",
"bG c #f4fafd",
"#Z c #f5fcfe",
"ap c #f6fcfe",
"aZ c #f7fcfe",
"aQ c #f8fcfe",
"#j c #f9fdfe",
"bc c #fafdfe",
"#T c #fbfdfe",
".x c #ffffff",
"QtQtQtQtQtQtQtQtQtQtQtQtQtQtQtQtQtQtQtQtQtQtQtQtQtQtQtQtQtQtQtQt",
"QtQtQtQtQtQtQtQtQtQtQtQtQtQtQtQtQtQtQtQtQtQtQtQtQtQtQtQtQtQtQtQt",
"QtQtQtQtQtQtQtQtQtQtQtQtQtQtQtQtQtQtQtQtQtQtQtQtQtQtQtQtQtQtQtQt",
"QtQtQt.#.a.a.a.a.a.a.a.a.a.a.a.b.b.b.a.a.a.a.a.a.a.a.a.a.cQtQtQt",
".d.e.f.g.h.h.h.h.h.i.j.k.l.l.m.n.n.m.l.l.k.j.i.h.h.h.h.h.g.f.o.p",
".e.q.r.s.t.t.t.t.t.t.u.u.u.u.u.v.v.u.u.u.u.u.t.t.t.t.t.t.s.r.w.o",
".f.r.x.x.x.x.x.x.x.x.x.x.x.x.x.x.x.x.x.x.x.x.x.x.x.x.x.x.x.x.r.y",
".g.s.x.x.x.x.x.x.x.x.x.x.x.x.x.x.x.x.x.x.x.x.x.x.x.x.x.x.x.x.s.z",
".h.t.x.x.A.B.C.D.E.F.G.H.I.J.K.L.L.K.J.I.H.M.N.O.P.Q.R.S.x.x.t.h",
".h.t.x.x.T.U.D.E.N.V.W.J.X.Y.Z.Z.0.Z.Y.X.J.I.V.1.O.P.C.2.x.x.t.h",
".h.t.x.x.3.4.E.N.H.5.X.6.7.8.8.9.9.8#.###a.X.5.H.1.O.4.3.x.x.t.h",
".h.t.x.x#b#c.F.V.5.X.Z#d#e#f#g#h#h#g#i#j#k.0.X.5.V.N#l#b.x.x.t.h",
".h.t.x.x.D.O.G.W.X.Z#m#n#o#p#q#r#r#s#t.x#u.8.0.X.I.M#v.P.x.x.t.h",
".h.t.x.x#l.F.H.J.6#d#w#j#x#y#z#A#A#B.x.x#C#D#E.Z.K.H.N#l.x.x.t.h",
".h.t.x.x.O.G.I.X.7#F#G.x#H#I#J#K#L#M#N#O#P#Q#R.7.X.I.G.O.x.x.t.h",
".h.t.x.x.F.M.J.Y.8#S#T#T#U#V#W#X#Y#Z#0#1#2#3#D.8.Y.K.V.F.x.x.t.h",
".h.t.x.x#4#5#6#7#8#9a.a#aaabac#Tadaeafagahaiaj.9.0.L.H.N.x.x.t.h",
".h.t.x.xakalamanaoapaqarasatauavawaxayazaAaBaCaDaEaFaGaH.x.x.t.h",
".h.t.x.xaIaJaKaLaMaNaOaPaQaRaSaTaUaVaWaX#OaYaZ.x.x.x#ja0.x.x.t.h",
".h.t.x.x.F.H.K.Z.8#g#q#za1.xa2a3aVa4a5a6aQa7aZa8a9b.b#ba.x.x.t.h",
".h.t.x.x.F.V.J.Y.8#D#p#ybbbcbdayaWa5bebf.xbgbhbibj.K.V.F.x.x.t.h",
".h.t.x.x.O.G.I.X.7.9#Q#qbkblbmbebebnbobp.x.xbqbr.Y.5.M.O.x.x.t.h",
".h.t.x.x#l.F.H.J.Z#E#D#Q#qbs#Abtbt#Abubvbw.xbxby.K.W.1.E.x.x.t.h",
".h.t.x.x.D.O.M.I.X.0.8#D#Qbzbv#3#3bvbz#QbA.xbB.X.5.V#v.P.x.x.t.h",
".h.t.x.x#b#c.N.V.5.X.0#E#R#Daj#Q#Q#h#D#RbC.xbD.JbE.1#l.4.x.x.t.h",
".h.t.x.x.3.4.O.1.H.5.X.Z.7.8.9.9.9.9.8#dbFbGbH.H.G.O.D.C.x.x.t.h",
".h.t.x.x.2.C.P.O.1.V.I.K.X.Y.0.7.7.0bj.Y.K.5bE.G.O.P.CbI.x.x.t.h",
".h.t.x.x.SbJbKbLbMbNbObPbQbRbSaFaFbSbRbQbPbTbNbMbUbKbJ.S.x.x.t.h",
".g.s.x.x.x.x.x.x.x.x.x.x.x.x.x.x.x.x.x.x.x.x.x.x.x.x.x.x.x.x.s.z",
".f.r.x.x.x.x.x.x.x.x.x.x.x.x.x.x.x.x.x.x.x.x.x.x.x.x.x.x.x.x.r.y",
".o.w.rbVbWbWbWbWbWbXbYbYbZbZbZb0b0bZbZbZb1bYbXbWbWbWbWbWbV.r.w.o",
".p.o.yb2b3b3b3b3b3b3b4b5.3.C.C.Q.Q.C.C.3b5b4b3b3b3b3b3b3b2.y.o.p"};
