/* XPM */
static char *dummy[]={
"32 32 247 2",
"Qt c None",
".M c #000101",
".# c #000102",
"aT c #000101",
"aP c #000102",
"#X c #000202",
"#c c #010202",
".g c #010203",
"bM c #020202",
"#N c #010304",
"#l c #010304",
"a5 c #050505",
"af c #010405",
"bp c #050505",
"bN c #060606",
".U c #020507",
"aY c #060606",
"aZ c #070707",
"a0 c #070707",
"a1 c #080808",
".t c #04080a",
"bO c #090909",
"#C c #03080a",
"bq c #0b0b0b",
"bL c #0b0b0b",
"aJ c #03090c",
"bP c #0d0d0d",
"bQ c #111111",
"ab c #050d11",
"#h c #071014",
".2 c #081014",
".C c #091115",
"ay c #050e12",
"av c #050e12",
"bR c #151515",
"b0 c #151515",
"#G c #071116",
"#y c #081216",
"#p c #091319",
"bS c #181818",
"ao c #071217",
"#7 c #081318",
"aX c #0a1317",
".8 c #0a161c",
"bT c #1b1b1b",
"a6 c #1c1c1c",
"bo c #1c1c1c",
".s c #0e1a21",
"bU c #1e1e1e",
"aS c #07141b",
".H c #0e1b23",
"bV c #212121",
"bW c #232323",
".f c #13222b",
"bX c #252525",
"bY c #262626",
"bZ c #282828",
"ar c #0b1d26",
"a7 c #2e2e2e",
"an c #0d222b",
".T c #162b36",
"#1 c #112731",
"#k c #152c37",
"aK c #0d242f",
"a2 c #10262f",
"#K c #132b37",
"aM c #0d2531",
"#W c #142d38",
"#s c #162e3a",
"br c #3b3b3b",
"aF c #102a36",
"ak c #132d39",
"bn c #3b3b3c",
"bK c #3c3c3c",
".Y c #1b3543",
"a8 c #3c3e3f",
".n c #243e4c",
"#v c #173442",
".a c #25414f",
".y c #223e4d",
"#L c #173543",
"#D c #183644",
"aL c #112f3d",
"aC c #123240",
"## c #1f4152",
".o c #2b4b5d",
"ag c #1b3e4e",
".G c #2a4c5d",
"#i c #204456",
".7 c #274a5c",
"az c #1a3e4e",
"#O c #224758",
"#F c #254a5c",
"ap c #184053",
"bs c #5a5a5a",
"#d c #294f62",
"bJ c #5a5a5a",
"aa c #22495b",
"aG c #184153",
"a4 c #153e50",
".N c #31586d",
"bc c #646464",
"bh c #646464",
"aO c #174559",
"bd c #676767",
"be c #6a6a6a",
"bt c #6b6b6b",
"bI c #6b6b6b",
"bf c #6c6c6c",
"bg c #6d6d6d",
".e c #477289",
".x c #3f6d85",
".h c #437189",
".X c #3a6981",
"#8 c #2c5d73",
"#r c #36677f",
"bu c #767676",
"aU c #1b4f66",
"bb c #5d6c72",
"aD c #1e536b",
"#z c #34677f",
"#0 c #31657d",
"#o c #2e647f",
"bm c #466471",
".3 c #3c708b",
"aq c #2b6179",
".b c #52839d",
"bv c #7e7e7e",
"#w c #2e6682",
"bi c #5a6f79",
".D c #457b97",
"bw c #848484",
"a9 c #446878",
"au c #235e78",
"#J c #2f6986",
"bx c #888888",
"by c #8c8c8c",
"bH c #8c8c8c",
"aQ c #215f7b",
"#a c #397695",
"bz c #8e8e8e",
"bG c #8e8e8e",
"al c #306e8a",
".d c #5b93b1",
".L c #4a85a5",
"bA c #909090",
"bB c #919191",
"#b c #4481a0",
"#Y c #387795",
"bC c #939393",
"bD c #939393",
"bE c #949494",
".c c #5e98b7",
"bF c #959595",
"#M c #3d7c9a",
"#m c #4281a0",
"ae c #357795",
".5 c #3f81a3",
".V c #4b8aab",
".u c #5593b5",
"aW c #236785",
"ba c #3f748b",
"bl c #35708a",
"bj c #3b738b",
"aI c #266c8c",
"b. c #316f8a",
"#B c #397e9f",
".r c #5d9dc0",
"bk c #2b6e8b",
"b# c #2c6e8b",
"ac c #387d9d",
".1 c #4d90b2",
".B c #5597bb",
".m c #63a3c4",
"a3 c #246c8b",
"aw c #2b7292",
"#g c #3f85a8",
"#H c #4186a7",
"#x c #4489ab",
"aR c #256d8d",
"ax c #337998",
"#6 c #3d82a2",
"#q c #3d83a7",
".9 c #4a8eb0",
"aV c #246c8b",
"aN c #266e8d",
"aH c #276f90",
"aB c #297191",
"aA c #2a7192",
"at c #2b7293",
"am c #2c7495",
"aE c #2d7595",
"ai c #2e7597",
"ad c #307799",
"ah c #32789a",
"#9 c #32799a",
"a. c #32799b",
"as c #337a99",
"#3 c #337b9c",
"#5 c #337b9d",
"a# c #347b9c",
"#4 c #347b9d",
"aj c #357b9c",
"#Z c #357c9f",
"#Q c #377da0",
"#T c #377ea0",
"#U c #377ea1",
"#I c #397fa2",
"#P c #3a80a2",
"#A c #3a81a4",
"#2 c #3b81a2",
"#u c #3b83a6",
"#E c #3d84a6",
"#n c #3d84a7",
"#V c #3e84a5",
"#f c #3f86a9",
"#R c #4085a7",
"#. c #4187ab",
"#e c #4288ab",
"#t c #4389ab",
".4 c #4389ad",
".0 c #448baf",
".6 c #468caf",
".W c #468cb1",
"#j c #478cae",
".P c #488eb3",
".Q c #488eb4",
".R c #488fb4",
"#S c #498cac",
".J c #4990b5",
".O c #4a8fb4",
".K c #4a90b5",
".Z c #4b90b3",
".E c #4b91b6",
".A c #4d92b8",
".F c #4e94b8",
".v c #4f94ba",
".S c #5094b7",
".w c #5095bb",
".q c #5096bc",
".k c #5198bd",
".I c #5296ba",
".j c #5298bd",
".z c #5396bb",
".l c #549abf",
".p c #599cc1",
".i c #60a2c5",
"QtQtQtQtQtQtQtQtQtQtQtQt.#.a.b.c.d.e.fQtQtQtQtQtQtQtQtQtQtQtQtQt",
"QtQtQtQtQtQtQtQtQtQtQt.g.h.i.j.k.k.l.m.nQtQtQtQtQtQtQtQtQtQtQtQt",
"QtQtQtQtQtQtQtQtQtQtQt.o.p.q.q.q.q.q.q.r.sQtQtQtQtQtQtQtQtQtQtQt",
"QtQtQtQtQtQtQtQtQtQt.t.u.v.v.v.v.v.v.v.w.xQtQtQtQtQtQtQtQtQtQtQt",
"QtQtQtQtQtQtQtQtQtQt.y.z.A.A.A.A.A.A.A.A.B.CQtQtQtQtQtQtQtQtQtQt",
"QtQtQtQtQtQtQtQtQtQt.D.E.E.E.E.E.E.E.E.E.F.GQtQtQtQtQtQtQtQtQtQt",
"QtQtQtQtQtQtQtQtQt.H.I.J.J.J.K.K.K.J.J.J.J.L.MQtQtQtQtQtQtQtQtQt",
"QtQtQtQtQtQtQtQtQt.N.O.P.P.P.P.Q.R.P.P.P.P.S.TQtQtQtQtQtQtQtQtQt",
"QtQtQtQtQtQtQtQt.U.V.W.W.W.W.W.W.W.W.W.W.W.W.XQtQtQtQtQtQtQtQtQt",
"QtQtQtQtQtQtQtQt.Y.Z.0.0.0.0.0.0.0.0.0.0.0.0.1.2QtQtQtQtQtQtQtQt",
"QtQtQtQtQtQtQtQt.3.4.4.4.4.4.4.5.4.4.4.4.4.4.6.7QtQtQtQtQtQtQtQt",
"QtQtQtQtQtQtQt.8.9#.#.#.#.#.#.###a#.#.#.#.#.#.#b#cQtQtQtQtQtQtQt",
"QtQtQtQtQtQtQt#d#e#f#f#f#f#f#g#h#i#f#f#f#f#f#f#j#kQtQtQtQtQtQtQt",
"QtQtQtQtQtQt#l#m#n#n#n#n#n#n#oQt#p#q#n#n#n#n#n#n#rQtQtQtQtQtQtQt",
"QtQtQtQtQtQt#s#t#u#u#u#u#u#u#vQtQt#w#u#u#u#u#u#u#x#yQtQtQtQtQtQt",
"QtQtQtQtQtQt#z#A#A#A#A#A#A#B#CQtQt#D#A#A#A#A#A#A#E#FQtQtQtQtQtQt",
"QtQtQtQtQt#G#H#I#I#I#I#I#I#J#K#K#K#L#I#I#I#I#I#I#I#M#NQtQtQtQtQt",
"QtQtQtQtQt#O#P#Q#Q#Q#Q#Q#Q#R#S#S#S#S#P#Q#T#U#T#Q#Q#V#WQtQtQtQtQt",
"QtQtQtQt#X#Y#Z#Z#Z#Z#Z#Z#Z#Z#Z#Z#Z#Z#Z#Z#Z#Z#Z#Z#Z#Z#0QtQtQtQtQt",
"QtQtQtQt#1#2#3#3#3#4#4#5#3#3#3#3#3#3#3#5#4#4#4#5#3#3#6#7QtQtQtQt",
"QtQtQtQt#8#9#9#9#9a.a.#9#9#9#9#9#9#9#9#9a.a.a.#9#9#9a#aaQtQtQtQt",
"QtQtQtabacadadadadadadadadadadadadadadadadadadadadadadaeafQtQtQt",
"QtQtQtagahaiaiaiaiaiaiaiaiaiaiaiaiaiaiaiaiaiaiaiaiaiaiajakQtQtQt",
"QtQt.MalamamamamamamamanaoaoaoaoaoaoaoaoapamamamamamamamaqQtQtQt",
"QtQtarasatatatatatatauQtQtQtQtQtQtQtQtQtavawatatatatatataxayQtQt",
"QtQtazaAaBaBaBaBaBaBaCQtQtQtQtQtQtQtQtQtQtaDaBaBaBaBaBaBaEaFQtQt",
"QtQtaGaHaHaHaHaHaHaIaJQtQtQtQtQtQtQtQtQtQtaKaHaHaHaHaHaHaHaLQtQt",
"QtQtaMaNaNaNaNaNaNaOQtQtQtQtQtQtQtQtQtQtQtaPaQaNaNaNaNaNaRaSQtQt",
"QtQtaTaUaVaVaVaVaWaXaYaZa0a1a1a1a1a1a1a0aZaYa2a3aVaVaVaVa4QtQtQt",
"a5a6a7a8a9b.b#babbbcbdbebfbgbgbgbgbgbgbfbebdbhbibjbkblbmbna7bobp",
"bqbrbsbtbubvbwbxbybzbAbBbCbDbEbFbFbEbDbCbBbAbGbHbxbwbvbubIbJbKbL",
"QtbMbNbObPbQbRbSbTbUbVbWbXbXbYbZbZbYbXbXbWbVbUbTbSb0bQbPbObNbMQt"};
