/* XPM */
static char *dummy[]={
"32 32 298 2",
"Qt c None",
"cN c #000405",
"cF c #000608",
".# c #000a0f",
"cG c #000c11",
".l c #000c11",
".i c #000c12",
"cM c #001924",
"cH c #001b27",
".h c #002333",
"cI c #002739",
".g c #002d42",
".j c #002f45",
".a c #003148",
".d c #00334b",
".k c #004160",
".c c #004463",
"ct c #004464",
".e c #004566",
".b c #004666",
"cL c #00486a",
".t c #00496b",
".f c #004a6c",
"cJ c #004d70",
".m c #005882",
"cK c #00628e",
".v c #006291",
"cE c #006797",
"cu c #00699a",
".s c #006fa2",
"cv c #006fa3",
"cD c #0070a3",
"cw c #0070a4",
"cx c #0071a4",
"cC c #007eb7",
"cy c #0080ba",
".r c #0088c6",
"cz c #008dcd",
".n c #0090d3",
".q c #0092d4",
".K c #0693d4",
".p c #0093d7",
".u c #0094d7",
".o c #0095da",
"#h c #0096db",
"#E c #0097db",
"#g c #0098dc",
"#t c #0099dc",
"#D c #0099dd",
"#f c #009ade",
"b5 c #009bde",
"#C c #009bdf",
"#e c #009cdf",
"#s c #009ce0",
"#d c #009de0",
"bT c #009de1",
"#c c #009ee1",
"bX c #009ee2",
"#b c #009fe2",
"#r c #00a0e2",
".8 c #00a0e3",
"#q c #00a1e3",
"aq c #00a1e4",
"#p c #00a2e4",
"b4 c #00a3e4",
"#l c #00a3e5",
"aU c #00a3e6",
"#o c #00a4e5",
"#B c #00a4e6",
"ap c #00a5e6",
"#A c #00a5e7",
"#W c #00a6e7",
"#w c #00a6e8",
"#z c #00a7e8",
"bJ c #00a7e9",
"#M c #00a8e9",
"aF c #00a9e9",
"#I c #00a9ea",
"#L c #00aaea",
"#7 c #00aaeb",
"#V c #00abeb",
"aE c #00abec",
"b0 c #00aceb",
"#Q c #00acec",
"#U c #00aded",
"b1 c #00aeed",
"#6 c #01aeed",
"bB c #01aeee",
"bK c #02aeed",
"bn c #02aeee",
"#0 c #02afed",
"#5 c #03afed",
"af c #03afee",
"aT c #04afee",
"#4 c #04b0ee",
"a3 c #05b0ee",
"bb c #06a7e6",
"ae c #06b0ee",
"aD c #06b1ee",
"ao c #07b1ee",
"bL c #07b1ef",
"bQ c #08b1ee",
"bP c #08b1ef",
"bS c #08b2ee",
"a# c #08b2ef",
"aS c #09b2ef",
"bd c #0aaeec",
"ad c #0ab2ef",
"aC c #0ab3ef",
"b# c #0bb3ef",
"bA c #0cb3ef",
"ai c #0cb4ef",
"an c #0db4ef",
"bC c #0eb4ef",
"bR c #0eb5ef",
"am c #0fb5ef",
"b. c #10b6ef",
"bo c #10b6f0",
"aw c #11b6f0",
"bv c #11b7f0",
"aB c #12b7f0",
"bD c #13b7f0",
".3 c #149ddc",
"aX c #149ddd",
"#m c #14abe7",
"#x c #14aeea",
"#J c #14b1ec",
"bI c #14b7f0",
"bO c #14b8f0",
"cd c #15b2ed",
"#R c #15b4ee",
"aA c #15b8f0",
"b2 c #16b5ef",
"bw c #16b8f0",
"aR c #16b9f0",
"bm c #17b9f0",
"bu c #17baf0",
"bH c #18b9f0",
"#1 c #19b6ef",
"a5 c #19baf0",
"aQ c #19baf1",
"bx c #1abbf1",
"cA c #1ba3e0",
"bY c #1bb7ef",
"bg c #1bbbf1",
"bp c #1bbcf1",
".J c #1ca0dd",
"bl c #1cbcf1",
"aa c #1eb9f0",
"a9 c #1ebdf1",
".w c #1fa2de",
"bU c #20baf0",
"bz c #20bef1",
"bk c #21bef2",
"a0 c #22b0e9",
"bt c #22bff2",
"co c #23a3df",
"aj c #23bbf0",
"be c #24bcf0",
"cc c #26b8ee",
"ax c #27bef1",
".6 c #2aa6e0",
"#j c #2aa7e0",
"#u c #2aa9e2",
"#G c #2aaae3",
"#O c #2aace5",
"#Y c #2aaee6",
"#9 c #2aafe7",
"ah c #2ab0e7",
"as c #2ab1e8",
"aI c #2ab2e9",
"bM c #2abff1",
"aN c #2cc0f1",
"bE c #2ec1f1",
"a6 c #30c2f2",
"by c #31c2f2",
"aK c #32bef0",
"bh c #33c3f2",
"bq c #33c4f2",
".F c #36b0e5",
"cb c #3cbfef",
"ce c #3cbff0",
"#a c #3fb8ea",
"cB c #4db7e7",
".9 c #4dbdec",
"ca c #51c5f1",
".5 c #54b8e6",
"#F c #54b9e6",
"#N c #54bae7",
"#X c #54bbe8",
"ch c #54bbe9",
"bW c #54bce8",
"#8 c #54bce9",
"ag c #54bdea",
"aH c #54beea",
"aZ c #54beeb",
"cg c #54bfeb",
"b7 c #54c0ec",
"b8 c #54c1ed",
"cf c #54c2ed",
"b9 c #54c3ee",
"c. c #54c4ef",
"c# c #54c5f0",
"bc c #58c6f0",
".E c #5dbfea",
".O c #5ebce7",
"bf c #5ecef4",
".G c #64c1ea",
"cs c #69c0e9",
"a2 c #6dcff3",
"cp c #70c3ea",
"aJ c #72d2f5",
".N c #74c5ea",
".C c #77c9ec",
".0 c #7ec9ec",
".Z c #7ecaec",
".Y c #7ecbed",
".X c #7eccee",
".W c #7ecdee",
".V c #7ecdef",
"ar c #7eceef",
"aV c #7ecef0",
"ba c #7ecff0",
".2 c #8dcfee",
"b6 c #8dd0ef",
".U c #97d7f2",
".L c #98d4ef",
"cn c #9bd5f0",
"a4 c #a1e2f8",
".A c #a6d9f1",
"cq c #a6dbf3",
".M c #a9dbf2",
"ci c #a9dcf3",
"#i c #aadbf2",
"aG c #aadcf2",
"aW c #aadcf3",
".7 c #aadff5",
"#k c #aae0f6",
"#v c #aae1f7",
"#H c #aae2f7",
"#K c #aae2f8",
"#P c #aae3f8",
"#T c #aae3f9",
"#Z c #aae4f9",
"#3 c #abe4f9",
"a. c #ace5f9",
"ac c #ade5f9",
"bV c #aee6f9",
"al c #afe6f9",
"av c #afe6fa",
".D c #b0dff4",
"aM c #b0e7fa",
"az c #b1e7fa",
"bN c #b2e7fa",
"aP c #b2e8fa",
"bG c #b3e8fa",
".P c #b4e2f5",
"a8 c #b4e9fa",
"bj c #b5e9fa",
"bs c #b6eafa",
"aL c #bae9fa",
".Q c #bbe5f6",
"cm c #bbe8f9",
".1 c #bee4f5",
".4 c #bfe4f5",
"aY c #bfe4f6",
"#n c #bfe8f8",
"#y c #bfe9f9",
"#S c #bfeafa",
"b3 c #bfebfa",
"#2 c #c0ebfa",
"bZ c #c1ebfa",
".H c #c2e6f6",
"ab c #c2ecfb",
"ak c #c3ecfb",
"ay c #c4edfb",
"aO c #c5edfb",
".x c #c6e7f6",
"## c #c6eaf8",
"bF c #c6eefb",
"a7 c #c7eefb",
"bi c #c7effb",
"br c #c8effb",
"cr c #d0ecf8",
"#. c #d4effa",
".z c #d7eef9",
".T c #d7f0fa",
"au c #daf3fc",
"cl c #dff4fc",
".S c #e0f3fb",
".B c #e2f3fa",
"ck c #e6f6fc",
"a1 c #edf9fd",
"at c #f2fbfe",
".I c #f4fafd",
".R c #f9fcfe",
"cj c #fbfdfe",
".y c #ffffff",
"Qt.#.a.b.c.d.e.f.f.f.b.d.g.h.iQtQt.i.h.j.k.f.f.f.f.f.f.f.b.a.#Qt",
".l.m.n.o.o.o.o.o.o.o.o.p.q.r.s.t.t.s.r.u.o.o.o.o.o.o.o.o.o.n.m.l",
".v.w.x.y.z.A.y.y.y.y.y.B.C.D.E.F.F.G.H.I.y.y.y.y.y.y.y.y.y.x.J.v",
".K.L.y.M.N.O.y.y.y.y.y.y.P.Q.R.S.S.R.T.U.V.W.X.Y.Z.0.0.0.1.y.2.n",
".3.4.y.5.o.6.y.y.y.y.y.y.7.8.9#.###a.8#b#c#d#e#f#g#h.o.o.0.y#i.o",
".3.4.y.5.o#j.y.y.y.y.y.y#k#l#m#n#k#o#l#p#q#r#c#s#f#t#h.o.0.y#i.o",
".3.4.y.5#h#u.y.y.y.y.y.y#v#w#x#y#v#z#w#A#B#l#q#b#d#C#D#E.0.y#i.o",
".3.4.y#F#g#G.y.y.y.y.y.y#H#I#J#y#K#L#I#M#w#A#l#p#b#d#f#g.Z.y#i.o",
".3.4.y#N#f#O.y.y.y.y.y.y#P#Q#R#S#T#U#Q#V#L#M#W#B#p#b#d#f.Y.y#i.o",
".3.4.y#X#e#Y.y.y.y.y.y.y#Z#0#1#2#3#4#5#6#Q#7#M#W#l#q#c#e.X.y#i.o",
".3.4.y#8#d#9.y.y.y.y.y.ya.a#aaabacada#aeaf#U#V#M#A#l#r#d.V.y#i.o",
".3.4.yag#cah.y.y.y.y.y.yacaiajakalamanadaoaf#Q#7#zapaq#bar.y#i.o",
".3.4.yag#bas.y.yatau.y.yavawaxayazaAaBamaCaD#6aEaF#W#l#rar.yaG.o",
".3.4.yaH.8aI.y.yaJaKaL.yaMaAaNaOaPaQaRaBanaSaT#U#I#zaU#qaV.yaW.o",
"aXaY.yaZ#qa0a1a2#Ua3aaa4aza5a6a7a8a9aQaAb.b#a3#6#V#M#Baqba.yaW.o",
"aXaY.yaZaqbbbcbd#6a3aibebfbgbhbibjbkblbmawaiaDbnaE#Map#pba.yaW.o",
"aXaY.yaZaqap#M#V#6aDaibobmbpbqbrbsbtblbubvanaDbnaE#M#A#pba.yaW.o",
"aXaY.yaZ#q#B#z#7#6a3b#b.bwbxbya7bjbzbgaRawbAaDbB#V#Map#pba.yaW.o",
"aX.4.yaZ#q#l#z#I#UaTaSbCbDbmbEbFbGbgbHbIamaC#4#U#7bJ#BaqaV.yaW.o",
".3.4.yaH#r#l#WaF#QbKbLb#bobDbMaObNbmbObobAbP#0#Q#I#w#l.8aV.yaW.o",
".3.4.yag#baqap#z#V#UaTbQb#bRbeakaMawambAbS#4#U#VbJ#A#p#bar.y#i.o",
".3.4.y#8bT.8#l#WaF#V#6aTbLaCbUabbVanaCbP#4#6#V#I#W#B#q#c.V.y#i.o",
".3.4.ybW#sbX#p#B#z#I#V#U#0a3bYbZa.aDa3af#Ub0#I#z#B#p#b#d.X.y#i.o",
".3.4.y#X#f#d#r#pap#z#I#V#Qb1b2b3#Zbnb1#Q#V#I#z#Ab4.8#db5.X.y#i.o",
".3.4.yb6#XagaZb7b8b9c.c#cacbcc#S#Pcdcecac#c.b9cfb7cgagchci.y#i.o",
".3.4.y.y.y.y.y.y.y.y.y.ycjck#yckclcmckcj.y.y.y.y.y.y.y.y.y.y#i.o",
".3.4.y.y.y.y.y.y.y.y.y.y.y.y.y.y.y.y.y.y.y.y.y.y.y.y.y.y.y.y#i.o",
".3.4.y.y.y.y.y.y.y.y.y.y.y.y.y.y.y.y.y.y.y.y.y.y.y.y.y.y.y.y#i.o",
".Kcn.y.y.y.y.y.y.y.y.y.y.y.y.y.y.y.y.y.y.y.y.y.y.y.y.y.y.y.y.2.n",
".vcocp.0.0.0.0.0.0.Z.Y.Xcqcr.y.y.y.ycrcq.X.Y.Z.Z.0.0.0.0.0cs.J.v",
".#ctcucvcvcvcvcvcvcvcwcxcyczcAcBcBcAczcCcxcwcDcvcvcvcvcvcvcEct.#",
"QtQtcFcGcGcGcGcGcGcGcGcGcHcIcJcKcKcLcIcMcGcGcGcGcGcGcGcGcGcNQtQt"};
