/* XPM */
static char *dummy[]={
"32 32 678 2",
"g7 c #443335",
"g6 c #453537",
"ho c #483839",
"gE c #49383a",
"gO c #49393a",
"hn c #49393c",
"hH c #4c3a3c",
"gN c #4e4347",
"g5 c #4f3e3f",
"gS c #52403f",
"hI c #534141",
"hm c #534143",
"g9 c #554242",
"gu c #554a4d",
"g4 c #564344",
"gD c #574545",
"hp c #584546",
"gl c #594846",
"gk c #5b4a48",
"gF c #5b6373",
"fg c #5c4b4c",
"gy c #5c4c4b",
"hs c #5d4a4a",
"fb c #5d4c4b",
"gU c #5f5152",
"b0 c #604136",
"hr c #604c4c",
"hG c #604d4e",
"h0 c #614d4e",
"hq c #614e4e",
"gB c #614f4e",
"h. c #615050",
"g3 c #624f4f",
"eA c #625151",
"fV c #635151",
"gM c #636671",
"hK c #645051",
"hZ c #645151",
"ef c #645354",
"fh c #655450",
"ee c #655454",
"hF c #65575a",
"hJ c #665253",
"dT c #685757",
"h1 c #685959",
"gV c #695858",
"it c #695f63",
"dc c #6a5c5e",
"hl c #6a666d",
"d7 c #6a7587",
"fy c #6b5b59",
"fD c #6c5b5a",
"id c #6c686f",
"eR c #6c727c",
"dy c #6d5c5c",
"es c #6d798f",
"eB c #6f5e5e",
"g2 c #6f8397",
"er c #6f8ca8",
"cM c #70686c",
"hb c #708894",
"hE c #7099bb",
"cY c #72584c",
"fZ c #736059",
"eX c #73635d",
"gL c #737b8a",
"hY c #73879c",
"hv c #7392ad",
"d9 c #766371",
"gX c #7697b4",
"hO c #7699b6",
"gW c #777074",
"gK c #778190",
"gY c #77a5cb",
"gq c #79636d",
"f5 c #796a78",
"gm c #797d86",
"gI c #7a6165",
"gG c #7a9fbe",
"gr c #7b7383",
"hD c #7b8ea8",
"eg c #7b99b4",
"hP c #7baad1",
"hi c #7c5f69",
"g8 c #7c6760",
"hL c #7c6c6c",
"ii c #7ca2bf",
"hw c #7caad0",
"ge c #7d6e6e",
"eW c #7d7070",
"gg c #7e7171",
"hC c #7e7d90",
"hB c #7e8ba1",
"gZ c #7e98b5",
"is c #7e99b2",
"hc c #7ea7c9",
"eN c #7eacd1",
"ep c #80858e",
"iI c #809ab2",
"dz c #80a6c6",
"h6 c #80afd5",
"gC c #81695f",
"bW c #818997",
"h5 c #819297",
"eO c #81a1c0",
"ix c #829498",
"eC c #8394a6",
"ih c #83a8b0",
"gd c #847369",
"gh c #856d63",
"dU c #85a8c5",
"hk c #85b1d5",
"eh c #867786",
"gR c #86786d",
"h7 c #86b8e1",
"eE c #87b0d0",
"iH c #87b8df",
"dn c #88634a",
"fY c #887b7a",
"hj c #887b8d",
"dd c #88a8c7",
"eu c #88b4d8",
"hx c #89acc8",
"f9 c #89b5d7",
"d8 c #8a6f72",
"cj c #8a898e",
"iw c #8a9ea3",
"hX c #8aaac5",
"gn c #8ab0ce",
"hQ c #8ab8dd",
"gs c #8b7e8d",
"ga c #8b8798",
"ck c #8b9fbb",
"eM c #8ba0b9",
"hg c #8c6975",
"gH c #8c7578",
"bv c #8c7579",
"eS c #8c7f7f",
"dS c #8c8282",
"gT c #8c8b8c",
"cN c #8ca6c5",
"dV c #8d7786",
"go c #8da2ae",
"eF c #8db8d9",
"g. c #8dbfe6",
"fO c #8dc1e8",
"e8 c #8dc1e9",
"dX c #8ec2e9",
"fP c #8ec2ea",
"et c #8f5e63",
"bw c #8f7474",
"ah c #8f767d",
"gA c #8f8383",
"eD c #8f8692",
"g# c #8f90a2",
"hf c #8f9db1",
"dC c #8fb8d9",
"dB c #8fc0e5",
"dg c #90a3b8",
"f4 c #90abc4",
"fs c #90c3ea",
"g1 c #915e65",
"cX c #917c71",
"bU c #918d93",
"cO c #918da3",
"fr c #91b2cb",
"fm c #91bee0",
"ei c #91c3e9",
"dW c #91c3ea",
"gP c #927665",
"aH c #92797f",
"df c #92b7d6",
"g0 c #934544",
"#P c #937b81",
"eq c #93848f",
"e7 c #93c0e3",
"cl c #94899e",
"ev c #949aa4",
"gJ c #94a6b5",
"cm c #94aac2",
"ij c #94b6d1",
"dp c #95776f",
"e9 c #95b8d0",
"ft c #95c5ea",
"de c #978fa4",
"ie c #979294",
"fQ c #988a9a",
"h3 c #988c8c",
"fl c #98a6af",
"bx c #998574",
"fC c #998e8e",
"gt c #99b0c7",
"a9 c #9a817a",
"dA c #9a899b",
"eL c #9a9899",
"fJ c #9aabb7",
"hh c #9b5e63",
"cQ c #9b959f",
"ae c #9c9896",
"ig c #9da5a6",
"fN c #9db0c1",
"d6 c #9e848a",
"hd c #9ea4ac",
"gp c #9eb1bd",
"cP c #9eb8d1",
"#Q c #9f878d",
"bF c #9f8885",
"f. c #a0666b",
"bX c #a0858c",
"aN c #a0878a",
"dr c #a0878e",
"#q c #a08a8e",
"#8 c #a09b9a",
"hW c #a0b1c1",
"eQ c #a0b4c2",
"#O c #a19191",
"h2 c #a19796",
"a5 c #a19f9d",
"dN c #a28b90",
"b. c #a28c7e",
"fv c #a2b5c2",
"#H c #a39e9d",
"aF c #a39f9d",
"e1 c #a3bccb",
"ai c #a48b92",
"gj c #a48e7b",
"bV c #a498a4",
"f6 c #a4bac7",
"a7 c #a58d93",
"ds c #a59597",
"iG c #a5b5c4",
"ag c #a69295",
"dM c #a79497",
"fc c #a79d9d",
"h8 c #a7b8c6",
"aO c #a89091",
"cA c #a89097",
"a8 c #a89296",
"aG c #a89599",
"cq c #a9896d",
"c2 c #a99198",
"ha c #a9a9aa",
"f8 c #a9afb5",
"#r c #aa9299",
"f3 c #aaa599",
"#9 c #aaa9a7",
"#I c #aba9a8",
"aM c #ac9495",
"a6 c #ac9c9f",
"cL c #aca5a4",
"aE c #aca6a5",
"gv c #ad8d76",
"cn c #ad9499",
"cy c #ad9699",
"#p c #ad969b",
"dq c #ad979c",
"ao c #ad979d",
"aA c #adaba9",
"fw c #ae9c8b",
"c1 c #af989d",
"do c #af9f8d",
"hu c #afb9c4",
"cb c #b0aca8",
"eU c #b0b3b1",
".7 c #b19ba0",
"eP c #b1a199",
"fH c #b1afa3",
"du c #b1afad",
"fd c #b1b1af",
"ad c #b1b1b0",
"fK c #b1bec9",
"ba c #b29785",
"fk c #b2a28d",
"ez c #b2abab",
"bl c #b2afad",
"d# c #b2b1af",
"ca c #b3aeac",
"cK c #b3b1b0",
"#R c #b49da2",
"dL c #b59f93",
".J c #b59fa3",
".9 c #b5a0a6",
".I c #b5a1a4",
"fA c #b5b9b7",
"fn c #b5bcc3",
"dD c #b69d91",
"aK c #b6a0a2",
"d. c #b6b3ad",
"dx c #b7b0b0",
"ir c #b8c2cb",
"dY c #b99e8a",
".R c #baa7aa",
"cD c #bab5aa",
".O c #bab5b4",
"fX c #babdbb",
"hV c #bac4cd",
"e2 c #bac7d2",
"dm c #bba48e",
"bZ c #bba596",
"cE c #bbb8a9",
"aX c #bbb9b7",
"bY c #bca095",
"bc c #bca395",
"bg c #bca7ac",
"eY c #bcaf9a",
"iu c #bcc6cf",
"aI c #bda5ab",
"b8 c #bda7a8",
"a4 c #bdb8b7",
"c7 c #bdbab3",
"az c #bdbbba",
"fL c #bdccd8",
"cx c #be9f89",
"b7 c #bea08f",
"cp c #bea997",
".8 c #bea9af",
"aS c #beaab0",
"fE c #beac95",
"ht c #beb7b7",
"ic c #bec5cd",
"iy c #bfac9b",
"hA c #bfb8ba",
"#M c #bfbcbb",
"fu c #bfbeb6",
"#J c #bfc0be",
"ci c #c0c0be",
"bT c #c0c0bf",
"c0 c #c19d85",
"fI c #c1b8ac",
"fM c #c1d2de",
"c. c #c2adb1",
"aL c #c2aeae",
"ex c #c2c5c3",
"eb c #c3c6c4",
"fR c #c4a08e",
"#h c #c4b0b4",
".U c #c4b2b7",
"#5 c #c4bfbe",
"#X c #c5b5b9",
"dh c #c5baad",
"fz c #c5bfbf",
"bM c #c5c3bf",
"bs c #c5c6c5",
"he c #c5cad0",
".6 c #c6b4b7",
"#. c #c6b5b8",
".v c #c6bfbd",
"eG c #c6c0b0",
"dv c #c6c6c5",
"hR c #c6c9cc",
"fT c #c7b197",
".1 c #c7b2b6",
"bf c #c7b2b7",
".t c #c7b3b8",
"cB c #c7b8ba",
"hN c #c7c6c7",
"bC c #c8ae98",
"bD c #c8ae9e",
"by c #c8b89f",
"#L c #c8cac8",
"fo c #c8d1d3",
"f7 c #c8d2db",
"bb c #c9b0a2",
".0 c #c9b3b8",
".Y c #c9b8b9",
"fU c #c9baa3",
"#G c #c9c4c4",
"#m c #c9c5c4",
"an c #cab7bb",
"f# c #cabaa5",
".h c #cac1c2",
"iz c #cac4c0",
"bL c #cac8c7",
"hU c #cac9cc",
"aB c #cacac6",
"dQ c #cacbca",
"gf c #cacdcb",
"al c #cbb6bb",
"bu c #cbc0c2",
"db c #cbc6c6",
"aY c #cbcac7",
"fq c #cbccc1",
"b6 c #ccb3a0",
"aJ c #ccb6ba",
"fa c #ccc4b2",
"#o c #ccc4c4",
"af c #ccc9c8",
"bt c #cccac9",
"b4 c #cdb99f",
".V c #cdbabe",
"#B c #cdbbbf",
"bJ c #cdbcbd",
"eZ c #cdc3ab",
"#N c #cdc9c8",
"d5 c #cea793",
"cv c #cebba1",
"#g c #cebbbe",
"#x c #cebdc0",
"cZ c #cec1a7",
".P c #cec5c5",
"ff c #cec9c9",
"#K c #ced0cd",
"aj c #cfb8be",
".s c #cfbbc1",
".Z c #cfbec0",
"bH c #cfbec1",
"aD c #cfcdcb",
"b# c #d0b4a1",
"ej c #d0b99d",
"cz c #d0b9bf",
"#f c #d0bac1",
".H c #d0bec1",
"fj c #d1bca0",
"ar c #d1bcc3",
"#l c #d1cdcc",
"c9 c #d1d0c7",
"hT c #d1d0d1",
"bG c #d2bdc0",
".K c #d2c2c2",
".X c #d2c3c3",
"f2 c #d2c4a9",
"e0 c #d2c9b0",
"c3 c #d2cccc",
"iv c #d2d3d3",
"eo c #d3ad93",
"b9 c #d3bec2",
"bA c #d3bfa5",
"gc c #d3c2a8",
".2 c #d3c2c3",
"#4 c #d3cdcc",
"#7 c #d3d0cf",
"dZ c #d4a488",
"#Z c #d4bbc4",
"#z c #d4bdc5",
"ak c #d4bfc3",
".B c #d4c7c9",
"fe c #d4d5d4",
"#y c #d5bfc7",
"#S c #d5c1c5",
"fG c #d5c3a8",
"bI c #d5c4c7",
"aV c #d5cbcb",
"c6 c #d5d2c8",
"c8 c #d5d5cc",
"fS c #d6bb9f",
"#e c #d6c0c7",
"am c #d6c2c6",
"#c c #d6c2c7",
".F c #d6c6cb",
".W c #d6c7c9",
"a. c #d6d6d5",
"b5 c #d7b69f",
"be c #d7c0c6",
"#0 c #d7c2c9",
"#T c #d7c3c7",
"bd c #d7c4bc",
"#w c #d7c5ca",
".G c #d7c6cc",
"#W c #d7c7cb",
".e c #d7cacd",
"#3 c #d7cdcd",
"dO c #d7d4d3",
"aq c #d8c4cb",
".f c #d8cace",
".T c #d8cacf",
".u c #d8cbcd",
".z c #d8d0cf",
".b c #d8d4d4",
"dR c #d8d9d8",
"e. c #d8e0e7",
"bE c #d9c2c2",
"bh c #d9c9cd",
"as c #d9cacf",
"au c #d9cfcf",
".l c #d9d5d4",
"el c #daa88b",
"gw c #dab898",
"#A c #dacacc",
".Q c #dacacd",
"bj c #dad0d0",
"bk c #dad5d4",
"ik c #dad9d8",
"aP c #dbcaca",
"#d c #dbccce",
".i c #dbd7d7",
"iD c #dbdcd9",
"#b c #dccbcd",
"#2 c #dccbce",
".r c #dccbd0",
"## c #dccdcf",
".C c #dccfd2",
".n c #dcd2d3",
".L c #dcd3d0",
"e6 c #dcdac6",
"da c #dcdad9",
"aQ c #ddccd1",
"b1 c #ddcfb3",
".o c #ddcfd1",
"bK c #ddd8d6",
"#j c #dddad9",
"ib c #dddddb",
"hy c #dddddd",
"#a c #dececf",
"#V c #deced3",
"#s c #decfd1",
"#D c #ded8d8",
".y c #dedbda",
"#n c #dedcdb",
"bm c #dededa",
"#v c #dfcfd4",
"#Y c #dfd1d5",
"aT c #dfd2d6",
".q c #e0cfd5",
"#1 c #e0d0d4",
".p c #e0d0d5",
".E c #e0d2d7",
"#i c #e0d4d6",
".S c #e0d4d7",
"#C c #e0d5d6",
"c# c #e0dddc",
".a c #e0dddd",
"eT c #e0dedd",
"#t c #e1d4d6",
"aZ c #e1e1dc",
"bi c #e2d4d6",
"at c #e2d4d7",
"aR c #e2d4d9",
"fp c #e2d6ba",
"ew c #e2e0e0",
"h4 c #e2e1e1",
"gz c #e2e2e1",
"en c #e3b699",
"ap c #e3d6da",
"bz c #e3d7b9",
".g c #e3d7da",
"aU c #e3d9d9",
".d c #e3dbdd",
"eK c #e4b592",
"em c #e4b99c",
"fi c #e4d7ba",
"a0 c #e4e5df",
"ec c #e4e5e4",
"#U c #e5d8dd",
"#u c #e5d9dd",
".3 c #e5dede",
"av c #e5e0df",
".w c #e5e3e3",
"io c #e5e5e3",
"bN c #e5e6e1",
"co c #e6c1a8",
"d1 c #e6cdb2",
".A c #e6dcdd",
"aW c #e6e3e1",
"bn c #e6e7e2",
"in c #e6e7e4",
"eJ c #e7b692",
"cu c #e7dabf",
".c c #e7e2e3",
".M c #e7e5e4",
".D c #e8dde0",
"aw c #e8e6e5",
"cJ c #e8e8e7",
"cG c #e8e9e3",
"ek c #e9bd97",
"cr c #e9dcbf",
"fx c #e9dec1",
"#E c #e9e7e7",
"ey c #e9e9e8",
"cw c #ead9ba",
"e3 c #eae3cc",
".5 c #eae9e8",
"im c #eaebe7",
"iJ c #eaebec",
"eV c #ebeaea",
"cR c #ecc1a2",
"a3 c #ecece7",
"cF c #ecece8",
"iE c #ecece9",
"a# c #ececea",
"il c #ececeb",
"cH c #ecede8",
"dK c #edd4bc",
"d0 c #eddcc0",
"cC c #edeceb",
"cc c #edede8",
"br c #ededea",
"aC c #edeeea",
"gx c #eee3c6",
"#k c #eeecec",
".k c #eeeded",
"h9 c #eeeeec",
"iC c #eeefea",
"fB c #efeeed",
"ce c #eff0ec",
".m c #f0eceb",
"ax c #f0efee",
"ia c #f0f0ed",
"iA c #f0f0ee",
"i. c #f0f0f0",
"bq c #f0f1ed",
"c5 c #f1f0ee",
"aa c #f1f1ee",
"iF c #f1f1f0",
"cI c #f1f2ee",
"bB c #f2e5c8",
"b2 c #f2e9ca",
".N c #f2f1f1",
"iB c #f2f2f0",
"ch c #f2f2f1",
"eI c #f3c89f",
"gb c #f3cba6",
"ed c #f3f1f1",
"dw c #f3f3f3",
"hS c #f3f4f1",
"f1 c #f4e5c6",
"dF c #f4e8cb",
"b3 c #f4ebcd",
"ea c #f4f3f3",
"a2 c #f4f4f1",
"ab c #f4f4f2",
"ip c #f4f4f3",
"bS c #f4f4f4",
"ac c #f5f4f4",
"cf c #f5f5f3",
"ay c #f5f5f4",
"cW c #f6eacc",
"dE c #f6ebce",
"hz c #f6f6f6",
"bQ c #f6f7f5",
"fW c #f7f6f6",
"cg c #f7f7f6",
"iq c #f7f7f7",
"dJ c #f8ddc1",
"f0 c #f8e4c1",
"dG c #f8e7c7",
"#6 c #f8f7f7",
"cd c #f8f8f6",
"bP c #f8f8f7",
"i# c #f8f8f8",
"eH c #f9dbb4",
"gi c #f9e1bd",
"h# c #f9f9f8",
"dt c #f9f9f9",
"cS c #fad5b4",
"hM c #faf9f9",
"bp c #fafaf9",
".4 c #fafafa",
"d4 c #fbddbd",
"dj c #fbe0c0",
"e4 c #fbe9c6",
"e5 c #fbeac8",
"fF c #fbebc9",
"dP c #fbfafa",
"a1 c #fbfbfa",
"#F c #fbfbfb",
"gQ c #fcf1d1",
"bo c #fcfcfb",
"bR c #fcfcfc",
"dk c #fde7c6",
"cT c #fde8ca",
"dI c #fde9c8",
"cU c #fdebcb",
"cV c #fdeccc",
"di c #fdedcc",
"dl c #fdedce",
"dH c #fdefce",
"ct c #fdf6d7",
"bO c #fdfdfc",
".# c #fdfdfd",
"d3 c #fef3d3",
"cs c #fef4d4",
"d2 c #fef5d6",
".j c #fefefe",
".x c #fefeff",
"e# c #fefffe",
"if c #fffeff",
"c4 c #fffffe",
"Qt c #ffffff",
"QtQtQtQtQtQtQtQtQtQtQtQtQtQtQtQt.#.a.b.c.d.e.f.g.h.i.jQtQtQtQtQt",
"QtQtQtQtQtQtQtQtQtQtQtQtQtQtQt.k.l.m.n.o.p.q.r.s.t.u.v.w.xQtQtQt",
"QtQtQtQtQtQtQtQtQtQtQtQtQt.j.y.z.A.B.C.D.E.F.G.H.I.J.K.L.M.jQtQt",
"QtQtQtQtQtQtQtQtQtQtQtQt.N.O.P.Q.R.S.T.U.V.W.X.Y.Z.0.1.2.3.NQtQt",
"QtQtQtQtQtQtQtQtQtQtQtQt.4.5.6.7.8.9#.###a#b#c#d#e#f#g#h#i#j.jQt",
"QtQtQtQtQt.j#k#l#m#n.#Qt.j#o#p#q#r.1#s#t#u#v#w#x#y#z#A#B#C#D#EQt",
"QtQtQt#F#G#H#I#J#K#L#M.4#N#O#P#Q#R#S#T#U#V#W#X#Y#Z#0#1#2#3#4#5#6",
"Qt.j#7#8#9a.a#aaabacadaeafagahaiajakalamanao#xapaqarasatauavawax",
"ayazaAaBaC.jQtQt.j.#aDaEaFaGaHaIaJaKaLaMaNaOaPaQaRaSaTaUaVaW.kQt",
"aXaYaZa0a1QtQtQt.ja2a3a4a5a6a7a8a9b.b#babbbcbdbebfbgbhbibjbk.jQt",
"blbmbna2.j.jbo.jbpbqbrbsbtbubvbwbxbybzbAbBbCbDbEbFbGbHbIbJbK.jQt",
"bLbMbNbO.jbPbQbRbPbSbTbUbVbWbXbYbZb0b1b2b3b4b5b6b7b8b9c..Vc#QtQt",
"cacbcc.jcdcecfcgchcicjckclcmcncocpcqcrcsctcucvcwcxcyczcAcBacQtQt",
"cCcDcEcFcGcHcIcJcKcLcMcNcOcPcQcRcScTcUcVcWcXcYcZc0#Rc1c2c3c4QtQt",
"Qtc5c6c7c8c9d.d#dadbdcdddedfdgdhcUdidjdkdldmdndodpdqdrdsdtQtQtQt",
"QtQt.jaydadudvdwbRdxdydzdAdBdCdDdEdFdGdHdIdJdKdLaHdMdNdOQtQtQtQt",
"QtQtQtdPdQdR.#Qt.jdSdTdUdVdWdXdYdZd0d1d2d3d4d5d6d7d8d9e.QtQtQtQt",
"Qte#eaebec.jQtQtedeeefegehdWeiejekelemeneoepeqereseteuev.jQtQtQt",
".jewexey.jQtQtQtezeAeBeCeDeEeFeGeHeIeJeKeLeMeNeOePeQeReSQtQtQtQt",
"eTeUeV.jQtQtQt.jeWdTeXeYeZe0e1e2e3e4e5e6e7e8e9f.f#fafbfcQtQtQtQt",
"fdfeQtQtQtQtQtfffgfhfifjfkflfmfnfofpfqfrfsftfufvfwfxfyfzQtQtQtQt",
"fAfBQtQtQtQtQtfCfDfEfFfGfHfIfJfKfLfMfNfOfPfQfRfSfTfUfVfWQtQtQtQt",
"fX.jQtQtQtQtQtfYfZf0f1f2f3f4f5f6f7f8f9g.g#gafGgbgcgdgebpQtQtQtQt",
"gfQtQtQtQtQtQtggghgigjgkglgmgngogpgqgrgsgtgugvgwgxgy.bQtQtQtQtQt",
"gzQtQtQtQtQtQtgAgBgCgDgEgFgGgHgIgJgKgLgMgNgOgPgQgRgS#6QtQtQtQtQt",
"QtQtQtQtQtQtfWgTgUgVgWgXgYgZg0g1g2g3g4g5g6g7g8fwg9h.h#QtQtQtQtQt",
"QtQtQtQtQt.jhahbhchdhehfhghhhihjhkhlhmhnhohphqhrhshtQtQtQtQtQtQt",
"QtQtQtQt.jhuhvhwhxhyhza1hAhBhChDhEgGhFhGhHhIhJhKhLhMQtQtQtQtQtQt",
"QtQtQt.jhNhOhPhQhRhzbScghShThUhVhWhXhYhZh0h1h2h3#EQtQtQtQtQtQtQt",
"QtQtQth4h5h6h7h8h9i.i#iaiaibbPbRbRbRicidhqieifQtQtQtQtQtQtQtQtQt",
"QtQt.jigihiiijikildwcfiminioipbSiq.4irisitiuQtQtQtQtQtQtQtQtQtQt",
"QtQt.jiviwixiyiziAdtiBiCiDiEiFbSbS#FiGiHiIiJQtQtQtQtQtQtQtQtQtQt"};
