/* XPM */
static char *dummy[]={
"32 32 126 2",
"Qt c None",
"#4 c #000507",
".# c #000a0f",
".q c #000f16",
"#f c #001824",
"#B c #001924",
"#Y c #002131",
".N c #002232",
".k c #002d42",
"#U c #002f45",
"#e c #003046",
".a c #003148",
".6 c #003249",
"#Q c #003751",
"#a c #003851",
"#5 c #003a56",
"#V c #004160",
".3 c #004261",
".b c #004666",
".c c #004a6c",
".7 c #004b6d",
".d c #00567f",
".r c #0074a8",
".M c #0074a9",
"#C c #007db6",
"#g c #007eb7",
"#Z c #0085c3",
".O c #0087c5",
".2 c #0088c5",
"#6 c #008ccd",
".j c #0392d4",
".e c #0693d4",
".p c #0694d5",
"#T c #0696d8",
"#b c #0698da",
"#R c #0d98d8",
"#d c #0d9cdb",
"#7 c #0095da",
".s c #039bde",
".t c #11a3e2",
".L c #11a4e2",
"#W c #149ddc",
".5 c #14a1df",
".u c #14a8e5",
".v c #14aae7",
".K c #14abe7",
".w c #14ade9",
".J c #14aee9",
".x c #14afeb",
".I c #14b0ec",
".y c #15b2ed",
".H c #15b3ed",
".z c #16b4ef",
".G c #16b5ef",
".A c #1ab6ef",
".F c #1ab7ef",
"#X c #1ba0dd",
".4 c #1ba3e0",
".B c #1cb8f0",
".E c #1db8f0",
".l c #1fa1de",
".C c #1fb9f0",
".D c #20baf0",
".f c #22a3de",
".m c #22a3df",
".g c #2aa6e0",
".8 c #2aa9e2",
".9 c #2aaae2",
"#. c #2aaae3",
"## c #2aabe3",
"#h c #38b0e5",
"#A c #38b1e5",
"#D c #46b5e6",
"#P c #46b6e7",
"#i c #54bdea",
"#z c #54beeb",
"#j c #54c0ec",
"#y c #54c0ed",
"#k c #54c2ee",
"#l c #54c4f0",
"#x c #54c5f0",
"#m c #54c6f1",
"#w c #54c7f1",
"#n c #55c8f3",
"#o c #57caf3",
"#v c #58caf3",
"#p c #5acbf4",
"#q c #5cccf4",
"#u c #5dccf4",
"#r c #5ecdf4",
"#t c #5fcdf4",
"#s c #5fcef4",
"#0 c #71c4ea",
"#E c #77cbee",
"#F c #7ecff1",
"#G c #7ed1f2",
"#H c #7ed2f3",
"#I c #7ed4f4",
"#J c #7fd5f5",
"#K c #80d6f6",
".P c #82cdee",
".1 c #82ceee",
"#L c #82d7f6",
"#M c #83d8f6",
"#O c #84d8f6",
"#N c #85d9f6",
"#1 c #aadbf2",
"#2 c #aadcf2",
"#3 c #aadcf3",
".Q c #bbe5f7",
".R c #bfe7f8",
".S c #bfe8f8",
".T c #bfe9f9",
".U c #bfeafa",
".V c #c0eafa",
".0 c #c0ebfa",
".W c #c1ebfb",
".Z c #c1ecfb",
".X c #c2ecfb",
".Y c #c3ecfb",
".n c #c6e7f6",
".o c #c6e7f7",
".h c #d4edf8",
"#c c #e2f3fb",
"#S c #e9f6fc",
".i c #ffffff",
"QtQtQtQtQtQtQtQtQtQtQtQtQtQtQtQtQtQtQtQtQtQtQtQtQtQtQtQtQtQtQtQt",
"QtQtQtQtQtQtQtQtQtQtQtQtQtQtQtQtQtQtQtQtQtQtQtQtQtQtQtQtQtQtQtQt",
"QtQtQt.#.a.b.c.c.c.c.c.c.c.c.c.c.c.c.c.c.c.c.c.c.c.c.b.a.#QtQtQt",
"QtQt.#.d.e.f.g.g.g.g.g.g.g.g.g.g.g.g.g.g.g.g.g.g.g.g.f.e.d.#QtQt",
"QtQt.a.e.h.i.i.i.i.i.i.i.i.i.i.i.i.i.i.i.i.i.i.i.i.i.i.h.j.kQtQt",
"QtQt.b.f.i.i.i.i.i.i.i.i.i.i.i.i.i.i.i.i.i.i.i.i.i.i.i.i.l.aQtQt",
"QtQt.c.g.i.i.i.i.i.i.i.i.i.i.i.i.i.i.i.i.i.i.i.i.i.i.i.i.g.aQtQt",
"QtQt.c.g.i.i.i.i.i.i.i.i.i.i.i.i.i.i.i.i.i.i.i.i.i.i.i.i.g.aQtQt",
"QtQt.c.g.i.i.i.i.i.i.i.i.i.i.i.i.i.i.i.i.i.i.i.i.i.i.i.i.g.aQtQt",
"QtQt.c.g.i.i.i.i.i.i.i.i.i.i.i.i.i.i.i.i.i.i.i.i.i.i.i.i.g.aQtQt",
"QtQt.b.l.i.i.i.i.i.i.i.i.i.i.i.i.i.i.i.i.i.i.i.i.i.i.i.i.m.aQtQt",
"QtQt.a.j.n.i.i.i.i.i.i.i.i.i.i.i.i.i.i.i.i.i.i.i.i.i.i.o.p.kQtQt",
"QtQt.q.r.s.t.u.v.w.x.y.z.A.B.C.D.D.C.E.F.G.H.I.J.K.u.L.s.M.qQtQt",
"QtQt.N.O.P.Q.R.S.T.T.U.V.W.W.X.X.Y.X.Z.W.0.U.T.T.S.R.Q.1.2.NQtQt",
"QtQt.3.4.i.i.i.i.i.i.i.i.i.i.i.i.i.i.i.i.i.i.i.i.i.i.i.i.5.6QtQt",
"QtQt.7.8.i.i.i.i.i.i.i.i.i.i.i.i.i.i.i.i.i.i.i.i.i.i.i.i.9.6QtQt",
"QtQt.7.9.i.i.i.i.i.i.i.i.i.i.i.i.i.i.i.i.i.i.i.i.i.i.i.i#..6QtQt",
"QtQt.7.9.i.i.i.i.i.i.i.i.i.i.i.i.i.i.i.i.i.i.i.i.i.i.i.i##.6QtQt",
"QtQt.7.9.i.i.i.i.i.i.i.i.i.i.i.i.i.i.i.i.i.i.i.i.i.i.i.i.9.6QtQt",
"QtQt.7.8.i.i.i.i.i.i.i.i.i.i.i.i.i.i.i.i.i.i.i.i.i.i.i.i.9.6QtQt",
"QtQt#a#b#c.i.i.i.i.i.i.i.i.i.i.i.i.i.i.i.i.i.i.i.i.i.i#c#d#eQtQt",
"QtQt#f#g#h#i#j#k#l#m#n#o#p#q#r#s#s#t#u#p#v#n#w#x#k#y#z#A#g#BQtQt",
"QtQt#f#C#D#E#F#G#H#I#J#K#L#M#N#N#N#N#O#L#K#J#I#H#G#F#E#P#C#fQtQt",
"QtQt#Q#R#S.i.i.i.i.i.i.i.i.i.i.i.i.i.i.i.i.i.i.i.i.i.i#S#T#UQtQt",
"QtQt.c.g.i.i.i.i.i.i.i.i.i.i.i.i.i.i.i.i.i.i.i.i.i.i.i.i.g.aQtQt",
"QtQt.c.g.i.i.i.i.i.i.i.i.i.i.i.i.i.i.i.i.i.i.i.i.i.i.i.i.g.aQtQt",
"QtQt.c.g.i.i.i.i.i.i.i.i.i.i.i.i.i.i.i.i.i.i.i.i.i.i.i.i.g.aQtQt",
"QtQt.c.g.i.i.i.i.i.i.i.i.i.i.i.i.i.i.i.i.i.i.i.i.i.i.i.i.g.aQtQt",
"QtQt.c.g.i.i.i.i.i.i.i.i.i.i.i.i.i.i.i.i.i.i.i.i.i.i.i.i.g.aQtQt",
"QtQt#V#W.i.i.i.i.i.i.i.i.i.i.i.i.i.i.i.i.i.i.i.i.i.i.i.i#X.aQtQt",
"QtQt#Y#Z#0#1#1#1#1#1#1#1#1#1#2#3#3#3#1#1#1#1#1#1#1#1#1#0#Z#YQtQt",
"QtQt#4#5#6#7#7#7#7#7#7#7#7#7#7#7#7#7#7#7#7#7#7#7#7#7#7#6#5#4QtQt"};
