/* XPM */
static char *dummy[]={
"32 32 333 2",
"Qt c None",
"ca c #000203",
".o c #000405",
".e c #000507",
"di c #000609",
"cl c #000709",
".l c #00080b",
"cZ c #00080c",
".v c #000a0f",
".m c #000c11",
".n c #000c12",
"b8 c #000d12",
"cb c #000d13",
"co c #000d13",
".f c #00141e",
".# c #001824",
".d c #002131",
"db c #002233",
"b3 c #002436",
"c# c #002f41",
"c8 c #00364d",
".a c #003751",
"cC c #003852",
".k c #003a56",
"cT c #00435e",
"b9 c #004561",
".c c #004160",
"ck c #004c68",
".w c #004464",
"c9 c #004664",
"cz c #005170",
".b c #004a6c",
"cY c #004f70",
".p c #005f89",
".L c #006291",
"dj c #006391",
"dh c #006592",
".H c #006b98",
"c2 c #006797",
"ce c #006d9c",
".x c #006b9d",
"c0 c #0070a0",
"cp c #006fa1",
"cP c #006fa3",
".y c #006fa3",
".z c #0070a4",
".A c #0072a5",
".B c #0073a6",
".C c #0075a7",
".D c #0076a8",
".G c #0076a9",
".E c #0077a9",
".F c #0077aa",
"cO c #0078aa",
"cA c #007aac",
"cm c #007cae",
"cc c #007eaf",
"bT c #0075ac",
"c. c #018cbf",
".g c #007cb5",
".I c #008ac6",
".j c #0085c3",
"cj c #009ed8",
"cN c #039bd6",
".u c #008ccd",
"cf c #0099d9",
"cD c #0694d4",
"dk c #0090d3",
"dg c #0395d7",
".7 c #0693d4",
"cy c #0aa7e3",
".h c #0092d7",
"b7 c #00a9e9",
"b6 c #00abe9",
".i c #0095da",
"b4 c #0098dc",
"#P c #009ade",
"b5 c #009bdf",
"#4 c #009cdf",
"#Q c #009de0",
"#5 c #009ee1",
"aE c #009fe2",
"#R c #00a0e2",
"aU c #00a0e3",
"at c #00a1e3",
"#S c #00a2e4",
"ae c #00a3e5",
"a3 c #00a4e5",
"#6 c #00a4e6",
"#T c #00a5e6",
"aF c #00a5e7",
"af c #00a6e7",
"aV c #00a6e8",
"#U c #00a7e8",
"aG c #00a8e9",
"ag c #00a9e9",
"#V c #00a9ea",
"a4 c #00aaea",
"au c #00aaeb",
"#W c #00abeb",
"aH c #00abec",
"#7 c #00aceb",
"#X c #00aced",
"#8 c #00aded",
"#Y c #01aeed",
"aI c #02aeed",
"#Z c #03afee",
"av c #04afee",
"ah c #04b0ee",
"bd c #05b0ee",
"#9 c #06b0ee",
"a. c #07b1ee",
"aJ c #07b1ef",
"aw c #08b1ee",
"ai c #08b1ef",
"a# c #08b2ef",
"aW c #09b2ef",
"dc c #0a99db",
"bm c #0ab3ef",
"aj c #0bb3ef",
"ax c #0cb4ef",
"bP c #0d9adb",
"ak c #0db4ef",
".Z c #0ea4e3",
"an c #0eb4ef",
"al c #0eb5ef",
"am c #0fb5ef",
"a5 c #0fb6ef",
"be c #10b6ef",
"aK c #10b6f0",
"ay c #12b7f0",
"aX c #13b7f0",
"az c #13b8f0",
"#e c #149ddc",
"dd c #149edd",
"de c #149fde",
"df c #14a0df",
"#v c #14a1df",
"#M c #14a1e0",
"#w c #14a3e1",
"#L c #14a4e1",
"#x c #14a6e3",
"#y c #14a8e5",
"#z c #14aae6",
"#A c #14ace8",
"#B c #14aee9",
"#C c #14afeb",
"#D c #14b1ec",
"#E c #14b2ed",
"#F c #14b3ed",
"#G c #14b3ee",
"aL c #14b8f0",
"c7 c #15a3e1",
"bn c #15b8f0",
"#0 c #16b5ef",
"a6 c #16b8f0",
"bf c #16b9f0",
"aM c #18b9f0",
"aO c #18baf1",
"aN c #19bbf1",
"a7 c #1abbf1",
"aa c #1bb7ef",
"bg c #1bbcf1",
"aY c #1cbcf1",
"bZ c #1db6ef",
".M c #1fa2de",
"d. c #1fa3df",
"aZ c #1fbdf1",
"bo c #1fbef1",
"ao c #20baf0",
"a8 c #20bef1",
"b. c #21bef2",
"bh c #21bff2",
"bk c #22bff2",
"bp c #23bff2",
"aA c #24bcf0",
"a9 c #24c0f2",
"bi c #26c1f2",
"bj c #27c1f2",
"#H c #28b8ef",
"aP c #28bef1",
".4 c #2aa6e0",
".3 c #2aa7e0",
".2 c #2aa9e1",
"ci c #2abaef",
"a0 c #2cbff1",
"cS c #2db2e9",
"bq c #2ec1f1",
"b# c #2fc1f1",
"c3 c #31a9e1",
"cq c #34b0e5",
"da c #38ace2",
"#N c #3eb0e3",
"bU c #3fafe2",
"cX c #3fb6e8",
"cg c #3fb9eb",
".q c #42b2e5",
".Y c #46baea",
"#. c #46bbeb",
".5 c #49b3e4",
".N c #54b8e6",
".O c #54b9e7",
"#O c #54bae7",
".P c #54bae8",
"#3 c #54bbe8",
".Q c #54bce9",
"as c #54bcea",
".R c #54bdea",
"aT c #54beea",
".S c #54beeb",
".T c #54bfeb",
".U c #54bfec",
".V c #54c0ec",
".W c #54c0ed",
".X c #54c1ed",
"#q c #54c2ee",
"#I c #54c4ef",
"#1 c #54c6f1",
"ac c #54c7f2",
"bS c #55c8f3",
"aq c #55c9f3",
"bK c #56c9f3",
"bR c #57c9f3",
"aC c #57caf3",
"bJ c #59caf4",
"aR c #59cbf4",
"cQ c #5bbae7",
"#K c #5bc2ec",
"bI c #5bcbf4",
"a1 c #5bccf4",
"bb c #5cccf4",
"#u c #62bfe8",
".1 c #62c0ea",
"ch c #62cbf3",
"c1 c #70c6ec",
"cM c #70cdf1",
".t c #71c4ea",
".J c #77c9ed",
"cU c #7ecdef",
".0 c #7eceef",
"## c #7ecff0",
"cB c #7ed0f1",
"#r c #7ed1f1",
"#J c #7ed2f2",
"cn c #7ed2f3",
"#2 c #7ed3f3",
"cd c #7ed3f4",
"ad c #7ed4f4",
"b0 c #7ed5f5",
"cV c #7fc9ec",
"ar c #7fd5f5",
"aD c #80d6f6",
"aS c #81d7f6",
"a2 c #82d7f6",
"bc c #82d8f6",
"cI c #86d2f2",
"c6 c #89d0ef",
"bY c #8edbf7",
"d# c #91d1ef",
"cH c #94d7f3",
"cx c #97dcf6",
".8 c #98d4ef",
"cJ c #9edcf5",
"cv c #9edef6",
"ct c #a0dcf4",
".K c #aadbf2",
"bs c #aadcf2",
"#b c #aadcf3",
"bO c #aaddf3",
"bN c #aadef4",
"bu c #aadff5",
"bv c #aae0f6",
"bV c #aae1f6",
"bw c #aae1f7",
"bM c #aae2f7",
"bx c #aae2f8",
"bL c #aae3f8",
"by c #aae3f9",
"bW c #aae4f9",
"bz c #abe4f9",
"bX c #ace5f9",
"bA c #ade5f9",
"bB c #afe6f9",
"bC c #b1e7fa",
"bD c #b2e8fa",
"c4 c #b4dff4",
"bE c #b4e9fa",
"bF c #b5e9fa",
"bQ c #b7e1f4",
"bG c #b9eafa",
"#c c #bbe2f5",
"#f c #bfe4f5",
"c5 c #bfe4f6",
"#g c #bfe5f6",
"#h c #bfe6f7",
"#i c #bfe7f7",
"#j c #bfe7f8",
"#k c #bfe8f8",
"#l c #bfe8f9",
"#m c #bfe9f9",
"#n c #bfeafa",
"ab c #c0ebfa",
"cr c #c2e7f7",
"ap c #c2ecfb",
"aB c #c3ecfb",
"b1 c #c4e7f7",
"#o c #c4ebfa",
"aQ c #c4edfb",
"br c #c5edfb",
"ba c #c5eefb",
"#t c #c6e7f6",
"#a c #c6e8f7",
"bt c #c6e9f8",
"bl c #c6eefb",
"cE c #cdeaf8",
"#s c #cdecf9",
"cu c #cdedfa",
"cG c #d2eefa",
".6 c #d4edf8",
"cR c #d7f0fa",
"cs c #e0f3fb",
"cK c #e2f4fc",
".r c #e6f4fb",
"cW c #e9f7fc",
"bH c #ebf9fd",
"b2 c #eff8fc",
"#p c #eff9fd",
"#d c #f0f9fc",
".9 c #f0f9fd",
"cw c #f7fcfe",
"cL c #fbfdfe",
"cF c #fdfefe",
".s c #ffffff",
"QtQtQtQtQtQtQtQtQtQtQtQtQtQtQtQtQtQtQtQtQtQtQtQtQtQtQtQtQtQtQtQt",
"QtQtQtQtQtQtQtQtQtQtQtQtQtQtQtQtQtQtQtQtQtQtQtQtQtQtQtQtQtQtQtQt",
"QtQtQtQtQtQtQtQtQtQtQtQtQtQtQtQtQtQtQtQtQtQt.#.a.b.b.b.b.b.c.d.e",
"QtQtQtQtQtQtQtQtQtQtQtQtQtQtQtQtQtQtQtQtQt.f.g.h.i.i.i.i.i.i.j.k",
"QtQt.l.m.m.m.m.m.n.n.n.n.n.n.n.n.n.n.n.n.o.p.q.r.s.s.s.s.s.s.t.u",
".v.w.x.y.y.y.y.z.A.B.C.D.D.E.F.F.F.F.E.G.H.I.J.s.s.s.s.s.s.s.K.i",
".L.M.N.N.N.N.O.P.Q.R.S.T.U.V.W.X.X.W.V.V.Y.Z.0.s.1.2.3.4.5.6.K.i",
".7.8.s.s.s.s.s.s.s.s.s.s.s.s.s.s.s.s.s.s.9#.##.s#a#b#b.K#c#d.K.i",
"#e#f.s.6#g#g#h#i#j#k#l#m#m#m#n#n#n#n#o#p.s#q#r.s#s#h#g#g#t#d.K.i",
"#e#f.s#u#v#w#x#y#z#A#B#C#D#E#F#G#G#F#H#o.s#I#J.s#K#x#L#M#N.6.K.i",
"#e#f.s#O#P#Q#R#S#T#U#V#W#X#Y#Z#Z#Z#Z#0#n.s#1#2.s.s.s.s.s.s.s.K.i",
"#e#f.s#3#4#5#S#6#U#V#7#8#Z#9a.a#a#a.aaab.sacad.s.s.s.s.s.s.s.K.i",
"#e#f.s.Q#Q#Raeafag#W#Yahaiajakalamanaoap.saqar.s.s.s.s.s.s.s.K.i",
"#e#f.sas#5at#T#Uau#XavawaxamayazazayaAaB.saCaD.s.s.s.s.s.s.s.K.i",
"#e#f.s.RaE#SaFaGaHaIaJajaKaLaMaNaNaOaPaQ.saRaS.s.s.s.s.s.s.s.K.i",
"#e#f.saTaUaeaV#V#8#ZaWanaXaMaYaZaZaYa0aQ.sa1a2.s.s.s.s.s.s.s.K.i",
"#e#f.saTaUa3#Ua4#8ahaja5a6a7a8a9a9b.b#ba.sbbbc.s.s.s.s.s.s.s#b.i",
"#e#f.saTaUa3#Uau#8bdajbebfbgbhbibjbkb#bl.sbbbc.s.s.s.s.s.s.s#b.i",
"#e#f.saTaUae#Uau#8ahbmambna7bobkbpa8bqbr.sbbbc.s.s.s.s.s.s.sbs.i",
"#e#f.sbtbubvbwbxbybzbAbBbCbDbEbEbFbEbGbH.sbIa2.s.s.s.s.s.s.s.K.i",
"#e#f.s.s.s.s.s.s.s.s.s.s.s.s.s.s.s.s.s.s.sbJbKbLbMbwbvbubNbO.t.i",
"bPbQ.s.s.s.s.s.s.s.s.s.s.s.s.s.s.s.s.s.s.sbRbSbLbMbwbvbubNbO.t.i",
"bTbU#bbObNbubvbVbwbxbybWbzbXbAbAbAbAbXbzbYbZb0.s.s.s.s.sb1b2.K.i",
"b3bT.ib4b5#5ata3aVagaH#8#ZbdaJa#a#aJbd#Zb6b7ad.s.s.s.s.sb1b2.K.i",
"QtQtQtQtQtQtb8b9#A#k.s.s.saqc.c#caQtQtQtcbcccd.s.s.s.s.s.s.s.K.i",
"QtQtQtQtQt.ncecfcg#k.s.s.schcicjckclQtQtcbcmcn.s.s.s.s.s.s.s.K.i",
"QtQtQtQtcocpcqcrcsct.9.scucvcwcxcyczQtQtb8cAcB.s.s.s.s.s.s.s.K.i",
"QtQtQtQtcCcDcE.scFcGcHcIcJcK.scLcMcNb8Qtb8cO##.s.s.s.s.s.s.s.K.i",
"QtQtQtQtcPcQ.s.s.s.s.s.s.s.s.s.scRcScTQt.n.DcU.s.s.s.s.s.s.s.K.i",
"QtQtQtQt.gcV.s.s.s.s.s.s.s.s.s.scWcXcYQtcZc0c1.s.s.s.s.s.s.s.K.i",
"QtQtQtQtc2c3c4#f#f#fc5#g#g#g#g#gc6c7c8QtQtc9d.d#.K.K.K.K.K.KdabT",
"QtQtQtQtdbbTdc#e#e#edddddedfdfdfdgdhdiQtQt.vdjdk.i.i.i.i.i.ibTb3"};
