/* XPM */
static char *dummy[]={
"32 32 206 2",
"Qt c None",
".p c #000001",
"#x c #000305",
".8 c #000405",
"#y c #000508",
".H c #000608",
"aq c #000609",
"#q c #00080b",
"a1 c #00080c",
".# c #000a0f",
"bh c #000c11",
".h c #001018",
"aN c #001118",
".X c #00131c",
".q c #001722",
"aB c #001823",
"aM c #001a27",
".g c #001c2a",
"a2 c #001e2b",
".a c #001f2d",
"bl c #002233",
"#b c #00293c",
"a3 c #002b3e",
"ae c #002a3e",
"ak c #002b3e",
".b c #002b3f",
"bb c #002c40",
".R c #002e43",
".G c #003046",
"au c #003248",
".c c #003148",
"a6 c #00344a",
"a4 c #00344b",
"a5 c #00354b",
".f c #00334b",
".A c #00344c",
"a0 c #00354e",
".I c #00405d",
"al c #00415e",
"ap c #00425f",
".d c #004260",
".e c #004463",
"ba c #004666",
".i c #004869",
"aO c #004c6d",
"#g c #004a6c",
"#L c #004b6c",
"#Q c #004b6d",
".4 c #004e72",
"#2 c #004f73",
"#9 c #004f74",
".r c #005b84",
"aC c #005f88",
"#m c #006391",
"#F c #006491",
"#K c #006492",
"#w c #006797",
"#E c #006898",
"a7 c #006c9b",
"#z c #00699a",
"bc c #006a9b",
"aP c #00709f",
".j c #006b9d",
".Y c #0072a7",
"a. c #0075a9",
"ad c #0076aa",
".B c #0079b1",
"av c #007fb5",
"bi c #0080bb",
".o c #0081bc",
"aQ c #0089c2",
".k c #0083bf",
".9 c #0084c1",
"#V c #0086c3",
"#1 c #0087c3",
".O c #008bcb",
"am c #0090cf",
"ao c #0091cf",
"aR c #0097d6",
".s c #038ece",
"aD c #0396d5",
".l c #0090d1",
"aU c #009bdc",
"bk c #0593d4",
"bd c #0d99d9",
"aS c #00a0e3",
"aT c #00a1e3",
".m c #0397db",
"aA c #039bde",
"af c #0c9edf",
"aj c #0c9fe0",
".2 c #0cafec",
".S c #0e9bdc",
"ar c #0ea1e1",
"bj c #0f9bdb",
".J c #0f9cdc",
"aL c #119fde",
"a8 c #11a2e0",
"ac c #11b5ef",
"#6 c #12b7f0",
"#7 c #13b7f0",
".5 c #159edd",
"#3 c #15a1e0",
"#8 c #15a2e0",
"#Y c #18b9f0",
"#Z c #18baf0",
"#o c #18baf1",
"#c c #1aa0de",
"#R c #1aa2df",
"#U c #1aa3df",
"#t c #1ebcf1",
"#u c #1ebdf1",
".n c #1fa3df",
".C c #22a4df",
"aw c #22abe4",
"#N c #22bff1",
"#O c #23bff2",
"#B c #23c0f2",
"#C c #24c0f2",
"#k c #26bdf1",
"#I c #26c1f2",
"aV c #2aaee6",
"aZ c #2ca7e0",
"bg c #2fa8e0",
"aE c #31b2e7",
".t c #34ace1",
".z c #34ace2",
"#h c #3aade2",
"#l c #3aaee3",
"#M c #3aafe3",
"#P c #3aafe4",
".7 c #49c5f2",
"ai c #4ec7f3",
"a9 c #50b9e8",
"#n c #54b9e7",
"#G c #54bae7",
"#J c #54bae8",
"a# c #59beea",
"be c #62bde8",
".Z c #62bee8",
".3 c #62bfe8",
"#v c #62c0e9",
"#D c #62c0ea",
"as c #62c3ec",
".N c #64bfe9",
".u c #66c0e9",
".y c #66c1e9",
"aF c #66c6ee",
"#r c #69c2ea",
".K c #6bc2e9",
"#. c #78c7eb",
"#W c #78c9ed",
".D c #89ceee",
"ax c #89d2f1",
"ag c #8bd2f0",
".T c #8dd0ee",
"an c #8dd3f1",
".P c #8fd1ee",
".W c #99dcf6",
".V c #a1dff7",
"at c #a2dbf3",
"bf c #abdcf2",
"az c #addff4",
"aG c #ade0f5",
"#5 c #b0e7fa",
"#X c #b1e7fa",
"#0 c #b1e8fa",
"#f c #b2e7fa",
"#p c #b2e8fa",
"ab c #b3e7f9",
"#s c #b3e8fa",
"aW c #b4e2f5",
"#T c #b4e8fa",
"#A c #b5e9fa",
".1 c #b6e7f9",
"#H c #b6eafa",
".v c #b7e2f4",
"aK c #bbe4f5",
"#j c #c3edfb",
"#d c #c4e7f6",
"#S c #c4e7f7",
".6 c #d2f0fb",
"b. c #d4edf9",
"aY c #d6eef9",
"ay c #dbf1fa",
"aH c #def2fb",
"ah c #def4fc",
".E c #dff2fa",
"aI c #e2f4fb",
"b# c #e4f3fa",
"#i c #e4f4fb",
"#a c #e4f6fc",
".w c #e9f6fb",
"#4 c #e9f6fc",
"aX c #edf7fc",
"aa c #eff8fd",
".U c #eff9fd",
".M c #f0f9fc",
".0 c #f0f9fd",
".Q c #f2f9fd",
"#e c #f5fbfe",
".L c #f7fbfd",
"aJ c #f7fcfe",
".F c #fbfdfe",
"## c #fdfefe",
".x c #ffffff",
"QtQtQtQtQtQtQtQtQtQtQtQtQtQtQtQtQtQtQtQtQtQtQtQtQtQtQtQtQtQtQtQt",
"QtQtQtQtQtQtQtQtQtQtQtQtQtQtQtQtQtQtQtQtQtQtQtQtQtQtQtQtQtQtQtQt",
"QtQtQtQtQtQtQtQtQtQtQt.#.a.b.c.d.e.f.b.g.#QtQtQtQtQtQtQtQtQtQtQt",
"QtQtQtQtQtQtQtQtQt.h.i.j.k.l.m.n.n.m.l.o.j.i.hQtQtQtQtQtQtQtQtQt",
"QtQtQtQtQtQt.p.q.r.s.t.u.v.w.x.x.x.x.w.v.y.z.s.r.q.pQtQtQtQtQtQt",
"QtQtQtQtQtQt.A.B.C.D.E.F.x.x.x.x.x.x.x.x.F.E.D.C.B.GQtQtQtQtQtQt",
"QtQtQtQt.H.I.J.K.L.x.x.x.x.x.x.x.x.x.x.x.x.x.x.M.N.J.I.HQtQtQtQt",
"QtQtQtQt.I.O.P.Q.x.x.x.x.x.x.x.x.x.x.x.x.x.x.x.x.Q.P.O.IQtQtQtQt",
"QtQt.p.R.S.T.x.x.x.x.x.x.x.x.U.V.W.U.x.x.x.x.x.x.x.x.T.S.R.pQtQt",
"QtQt.X.Y.Z.0.x.x.x.x.x.x.x.x.1.2.2.1.x.x.x.x.x.x.x.x.0.3.Y.XQtQt",
"QtQt.4.5.M.x.x.x.x.x.x.x.x.x.6.7.7.6.x.x.x.x.x.x.x.x.x.w.5.4QtQt",
"Qt.8.9#..x.x.x.x.x.x.x.x.x.x###a#a##.x.x.x.x.x.x.x.x.x.x#..9QtQt",
"Qt#b#c#d.x.x.x.x.x.x.x.x.x.x#e#f#f#e.x.x.x.x.x.x.x.x.x.x#d#c#bQt",
"Qt#g#h#i.x.x.x.x.x.x.x.x.x.x#j#k#k#j.x.x.x.x.x.x.x.x.x.x#i#l#gQt",
"Qt#m#n.x.x.x.x.x.x.x.x.x.x.x#f#o#o#p.x.x.x.x.x.x.x.x.x.x.x#n#mQt",
"#q.j#r.x.x.x.x.x.x.x.x.x.x.x#s#t#u#s.x.x.x.x.x.x.x.x.x.x.x#v#w#x",
"#y#z#r.x.x.x.x.x.x.x.x.x.x.x#A#B#C#A.x.x.x.x.x.x.x.x.x.x.x#D#E#x",
"Qt#F#G.x.x.x.x.x.x.x.x.x.x.x#H#I#I#H.x.x.x.x.x.x.x.x.x.x.x#J#KQt",
"Qt#L#M#i.x.x.x.x.x.x.x.x.x.x#A#N#O#A.x.x.x.x.x.x.x.x.x.x#i#P#QQt",
"Qt#b#R#S.x.x.x.x.x.x.x.x.x.x#s#u#u#T.x.x.x.x.x.x.x.x.x.x#S#U#bQt",
"Qt.8#V#W.x.x.x.x.x.x.x.x.x.x#X#Y#Z#0.x.x.x.x.x.x.x.x.x.x#W#1QtQt",
"QtQt#2#3#4.x.x.x.x.x.x.x.x.x#5#6#7#5.x.x.x.x.x.x.x.x.x#4#8#9QtQt",
"QtQt.Xa.a#aa.x.x.x.x.x.x.x.xabacacab.x.x.x.x.x.x.x.xaaa#ad.XQtQt",
"QtQt.paeafag.x.x.x.x.x.x.x.xahaiaiah.x.x.x.x.x.x.x.xagajak.pQtQt",
"QtQtQtQtalaman.0.x.x.x.x.x.x.x.x.x.x.x.x.x.x.x.x.0anaoapQtQtQtQt",
"QtQtQtQtaqaparas.0.x.x.x.x.x.x.x.x.x.x.x.x.x.x.xatarapaqQtQtQtQt",
"QtQtQtQtQtQtauavawaxay.F.x.x.x.x.x.x.x.x.x.x.x.xazaAaqQtQtQtQtQt",
"QtQtQtQtQtQt.paBaCaDaEaFaGaH.x.x.x.xaIaJ.x.x.x.xaKaLaMQtQtQtQtQt",
"QtQtQtQtQtQtQtQtQtaNaOaPaQaRaSaTaTaSaUaVaWaX.x.xaYaZa0QtQtQtQtQt",
"QtQtQtQtQtQtQtQtQtQtQta1a2a3a4a5a5a4a6a7a8a9b..xb##hbaQtQtQtQtQt",
"QtQtQtQtQtQtQtQtQtQtQtQtQtQtQtQtQtQtQtQtbbbcbdbebfbg.iQtQtQtQtQt",
"QtQtQtQtQtQtQtQtQtQtQtQtQtQtQtQtQtQtQtQtQtbh.ebibjbkblQtQtQtQtQt"};
