/* XPM */
static char *dummy[]={
"32 32 216 2",
"Qt c None",
".Z c #000001",
".V c #000102",
".m c #000305",
".f c #000405",
"#b c #00080b",
"bp c #000a0f",
"#C c #000c11",
".n c #000c12",
".0 c #00131c",
".6 c #001f2e",
".b c #002739",
".# c #002f45",
".w c #003148",
".g c #00364f",
".l c #00374f",
"bh c #004464",
".a c #004869",
"#l c #004a6c",
"#r c #004c6f",
"bq c #005278",
".5 c #005c86",
".1 c #005e89",
"#s c #005f8b",
".o c #00618c",
".v c #00628d",
"#B c #00618e",
".W c #00628f",
".x c #006492",
"bd c #006b9d",
".c c #006ea0",
"aa c #006fa3",
"#D c #0070a3",
"#K c #0070a4",
"#R c #0071a4",
".y c #0072a5",
".I c #0073a5",
".z c #0073a6",
".H c #0074a6",
".7 c #0071a5",
"br c #0073a9",
"#c c #0179af",
".h c #0087c4",
".4 c #0091d1",
".2 c #0093d4",
".A c #0095d6",
".G c #0096d6",
".p c #119edd",
".u c #15a0dd",
"#t c #0399dc",
"#N c #03a4e5",
"bs c #0a99db",
"#A c #0b9dde",
".J c #0e9ddd",
".U c #0e9dde",
".B c #11a3e2",
"bt c #149ddc",
"bu c #149ddd",
"bv c #149edd",
"bi c #159ddc",
".F c #15a5e3",
".d c #18a0de",
"bj c #1ba0dd",
"#i c #1da1de",
"#k c #1da2df",
".8 c #1fa5e0",
"## c #1fa8e3",
"aM c #21b8ef",
"bb c #26a4df",
"#m c #26a6e0",
"#a c #26a8e1",
"#u c #26aae3",
"a5 c #26aae4",
"#F c #26ade6",
"a1 c #26afe7",
"aW c #26b2ea",
"#S c #26b3ea",
"#Y c #26b6ed",
"#5 c #26b8ee",
"ad c #27baf0",
"#q c #28a7e1",
"aK c #29baf0",
"ap c #2abbf0",
"#H c #2db3e9",
"aF c #2ebef1",
".i c #31ace3",
".9 c #34afe5",
"av c #35c1f1",
"#I c #37b4e8",
"aG c #37c0f1",
"ba c #39ace2",
"a7 c #39aee3",
"a4 c #39b1e5",
"#z c #39b1e6",
"aY c #39b5e9",
"aU c #39b9eb",
"#V c #39baec",
"aP c #39bcee",
"#1 c #39bdef",
"a# c #39bff0",
"aC c #3ac1f2",
"al c #3bc0f1",
".e c #3caee3",
"ay c #3dc1f1",
"bk c #3eaee2",
"#G c #3fb9ea",
"#d c #44b2e4",
"#h c #44b2e5",
"ai c #45c7f3",
".X c #46b5e6",
"as c #47c6f2",
"#E c #4ab6e6",
".K c #4db8e7",
"ah c #4dcaf3",
"ag c #4fcaf3",
".C c #51bdeb",
"aA c #54b8e6",
"an c #54b9e7",
"ab c #54bae7",
".T c #54bae8",
".Y c #54bbe8",
".3 c #54bce9",
"#. c #54beea",
"#g c #54beeb",
"#f c #54bfeb",
".D c #54bfec",
".E c #54c0ec",
"#o c #54c1ed",
"#w c #54c2ee",
"#O c #54c3ee",
"bf c #62bde8",
"a9 c #62c0ea",
"#M c #62c5ed",
"a0 c #62c6ef",
"#X c #62c9f0",
"ac c #62ccf3",
"be c #64bee8",
"a8 c #64c1ea",
"aZ c #64c6ee",
"#2 c #64caf1",
"aQ c #64ccf3",
"am c #64cdf3",
"aB c #64cef4",
"aH c #66cef4",
"aE c #6ad1f5",
"aD c #6cd1f5",
"bg c #70c3ea",
"#J c #74c7ec",
"aS c #7ec9ec",
"aI c #7ecaec",
"az c #7ecaed",
"#Q c #7ecbed",
".L c #7ecdee",
".M c #7ecdef",
".S c #7eceef",
".N c #7ecef0",
".O c #7ecff0",
".P c #7ecff1",
".Q c #7ed0f1",
".R c #7ed0f2",
"#x c #7ed1f2",
"#P c #7ed2f2",
"aV c #7ed2f3",
"#4 c #7ed4f4",
"ao c #7fd6f6",
"aL c #81d7f6",
".q c #89d0ef",
".t c #89d0f0",
"at c #89dbf7",
"#8 c #a4e4f9",
"aN c #b1e5f9",
"bl c #b4dff4",
"bc c #b8e1f4",
"a6 c #b8e2f5",
"aX c #b8e5f7",
"#T c #b8e6f8",
"#6 c #b8e8f9",
"aq c #b9e8fa",
".j c #bbe3f5",
"#n c #bbe3f6",
"aw c #bbeafa",
"#j c #bde4f5",
"bm c #bfe4f5",
"bn c #bfe4f6",
"bo c #bfe5f6",
"aJ c #c4ebfa",
"#p c #c7e9f7",
"b# c #cfebf7",
"a3 c #cfebf8",
"aT c #cfedf9",
"#U c #cfeefa",
"a. c #cfeffb",
"ax c #d0f0fb",
"ar c #d1f0fc",
"b. c #d4edf8",
"#v c #d4eef9",
"a2 c #d4eefa",
"aR c #d4f0fa",
"#Z c #d4f1fb",
"ae c #d5f1fb",
"aj c #d7f2fc",
"#9 c #dcf4fc",
"#7 c #dff5fc",
".k c #e6f4fb",
"#e c #e9f6fb",
"#y c #e9f6fc",
"aO c #e9f7fc",
"#0 c #e9f7fd",
"ak c #eaf8fd",
"af c #ebf8fd",
".r c #f0f9fd",
"#L c #f4fafd",
"#W c #f4fbfd",
"#3 c #f4fbfe",
"au c #f5fcfe",
".s c #ffffff",
"QtQtQtQtQtQtQtQtQtQtQtQtQtQtQtQtQtQtQtQtQtQtQtQtQtQtQtQtQtQtQtQt",
"QtQtQtQtQtQtQtQtQtQtQtQtQtQt.#.a.a.#QtQtQtQtQtQtQtQtQtQtQtQtQtQt",
"QtQtQtQtQtQtQtQtQtQtQtQt.b.c.d.e.e.d.c.bQtQtQtQtQtQtQtQtQtQtQtQt",
"QtQtQtQtQtQtQtQtQtQt.f.g.h.i.j.k.k.j.i.h.l.fQtQtQtQtQtQtQtQtQtQt",
"QtQtQtQtQtQtQt.m.n.n.o.p.q.r.s.s.s.s.r.t.u.v.n.n.mQtQtQtQtQtQtQt",
"QtQtQtQtQtQt.w.x.y.z.A.B.C.D.E.E.E.E.D.C.F.G.H.I.x.wQtQtQtQtQtQt",
"QtQtQtQtQt.w.J.K.L.M.N.O.P.Q.Q.R.R.Q.Q.P.O.N.S.L.T.U.wQtQtQtQtQt",
"QtQtQtQt.V.W.X.r.s.s.s.s.s.s.s.s.s.s.s.s.s.s.s.s.r.Y.oQtQtQtQtQt",
"QtQt.Z.0.1.2.3.s.s.s.s.s.s.s.s.s.s.s.s.s.s.s.s.s.s.M.4.5.0.ZQtQt",
"QtQt.6.7.8.9#..s.s.s.s.s.s.s.s.s.s.s.s.s.s.s.s.s.s.N###a.7.6QtQt",
"Qt#b#c#d#e.S#f.s.s.s.s.s.s.s.s.s.s.s.s.s.s.s.s.s.s.O#g#e#h#c#bQt",
"Qt.w#i#j.s.N.E.s.s.s.s.s.s.s.s.s.s.s.s.s.s.s.s.s.s.Q.D.s#j#k.wQt",
"Qt#l#m#n.s.P#o.s.s.s.s.s.s.s.s.s.s.s.s.s.s.s.s.s.s.Q.E.s#p#q#rQt",
".m#s#t#u#v.Q#w.s.s.s.s.s.s.s.s.s.s.s.s.s.s.s.s.s.s#x#o#y#z#A#B.m",
"#C#D#E.M#F#G#w.s.s.s.s.s.s.s.s.s.s.s.s.s.s.s.s.s.s#x#H#I.M#J#K#C",
"#C#K.T#L#M#N#O.s.s.s.s.s.s.s.s.s.s.s.s.s.s.s.s.s.s#P#N#M#L#Q#R#C",
"#C#K.T.s#L.R#S#T.s.s.s.s.s.s.s.s.s.s.s.s.s.s.s.s#U#V#x#L.s#Q#R#C",
"#C#K.T.s.s#W#X#Y#Z.s.s.s.s.s.s.s.s.s.s.s.s.s.s#0#1#2#W.s.s#Q#R#C",
"#C#K.T.s.s.s#3#4#5#6.s.s.s.s#7#8#8#9.s.s.s.sa.a##4#3.s.s.s#Q#K#C",
"#Caaab.s.s.s.s#3acadae.s.safagahahaiaj.s.sakalam#3.s.s.s.s#Q#K#C",
"#Caaan.s.s.s.s.s#3aoapaqarasatauauatavawaxayao#3.s.s.s.s.sazaa#C",
"#CaaaA.s.s.s.s.s.s#3aBapaCaD#3.s.s#3aEaFaGaH#3.s.s.s.s.s.saIaa#C",
"#CaaaA.s.s.s.s.s.s.saJaKaL#3.s.s.s.s#3aLaMaN.s.s.s.s.s.s.saIaa#C",
"#CaaaA.s.s.s.s.s.saOaPaQ#3.s.s.s.s.s.s#3ac#YaR.s.s.s.s.s.saSaa#C",
"#CaaaA.s.s.s.s.saTaUaV#3.s.s.s.s.s.s.s.s#3aVaWaX.s.s.s.s.saSaa#C",
"#CaaaA.s.s.s.s#yaYaZ#W.s.s.s.s.s.s.s.s.s.s#Wa0a1a2.s.s.s.saSaa#C",
"#CaaaA.s.s.sa3a4.S#L.s.s.s.s.s.s.s.s.s.s.s.s#L.Sa5a6.s.s.saSaa#C",
"#CaaaA.s.s#ea7a8#L.s.s.s.s.s.s.s.s.s.s.s.s.s.s#La9#mb..s.saSaa#C",
"#CaaaA.sb#baaS#L.s.s.s.s.s.s.s.s.s.s.s.s.s.s.s.s#LaSbbbc.saSaa#C",
"#bbdaA#ebabe#L.s.s.s.s.s.s.s.s.s.s.s.s.s.s.s.s.s.s#Lbfbbb.bgbd#b",
"QtbhbibjbkblbmbmbmbmbmbmbmbnbobobobobnbmbmbmbmbmbmbmblbkbibibhQt",
"QtbpbqbrbsbtbtbtbtbtbtbtbububvbvbvbvbububtbtbtbtbtbtbtbsbrbqbpQt"};
