/* XPM */
static char *dummy[]={
"32 32 273 2",
"Qt c None",
"au c #000101",
"am c #000102",
"aH c #000202",
"an c #000203",
"cj c #000204",
"bR c #000406",
"aB c #000607",
"ba c #000609",
"at c #00080b",
"#b c #00080b",
"aN c #00080c",
"bD c #000b0f",
"bb c #000d13",
"b# c #000e13",
"a2 c #010e13",
"aV c #010f13",
".g c #000c12",
".# c #000e15",
"bj c #001219",
"aL c #00141d",
"aX c #00141e",
"al c #001722",
"aI c #001822",
"ao c #001923",
"b6 c #001a25",
"aG c #001b26",
"aO c #001c27",
"bg c #001f2c",
"ck c #001d2b",
"bo c #00202d",
"aC c #02242f",
".X c #00202f",
"as c #022836",
".1 c #002232",
"#h c #002435",
"#l c #002536",
".z c #002637",
".7 c #00293c",
".T c #002a3c",
".I c #002a3d",
".h c #002c40",
".q c #002f43",
"by c #003349",
"#a c #003248",
"aM c #003249",
"aW c #003349",
"bI c #00334a",
".r c #00374f",
"aQ c #014159",
"co c #003a55",
"ca c #003c58",
"#m c #004565",
"#q c #004667",
".O c #004a6b",
".S c #004c6d",
".d c #004e71",
".i c #005175",
"bi c #005a7e",
"ci c #00577e",
"b0 c #005e85",
"aP c #006c94",
"av c #117698",
"c# c #00648e",
"cl c #00618d",
"aA c #127b9e",
"#c c #006492",
"bu c #00719c",
"bk c #00739e",
"bc c #03759f",
"a7 c #06779f",
"a3 c #09789f",
"aY c #0d7aa0",
"aR c #0f7ba0",
"#3 c #0f7da1",
"a. c #107da2",
"#V c #006e9b",
"#W c #00709c",
"ae c #00719d",
"bE c #00729e",
".2 c #006797",
".6 c #006897",
"#g c #006998",
"bQ c #00729f",
"aJ c #006c9b",
".A c #006c9d",
"bM c #0073a2",
"#2 c #0c82ab",
"a# c #0d82ab",
"#r c #006c9d",
"#u c #006c9e",
"b1 c #006d9e",
".s c #006fa0",
"ak c #0070a1",
".a c #006ea0",
".H c #0071a3",
"bt c #007bab",
"bh c #007dad",
"bH c #007dae",
"bx c #007fb0",
"ap c #0080b0",
"bn c #0082b1",
"bf c #0384b2",
"b. c #0886b3",
"a6 c #0b87b3",
"a1 c #0e89b3",
"aU c #118bb4",
".c c #0073a7",
"aF c #0083b4",
".j c #007bb0",
".p c #007db3",
"#U c #0082b8",
"af c #0082b9",
"#X c #008abf",
".Y c #0082bc",
"#4 c #18a0cd",
"#9 c #18a1cd",
"cb c #0081bd",
".0 c #0084bf",
"bp c #008bc5",
"#1 c #0a9ccf",
"aa c #0b9ccf",
"cm c #0082be",
".J c #0087c2",
"#v c #0084c2",
"bN c #0094cf",
"#i c #008ac8",
"ai c #0089c8",
"#Q c #008ac8",
"#k c #008bca",
".t c #0090cf",
"cn c #008dce",
"bS c #0091d1",
".y c #0093d3",
".U c #0392d1",
".k c #0095d5",
".P c #0395d5",
".o c #0097d9",
"ch c #0697d7",
"#T c #069ada",
"#Y c #06a8e5",
"ad c #06a9e6",
"b5 c #0a9edc",
"bC c #06a5e4",
".b c #0a98d8",
"bz c #009ddf",
"#n c #149fdd",
".3 c #23a6e0",
".5 c #31ace3",
"#R c #0095da",
"ah c #0096db",
"bJ c #009bdf",
"aK c #069cde",
"aj c #0a9cde",
"aD c #0bb2ee",
"b7 c #0c9adc",
"ar c #0cb2ef",
"aq c #12b3ee",
".8 c #13a0df",
"#p c #14a0df",
"## c #14a1e0",
"aE c #15b4ef",
".B c #18a5e1",
".G c #18a5e2",
"c. c #1ca7e2",
"bL c #21aee7",
".e c #23a6e1",
".u c #23aae4",
"bs c #23b3eb",
"#5 c #24bff2",
"#8 c #25c0f2",
"aw c #2bc1f2",
"cc c #2da8e0",
".K c #31aee5",
".N c #31afe5",
"az c #32c3f2",
"bW c #34b4e9",
"bZ c #3fb9eb",
"ab c #40c3f2",
"#0 c #41c3f2",
".l c #46b7e8",
"bq c #4abdec",
"cg c #4db7e7",
"#d c #4fb9e7",
"ax c #4fccf4",
"ay c #53cdf4",
".n c #54bde9",
"#z c #54c1ed",
"#A c #54c3ee",
"#O c #54c3ef",
"bF c #54c5f0",
"bv c #54c7f2",
"bl c #55c9f3",
"#s c #58bbe8",
"#f c #58bce9",
".C c #58beea",
"bd c #58caf4",
"b2 c #59bce8",
"a8 c #5cccf4",
"a4 c #5fcef4",
"#t c #62c0e9",
"ag c #62c0ea",
".V c #62c1eb",
".W c #62c2eb",
"bP c #62c8f0",
"aZ c #63d0f5",
"#G c #64d0f5",
"#L c #65d1f5",
"#S c #66c1ea",
"bX c #66c7ef",
"aS c #66d1f5",
".v c #6dc6ed",
"#F c #6ed2f5",
"#M c #6ed3f5",
".Z c #74c8ed",
"br c #74cef2",
"b8 c #76c6eb",
".Q c #77caee",
"bG c #7ed3f4",
"bw c #7ed5f5",
"#6 c #7fdaf6",
"bm c #80d6f6",
"#H c #80d9f6",
"#K c #81daf7",
"cd c #82cbec",
"be c #82d7f6",
"#7 c #82dbf7",
"a9 c #85d9f6",
"a5 c #87daf6",
"#w c #8acfee",
"a0 c #8adbf7",
"aT c #8cdcf7",
"#P c #8dd1ef",
"#y c #90d5f2",
"#B c #90d9f5",
"bO c #97daf5",
"b4 c #98d8f3",
"cf c #9bd6f0",
"bB c #9bdcf5",
"#Z c #9cdff7",
"ac c #9edff8",
".f c #9fd8f1",
".w c #9fdaf3",
"bV c #a1dcf4",
"#E c #a7e4f9",
"#N c #a8e4f9",
"ce c #aadcf3",
".9 c #b6e1f5",
"#. c #b7e2f5",
".x c #b7e4f6",
".L c #bbe4f6",
"#j c #bee5f6",
"b9 c #bee6f6",
".m c #bfe6f7",
"bK c #cbecf9",
"bT c #d0ecf8",
".D c #d0ecf9",
"#I c #d0f1fc",
"#x c #dff2fb",
"#C c #dff4fc",
".4 c #e9f6fc",
"bA c #e9f7fc",
".R c #edf8fc",
"bY c #edf8fd",
"b3 c #eff8fc",
"#e c #f2fafd",
".M c #f4fafd",
"bU c #f6fbfe",
"#o c #f7fcfd",
"#D c #f7fcfe",
".E c #fbfdfe",
"#J c #fbfefe",
".F c #ffffff",
"QtQtQtQtQtQtQtQtQtQtQtQtQt.#.a.b.b.c.#QtQtQtQtQtQtQtQtQtQtQtQtQt",
"QtQtQtQtQtQtQtQtQtQtQtQtQt.d.e.f.f.e.dQtQtQtQtQtQtQtQtQtQtQtQtQt",
"QtQtQtQtQtQtQtQtQt.g.h.i.j.k.l.m.m.n.o.p.i.q.gQtQtQtQtQtQtQtQtQt",
"QtQtQtQtQtQtQtQt.r.s.t.u.v.w.x.m.m.x.w.v.u.y.s.rQtQtQtQtQtQtQtQt",
"QtQtQtQtQtQt.z.A.B.C.D.E.F.F.F.F.F.F.F.F.E.D.C.G.H.zQtQtQtQtQtQt",
"QtQtQtQtQt.I.J.K.L.M.F.F.F.F.F.F.F.F.F.F.F.F.M.L.N.J.IQtQtQtQtQt",
"QtQtQtQt.O.P.Q.R.F.F.F.F.F.F.F.F.F.F.F.F.F.F.F.F.R.Q.P.SQtQtQtQt",
"QtQtQt.T.U.V.M.F.F.F.F.F.F.F.F.F.F.F.F.F.F.F.F.F.F.M.W.P.IQtQtQt",
"QtQt.X.Y.Z.M.F.F.F.F.F.F.F.F.F.F.F.F.F.F.F.F.F.F.F.F.M.Q.0.1QtQt",
"QtQt.2.3.4.F.F.F.F.F.F.F.F.F.F.F.F.F.F.F.F.F.F.F.F.F.F.R.5.6QtQt",
"Qt.7.8.9.F.F.F.F.F.F.F.F.F.F.F.F.F.F.F.F.F.F.F.F.F.F.F.F#.###aQt",
"#b#c#d#e.F.F.F.F.F.F.F.F.F.F.F.F.F.F.F.F.F.F.F.F.F.F.F.F.M#f#g#b",
"#h#i#j.F.F.F.F.F.F.F.F.F.F.F.F.F.F.F.F.F.F.F.F.F.F.F.F.F.F#j#k#l",
"#m#n#o.F.F.F.F.F.F.F.F.F.F.F.F.F.F.F.F.F.F.F.F.F.F.F.F.F.F#o#p#q",
"#r#s.F.F.F.F.F.F.F.F.F.F.F.F.F.F.F.F.F.F.F.F.F.F.F.F.F.F.F.F#t#u",
"#v#w#x#y#z#A#B#C.F#D#E#F#G#H#I#J#J#I#K#L#M#N#D.F#C#B#O#z#y#x#P#Q",
"#R#S#T#U#V#W#X#Y#Z#0#1#2#3#4#5#6#7#8#9a.a#aaabacad#Xae#Vaf#Tagah",
"aiajakalamanaoapaqarasatauavawaxayazaAaBataCaDaEaFaGanaHaIaJaK#Q",
"aLaMaNQtQtQtQtaOaPaQQtQtQtaRaS.F.FaTaUaVQtQtaQaPaOQtQtQtQtaNaWaX",
"QtQtQtQtQtQtQtQtQtQtQtQtQtaYaZ.F.Fa0a1a2QtQtQtQtQtQtQtQtQtQtQtQt",
"QtQtQtQtQtQtQtQtQtQtQtQtQta3a4.F.Fa5a6a2QtQtQtQtQtQtQtQtQtQtQtQt",
"QtQtQtQtQtQtQtQtQtQtQtQtQta7a8.F.Fa9b.b#QtQtQtQtQtQtQtQtQtQtQtQt",
"QtQtQtQtQtQtQtQtbabbanQtQtbcbd.F.Fbebfb#QtQtQtQtQtQtQtQtQtQtQtQt",
"QtQtQtQtQtQtQtbg#WbhbibjQtbkbl.F.Fbmbnb#QtQtQtQtQtQtQtQtQtQtQtQt",
"QtQtQtQtQtQtbobpbqbrbsbtQtbubv.F.FbwbxbbQtQtQtQtQtQtQtQtQtQtQtQt",
"QtQtQtQtQtQtbybzbA.FbBbCbDbEbF.F.FbGbHbbQtQtQtQtQtQtQtQtQtQtQtQt",
"QtQtQtQtQtQtbIbJ.E.FbKbLbMbNbO.F.FbPbQbRQtQtQtQtQtQtQtQtQtQtQtQt",
"QtQtQtQtQtQt.IbSbT.FbUbVbWbXbY.FbAbZb0QtQtQtQtQtQtQtQtQtQtQtQtQt",
"QtQtQtQtQtQt.gb1b2b3.F.F.F.F.F.Fb4b5b6QtQtQtQtQtQtQtQtQtQtQtQtQt",
"QtQtQtQtQtQtQt.7b7b8.F.F.F.F.Fb9c.c#QtQtQtQtQtQtQtQtQtQtQtQtQtQt",
"QtQtQtQtQtQtQtQtcacbcccdcecfcgchci.gQtQtQtQtQtQtQtQtQtQtQtQtQtQt",
"QtQtQtQtQtQtQtQtcjckclcm#Rcn#ucobaQtQtQtQtQtQtQtQtQtQtQtQtQtQtQt"};
