/* XPM */
static char *dummy[]={
"32 32 258 2",
"Qt c None",
".F c #000202",
".N c #000203",
".e c #000305",
"aD c #000609",
"#w c #000709",
"#e c #00080b",
"bY c #00080c",
"b4 c #00090d",
".f c #000a0f",
".n c #000c11",
"aC c #000d13",
".C c #001119",
"bR c #001018",
"#f c #00131a",
"#o c #00121b",
".X c #00141d",
"bq c #00131c",
"#v c #00151e",
"#N c #00161f",
"ab c #001822",
"b5 c #001824",
"bJ c #001b26",
"bx c #001c27",
"bg c #011d27",
"aM c #031e27",
".E c #001d28",
"c# c #001e2d",
".7 c #002331",
"bh c #002130",
"bQ c #002433",
".B c #002333",
".# c #002536",
".6 c #002637",
"bD c #002e40",
"bp c #013041",
"ax c #043242",
"aU c #053342",
"ay c #013345",
"#p c #023345",
".d c #002d42",
".D c #003145",
".M c #002f45",
".W c #003047",
".O c #003b53",
"b3 c #003b56",
"c. c #004363",
"bK c #004666",
"by c #004768",
"aB c #005374",
"a2 c #004f70",
"aN c #005374",
"ap c #015776",
"#x c #065a77",
"#4 c #075a77",
"#O c #0a5b77",
"ao c #005476",
"b. c #005175",
".g c #005075",
".a c #005278",
".w c #00587e",
".o c #00557c",
".G c #005a80",
"#V c #005f85",
".c c #005a85",
"aV c #00638c",
"aE c #00698f",
"ac c #066d91",
"#E c #0b6f92",
"#W c #0b7092",
"#d c #005d88",
"az c #006f97",
"bX c #00638e",
".b c #006391",
".m c #006b9d",
"#u c #006f9f",
"#M c #0077a8",
"bS c #0073a9",
".Y c #0082b5",
"aA c #0085b7",
"#g c #0187b8",
"bP c #007bb0",
"br c #0076ad",
"#3 c #0084b9",
"aa c #0086bc",
"#n c #007cb5",
"#D c #0084bb",
".S c #008ac2",
"bI c #008ac2",
"b6 c #0080bb",
"bC c #008fc7",
"bw c #0092ca",
"bo c #0296cc",
"bf c #0699cd",
"aj c #0b9bce",
"a9 c #0c9cce",
"aw c #0f9dce",
"a1 c #109ece",
"aL c #129fce",
"b9 c #0082be",
".8 c #0096ce",
".A c #0086c4",
"ak c #059fd7",
"b2 c #0189c7",
".5 c #0089c9",
"bE c #068fce",
"bW c #008fd1",
".p c #0692d2",
".H c #0699d8",
"bi c #0a97d5",
".P c #0aa4e1",
"bz c #0d97d7",
".L c #0092d7",
"b8 c #0695d7",
"b# c #15a3df",
".R c #15a9e5",
"a3 c #23ace5",
"aW c #23afe7",
"aO c #23b4ea",
"aF c #24b7ec",
"aq c #2abaed",
"ad c #2fbcee",
"#F c #32beee",
"#5 c #33bfee",
"#P c #35bfee",
"#X c #36c0ee",
".V c #0094d8",
"bH c #2aafe5",
"#q c #08b2ef",
"an c #0dadea",
".h c #149ddc",
".l c #1ca0dd",
"b7 c #1ca0de",
"b1 c #1da1de",
".x c #1da5e1",
".T c #1dade7",
"#c c #23a3df",
"#m c #23a6e0",
"#t c #23aae3",
"#C c #23ade6",
"#L c #23b1ea",
".2 c #23b2ea",
"bO c #26abe3",
".Q c #26b2e9",
"bv c #2ab7ed",
"al c #2cbbf0",
".v c #2da8e0",
"#y c #2ebef1",
"be c #2fbdf1",
"bL c #31a9e0",
"ai c #39c2f2",
"a0 c #3ac3f2",
"aK c #3ec5f3",
"#9 c #41c4f2",
".i c #46b2e4",
"bB c #46beec",
"am c #46c2f0",
"bn c #46c3f1",
"a8 c #50c9f3",
"#r c #57caf4",
"av c #57ccf4",
"aT c #57cdf4",
".k c #58b9e6",
"bV c #59bae7",
"#h c #5acaf3",
"#S c #5fcff4",
"bs c #66c0e9",
"bl c #66c6ee",
"a. c #67cff4",
".Z c #6dcdf2",
"a6 c #6dcef3",
".j c #70c3e9",
"aR c #73d3f5",
"at c #7bd8f6",
"bb c #7ed1f1",
"bc c #7ed2f3",
"aZ c #80d6f6",
"#7 c #80daf6",
"bT c #82caec",
"b0 c #82cbec",
"#1 c #84d8f6",
"a5 c #86d5f4",
"aY c #86d7f6",
"aI c #88daf6",
"bj c #89d1f0",
"aQ c #89d9f6",
"aH c #8cdbf7",
"bF c #8dcfee",
"a# c #8dd7f4",
"#K c #8dd7f5",
"#Z c #8edef7",
"ag c #8fdef7",
"as c #90ddf7",
"#A c #92ddf7",
"#J c #93ddf7",
"af c #93dff8",
"#R c #94def8",
"#Y c #94e0f8",
"#6 c #95e0f8",
"#2 c #9bdcf5",
"bN c #a2daf2",
"#z c #a3e2f9",
".q c #a9dbf2",
".1 c #a9e1f7",
".y c #afdef3",
".I c #afdff4",
".U c #afe1f5",
".3 c #afe2f7",
"ba c #b0e1f6",
"## c #b4e5f8",
"#k c #b4e6f8",
"#H c #b5e8fa",
"#b c #b8e1f4",
"#s c #b8e4f6",
"a4 c #b8e5f7",
"#U c #b8e6f8",
"aP c #b8e8f9",
".u c #bbe3f5",
".9 c #bbe8fa",
"ar c #bbeafa",
".z c #bee4f5",
"#Q c #beebfa",
"aX c #c2eaf9",
"bU c #c4e6f6",
"aG c #c4ecfb",
"bG c #c6e9f8",
"ae c #c7eefb",
"#G c #c8eefb",
"#j c #c9edfa",
"bk c #d0edf9",
".0 c #d0eefa",
"#I c #d3f1fc",
"#l c #d4eef9",
"#B c #d4effa",
"#. c #d4f0fb",
"bM c #dbf0f9",
"bu c #dbf2fb",
"bd c #dbf3fc",
"#T c #ddf4fc",
"ah c #def5fc",
"bm c #dff3fb",
"a7 c #dff4fc",
"au c #dff5fc",
"aS c #e1f5fc",
"aJ c #e1f6fc",
"bA c #e2f3fa",
"#0 c #e2f6fd",
"#8 c #e3f6fd",
"bZ c #e9f6fb",
"#i c #eaf8fd",
".r c #f0f9fc",
"bt c #f4fafd",
"#a c #f4fbfe",
".K c #f7fbfd",
".J c #f9fcfe",
".4 c #f9fdfe",
".t c #fbfdfe",
".s c #ffffff",
"QtQtQtQtQtQtQtQtQtQtQtQtQtQtQtQtQtQtQtQtQtQtQtQtQtQtQtQtQtQtQtQt",
"QtQtQtQtQtQtQtQtQtQtQtQtQtQtQtQtQtQtQtQtQtQtQtQt.#.a.b.c.d.eQtQt",
"QtQtQtQtQtQtQtQtQtQtQtQtQtQtQtQtQtQtQtQtQtQt.f.g.h.i.j.k.l.m.nQt",
"QtQtQtQtQtQtQtQtQtQtQtQtQtQtQtQtQtQtQtQtQtQt.o.p.q.r.s.t.u.v.a.e",
"QtQtQtQtQtQtQtQtQtQtQtQtQtQtQtQtQtQtQtQt.f.w.x.y.s.s.s.s.s.z.A.B",
"QtQtQtQtQtQtQtQtQtQtQtQtQtQtQtQt.C.D.E.F.G.H.I.J.s.s.s.s.s.K.L.M",
"QtQtQtQtQtQtQtQtQtQtQtQtQtQt.N.O.P.Q.R.S.T.U.s.s.s.s.s.s.s.K.V.W",
"QtQtQtQtQtQtQtQtQtQtQtQtQtQt.X.Y.Z.0.1.2.3.4.s.s.s.s.s.s.s.z.5.6",
"QtQtQtQtQtQtQtQtQtQtQtQtQtQt.7.8.9.s.s#.###a.s.s.s.s.s.s#b#c#d#e",
"QtQtQtQtQtQtQtQtQtQtQtQtQtQt#f#g#h#i.s.s#j#k.s.s.s.s.s#l#m#n#oQt",
"QtQtQtQtQtQtQtQtQtQtQtQtQtQtQt#p#q#r#i.s.s#.#k#a.s.s#s#t#u#vQtQt",
"QtQtQtQtQtQtQtQtQtQtQtQtQtQt#w#x#y#z#A#i.s.s#j#k.s#B#C#D#vQtQtQt",
"QtQtQtQtQtQtQtQtQtQtQtQtQt#w#E#F#G#H#I#J#i.s.s#.#K#L#M#NQtQtQtQt",
"QtQtQtQtQtQtQtQtQtQtQtQt#w#O#P#Q#R#S#a#T#J#i.s.s#U.2#V.FQtQtQtQt",
"QtQtQtQtQtQtQtQtQtQtQt#w#W#X#G#Y#Z#0.s.s#T#1#i.s.s#2#3#NQtQtQtQt",
"QtQtQtQtQtQtQtQtQtQt#w#4#5#Q#6#7#8.s.s.s#T#9a.#i.sa#aaabQtQtQtQt",
"QtQtQtQtQtQtQtQtQt#wacadaeafag#8.s.s.sahaiajakalamanao.NQtQtQtQt",
"QtQtQtQtQtQtQtQt#wapaqarasat#8.s.s.sauavawaxayazaAaBaCQtQtQtQtQt",
"QtQtQtQtQtQtQtaDaEaFaGaHaIaJ.s.s.sauaKaLaMQtQtQtQtQtQtQtQtQtQtQt",
"QtQtQtQtQtQtaDaNaOaPaQaRaS.s.s.sahaTaLaUQtQtQtQtQtQtQtQtQtQtQtQt",
"QtQtQtQtQtaDaVaWaXaYaZau.s.s.s#Ta0a1aMQtQtQtQtQtQtQtQtQtQtQtQtQt",
"QtQtQtQtaDa2a3a4a5a6a7.s.s.s#Ta8a9axQtQtQtQtQtQtQtQtQtQtQtQtQtQt",
"QtQtQtQtb.b#babbbca7.s.s.sbdbebfbgQtQtQtQtQtQtQtQtQtQtQtQtQtQtQt",
"QtQtQtbhbibjbkblbm.s.s.sbdbnbobpQtQtQtQtQtQtQtQtQtQtQtQtQtQtQtQt",
"QtQtbqbrbsbt.s.s.s.s.sbubvbwbxQtQtQtQtQtQtQtQtQtQtQtQtQtQtQtQtQt",
"QtQtbybzbA.s.s.s.s.sbubBbCbDQtQtQtQtQtQtQtQtQtQtQtQtQtQtQtQtQtQt",
"Qt.nbEbF.s.s.s.s.tbGbHbIbJQtQtQtQtQtQtQtQtQtQtQtQtQtQtQtQtQtQtQt",
"QtbKbLbM.s.s.s.sbNbObPbQQtQtQtQtQtQtQtQtQtQtQtQtQtQtQtQtQtQtQtQt",
"bRbSbT.s.s.tbUbVbWbXbYQtQtQtQtQtQtQtQtQtQtQtQtQtQtQtQtQtQtQtQtQt",
"bRbS.kbZbZb0b1b2b3b4QtQtQtQtQtQtQtQtQtQtQtQtQtQtQtQtQtQtQtQtQtQt",
"Qtb5b6b7b8b9bK.nQtQtQtQtQtQtQtQtQtQtQtQtQtQtQtQtQtQtQtQtQtQtQtQt",
"QtQt.#.cc.c#QtQtQtQtQtQtQtQtQtQtQtQtQtQtQtQtQtQtQtQtQtQtQtQtQtQt"};
