/* XPM */
static char *dummy[]={
"32 32 282 2",
"Qt c None",
".# c #000102",
"a3 c #000304",
".j c #000406",
"ct c #00080c",
"bL c #00080c",
"ce c #00090d",
".a c #000a0e",
".b c #000c11",
".i c #000c12",
".o c #000e15",
".f c #000f16",
"bd c #001119",
"ag c #00121a",
"#3 c #00131c",
".u c #001924",
"aO c #001b28",
"cq c #001c2a",
"#G c #00202f",
".B c #002030",
"#S c #002232",
"b0 c #002332",
".C c #002333",
"bU c #002535",
"#o c #002436",
".p c #002536",
".3 c #002738",
"#b c #002739",
"cd c #00283b",
".h c #00293c",
".Y c #002a3d",
"b5 c #002a3e",
".n c #002b3f",
".g c #002c41",
"av c #002d42",
"b1 c #003148",
"aG c #003148",
".P c #003249",
"ck c #00364e",
"ah c #003650",
"cn c #003951",
"aH c #003d5a",
".6 c #00425f",
"#a c #004361",
"aw c #004a6c",
"cf c #004b6e",
"bM c #004e72",
"cr c #005378",
"cs c #005379",
"cx c #005479",
"a4 c #00557a",
"bc c #00557b",
"#T c #00577d",
".e c #00547b",
".c c #005882",
"bo c #005b84",
"bt c #005c84",
"be c #00628c",
"bn c #00628d",
"#w c #005f8b",
".k c #00608c",
".5 c #00618d",
"#p c #006391",
".t c #006693",
"bS c #006895",
".4 c #006492",
"bO c #006a98",
"cu c #006a99",
".d c #006da0",
"af c #006fa1",
"#4 c #006fa2",
"a5 c #0075a7",
".A c #0071a6",
".I c #0077ab",
".q c #0072a8",
"#H c #0077ab",
"#R c #0077ac",
".M c #007cb1",
".v c #007cb3",
"bB c #007bb2",
"#B c #007bb3",
"#F c #007cb4",
".7 c #0080b7",
"aP c #007cb5",
"a2 c #007db5",
"## c #0082b9",
"cl c #0085be",
"bw c #0080bc",
"bR c #0089c2",
"bP c #008bc5",
"c# c #008bc6",
"#n c #0085c2",
"bZ c #008bc8",
"cb c #008eca",
"#c c #0087c4",
".D c #0087c5",
"bV c #008dcb",
"cj c #038ecc",
".2 c #008fcd",
".J c #0092d1",
"cc c #008dcd",
"bC c #008dcf",
"bK c #008ecf",
".s c #008fcf",
"bN c #0091d1",
".Z c #0092d2",
"b6 c #008fd0",
".z c #008fd2",
"bv c #0091d1",
".r c #0090d3",
"ca c #0099da",
"au c #0093d5",
"bT c #0095d7",
"ai c #0093d6",
"bp c #149fdc",
"#x c #0093d7",
"#A c #0094d7",
"b2 c #0098dc",
"b4 c #0099dc",
"bu c #0096db",
"ax c #0097db",
".Q c #0097dc",
".X c #0098dc",
".U c #009fe2",
".W c #00a0e2",
".V c #00a0e3",
"#g c #03a0e3",
"#j c #03a1e3",
"bG c #06a3e3",
"cg c #0a9adc",
"cp c #0a9bdc",
"a6 c #0aa6e5",
"bb c #0aa7e6",
"#5 c #13a1e0",
"ae c #13a2e0",
"am c #15b8f0",
"as c #15b9f0",
"#Y c #16b8f0",
"#0 c #16b9f0",
"#Z c #17b9f0",
"a9 c #18b9f0",
"aX c #18baf0",
"b. c #18baf1",
"ba c #19b9f0",
"aZ c #19baf0",
"b# c #19baf1",
"bf c #1aa8e4",
"bm c #1aa9e5",
"an c #1abaf0",
"ar c #1abbf1",
"a# c #1bbbf1",
"az c #1bbcf1",
"#f c #1ca8e3",
"#k c #1ca8e4",
"aE c #1cbcf1",
"aY c #1dbcf1",
"aa c #1dbdf1",
"aW c #1ebbf0",
"ao c #1fbdf1",
"aq c #1fbef1",
"a. c #20bbf0",
"aK c #20bef1",
"aA c #21bef2",
"ap c #22bff1",
"aD c #22bff2",
"b3 c #23aee7",
"#U c #23aee8",
"#2 c #23afe8",
".l c #24a6e1",
".H c #24aae3",
".N c #24aae4",
"aL c #24c0f2",
"aM c #25c0f2",
"aQ c #26a9e2",
"a1 c #26a9e3",
"aB c #26c1f2",
"aC c #27c1f2",
"bk c #29bef1",
"#q c #2aa7e1",
"#v c #2aa8e1",
"bl c #2abef1",
"#6 c #2faee5",
"ad c #2fafe5",
"bH c #2fb4e9",
"bJ c #2fb4ea",
"#X c #32c0f1",
"#1 c #32c1f1",
"ci c #34ade4",
"co c #34aee4",
"#I c #34b2e7",
"#N c #36c2f1",
"#O c #37c2f1",
"c. c #38b2e7",
"bF c #38b3e7",
"#h c #38b6ea",
"ch c #3cb0e3",
"bj c #3cc4f2",
"#C c #3fb2e5",
"#E c #3fb3e6",
"cv c #42b3e5",
"#d c #4ab5e6",
"#m c #4ab6e6",
"#e c #4ab7e7",
"#l c #4ab7e8",
"#7 c #4abbea",
"ac c #4abceb",
"bx c #5bbce8",
"bA c #5bbde8",
"bQ c #5dc3ed",
".1 c #5dc4ee",
".E c #5fbde8",
"aR c #5fc1eb",
"#M c #64d0f4",
"#P c #65d0f4",
"#t c #69c9f0",
"#8 c #70cbf0",
"ab c #70ccf0",
".m c #72c5eb",
"a8 c #75d5f5",
".8 c #7bcdf0",
"ay c #85daf6",
"aF c #88daf6",
".w c #8bd1ef",
".y c #8bd1f0",
"aJ c #8bdbf7",
"bD c #8dd1ef",
"bY c #8dd6f3",
"aN c #8fddf7",
".0 c #92d7f3",
"#y c #94d3f0",
"#z c #94d4f0",
"bE c #94d5f1",
"aS c #94d7f2",
"a0 c #94d7f3",
"bg c #96d8f3",
"b7 c #98d5f0",
"#s c #98d8f3",
"#u c #98d9f3",
"bi c #9fe2f8",
"al c #a2e2f8",
"cw c #a6dbf2",
"cm c #a9ddf4",
"by c #ade1f6",
"bz c #ade2f7",
".T c #afe0f5",
"bW c #b4e2f6",
"aT c #b4e4f7",
"#W c #b4e8f9",
"aj c #b6e1f4",
"at c #b6e1f5",
"bX c #bbe6f8",
".G c #bde4f6",
".O c #bde5f6",
"#J c #c2e8f8",
"bs c #c5edfb",
"#r c #c6e9f8",
".K c #c9eaf8",
"#L c #cbeffb",
"#Q c #cceffb",
"a7 c #d0eefa",
".F c #d4edf8",
"b9 c #d4eef9",
"aV c #d7f2fc",
"ak c #d9f0fa",
"bI c #d9f1fb",
"br c #d9f3fc",
"#V c #dbf2fb",
"#i c #e2f4fc",
"b8 c #e6f5fb",
"#D c #e9f6fc",
"#9 c #e9f7fc",
"#. c #ebf8fd",
".R c #f4fafd",
"aU c #f4fbfd",
"bh c #f4fbfe",
".9 c #f6fbfe",
"aI c #f7fbfd",
".S c #f9fcfe",
"bq c #f9fdfe",
"#K c #fafdfe",
".x c #fdfefe",
".L c #ffffff",
"QtQtQtQtQtQtQtQtQtQtQtQtQtQt.#.a.a.#QtQtQtQtQtQtQtQtQtQtQtQtQtQt",
"QtQtQtQtQtQtQtQtQtQtQtQtQt.b.c.d.d.e.bQtQtQtQtQtQtQtQtQtQtQtQtQt",
"QtQtQtQtQtQtQtQt.f.g.h.i.j.k.l.m.m.l.k.j.i.h.n.oQtQtQtQtQtQtQtQt",
"QtQtQtQtQtQtQt.p.q.r.s.t.u.v.w.x.x.y.v.u.t.s.z.A.BQtQtQtQtQtQtQt",
"QtQtQtQtQtQt.C.D.E.F.G.H.I.J.K.L.L.K.J.M.N.O.F.E.D.CQtQtQtQtQtQt",
"QtQtQtQtQtQt.P.Q.R.L.S.T.U.V.R.L.L.R.V.W.T.S.L.R.X.PQtQtQtQtQtQt",
"QtQtQtQtQtQt.Y.Z.K.L.L.L.0.1.L.L.L.L.1.0.L.L.L.K.2.3QtQtQtQtQtQt",
"QtQtQt.p.4.5.6.7.8.L.L.L.9#..L.L.L.L#..9.L.L.L.8###a.5.4.pQtQtQt",
"QtQt#b#c#d#e#f#g#h#i.L.L.L.L.L.L.L.L.L.L.L.L#i#h#j#k#l#m#n#oQtQt",
"QtQt#p#q.R.R#r#s#t#i.L.L.L.L.L.L.L.L.L.L.L.L#i#t#u#r.R.R#v#wQtQt",
"QtQt#x#y.L.L.L.L.L.L.L.L.L.L.L.L.L.L.L.L.L.L.L.L.L.L.L.L#z#AQtQt",
"QtQt#B#C#D.L.L.L.L.L.L.L.L.L.L.L.L.L.L.L.L.L.L.L.L.L.L#D#E#FQtQt",
"QtQt#G#H#I#J.L.L.L.L.L.L#K#L#M#N#O#P#Q#K.L.L.L.L.L.L#J#I#R#GQtQt",
"QtQt#S#T.U#U#V.L.L.L.L.L#W#X#Y#Z#Z#0#1#W.L.L.L.L.L#V#2.U#T#SQtQt",
"#3#4#5#6#7#8#9.L.L.L.L#.a.#Za#aaaaa##Za.#..L.L.L.L#9abacadaeafag",
"ahaiajak.R.L.L.L.L.L.Lalamanaoapapaqarasal.L.L.L.L.L.L.Rakatauav",
"awax.L.L.L.L.L.L.L.L.Lay#0azaAaBaCaDaE#ZaF.L.L.L.L.L.L.L.L.LaxaG",
"aHaxaI.L.L.L.L.L.L.L.LaJ#YaraKaLaMaAaz#ZaN.L.L.L.L.L.L.L.LaIaxaG",
"aOaPaQaRaSaTaU.L.L.L.LaVaWaXaYaoaqaYaZaWaV.L.L.L.LaUaTa0aRa1a2aO",
"a3#Ga4a5.Ua6a7.L.L.L.L.La8a9b.ararb#baa8.L.L.L.L.La7bb.Wa5bc#Ga3",
"QtQtbdbebfbg.L.L.L.L.L.Lbhbibjbkblbjbibh.L.L.L.L.L.LbgbmbnbdQtQt",
"QtQtbobp.Tbq.L.L.L.L.L.L.L.Lbrbsbsbr.L.L.L.L.L.L.L.Lbq.TbpbtQtQt",
"QtQtbu#y.L.L.L.L.L.L.L.L.L.L.L.L.L.L.L.L.L.L.L.L.L.L.L.L#zbvQtQt",
"QtQtbwbx.L.L.L#DbyaU.L.L.L.L.L.L.L.L.L.L.L.LaUbz#D.L.L.LbAbBQtQt",
"QtQtaGbCbDbEbFbGbHbI.L.L.L.L.L.L.L.L.L.L.L.LbIbJbGbFbEbDbKaGQtQt",
"QtQtbLbMaubNbObPbQbq.L.L.L.L.L.L.L.L.L.L.L.LbqbQbRbSbTaubMbLQtQt",
"QtQtQtQtQtQtbUbVbW.L.L.LbXbY.L.L.L.LbYbX.L.L.LbWbZb0QtQtQtQtQtQt",
"QtQtQtQtQtQtb1b2.R.L.L#Db3a6.L.L.L.La6b3#D.L.L.Rb4b1QtQtQtQtQtQt",
"QtQtQtQtQtQtb5b6b7b8b9c.c#cab9.L.Lb9cacbc.b9b8b7cccdQtQtQtQtQtQt",
"QtQtQtQtQtQtcecfcgchcicjckclcm.L.LcmclcncjcochcpcfceQtQtQtQtQtQt",
"QtQtQtQtQtQtQtQtcqcrcs.uctcucvcwcwcvcuct.ucxcrcqQtQtQtQtQtQtQtQt",
"QtQtQtQtQtQtQtQtQtQtQtQtQt.h#nbubu#n.hQtQtQtQtQtQtQtQtQtQtQtQtQt"};
