/* XPM */
static char *dummy[]={
"32 32 238 2",
"Qt c None",
"aI c #000001",
".a c #000102",
"#n c #000203",
"bo c #000305",
".W c #000405",
"#b c #000406",
".w c #000508",
"#c c #000609",
".# c #00080b",
".6 c #00080c",
"ab c #000b10",
"ac c #000c10",
"av c #000b10",
"bj c #000c12",
"aZ c #000e13",
"#w c #000d13",
"ao c #000e13",
".5 c #000f16",
"#W c #001219",
"aT c #001018",
"bJ c #001118",
".g c #00141e",
".b c #001621",
"bC c #001a25",
"bv c #001b25",
"br c #001b26",
"#X c #001c26",
"bc c #001c27",
"a7 c #001d27",
"bF c #001a27",
"#q c #001d2a",
"au c #001d2b",
"#O c #00202c",
"#5 c #00202d",
".4 c #00202e",
"ag c #001f2d",
"#P c #002533",
"bR c #002536",
".o c #002739",
"#J c #00293c",
"af c #002b3d",
"#B c #002b3f",
"#7 c #002c40",
"bN c #003148",
"#R c #003249",
"#2 c #003349",
"#K c #00344c",
"bK c #00354e",
".3 c #003b54",
".L c #003751",
"b. c #003a55",
"#a c #00415c",
"aa c #00455f",
".h c #003d5a",
"a2 c #003e5a",
"#d c #00445f",
".7 c #003d5a",
".c c #003e5a",
".B c #004160",
"#Y c #004362",
"#G c #004a66",
"#S c #004564",
"#H c #005070",
".A c #004e72",
"#m c #005679",
"an c #045e7e",
"aS c #005377",
"bE c #005075",
"ap c #056081",
".x c #005278",
"aJ c #00577d",
"bx c #00567e",
".d c #00577e",
"aD c #06688a",
"aE c #076b8e",
"bP c #006391",
".e c #006391",
"#h c #006594",
"bQ c #006797",
".U c #0075a5",
".f c #006b9d",
"#v c #0076a6",
"#x c #0079aa",
"am c #0280af",
"aq c #0281af",
"aw c #0073a5",
"aH c #0074a6",
"aU c #0073a6",
".T c #007cae",
".p c #0078af",
".2 c #0082b8",
".i c #007cb5",
".X c #007eb8",
"al c #0092c8",
"ar c #0092c9",
"bs c #0080bb",
"#r c #0082bc",
"#A c #0082bd",
"at c #0086c0",
".S c #008dc6",
"ah c #0087c3",
"aP c #099fd4",
"aQ c #0aa2d7",
"#I c #008fd0",
"ae c #0093d3",
".M c #038ece",
"#C c #0091d2",
"#8 c #0094d5",
"## c #039ddb",
".y c #0691d1",
"be c #0090d3",
"bM c #0093d6",
".q c #0693d4",
"a3 c #0697d7",
"a9 c #0697d8",
".R c #009edf",
".C c #0a97d8",
"#l c #0da5e3",
"#o c #0da6e3",
"bk c #0095da",
"#L c #0099dd",
"bI c #009ade",
"#3 c #009bdf",
"bB c #009ee1",
"bD c #009fe2",
"bu c #00a1e3",
"bw c #00a1e4",
"bq c #00a5e6",
"bn c #00a7e8",
"bh c #00aaeb",
"bi c #00abeb",
"bb c #00aced",
"bd c #00aded",
"a6 c #03afee",
"a8 c #04b0ee",
"aY c #07b1ee",
"a0 c #08b1ee",
".j c #0a99db",
"#T c #14a2e0",
"#Z c #14a3e1",
"#V c #14aeea",
"#1 c #14afeb",
"#4 c #14b0eb",
"#6 c #14b0ec",
".1 c #15a9e6",
"#N c #18aee9",
"#Q c #18afea",
"by c #1fa1de",
".8 c #21a3df",
"#g c #21a4df",
"aC c #24baf0",
"aK c #2caee6",
"a# c #2fb9ee",
"ad c #2fbaee",
".k c #31a9e1",
"#F c #33b6eb",
"bO c #38ace2",
"aV c #42b6e8",
"ak c #48c1f0",
"as c #48c2f0",
".l c #4ab3e4",
".Y c #4ab4e5",
".Q c #4dbdeb",
".V c #4dbdec",
".m c #58b9e6",
"#i c #59bce7",
"#p c #59bce8",
"#u c #5dc4ee",
"#y c #5dc5ee",
"b# c #5fbde8",
"aA c #5fcbf3",
".H c #62c5ed",
".z c #66bfe8",
".I c #69c8ee",
".r c #6ac1e9",
"ax c #6fc8ed",
"aG c #6fc8ee",
"az c #70cef2",
"aF c #70cff3",
".n c #74c5ea",
".D c #7bc8eb",
"#. c #7bcff0",
"#e c #7bcff1",
"aR c #7dcff1",
"aB c #7dd6f6",
".G c #7ecff0",
"aO c #83d8f6",
"aL c #84d1f1",
".0 c #94d7f3",
".N c #97d4ef",
"bL c #9bd6f1",
"bf c #9fd7f1",
".J c #a9dff5",
"bl c #aadbf2",
"bH c #aaddf4",
"bA c #aadef5",
"bt c #aadff5",
"bp c #aae0f6",
"bm c #aae1f7",
"bg c #aae2f8",
"ba c #aae3f8",
"a5 c #aae4f9",
"aX c #abe4f9",
"a1 c #ace4f9",
".s c #adddf3",
"#s c #addef3",
"#z c #addef4",
".F c #ade0f5",
".P c #b0e2f6",
"ai c #b7e3f6",
"ay c #bfe8f8",
"#U c #bfe8f9",
"#0 c #bfe9f9",
"aM c #c2e9f8",
"#M c #c2e9f9",
".9 c #cbe9f7",
"#f c #cbeaf7",
"a4 c #d0ecf9",
"#k c #d4effa",
"a. c #d9f2fb",
".t c #dbf0f9",
"aW c #dbf1fa",
"#E c #ddf2fb",
"#D c #def2fa",
"#9 c #e2f3fb",
".K c #e2f4fb",
".E c #e6f5fc",
"aN c #e6f6fc",
"bG c #edf7fc",
"aj c #f2fafd",
".u c #f4fafd",
"#j c #f6fbfd",
"bz c #f7fbfd",
".Z c #f7fcfd",
"#t c #f9fdfe",
".O c #fbfdfe",
".v c #ffffff",
"QtQtQtQtQtQtQtQtQtQtQtQtQtQtQt.#.#QtQtQtQtQtQtQtQtQtQtQtQtQtQtQt",
"QtQtQtQtQtQtQtQtQtQt.a.b.c.d.e.f.f.e.d.c.gQtQtQtQtQtQtQtQtQtQtQt",
"QtQtQtQtQtQtQtQt.g.h.i.j.k.l.m.n.n.m.l.k.j.i.h.gQtQtQtQtQtQtQtQt",
"QtQtQtQtQtQt.a.o.p.q.r.s.t.u.v.v.v.v.u.t.s.r.q.p.o.aQtQtQtQtQtQt",
"QtQtQtQtQt.w.x.y.z.t.v.v.v.v.v.v.v.v.v.v.v.v.t.z.y.A.wQtQtQtQtQt",
"QtQtQtQt.a.B.C.D.u.v.v.v.E.F.G.H.I.G.J.K.v.v.v.u.D.C.h.aQtQtQtQt",
"QtQtQtQt.L.M.N.O.v.O.P.Q.R.S.T.U.U.T.S.R.V.P.O.v.O.N.M.LQtQtQtQt",
"QtQtQt.W.X.Y.Z.v.u.0.1.2.3.4.5.6.6.5.4.3.2.1.0.u.v.Z.Y.X.WQtQtQt",
"QtQtQt.7.8.9.v.v#.###a#bQtQtQtQtQtQtQtQt#c#d###e.v.v#f#g.7QtQtQt",
"QtQt.w#h#i#j.v#k#l#m#nQtQtQtQtQtQtQtQtQtQt#n#m#o#k.v#j#p#h.wQtQt",
"QtQt#q#r#s.v#t#u#v#wQtQtQtQtQtQtQtQtQtQtQtQt#w#x#y#t.v#z#A#qQtQt",
"QtQt#B#C#D.v#E#F#GQtQtQtQtQtQtQtQtQtQtQtQtQtQt#H#F#E.v#D#I#JQtQt",
"QtQt#K#L.v.v#M#N#OQtQtQtQtQtQtQtQtQtQtQtQtQtQt#P#Q#M.v.v#L#RQtQt",
"QtQt#S#T.v.v#U#V#WQtQtQtQtQtQtQtQtQtQtQtQtQtQt#X#V#U.v.v#T#RQtQt",
"QtQt#Y#Z.v.v#0#1#WQtQtQtQtQtQtQtQtQtQtQtQtQtQt#X#1#0.v.v#Z#2QtQt",
"QtQt#2#3.v.v#0#4#5QtQtQtQtQtQtQtQtQtQtQtQtQtQt#5#6#0.v.v#3#2QtQt",
"QtQt#7#8#9.va.a#aaabQtQtQtQtQtQtQtQtQtQtQt#nacaaada..v.KaeafQtQt",
"QtQtagahai.vajakalamanaoQtQtQtQtQtQtQtQtaoapaqarasaj.vaiatauQtQt",
"QtQtavawaxajayazaAaBaCaDQtQtQtQtQtQtQtQtaEaCaBaAaFayajaGaHavQtQt",
"QtQtaIaJaKaLaMaN.v.vaOaPQtQtQtQtQtQtQtQtaQaO.v.vaNaMaRaKaSaIQtQt",
"QtQtaTaUaVaW.v.v.v.vaXaYQtQtQtQtQtQtQtaZa0a1.v.v.v.vaWaVaUaTQtQt",
"QtQta2a3a4.v.v.v.v.va5a6QtQtQtQtQtQtQta7a8a5.v.v.v.v.va4a9b.QtQt",
"QtQt.pb#.v.v.v.v.v.vbabbQtQtQtQtQtQtQtbcbdba.v.v.v.v.v.vb#.pQtQt",
"QtQtbebf.v.v.v.v.v.vbgbhQtQtQtQtQtQtQt#Xbibg.v.v.v.v.v.vbfbeQtQt",
"Qtbjbkbl.v.v.v.v.v.vbmbnQtQtQtQtQtQtQt#Xbnbm.v.v.v.v.v.vblbkQtQt",
"Qtbobkbl.v.v.v.v.v.vbpbqQtQtQtQtQtQtQtbrbqbp.v.v.v.v.v.vblbkQtQt",
"QtQtbs.n.v.v.v.v.v.vbtbuQtQtQtQtQtQtQtbvbwbt.v.v.v.v.v.v.n.XQtQt",
"QtQtbxbybz.v.v.v.v.vbAbBQtQtQtQtQtQtQtbCbDbA.v.v.v.v.vbzbybEQtQt",
"QtQtbF.i.zbG.v.v.v.vbHbIQtQtQtQtQtQtQtbJ#3bH.v.v.v.vbG.z.ibFQtQt",
"QtQt.abK.j.zbz.v.v.vbLbMQtQtQtQtQtQtQtQtbMbL.v.v.vbz.z.jbN.aQtQt",
"QtQtQtQtbK.iby.nblblbObPQtQtQtQtQtQtQtQtbQbOblbl.nby.ibNQtQtQtQt",
"QtQtQtQt.abF.xbsbkbkbsbRQtQtQtQtQtQtQtQtbRbsbkbk.XbEbF.aQtQtQtQt"};
