/* XPM */
static char *dummy[]={
"32 32 321 2",
"Qt c None",
"cH c #000101",
".x c #000102",
".C c #000202",
"cU c #000204",
"b4 c #000305",
".R c #000508",
".B c #000609",
".# c #00080c",
"cn c #000a0f",
"cg c #000b0f",
"c2 c #000c12",
"cO c #000c12",
"#M c #000e15",
".y c #001017",
"cm c #001018",
"d. c #001118",
"cI c #00151d",
".s c #00151f",
"ct c #00151f",
".k c #001720",
".A c #001721",
".z c #001824",
".L c #001924",
".K c #001a25",
".8 c #001b26",
"cf c #001c26",
"cV c #001f2c",
".e c #00202e",
".1 c #002332",
"cT c #002334",
".S c #002436",
"#x c #002536",
"cG c #002637",
"bN c #00293c",
"c3 c #002b3f",
".D c #002f42",
"cA c #003044",
"bV c #003347",
".t c #003249",
".9 c #00344b",
"#0 c #00334b",
".d c #00354d",
".w c #00354e",
"cu c #003e56",
".a c #003c56",
"c4 c #003f5a",
".0 c #00415d",
"#r c #00445f",
"ch c #004561",
"c9 c #004462",
"co c #004464",
".Q c #004666",
"#C c #005575",
".l c #005173",
"#s c #005578",
"#d c #005278",
"b3 c #00567f",
"cJ c #005e85",
"cs c #005f88",
".f c #006793",
"bW c #006e98",
"b5 c #006291",
"cp c #006391",
"cq c #006492",
"cr c #006693",
".v c #006797",
".u c #006897",
"aa c #00699a",
"cW c #0073a3",
".2 c #0078a8",
".b c #0073a6",
"#L c #0071a6",
"ca c #007cae",
".c c #0078ac",
"bF c #0086b8",
"cv c #0080b3",
".T c #0075ac",
"c8 c #007bb0",
"#R c #008bbe",
"#5 c #038dbf",
".E c #0084b9",
"bl c #0691c3",
"bX c #008ac1",
"cP c #0181b8",
"bx c #0291c5",
"cF c #0081bd",
"c# c #008cc7",
"bY c #008fc9",
"#l c #0091cc",
"cS c #0185c1",
"af c #069dd4",
".j c #008dca",
"bu c #0088c7",
"cl c #0389c8",
".M c #038fcc",
"c5 c #0391ce",
"#D c #039cd6",
"#k c #0098d7",
".P c #038ece",
".Z c #0394d3",
"cK c #069cd9",
"#Z c #008ed0",
"cX c #0099d9",
"#w c #0a92d2",
"bO c #0392d4",
".m c #089fde",
".g c #0a9ddc",
".F c #0da4e1",
"c1 c #039edf",
"#c c #0a97d8",
"be c #0bb1eb",
".3 c #0da6e4",
"br c #009de0",
"al c #009ee1",
"ay c #009fe1",
"#H c #009fe2",
"aX c #00a0e2",
"ak c #00a0e3",
"#V c #00a1e3",
"#G c #00a1e4",
"aU c #00aded",
"bB c #019fe2",
"bZ c #01a1e3",
"au c #02aeed",
"a9 c #03afee",
"aI c #04afee",
"a5 c #04b0ee",
"aT c #05b0ee",
"bf c #06b1ee",
"ag c #07b1ee",
"ax c #0aa6e5",
"bA c #0aa6e6",
"bJ c #0aa7e6",
"bm c #0ab2ee",
".U c #0d9adb",
".r c #0da4e4",
"bR c #0da7e6",
"at c #10b4ef",
".Y c #11a0df",
"#W c #11a4e3",
"aJ c #12b3ee",
"#t c #13a7e4",
"bg c #13b3ee",
".V c #149ddc",
".W c #149ddd",
".X c #149fde",
"cN c #14aae6",
".J c #14aae7",
"#y c #14abe7",
"cb c #14ace8",
"cz c #14ace9",
".7 c #14ade9",
"ce c #14afeb",
"#q c #14b0ec",
"bU c #14b2ed",
"#B c #15b3ed",
"#F c #16ace8",
"bE c #17b5ef",
"#Q c #17b6ef",
"aB c #189fdd",
"bw c #1bb7f0",
"b6 c #1ca0dd",
"a. c #1ca8e3",
"cw c #1caee9",
"#4 c #1cb8f0",
"cR c #1da2de",
"cQ c #1da4e0",
"cB c #1da8e3",
"ci c #1daae5",
"ae c #20baf0",
"bG c #22b7ee",
"bb c #23a3de",
"#9 c #23afe8",
"b. c #23b8ef",
"bd c #23bbf0",
"bK c #24ace5",
"ar c #24bcf1",
"aN c #26a5df",
"c7 c #26abe4",
"c6 c #26ace5",
"aF c #27bdf1",
"b0 c #28aee6",
"a3 c #29bef1",
"a1 c #2aa6df",
"#N c #2ab4ea",
"bv c #2ab5ec",
"#1 c #2ab6ec",
"ab c #2ab7ed",
"ao c #2ab8ee",
"aC c #2ab9ef",
"aO c #2abaef",
"aR c #2abff1",
"#. c #2caee6",
"b2 c #2da7e0",
"b# c #2db2e9",
"#E c #2fb7ec",
"bS c #31b6ea",
"#m c #34b7eb",
"c. c #38b3e7",
"aK c #3bb8ea",
"#S c #3bbef0",
"#6 c #3dc1f1",
"aY c #3fb5e8",
".n c #40b9ea",
".O c #42b1e3",
".N c #42b3e5",
"as c #43c4f2",
"#e c #46b2e4",
"aL c #46b8e8",
"a8 c #46c5f2",
"cE c #4bb4e4",
"ck c #4db5e5",
".i c #4dbae9",
"a# c #51b6e5",
"a7 c #51c0ec",
"cL c #51c0ed",
"b7 c #54b8e6",
"b8 c #54bae8",
"b9 c #54bce9",
"aW c #54c1ed",
"by c #55c8f3",
"bC c #56beea",
".h c #58beea",
"#K c #5fbce7",
"bq c #62c6ef",
"cc c #66c9f0",
"av c #66cdf3",
"ah c #66cef4",
"az c #69c5ec",
".4 c #6acaf0",
"aH c #6ad0f5",
"#z c #71ccf1",
"cY c #74cbef",
"bI c #74cef2",
"#I c #7bccef",
"#v c #7fc9eb",
"bz c #7fd1f2",
"bj c #82ceef",
"#j c #82cff0",
"bt c #86cced",
"aj c #89d4f2",
"cx c #8dd6f3",
"bP c #90d1ee",
".G c #96d9f4",
"an c #98d4ef",
"bn c #98ddf7",
"#u c #99d8f3",
"c0 c #9bd9f3",
"#b c #9ed7f0",
"#n c #a6dff6",
"bh c #a6e2f8",
"bH c #a9e2f7",
"#O c #aae1f7",
"#2 c #aae2f7",
"ac c #aae2f8",
"ap c #aae3f8",
"aD c #aae3f9",
"aP c #aae4f9",
"cC c #abdef4",
"#X c #addff4",
"bM c #b0def3",
"cj c #b6e3f6",
"#f c #b7e1f4",
"am c #b7e3f6",
".q c #b7e4f7",
"bT c #b7e5f8",
"bk c #b8e1f4",
"#U c #b9e6f8",
"#i c #bbe4f6",
"#g c #bfe4f5",
"#h c #bfe5f6",
"cM c #bfe7f8",
".I c #bfe8f8",
".6 c #bfe8f9",
"#p c #bfe9f9",
"#A c #bfeafa",
"#P c #c0ebfa",
"#3 c #c1ebfb",
"aA c #c2e5f6",
"ad c #c2ecfb",
"bc c #c3ecfb",
"aq c #c3edfb",
"cD c #c4e6f6",
"aE c #c4edfb",
"aQ c #c5edfb",
"a2 c #c5eefb",
".o c #c6eaf8",
"#8 c #c6eaf9",
"bL c #c7e9f8",
"a4 c #cbeefb",
"#Y c #cde9f7",
"ba c #cdeaf7",
"aM c #d0ebf8",
"bs c #d0ecf9",
"cZ c #d0edf9",
"bi c #d0eefa",
"a0 c #d4edf8",
"b1 c #d4eef9",
"aV c #d4f0fb",
"## c #d6eff9",
"#T c #d9f2fb",
"a6 c #def4fc",
"bQ c #e2f4fb",
".5 c #e2f4fc",
".H c #e4f5fc",
"aG c #e5f7fd",
"aZ c #e9f6fc",
"cd c #e9f7fc",
"ai c #e9f8fd",
"cy c #edf8fd",
"#7 c #edf9fd",
"aw c #f0f9fd",
"aS c #f1fafe",
"#J c #f4fafd",
"bp c #f4fbfd",
"bo c #f4fbfe",
"bD c #f7fbfd",
"#o c #f7fcfe",
"#a c #fbfdfe",
".p c #ffffff",
"QtQtQtQtQtQtQtQtQtQtQtQtQtQtQtQtQtQtQtQtQtQtQtQtQtQtQtQtQtQtQtQt",
"QtQtQtQtQtQtQtQtQtQtQtQtQtQtQtQtQtQtQtQtQtQtQtQtQtQtQtQtQtQtQtQt",
"QtQtQtQtQtQtQtQtQtQtQtQtQtQtQtQtQtQtQtQtQtQtQtQtQtQtQtQtQtQtQtQt",
"QtQtQtQtQtQtQtQtQtQtQtQtQtQtQtQtQtQtQtQtQtQtQtQtQtQtQtQtQtQtQtQt",
"QtQtQtQtQtQtQtQtQtQtQtQtQtQtQt.#.a.b.c.dQtQtQtQtQtQtQtQtQtQtQtQt",
"QtQtQtQtQtQtQtQtQtQtQtQtQtQt.e.f.g.h.i.jQtQtQtQtQtQtQtQtQtQtQtQt",
"QtQtQtQtQtQtQtQtQtQtQtQt.k.l.m.n.o.p.q.r.sQtQtQt.t.u.v.w.xQtQtQt",
"QtQt.y.z.z.z.A.BQtQt.C.D.E.F.G.H.p.p.I.J.KQtQt.L.M.N.O.P.Q.RQtQt",
".S.T.U.V.W.X.Y.Z.0.1.2.3.4.5.p.p.p.p.6.7.8QtQt.9#.###a#b#c#dQtQt",
".T#e#f#g#g#h#i#j#k#l#m#n#o.p.p.p.p.p#p#q.8.8#r#s#t#u.p.p#v#w#xQt",
".U#f.p.p.p.p.p.p#y#z#o.p.p.p.p.p.p.p#A#B#C#D#E#F#G#H#I#J#J#K#L#M",
".V#g.p.p.p.p.p.p#N#O.p.p.p.p.p.p.p.p#P#Q#R#S#T#U#y#V#W#X.p#Y#Z#0",
".V#g.p.p.p.p.p.p#1#2.p.p.p.p.p.p.p.p#3#4#5#6#7.p#8#9#Ha.#o.pa#aa",
".V#g.p.p.p.p.p.pabac.p.p.p.p.p.p.p.padaeafagahai#aajakalam.pan#Z",
".V#g.p.p.p.p.p.paoap.p.p.p.p.p.p.p.paqarasatauav.pawaxayaz.paAaB",
".V#g.p.p.p.p.p.paCaD.p.p.p.p.p.p.p.paEaFaGaHaIaJ#o.paK#HaLawaMaN",
".V#g.p.p.p.p.p.paOaP.p.p.p.p.p.p.p.paQaR.paSaTaUaV.paWaXaYaZa0a1",
".V#g.p.p.p.p.p.paOaP.p.p.p.p.p.p.p.pa2aR.p.paTaUaV.paWakaYaZa0a1",
".V#g.p.p.p.p.p.paOaD.p.p.p.p.p.p.p.paQa3.pa4a5aUa6.pa7aXaYaZa0a1",
".V#g.p.p.p.p.p.paCaD.p.p.p.p.p.p.p.paEaFa4a8a9b.#a.pb##H.i#obabb",
".V#g.p.p.p.p.p.paoap.p.p.p.p.p.p.p.pbcbdbebfbgbh.pbi#Galbj.pbk.U",
".V#g.p.p.p.p.p.pabac.p.p.p.p.p.p.p.padaeblbmbnbobpbqakbrbs.pbtbu",
".V#g.p.p.p.p.p.pbv#2.p.p.p.p.p.p.p.p#3bwbxby.p#abzbAbBbC.pbDa1#d",
".V#g.p.p.p.p.p.p#N#O.p.p.p.p.p.p.p.p#PbEbFbGbHbIbJakbKbL.pbMbubN",
"bObP.p.p.p.p.pbQbRbSbTbo.p.p.p.p.p.p#AbUbVbWbXbYbZb0b1.pa0b2b3b4",
"b5b6b7b7b7b8b9c.c#cacbcccd.p.p.p.p.p#pcecfcg.8chcicj.pbDckclcmQt",
"cncocpcpcpcqcrcsctQtcucvcwcxcy.p.p.p.6cz.8QtQtcAcBcCcDcEcFcGQtQt",
"QtQtQtQtQtQtQtQtQtQtcHcIcJcKcL.o.p.pcMcN.KQtQtcOcPcQcRcScTcUQtQt",
"QtQtQtQtQtQtQtQtQtQtQtQtQtcVcWcXcYcZc0c1c2QtQtQtcnc3c3cnQtQtQtQt",
"QtQtQtQtQtQtQtQtQtQtQtQtQtQtc2c4c5c6c7c8QtQtQtQtQtQtQtQtQtQtQtQt",
"QtQtQtQtQtQtQtQtQtQtQtQtQtQtQtQtcO.ac9d.QtQtQtQtQtQtQtQtQtQtQtQt",
"QtQtQtQtQtQtQtQtQtQtQtQtQtQtQtQtQtQtQtQtQtQtQtQtQtQtQtQtQtQtQtQt"};
