/* XPM */
static char *dummy[]={
"32 32 289 2",
"Qt c None",
".# c #00080b",
".m c #00080c",
".b c #000a0f",
".a c #000c11",
"cw c #001017",
".s c #001824",
"cD c #002436",
".c c #004464",
".f c #006291",
".d c #006b9d",
".e c #006fa3",
"cz c #0075ac",
".r c #0090d3",
".n c #0693d4",
".B c #0095da",
"#J c #0096db",
".N c #0097db",
"#W c #0097dc",
"ad c #0098dc",
"ae c #0098dd",
".O c #0099dd",
"cg c #009add",
"c. c #009ade",
".P c #009bde",
".Z c #009bdf",
"b4 c #009cdf",
".Q c #009de0",
".R c #009ee1",
".0 c #009fe2",
"ce c #00a0e2",
".S c #00a0e3",
".T c #00a1e3",
".X c #00a1e4",
".U c #00a2e4",
".W c #00a2e5",
".V c #00a3e5",
".1 c #00a4e6",
"#f c #00a5e6",
".2 c #00a5e7",
".3 c #00a6e7",
".4 c #00a6e8",
".5 c #00a7e8",
"#. c #00a8e9",
".7 c #00a9ea",
".8 c #00aaea",
".9 c #00aaeb",
"#e c #00abeb",
"#b c #00abec",
"#H c #00acec",
"#c c #00adec",
"#d c #00aded",
"aT c #01a9ea",
"aH c #01acec",
"bQ c #01aeed",
"by c #02aeed",
"#g c #03a1e3",
"bJ c #03a5e6",
"bE c #03afed",
"aE c #04b0ee",
"bz c #05b0ee",
"bR c #06afed",
"bD c #07b1ee",
"cE c #0a99db",
"#y c #0ab2ef",
"#F c #0ab3ef",
"cx c #0d9adb",
"#z c #0db4ef",
"#E c #0eb4ef",
"#M c #0eb5ef",
"#D c #10b5f0",
"#N c #11b6ef",
"#S c #12b6f0",
"aK c #13b7f0",
".t c #149ddc",
"bv c #149ddd",
"#i c #149edd",
".C c #149ede",
".L c #149fde",
"#X c #14a0df",
".D c #14a1df",
".E c #14a2e0",
".F c #14a3e1",
".K c #14a4e2",
".G c #14a5e2",
".H c #14a6e3",
".I c #14a7e4",
".J c #14a8e4",
"cb c #14a9e5",
"b7 c #14abe8",
"bh c #14ace8",
"bi c #14afeb",
"#R c #15b8f0",
"aC c #16b8f0",
"aL c #17b9f0",
"aQ c #18baf0",
"aw c #1abbf1",
"bA c #1bb7ef",
"bl c #1bb7f0",
"aB c #1bbbf1",
".l c #1ca0dd",
"aG c #1cafe9",
"br c #1cb8f0",
"bP c #1eb7ef",
"bm c #1eb9f0",
"aS c #1fb7ef",
"bq c #1fb9f0",
"aA c #21bef2",
".g c #23a3df",
"bg c #23aee8",
"bt c #23b6ed",
"#A c #24bbf0",
"bp c #27bcf0",
"#O c #28bef1",
"aP c #29c0f1",
"ch c #2aa7e0",
".Y c #2aa9e1",
"c# c #2aa9e2",
".6 c #2aaae3",
"b3 c #2aabe4",
"## c #2aace4",
"bU c #2aade5",
"b5 c #2aaee5",
"bT c #2aaee7",
"bG c #2ab0e8",
"#I c #2ab3e9",
"#U c #2ab3ea",
"aF c #2ab5eb",
"bw c #2ab6ec",
"ag c #2ab7ed",
"as c #2ab8ed",
"#w c #2ab8ef",
"#K c #2abaef",
"bM c #2cbcf0",
"au c #2dbcf0",
"ax c #32c3f2",
"bn c #35c0f1",
"cC c #38ace2",
"#a c #38b3e7",
"bI c #38b4e8",
"aM c #38c4f2",
"aU c #39baed",
"aI c #3bc0f1",
"aj c #3cc4f2",
".M c #3fafe3",
"bu c #3fb9eb",
"bj c #3fbfef",
"ak c #40c6f3",
"ap c #41c7f3",
"cA c #46b2e4",
"af c #46beee",
"#h c #49bae9",
"bK c #49c0ee",
"ar c #49c5f3",
"ao c #52cdf4",
"ci c #54b8e6",
"ct c #54bae7",
"cm c #54bdea",
"cn c #54beea",
"ca c #54beeb",
"b6 c #54c1ed",
"at c #54c3ef",
"#Z c #54c5f0",
"a# c #54c7f2",
"bx c #55c8f3",
"ah c #56c9f3",
"cu c #58bae7",
"cj c #58bbe8",
"aa c #58c6f0",
"#0 c #58c8f2",
"al c #58cef4",
"#x c #59cbf4",
"cr c #5bc0eb",
"#L c #5bccf4",
"av c #5fcef4",
"#3 c #60cef4",
"#4 c #63d0f4",
"#8 c #63d0f5",
"#9 c #67d0f4",
".h c #69c0e9",
".k c #70c3ea",
"cq c #71c9ee",
"bk c #73d3f5",
"co c #77ccef",
"aJ c #79d5f6",
".i c #7ec9ec",
".j c #7ecaec",
"bW c #7ecdef",
"bX c #7ecef0",
"cf c #7ecff0",
"b9 c #7ed0f1",
"#k c #7ed1f2",
"b0 c #7ed2f2",
"b1 c #7ed2f3",
"#l c #7ed3f3",
"bF c #7fd6f6",
"#7 c #7fd9f7",
"#o c #82d7f6",
"#G c #83d8f6",
"#p c #84d8f6",
"#T c #85d9f6",
"#5 c #85daf7",
"aD c #88daf6",
".q c #8dcfee",
"cs c #8dd1ef",
"#Y c #8dd7f4",
"bL c #8dd9f6",
"a. c #8edaf6",
"bs c #8fdcf7",
"cv c #90d1ee",
"ck c #90d2f0",
"ab c #90d8f4",
"#1 c #91dcf7",
"#q c #92ddf7",
"#s c #93ddf7",
"aR c #94def7",
"ai c #95def8",
".o c #9bd5f0",
"bV c #9bd7f2",
"bY c #9bdaf3",
"#j c #9bdaf4",
"#m c #9bddf6",
"#u c #9bdef6",
"bS c #9bdef7",
"aq c #a2e2f8",
".A c #aadbf2",
"bH c #aadcf2",
"#v c #aadcf3",
"#V c #aaddf3",
"ac c #aaddf4",
"cd c #aae0f6",
"b8 c #aae1f6",
"aW c #aae2f7",
"a5 c #aae3f8",
"a6 c #abe2f8",
"aX c #abe3f8",
"bC c #ace5f9",
"#C c #afe6fa",
"aZ c #b0e6fa",
"#Q c #b1e7fa",
"a3 c #b3e8fa",
"cB c #b4dff4",
"az c #b5eafa",
"cy c #b7e1f4",
"bo c #bbeafa",
".u c #bfe4f5",
".w c #bfe5f6",
".z c #bfe6f6",
".x c #bfe6f7",
".y c #bfe7f7",
"cc c #bfe7f8",
"a9 c #bfe8f8",
"bf c #bfe8f9",
"b. c #bfe9f9",
"a2 c #bfecfb",
"aO c #c0ecfb",
"bB c #c1ebfa",
"bb c #c1ebfb",
"be c #c1ecfb",
"bc c #c2ecfb",
"a0 c #c2edfb",
"#B c #c3ecfb",
"#P c #c4edfb",
"cl c #c6e9f7",
"bZ c #c6eaf9",
"aV c #c6ebf9",
"#n c #c6edfa",
"a4 c #c6edfb",
"a7 c #c7ebfa",
"#t c #c7edfa",
"bO c #c7edfb",
"ay c #c7effb",
"aY c #c8edfb",
"#2 c #c9eefb",
".v c #cdeaf7",
"a8 c #cdedfa",
"b# c #cdeefb",
"bN c #cdeffb",
"aN c #cdf0fb",
"an c #cef1fb",
"am c #d4f2fc",
"cp c #e2f4fb",
"b2 c #e2f5fc",
"ba c #e3f6fd",
"#r c #e4f6fd",
"#6 c #e5f7fd",
"bd c #f1fafe",
"a1 c #f2fbfe",
".p c #ffffff",
"QtQtQtQt.#.a.a.a.a.a.a.a.a.a.a.a.a.a.a.a.a.a.a.a.a.a.a.#QtQtQtQt",
"QtQt.b.c.d.e.e.e.e.e.e.e.e.e.e.e.e.e.e.e.e.e.e.e.e.e.e.d.c.bQtQt",
"QtQt.f.g.h.i.i.i.i.i.i.i.i.i.i.j.j.i.i.i.i.i.i.i.i.i.i.k.l.fQtQt",
"Qt.m.n.o.p.p.p.p.p.p.p.p.p.p.p.p.p.p.p.p.p.p.p.p.p.p.p.p.q.rQtQt",
"Qt.s.t.u.p.p.v.u.w.w.w.x.x.x.x.y.y.x.x.x.x.z.w.w.u.v.p.p.A.BQtQt",
"Qt.s.t.u.p.p.g.C.D.E.F.G.H.I.I.J.J.J.I.H.G.K.E.D.L.M.p.p.A.BQtQt",
"Qt.s.t.u.p.p.N.O.P.Q.R.S.T.U.V.V.V.V.W.X.S.R.Q.P.O.Y.p.p.A.BQtQt",
"Qt.s.t.u.p.p.O.Z.Q.0.T.W.1.2.3.4.5.3.2.1.W.T.0.Q.Z.6.p.p.A.BQtQt",
"Qt.s.t.u.p.p.Z.Q.S.U.1.3.5.7.8.9.9.8.7#..4.1.U.S.R##.p.p.A.BQtQt",
"Qt.s.t.u.p.p#a.0.U.1.5#..9#b#c#d#d#c#b#e.7.5#f.V#g#h.p.p.A.BQtQt",
"Qt.s.t.u.p.p.p.p.p.p.p.p.p.p.p.p.p.p.p.p.p.p.p.p.p.p.p.p.A.BQtQt",
"Qt.s#i.u.p.p#j#k#l#m.p#n#o#p#q#r#r#s#p#o#t.p#u#l#k#j.p.p#v.BQtQt",
"Qt.s#i.w.p.p.U.2#.#w.p#x#y#z#A#B#C#D#E#F#G.p#H.7.3#I.p.p#v#JQtQt",
"Qt.s.L.w.p.p.1.4.9#K.p#L#M#N#O#P#Q#R#S#M#T.p#d#e.5#U.p.p#V#WQtQt",
"Qt.s#X.w.p.p#Y#Z#0#1.p#2#3#4#5#6#6#7#8#9#2.pa.a#aaab.p.pacadQtQt",
"Qt.s#X.w.p.p.p.p.p.p.p.p.p.p.p.p.p.p.p.p.p.p.p.p.p.p.p.pacaeQtQt",
"Qt.s#X.w.p.pafag#Kah.paiajakalamanaoapajaq.par#Kasat.p.pacaeQtQt",
"Qt.s#X.w.p.p.3.7#Hau.pav#RawaxayazaAaBaCaD.paE#d.7aF.p.pacaeQtQt",
"Qt.s#X.w.p.paG#.aHaI.paJaKaLaMaNaOaPaQaLaR.paS#HaTaU.p.pacadQtQt",
"Qt.s.L.w.p.paVaWaXaY.p#raZ#Qa0a1a1a2#Qa3#r.pa4a5a6a7.p.p#V#WQtQt",
"Qt.s.L.w.p.pa8a9b.b#.pbabbbc#2bdbd#2bcbeba.pb#b.bfa8.p.p#v.NQtQt",
"Qt.s#i.w.p.pbgbhbibj.pbkblbmbn#2bobpbqbrbs.pbtbibhbu.p.p#v.BQtQt",
"Qt.sbv.u.p.p.S.W.3bw.pbxbybzbAbBbCbDbzbEbF.p#..3.VbG.p.pbH.BQtQt",
"Qt.s.t.u.p.pbI.TbJbK.pbL#H#dbMbNbObPbQbRbS.p.4.1.TbT.p.p.A.BQtQt",
"Qt.s.t.u.p.p.p.p.p.p.p.p.p.p.p.p.p.p.p.p.p.p.V.X.0bU.p.p.A.BQtQt",
"Qt.s.t.u.p.pbVbWbXbY.pbZb0b1#Yb2b2#Yb1b0bZ.p.T.0.Qb3.p.p.A.BQtQt",
"Qt.s.t.u.p.p#W.Ob4b5.pb6.W.Vb7a9b8.1.V.Vb9.p.Rb4c.c#.p.p.A.BQtQt",
"Qt.s.t.u.p.p.B.N.Ob3.pca.0.Scbcccd.T.Tcecf.pb4cg#Wch.p.p.A.BQtQt",
"Qt.s.t.u.p.p.qcicjck.pclcmcncocpcpcqcncrcl.pcsctcucv.p.p.A.BQtQt",
"Qtcwcxcy.p.p.p.p.p.p.p.p.p.p.p.p.p.p.p.p.p.p.p.p.p.p.p.p.A.BQtQt",
"QtQtczcAcy.u.u.u.u.u.u.u.u.u.u.u.u.u.u.u.u.u.u.u.u.u.ucBcCczQtQt",
"QtQtcDczcx.t.t.t.t.t.t.t.t.t.t.t.t.t.t.t.t.t.t.t.t.t.tcEczcDQtQt"};
