/* XPM */
static char *dummy[]={
"32 32 335 2",
"Qt c None",
".n c #000001",
"cO c #000101",
".b c #000102",
"bG c #000202",
"bd c #000203",
"aa c #000204",
"cP c #000304",
".Z c #000507",
".# c #000508",
"#Z c #000609",
"cH c #00080c",
"ao c #00080d",
"cQ c #000a0e",
"c0 c #000a0e",
".o c #000a0f",
"cG c #000b0f",
".M c #000e14",
".m c #001119",
".a c #00121a",
"dm c #00121b",
"ab c #00141c",
"#A c #00141e",
".C c #001a26",
".N c #001b26",
"bF c #001b27",
"cr c #001d28",
"dh c #001c29",
".c c #001f2d",
"#b c #00212f",
"db c #00202f",
"c6 c #00212f",
"cZ c #002230",
"cV c #002331",
"cN c #002432",
"dc c #002030",
"#a c #002537",
"cy c #002c3c",
"bR c #002b3e",
"cb c #002c3f",
"a2 c #003045",
"cF c #003549",
".B c #00324a",
"a3 c #003c52",
".l c #003751",
"di c #003954",
"cc c #003a55",
"bS c #003e57",
"bt c #00415a",
"cs c #003c57",
"#N c #003e5a",
"cz c #004862",
".d c #004464",
"#q c #004a68",
"b2 c #004a69",
".p c #004867",
".0 c #004b6a",
"cR c #004869",
"be c #005372",
"b3 c #004d6f",
"bH c #005272",
"dl c #004e72",
".Y c #004f74",
"aP c #005379",
"bs c #00557a",
"cq c #005a7f",
"cE c #005d81",
".L c #00567e",
"#Y c #005b85",
"cA c #006a90",
"aQ c #006c94",
".k c #00618d",
"c7 c #00618e",
"aD c #006491",
"cD c #00719c",
"a# c #006695",
"cB c #0076a2",
"cW c #006797",
"an c #006c9e",
"cC c #007cab",
"c1 c #006da0",
"#p c #006fa3",
".e c #0070a3",
"#B c #007bac",
".A c #0070a5",
".O c #007aaf",
"cx c #008abd",
"c5 c #007eb5",
"cU c #0085bb",
"bE c #0082ba",
".T c #0084bb",
"ca c #0087be",
".D c #0181b9",
"dj c #0080bb",
".q c #0085c1",
"#c c #008ec8",
".j c #0084c1",
"aE c #0099d2",
"## c #0085c3",
"cI c #0086c4",
"da c #018bc9",
"cY c #0193d0",
"cM c #019bd6",
".f c #008dce",
"#O c #009ddb",
"ct c #038ece",
"bc c #0392d1",
"bQ c #0396d5",
"b1 c #0398d6",
"cp c #039ddb",
"bf c #03a5e0",
"cd c #0394d5",
"b4 c #0398d8",
"bT c #039ddc",
"bI c #03a1de",
"bu c #03a5e2",
".z c #0693d4",
"a4 c #0aade7",
".r c #0d9bdb",
"#r c #0da7e4",
"br c #1ca4e0",
"c# c #1cace5",
".i c #0095da",
"#l c #00a4e6",
"#I c #00a5e6",
"#k c #00a6e7",
"#j c #00a7e8",
"#i c #00a8e9",
"#7 c #00a9e9",
"#h c #00a9ea",
"#w c #00aaea",
"ac c #00aaeb",
"#v c #00abeb",
"aA c #00abec",
"#u c #00acec",
"aK c #00aced",
"#H c #00aded",
"#G c #01aeed",
"az c #02aeed",
"#F c #03afee",
"#U c #04afee",
"#E c #04b0ee",
".g c #0597da",
"#x c #05a6e6",
"#6 c #05b0ee",
"#T c #06b0ee",
"ay c #07b1ef",
"#R c #08b2ef",
"aj c #09b2ee",
"#S c #09b2ef",
"aY c #0bb0ed",
"aX c #0bb3ef",
"ch c #0cb2ee",
"ax c #0cb3ef",
"#5 c #0cb4ef",
"dk c #0d9adb",
"ai c #0db4ef",
"#2 c #0eb5ef",
".h c #0f9bdc",
"ak c #0face9",
"cg c #0fb3ee",
"b# c #0fb3ef",
"#3 c #0fb5f0",
"#4 c #0fb6f0",
"ah c #10b6ef",
"aw c #11b6f0",
".K c #139cdc",
"#8 c #13ace9",
"af c #13b7f0",
"ag c #14b8f0",
"av c #15b8f0",
"aW c #16b9f0",
"ar c #18baf1",
"aJ c #19baf0",
"au c #19baf1",
"as c #1abbf1",
"at c #1bbbf1",
"b. c #1bbcf1",
"dg c #1ca0dd",
"a1 c #1ca4e0",
"co c #1cb1eb",
".X c #1da1de",
"aB c #1db2ec",
"aH c #1dbcf1",
".1 c #1face6",
"aI c #20bef1",
".E c #21a8e3",
"aV c #21bef2",
"a9 c #22bef2",
"aU c #25c0f2",
"a8 c #26c1f2",
"bM c #28bcf0",
"bm c #28bef1",
"aT c #29c2f2",
"bX c #2abcf1",
"bn c #2bbdf1",
"#M c #2da7e0",
"bl c #2dc0f1",
"#t c #2fbcf0",
"#g c #31baee",
"ci c #31bef1",
".U c #34b3e7",
"#D c #35bff1",
"d# c #36ace2",
"c4 c #36afe4",
".P c #36b2e6",
"cX c #36b3e7",
"cT c #36b6ea",
"cL c #36baed",
"cw c #36bdef",
".y c #38ace2",
"#V c #38b8eb",
"aR c #3bc1f1",
"aL c #41bfef",
"#o c #46b2e3",
"aO c #46b4e6",
"cn c #46c1f0",
"bo c #49c6f3",
"c8 c #4ab3e4",
"#X c #4db5e5",
"#y c #4fbfed",
"cj c #50c8f3",
"bk c #50ccf4",
"aC c #54bae7",
"cm c #54c7f2",
"dd c #58b9e6",
".s c #5bbce8",
"#C c #5bc6ef",
"cJ c #5fbce7",
"bv c #60ccf3",
"ck c #60ccf4",
"a. c #62bee8",
"ce c #62c2ec",
"bP c #62c5ee",
"bU c #62c8f0",
"bg c #62cef4",
".J c #64bee8",
"a7 c #6ad4f6",
"#m c #6bc9ef",
"bD c #70c9ee",
"b0 c #70cbf0",
"c2 c #74c5ea",
"cl c #74d2f5",
"am c #7ecaec",
"cu c #7ecbed",
"b5 c #7ecff0",
".6 c #7ed1f2",
".5 c #7ed2f2",
"bJ c #7ed4f4",
"df c #7fc9ec",
"aS c #7fd9f7",
"ba c #80d6f5",
"#J c #82d2f2",
"#1 c #86d9f6",
"ae c #88daf6",
"aF c #8ad9f6",
".x c #8dcfee",
".7 c #90d7f4",
"bb c #91d3f1",
"c. c #91d9f5",
"#. c #92d1ee",
"bj c #93dff8",
".F c #94d5f1",
"#d c #94d8f4",
"#P c #94daf5",
"bY c #94ddf7",
"aq c #9ae0f8",
".t c #9bd6f1",
"#z c #a2d8f1",
"bW c #a5e2f9",
"b6 c #a5e3f9",
"ap c #a6e2f8",
".S c #a7daf2",
"bw c #a8e3f9",
".w c #aadbf2",
"#0 c #aae2f8",
"ad c #aae3f8",
".W c #afddf3",
".u c #afdef3",
"bL c #afe6f9",
"bN c #b2e7f9",
"de c #b7e1f4",
".v c #b9e2f5",
"al c #b9e6f8",
"aZ c #bbe8f9",
"#9 c #bde7f8",
"bp c #bdeafa",
".2 c #bfe7f7",
".Q c #c0e7f7",
"bz c #c4edfb",
"by c #c5edfb",
"a0 c #c6e8f7",
".4 c #c6ebf9",
"b9 c #c6ebfa",
"#f c #c7ecfa",
"#Q c #c7edfb",
"#s c #c8ecfa",
"bA c #cbeffb",
"cf c #ceeffb",
"c3 c #cfebf8",
"cS c #cfedf9",
"cv c #cfeefb",
"#L c #d7eef9",
".8 c #d7f0fa",
"b7 c #d9f3fc",
"aG c #dbf4fc",
"a5 c #dcf4fc",
"#n c #e0f4fb",
".I c #e2f2fa",
"#W c #e2f4fc",
"a6 c #e5f7fd",
"bq c #e6f5fc",
"bZ c #e6f6fc",
"d. c #e9f6fb",
".V c #e9f6fc",
"cK c #e9f7fc",
"aM c #ebf8fd",
"bB c #ecf9fd",
"c9 c #f0f8fc",
"aN c #f0f9fc",
".G c #f0f9fd",
"b8 c #f0fafd",
".R c #f2f9fd",
"bh c #f3fbfe",
"bC c #f4fafd",
"bK c #f4fbfe",
".3 c #f7fcfe",
"bV c #f8fcfe",
"bi c #f8fdfe",
".9 c #f9fcfe",
"bO c #f9fdfe",
"#K c #fbfdfe",
"bx c #fbfefe",
"#e c #fdfefe",
".H c #ffffff",
"QtQtQtQtQtQtQtQtQtQtQtQtQtQtQtQtQtQtQtQtQtQtQtQtQtQtQtQtQtQtQtQt",
"QtQtQtQtQtQtQtQtQtQtQtQtQtQtQtQtQtQt.#.aQtQtQtQtQtQtQtQtQtQtQtQt",
"QtQtQtQtQtQtQtQtQtQtQtQtQt.b.c.d.e.f.g.h.i.j.k.l.m.nQtQtQtQtQtQt",
"QtQtQtQtQtQtQtQtQtQtQtQt.o.p.q.r.s.t.u.v.w.x.y.z.A.BQtQtQtQtQtQt",
"QtQtQtQtQtQtQtQtQtQt.n.C.D.E.F.G.H.H.H.H.H.H.H.I.J.K.L.MQtQtQtQt",
"QtQtQtQtQtQtQtQtQtQt.N.O.P.Q.H.H.H.H.H.H.H.H.H.H.R.S.z.kQtQtQtQt",
"QtQtQtQtQtQtQtQtQt.o.T.U.V.H.H.H.H.H.H.H.H.H.H.H.H.H.W.X.Y.ZQtQt",
"QtQtQtQtQtQtQtQt.b.0.1.2.H.H.H.H.3.4.5.6.7.8.H.H.H.H.9#.###aQtQt",
"QtQtQtQtQtQtQtQt#b#c#d.H.H.H#e#f#g#h#i#j#k#l#m#n.H.H.H.H#o#pQtQt",
"QtQtQtQtQtQtQtQt#q#r.G.H.H.H#s#t#u#u#v#w#i#k#x#y.3.H.H.H#z.z#AQt",
"QtQtQtQtQtQtQtQt#B#C.H.H.H.3#D#E#E#F#G#H#v#h#j#I#J#K.H.H#L#M#NQt",
"QtQtQtQtQtQtQtQt#O#P.H.H.H#Q#R#S#S#R#T#U#H#u#h#j#V#W.H.H.3#X#YQt",
"QtQtQtQtQtQtQt#Z#i#0.H.H.H#1#2#3#4#2#5#S#6#G#v#7#8#9.H.H.Ha.a#aa",
"QtQtQtQtQtQtQtabacad.H.H.Haeafagagafahaiaj#E#H#vakal.H.H.Hamanao",
"QtQtQtQtQtQtQtQt#vap.H.H.HaqarasatauavawaxayazaAaB#f.H.H.HaCaDQt",
"QtQtQtQtQtQtQtQtaEaF.H.H.HaGaHaIaIaHaJag#2#S#FaKaLaM.H.HaNaOaPQt",
"QtQtQtQtQtQtQtQtaQaR.H.H.H.HaSaTaUaVataWahaX#EaYaZ.H.H.Ha0a1a2Qt",
"QtQtQtQtQtQtQtQta3a4a5.H.H.Ha6a7a8a9b.aWahaXb#ba#K.H.H.Hbbbc.oQt",
"QtQtQtQtQtQtQtbdbebfbgbh.H.H.Hbibjbkblbmbnbobp#K.H.H.HbqbrbsQtQt",
"QtQtQtQtQtQtbdbtbubvbnbw.H.H.H.Hbxa6bybzbAbB.H.H.H.HbCbDbEbFQtQt",
"QtQtQtQtQtbGbHbIbJbKbLbMbNbO.H.H.H.H.H.H.H.H.H.H.HbCbPbQbRQtQtQt",
"QtQtQtQt.bbSbTbUbK.HbVbWbXbY.H.H.H.H.H.H.H.H.H.HbZb0b1b2QtQtQtQt",
"QtQtQt.bb3b4b5bC.H.H.H.Hbpbobob6b7bV.H.H.Hb8b9c.c#cacbQtQtQtQtQt",
"QtQt.bcccdcebC.H.H.H.H.H.HcfcgchcicjckclcmcncocpcqcrQtQtQtQtQtQt",
"QtQtcsctcubC.H.H.H.H.H.HcvcwcxcyczcAcBcCcDcEcFcGQtQtQtQtQtQtQtQt",
"QtcHcIcJbC.H.H.H.H.H.HcKcLcMcNcOQtQtcPcQQtQtQtQtQtQtQtQtQtQtQtQt",
"QtcR#M#L.H.H.H.H.H.HcScTcUcVQtQtQtQtQtQtQtQtQtQtQtQtQtQtQtQtQtQt",
".#cWcJ#K.H.H.H.H.H.VcXcYcZcOQtQtQtQtQtQtQtQtQtQtQtQtQtQtQtQtQtQt",
"c0c1c2.H.H.H.H.Hc3c4c5c6QtQtQtQtQtQtQtQtQtQtQtQtQtQtQtQtQtQtQtQt",
".bc7c8c9.H.H.Hd.d#dadb.nQtQtQtQtQtQtQtQtQtQtQtQtQtQtQtQtQtQtQtQt",
"Qtdcctdddededfdgc1dhQtQtQtQtQtQtQtQtQtQtQtQtQtQtQtQtQtQtQtQtQtQt",
"QtQtdidjdkdk.jdldmQtQtQtQtQtQtQtQtQtQtQtQtQtQtQtQtQtQtQtQtQtQtQt"};
