/* XPM */
static char *dummy[]={
"32 32 129 2",
"Qt c None",
".p c #000204",
".d c #000507",
".# c #00080c",
".c c #000c11",
".a c #001824",
".b c #001924",
".o c #002a3d",
".e c #002c40",
".y c #007ab2",
".f c #007cb5",
".w c #0083c0",
".q c #0085c3",
"#4 c #0092d6",
".z c #0695d7",
"#5 c #0095da",
"#6 c #0096da",
"#7 c #0097dc",
"#8 c #0098dc",
"#9 c #0099dd",
"a. c #009add",
".g c #0697da",
".h c #149ddc",
".i c #149ddd",
".j c #149edd",
".k c #149fde",
".l c #14a0df",
".m c #14a1df",
".n c #14a1e0",
".r c #54b8e5",
"#O c #54c2ee",
"#P c #54c3ef",
"#H c #54c4ef",
"#G c #54c5f0",
"#Q c #54c6f1",
"#R c #54c7f2",
"#F c #54c8f2",
"#E c #56c9f3",
".Y c #6cd1f5",
"#c c #86d5f4",
"#b c #86d6f4",
"#o c #86d6f5",
"#a c #87d8f6",
"## c #88d9f7",
"#g c #90dff8",
"#h c #91dff8",
"#X c #a2d8f1",
".G c #a4dbf4",
"#W c #a4dcf4",
".M c #a4ddf4",
"#u c #a4def5",
".K c #a4e0f7",
"#I c #a6def5",
".N c #a7ddf4",
".H c #a7def5",
"#m c #a7dff5",
".L c #a7e1f7",
"#S c #a7e3f8",
"#j c #a8e4f9",
".s c #a9dbf2",
"#D c #a9e4f9",
"#Y c #aadbf2",
"#Z c #aadcf2",
"#0 c #aadcf3",
"#3 c #aaddf3",
"#1 c #aaddf4",
"#2 c #aadef4",
".O c #aadff5",
"#T c #aadff6",
".P c #aae0f6",
".0 c #aae1f6",
".R c #aae1f7",
".T c #aae2f7",
".V c #aae2f8",
".1 c #aae3f8",
".Q c #aae3f9",
".6 c #aae4f9",
".X c #aae5f9",
"#t c #abe0f6",
".S c #abe4f9",
"#w c #abe5f9",
"#V c #ade0f6",
"#U c #ade2f7",
".U c #ade5f9",
".8 c #ade6f9",
"#s c #aee6f9",
"#C c #afe6f9",
".4 c #b0e7fa",
"#N c #b1e7fa",
".Z c #b2e7f9",
".5 c #b3e8fa",
"#L c #b4e3f6",
"#x c #b4e9fa",
"#q c #b5e9fa",
"#A c #b6e4f7",
"#r c #b6eafa",
"#M c #b8e8fa",
"#z c #b8e9fa",
".3 c #b9e9fa",
"#K c #bbe6f7",
"#B c #bde7f7",
".t c #bfe4f5",
".u c #bfe5f6",
".v c #bfe6f6",
"#v c #bfe8f9",
"#l c #bfe9f9",
"#k c #bfeafa",
"#y c #bfebfa",
".2 c #c0ebfa",
".9 c #c1edfb",
".B c #d2eef9",
".I c #d2eefa",
"#n c #d2effa",
".E c #d2effb",
".J c #d2f0fb",
"#. c #d4f1fc",
"#i c #d5f2fc",
".C c #d6effa",
"#d c #d6f0fa",
".F c #d6f1fb",
".7 c #d6f2fc",
"#p c #d7f2fc",
"#f c #d7f3fc",
"#J c #f4fafd",
".W c #f4fbfe",
".A c #f9fcfe",
".D c #f9fdfe",
"#e c #fafdfe",
".x c #ffffff",
"QtQtQtQtQtQtQtQtQtQtQtQtQtQtQtQtQtQtQtQtQtQtQtQtQtQtQtQtQtQtQtQt",
"QtQtQtQtQtQtQtQtQtQtQtQtQtQtQtQtQtQtQtQtQtQtQtQtQtQtQtQtQtQtQtQt",
"QtQtQtQtQtQtQtQtQtQtQtQtQtQtQtQtQtQtQtQtQtQtQtQtQtQtQtQtQtQtQtQt",
"QtQtQt.#.a.a.a.a.a.a.a.a.a.a.a.b.b.b.a.a.a.a.a.a.a.a.a.a.cQtQtQt",
".d.e.f.g.h.h.h.h.h.i.j.k.l.l.m.n.n.m.l.l.k.j.i.h.h.h.h.h.g.f.o.p",
".e.q.r.s.t.t.t.t.t.t.u.u.u.u.u.v.v.u.u.u.u.u.t.t.t.t.t.t.s.r.w.o",
".f.r.x.x.x.x.x.x.x.x.x.x.x.x.x.x.x.x.x.x.x.x.x.x.x.x.x.x.x.x.r.y",
".g.s.x.x.x.x.x.x.x.x.x.x.x.x.x.x.x.x.x.x.x.x.x.x.x.x.x.x.x.x.s.z",
".h.t.x.x.x.x.A.B.C.D.x.x.x.x.D.E.F.D.x.x.x.x.D.B.C.A.x.x.x.x.t.h",
".h.t.x.x.x.x.B.G.H.I.x.x.x.x.J.K.L.J.x.x.x.x.I.M.N.B.x.x.x.x.t.h",
".h.t.x.x.x.x.O.O.P.P.x.x.x.x.Q.Q.Q.Q.x.x.x.x.P.P.O.O.x.x.x.x.t.h",
".h.t.x.x.x.x.O.O.R.R.x.x.x.x.S.S.S.S.x.x.x.x.R.R.O.O.x.x.x.x.t.h",
".h.t.x.x.x.x.P.P.T.T.x.x.x.x.U.U.U.U.x.x.x.x.V.V.P.P.x.x.x.x.t.h",
".h.t.x.x.x.x.P.P.V.V.x.x.W.X.Y.Y.Y.Y.Z.W.x.x.V.V.0.0.x.x.x.x.t.h",
".h.t.x.x.x.x.R.R.1.1.x.x.2.3.x.x.x.x.3.2.x.x.Q.Q.R.R.x.x.x.x.t.h",
".h.t.x.x.x.x.R.R.Q.Q.x.x.4.4.x.x.x.x.5.5.x.x.Q.Q.R.R.x.x.x.x.t.h",
".h.t.x.x.x.x.T.T.6.6.x.x.7.8.9.9.9.9.8.7.D#.###a#b#c#d.D.x.x.t.h",
".h.t.x.x.x.x.T.T.6.6.x.x#e#f#g#h#h#g#f#e#i#j.2#k#l#l#m.I.x.x.t.h",
".h.t.x.x.D#n#c#o#a###p.D.x.x#q#q#r#r.x.x#s#s.x.x.x.x#t#t.x.x.t.h",
".h.t.x.x.I#u#v#l#k.2#w#..x.x#x#x#q#q.x.x#y#z.x.x.x.x#A#B.x.x.t.h",
".h.t.x.x.O.O.x.x.x.x#C#C.x.x.5.5.5.5.x.x.W#D#E#F#G#H#I#J.x.x.t.h",
".h.t.x.x#K#L.x.x.x.x#M#y.x.x#N#N#N#N.x.x.x.x.Q.Q.R.R.x.x.x.x.t.h",
".h.t.x.x#J#I#O#P#Q#R#S.W.x.x#C#C#C#C.x.x.x.x.1.1.0.0.x.x.x.x.t.h",
".h.t.x.x.x.x.P.P.V.V.x.x.x.x.U.U.U.U.x.x.x.x.V.V.P.P.x.x.x.x.t.h",
".h.t.x.x.x.x.O.O.R.R.x.x.x.x.S.S.S.S.x.x.x.x.R.R#T#T.x.x.x.x.t.h",
".h.t.x.x.x.x.O.O#U#U.x.x.x.x.Q.Q.U.U.x.x.x.x.P.P#V#V.x.x.x.x.t.h",
".h.t.x.x.x.x.B#W.M.I.x.x.x.x.J.K.K.J.x.x.x.x.I.M#W.B.x.x.x.x.t.h",
".h.t.x.x.x.x.A.B.B.D.x.x.x.x.D.J.J.D.x.x.x.x.D.B.B.A.x.x.x.x.t.h",
".g.s.x.x.x.x.x.x.x.x.x.x.x.x.x.x.x.x.x.x.x.x.x.x.x.x.x.x.x.x.s.z",
".f.r.x.x.x.x.x.x.x.x.x.x.x.x.x.x.x.x.x.x.x.x.x.x.x.x.x.x.x.x.r.y",
".o.w.r#X#Y#Y#Y#Y#Y#Z#0#0#1#1#1#2#2#1#1#1#3#0#Z#Y#Y#Y#Y#Y#X.r.w.o",
".p.o.y#4#5#5#5#5#5#5#6#7#8#9#9a.a.#9#9#8#7#6#5#5#5#5#5#5#4.y.o.p"};
